<svg width="874" height="311" viewBox="0 0 874 311" fill="none" xmlns="http://www.w3.org/2000/svg">
<circle cx="54.4903" cy="135.863" r="54.4903" fill="#DED4FC"/>
<rect x="307.127" y="74.7674" width="224.566" height="122.19" rx="61.0952" fill="#00CA72"/>
<rect x="524.669" y="137.515" width="154.122" height="154.122" rx="13.6332" transform="rotate(-45 524.669 137.515)" fill="#DED4FC"/>
<path d="M794.14 65.6526C798.416 63.1275 803.727 63.1275 808.003 65.6526L857.29 94.755C861.443 97.2073 863.992 101.671 863.992 106.494V165.235C863.992 170.058 861.443 174.522 857.29 176.974L808.003 206.076C803.727 208.601 798.416 208.601 794.14 206.076L744.853 176.974C740.7 174.522 738.152 170.058 738.152 165.235V106.494C738.152 101.671 740.7 97.2073 744.853 94.755L794.14 65.6526Z" fill="#97AEFF"/>
<rect x="108.975" y="233.284" width="198.146" height="198.147" rx="13.6332" transform="rotate(-90 108.975 233.284)" fill="#FFCC00"/>
<rect width="31.59" height="151.338" rx="15.795" transform="matrix(0.618048 -0.78614 0.784089 0.620648 408.142 216.654)" fill="#DED4FC"/>
<mask id="mask0_189_251" style="mask-type:alpha" maskUnits="userSpaceOnUse" x="224" y="44" width="191" height="192">
<ellipse cx="95.1776" cy="95.219" rx="95.1776" ry="95.219" transform="matrix(0.879689 -0.47555 0.471689 0.881765 190.726 101.085)" fill="#ECEFF8"/>
</mask>
<g mask="url(#mask0_189_251)">
<circle cx="228.536" cy="137.82" r="229.443" fill="#6161FF"/>
<rect x="307.122" y="74.7651" width="224.566" height="122.19" rx="61.0952" stroke="#F3F4F5" stroke-width="4.68251"/>
<rect x="108.975" y="233.283" width="198.146" height="198.147" rx="13.6332" transform="rotate(-90 108.975 233.283)" stroke="#F3F4F5" stroke-width="4.68251"/>
</g>
<path d="M275.935 44.4017C325.865 17.4102 388.043 36.122 414.82 86.1778C441.597 136.234 422.842 198.697 372.912 225.689C322.982 252.68 260.804 233.969 234.027 183.913C207.25 133.857 226.005 71.3933 275.935 44.4017Z" stroke="#DED4FC" stroke-width="29.2934"/>
</svg>
