<svg width="461" height="531" viewBox="0 0 461 531" fill="none" xmlns="http://www.w3.org/2000/svg">
<path d="M386 186.003H460.002" stroke="white" stroke-width="3"/>
<path d="M423.003 149L423.003 223.002" stroke="white" stroke-width="3"/>
<path d="M396.838 159.838L449.166 212.166" stroke="white" stroke-width="3"/>
<path d="M449.166 159.838L396.838 212.166" stroke="white" stroke-width="3"/>
<circle cx="151.073" cy="141.073" r="140.481" fill="#00CA72"/>
<path d="M10 140.767H291.534" stroke="black" stroke-width="3" stroke-dasharray="89.22 29.22"/>
<path d="M150.767 0L150.767 281.534" stroke="black" stroke-width="3" stroke-dasharray="89.22 29.22"/>
<path d="M51.2295 41.2292L250.304 240.303" stroke="black" stroke-width="3" stroke-dasharray="89.22 29.22"/>
<path d="M250.304 41.2292L51.2299 240.303" stroke="black" stroke-width="3" stroke-dasharray="89.22 29.22"/>
<ellipse cx="361.648" cy="431" rx="98.5" ry="99" fill="white"/>
<path d="M263 431.511H460.145" stroke="black" stroke-width="3"/>
<path d="M361.573 332.938L361.573 530.083" stroke="black" stroke-width="3"/>
<path d="M291.871 361.81L431.273 501.212" stroke="black" stroke-width="3"/>
<path d="M431.274 361.81L291.871 501.212" stroke="black" stroke-width="3"/>
<path d="M0 379.427H102.854" stroke="white" stroke-width="3" stroke-dasharray="89.22 39.22"/>
<path d="M51.4272 328L51.4272 430.854" stroke="white" stroke-width="3" stroke-dasharray="89.22 39.22"/>
<path d="M15.0625 343.063L87.7912 415.791" stroke="white" stroke-width="3" stroke-dasharray="89.22 39.22"/>
<path d="M87.7915 343.063L15.0628 415.791" stroke="white" stroke-width="3" stroke-dasharray="89.22 39.22"/>
</svg>
