<svg width="673" height="277" viewBox="0 0 673 277" fill="none" xmlns="http://www.w3.org/2000/svg">
<path d="M454.213 211.5C456.282 211.5 458.159 212.742 459.051 214.608C479.988 258.384 516.459 272.758 544.649 274.751C550.153 275.14 552.252 265.741 548.66 261.552C539.36 250.708 533.273 234.622 529.44 217.722C528.711 214.507 531.196 211.5 534.492 211.5H567.001C625.267 211.5 672.5 164.265 672.5 106C672.5 47.7344 625.266 0.500909 567.001 0.500741H318.999C260.734 0.500913 213.5 47.7344 213.5 106C213.5 164.265 260.733 211.5 318.999 211.5H454.213Z" fill="white"/>
<ellipse cx="104.907" cy="104.907" rx="104.907" ry="104.907" transform="matrix(-1 0 0 1 423.319 1.22858)" fill="#00CA72"/>
<path d="M106.999 212.498V213.998V213.998V212.498ZM1.5 106.999H0V106.999H1.5ZM106.999 1.5V0V0V1.5ZM320.001 1.5L320.001 0H320.001V1.5ZM425.5 106.999H427V106.999H425.5ZM320.001 212.498V213.998H320.001L320.001 212.498ZM129.469 218.727L130.931 219.061L129.469 218.727ZM114.32 275.489L114.425 276.986L114.32 275.489ZM110.309 262.291L111.448 263.267L110.309 262.291ZM199.797 215.596L198.445 214.946L199.797 215.596ZM199.797 215.596L198.445 214.946C177.77 257.943 141.932 272.034 114.214 273.993L114.32 275.489L114.425 276.986C142.979 274.967 179.912 260.411 201.149 216.246L199.797 215.596ZM110.309 262.291L111.448 263.267C120.934 252.206 127.075 235.95 130.931 219.061L129.469 218.727L128.006 218.393C124.19 235.108 118.187 250.801 109.17 261.314L110.309 262.291ZM124.418 212.498V210.998H106.999V212.498V213.998H124.418V212.498ZM106.999 212.498V210.998C49.562 210.998 3.00018 164.436 3 106.999H1.5H0C0.000213623 166.093 47.9052 213.998 106.999 213.998V212.498ZM1.5 106.999H3C3 49.5619 49.5619 3.00015 106.999 3V1.5V0C47.9051 0.000183105 0 47.905 0 106.999H1.5ZM106.999 1.5V3H320.001V1.5V0H106.999V1.5ZM320.001 1.5L320.001 3C377.438 3.00015 424 49.5619 424 106.999H425.5H427C427 47.905 379.095 0.000152588 320.001 0L320.001 1.5ZM425.5 106.999H424C424 164.436 377.438 210.998 320.001 210.998L320.001 212.498L320.001 213.998C379.095 213.998 427 166.093 427 106.999H425.5ZM320.001 212.498V210.998H204.63V212.498V213.998H320.001V212.498ZM129.469 218.727L130.931 219.061C131.887 214.871 128.646 210.998 124.418 210.998V212.498V213.998C126.79 213.998 128.518 216.149 128.006 218.393L129.469 218.727ZM114.32 275.489L114.214 273.993C112.538 274.112 111.042 272.769 110.351 270.215C109.672 267.703 110.073 264.87 111.448 263.267L110.309 262.291L109.17 261.314C106.953 263.9 106.607 267.861 107.455 270.998C108.292 274.094 110.597 277.256 114.425 276.986L114.32 275.489ZM199.797 215.596L201.149 216.246C201.807 214.878 203.172 213.998 204.63 213.998V212.498V210.998C201.96 210.998 199.577 212.593 198.445 214.946L199.797 215.596Z" fill="white"/>
<path d="M277.011 107.734L310.175 149.522L360.207 68.5661" stroke="#F3F4F5" stroke-width="3"/>
</svg>
