<svg width="844" height="615" viewBox="0 0 844 615" fill="none" xmlns="http://www.w3.org/2000/svg">
<path d="M73.4324 510.161L0 615H844L682.561 128.814C671.586 95.7612 625.177 94.8163 612.865 127.395L527.271 353.891C515.82 384.191 473.711 386.176 459.461 357.087L403.979 243.831C389.907 215.104 348.47 216.581 336.479 246.237L222.826 527.307C212.725 552.287 180.159 558.427 161.655 538.841L130.609 505.98C114.525 488.956 86.8684 490.978 73.4324 510.161Z" fill="#00CA72"/>
<mask id="mask0_189_250" style="mask-type:alpha" maskUnits="userSpaceOnUse" x="0" y="103" width="844" height="512">
<path d="M73.4324 510.161L0 615H844L682.561 128.814C671.586 95.7612 625.177 94.8163 612.865 127.395L527.271 353.891C515.82 384.191 473.711 386.176 459.461 357.087L403.979 243.831C389.907 215.104 348.47 216.581 336.479 246.237L222.826 527.307C212.725 552.287 180.159 558.427 161.655 538.841L130.609 505.98C114.525 488.956 86.8684 490.978 73.4324 510.161Z" fill="#00CA72"/>
</mask>
<g mask="url(#mask0_189_250)">
<g opacity="0.22">
<ellipse cx="704.125" cy="167.396" rx="76.3393" ry="71.1236" fill="#025231"/>
<ellipse cx="586.533" cy="167.396" rx="76.3393" ry="71.1236" fill="#025231"/>
<circle cx="639.955" cy="95.9527" r="110.953" fill="#025231"/>
<ellipse cx="304.409" cy="199.164" rx="62.5888" ry="102.892" fill="#025231"/>
<ellipse cx="437.173" cy="199.164" rx="62.5888" ry="102.892" fill="#025231"/>
<ellipse cx="370.792" cy="199.164" rx="62.5888" ry="102.892" fill="#025231"/>
<circle cx="103.841" cy="438.139" r="107.634" fill="#025231"/>
</g>
</g>
<path d="M152.948 436H104V466.56H152.948L137.668 451.28L152.948 436Z" fill="#DED4FC"/>
<path d="M104.518 436V498.156" stroke="black" stroke-width="1.80163" stroke-linejoin="round"/>
<path d="M431 143.156H368V182.49H431L411.333 162.823L431 143.156Z" fill="#DED4FC"/>
<path d="M368.666 143.156V223.156" stroke="black" stroke-width="2.31884" stroke-linejoin="round"/>
<path d="M732.127 0H647V53.1482H732.127L705.553 26.5741L732.127 0Z" fill="#DED4FC"/>
<path d="M647.9 0V108.098" stroke="black" stroke-width="1.80163" stroke-linejoin="round"/>
</svg>
