<svg width="593" height="567" viewBox="0 0 593 567" fill="none" xmlns="http://www.w3.org/2000/svg">
<path d="M283.28 102.21C182.342 102.21 100.514 184.091 100.514 285.099C100.514 386.106 182.342 467.987 283.28 467.987C384.219 467.987 466.047 386.106 466.047 285.099C466.047 184.091 384.218 102.21 283.28 102.21Z" stroke="white" stroke-width="2.37"/>
<path d="M284.765 1.18457C129.76 1.18462 4.09155 127.575 4.09155 283.5C4.09155 439.425 129.76 565.815 284.765 565.815C439.771 565.815 565.44 439.425 565.44 283.5C565.44 127.575 439.771 1.18457 284.765 1.18457Z" stroke="white" stroke-width="2.37"/>
<ellipse cx="509.367" cy="124.487" rx="24.9675" ry="24.9841" fill="#DED4FC"/>
<ellipse cx="549.94" cy="205.687" rx="24.9675" ry="24.9841" fill="#97AEFF"/>
<ellipse cx="41.8336" cy="414.814" rx="24.9675" ry="24.9841" fill="#DED4FC"/>
<path d="M485.647 446.039C483.684 444.905 482.476 442.81 482.476 440.542L482.476 398.323C482.476 396.054 483.685 393.958 485.649 392.823L522.185 371.715C524.149 370.581 526.568 370.581 528.531 371.715L565.07 392.825C567.033 393.958 568.241 396.054 568.241 398.321L568.241 440.54C568.241 442.809 567.032 444.906 565.068 446.04L528.532 467.148C526.568 468.283 524.149 468.283 522.186 467.148L485.647 446.039Z" fill="#FFCC00"/>
<path d="M169.442 437.556V456.548" stroke="#97AEFF" stroke-width="4.76052" stroke-miterlimit="10" stroke-linecap="round"/>
<path d="M156.993 430.377L140.557 439.86" stroke="#97AEFF" stroke-width="4.76052" stroke-miterlimit="10" stroke-linecap="round"/>
<path d="M156.993 416.003L140.557 406.521" stroke="#97AEFF" stroke-width="4.76052" stroke-miterlimit="10" stroke-linecap="round"/>
<path d="M169.441 408.794V389.828" stroke="#97AEFF" stroke-width="4.76052" stroke-miterlimit="10" stroke-linecap="round"/>
<path d="M181.89 416.001L198.326 406.491" stroke="#97AEFF" stroke-width="4.76052" stroke-miterlimit="10" stroke-linecap="round"/>
<path d="M181.89 430.377L198.326 439.86" stroke="#97AEFF" stroke-width="4.76052" stroke-miterlimit="10" stroke-linecap="round"/>
<rect width="51.9193" height="102.639" rx="6.34736" transform="matrix(-0.869985 -0.493078 0.492583 -0.870265 45.1691 206.088)" fill="#FFCC00"/>
<path d="M397.651 121.768C398.673 119.004 402.582 119.004 403.605 121.768L408.688 135.514C409.009 136.383 409.694 137.068 410.563 137.39L424.306 142.479C427.068 143.501 427.068 147.408 424.306 148.431L410.563 153.52C409.694 153.842 409.009 154.527 408.688 155.395L403.605 169.142C402.582 171.906 398.673 171.906 397.651 169.142L392.568 155.395C392.247 154.527 391.562 153.842 390.693 153.52L376.95 148.431C374.188 147.408 374.188 143.501 376.95 142.479L390.693 137.39C391.562 137.068 392.247 136.383 392.568 135.514L397.651 121.768Z" fill="#FFCC00"/>
<path d="M239.025 318.026C233.782 318.022 228.955 315.291 226.418 310.896C223.88 306.5 224.032 301.132 226.815 296.875L252.777 257.164C255.444 252.84 260.349 250.243 265.589 250.38C270.83 250.518 275.579 253.369 277.995 257.826C280.41 262.284 280.111 267.646 277.213 271.831L251.266 311.542C248.627 315.582 244 318.033 239.025 318.026Z" fill="#FB275D"/>
<path d="M283.259 318.026C278.025 318.022 273.205 315.298 270.672 310.913C268.139 306.528 268.291 301.172 271.069 296.925L296.981 257.309C299.606 252.921 304.528 250.262 309.808 250.379C315.087 250.496 319.876 253.37 322.287 257.868C324.697 262.367 324.342 267.767 321.361 271.941L295.449 311.557C292.82 315.579 288.215 318.023 283.259 318.026V318.026Z" fill="#FFCC00"/>
<path d="M326.385 318.107C334.314 318.107 340.742 311.69 340.742 303.775C340.742 295.859 334.314 289.442 326.385 289.442C318.456 289.442 312.028 295.859 312.028 303.775C312.028 311.69 318.456 318.107 326.385 318.107Z" fill="#00CA72"/>
</svg>
