<svg width="60" height="60" viewBox="0 0 60 60" fill="none" xmlns="http://www.w3.org/2000/svg">
<path fill-rule="evenodd" clip-rule="evenodd" d="M29.8432 4.8183L31.4631 5.14229L32.7676 5.46628L34.0635 6.11426L35.368 7.08621L36.34 8.39069L36.9879 9.68665L37.3119 10.9911L37.6444 12.6111L37.3119 13.9155L36.9879 15.5355L36.34 16.8399L35.368 17.8119L34.0635 18.7839L32.7676 19.4404L31.4631 19.7644L29.8432 20.0883L28.5387 19.7644L26.9188 19.4404L25.6143 18.7839L24.6423 17.8119L23.6703 16.8399L23.0224 15.5355L22.6898 13.9155L22.3659 12.6111L22.6898 10.9911L23.0224 9.68665L23.6703 8.39069L24.6423 7.08621L25.6143 6.11426L26.9188 5.46628L28.5387 5.14229L29.8432 4.8183Z" stroke="#6161FF" stroke-width="4" stroke-miterlimit="10" stroke-linecap="round" stroke-linejoin="round"/>
<path d="M29.5168 55.1817V20.0888" stroke="#6161FF" stroke-width="4" stroke-miterlimit="10" stroke-linecap="round" stroke-linejoin="round"/>
<path d="M11.9718 30.1577H4.81851V32.7581L5.47501 35.0345L6.12299 37.6349L6.77097 39.9114L7.74292 41.8553L9.04739 44.1317L10.6673 46.0842L12.2958 47.7041L13.9157 49.3326L15.8682 50.9525L17.8206 52.257L20.0971 53.229L22.365 53.8769L24.9654 54.5249L27.2419 55.1814H29.8423H32.4427L35.0431 54.5249L37.311 53.8769L39.5875 53.229L41.8639 52.257L44.1404 50.9525L45.7603 49.3326L47.7127 47.7041L49.3327 46.0842L50.6371 44.1317L51.9331 41.8553L53.2376 39.9114L53.8856 37.6349L54.5335 35.0345L54.8575 32.7581L55.1815 30.1577H47.0648" stroke="#6161FF" stroke-width="4" stroke-miterlimit="10" stroke-linecap="round" stroke-linejoin="round"/>
</svg>
