<svg width="60" height="60" viewBox="0 0 60 60" fill="none" xmlns="http://www.w3.org/2000/svg">
<path fill-rule="evenodd" clip-rule="evenodd" d="M9.16235 5.97078H12.3541H12.7645L14.5884 6.7005L15.2722 7.65797L15.5459 8.56979L15.5916 9.16254V12.3543V12.7647L14.8164 14.5429L13.8589 15.2724L12.9469 15.5461H12.3541H9.16235H8.75195L6.97375 14.8166L6.24426 13.8591L5.97058 12.947V12.3543V9.16254V8.75215L6.70032 6.92825L7.65784 6.24446L8.56958 5.97078H9.16235Z" stroke="#6161FF" stroke-width="4" stroke-miterlimit="10" stroke-linecap="round" stroke-linejoin="round"/>
<path fill-rule="evenodd" clip-rule="evenodd" d="M28.405 5.97078H31.5968H32.0072L33.7854 6.7005L34.5151 7.65797L34.7886 8.56979V9.16254V12.3543V12.7647L34.0591 14.5429L33.1017 15.2724L32.1896 15.5461H31.5968H28.405H27.9946L26.2164 14.8166L25.4869 13.8591L25.2133 12.947V12.3543V9.16254V8.75215L25.943 6.92825L26.9005 6.24446L27.8123 5.97078H28.405Z" stroke="#6161FF" stroke-width="4" stroke-miterlimit="10" stroke-linecap="round" stroke-linejoin="round"/>
<path fill-rule="evenodd" clip-rule="evenodd" d="M47.6459 5.97078H50.8376H51.248L53.0264 6.7005L53.7557 7.65797L54.0294 8.56979V9.16254V12.3543V12.7647L53.2997 14.5429L52.3423 15.2724L51.4304 15.5461H50.8376H47.6459H47.2356L45.4116 14.8166L44.7275 13.8591L44.4542 12.947L44.4086 12.3543V9.16254V8.75215L45.1836 6.92825L46.1411 6.24446L47.0532 5.97078H47.6459Z" stroke="#6161FF" stroke-width="4" stroke-miterlimit="10" stroke-linecap="round" stroke-linejoin="round"/>
<path fill-rule="evenodd" clip-rule="evenodd" d="M9.16235 25.1666H12.3541H12.7645L14.5884 25.9417L15.2722 26.8992L15.5459 27.811L15.5916 28.4037V31.5955V32.0059L14.8164 33.7841L13.8589 34.5138L12.9469 34.7872H12.3541H9.16235H8.75195L6.97375 34.0578L6.24426 33.1003L5.97058 32.1882V31.5955V28.4037V27.9933L6.70032 26.1697L7.65784 25.4857L8.56958 25.212L9.16235 25.1666Z" stroke="#6161FF" stroke-width="4" stroke-miterlimit="10" stroke-linecap="round" stroke-linejoin="round"/>
<path fill-rule="evenodd" clip-rule="evenodd" d="M28.405 25.1666H31.5968H32.0072L33.7854 25.9417L34.5151 26.8992L34.7886 27.811V28.4037V31.5955V32.0059L34.0591 33.7841L33.1017 34.5138L32.1896 34.7872H31.5968H28.405H27.9946L26.2164 34.0578L25.4869 33.1003L25.2133 32.1882V31.5955V28.4037V27.9933L25.943 26.1697L26.9005 25.4857L27.8123 25.212L28.405 25.1666Z" stroke="#6161FF" stroke-width="4" stroke-miterlimit="10" stroke-linecap="round" stroke-linejoin="round"/>
<path fill-rule="evenodd" clip-rule="evenodd" d="M47.6459 25.1666H50.8376H51.248L53.0264 25.9417L53.7557 26.8992L54.0294 27.811V28.4037V31.5955V32.0059L53.2997 33.7841L52.3423 34.5138L51.4304 34.7872H50.8376H47.6459H47.2356L45.4116 34.0578L44.7275 33.1003L44.4542 32.1882L44.4086 31.5955V28.4037V27.9933L45.1836 26.1697L46.1411 25.4857L47.0532 25.212L47.6459 25.1666Z" stroke="#6161FF" stroke-width="4" stroke-miterlimit="10" stroke-linecap="round" stroke-linejoin="round"/>
<path fill-rule="evenodd" clip-rule="evenodd" d="M9.16235 44.4083H12.3541H12.7645L14.5884 45.1834L15.2722 46.1409L15.5459 47.0529L15.5916 47.6457V50.8375V51.2478L14.8164 53.0261L13.8589 53.7555L12.9469 54.0292H12.3541H9.16235H8.75195L6.97375 53.2995L6.24426 52.342L5.97058 51.4302V50.8375V47.6457V47.2353L6.70032 45.4114L7.65784 44.7274L8.56958 44.4539L9.16235 44.4083Z" stroke="#6161FF" stroke-width="4" stroke-miterlimit="10" stroke-linecap="round" stroke-linejoin="round"/>
<path fill-rule="evenodd" clip-rule="evenodd" d="M28.405 44.4083H31.5968H32.0072L33.7854 45.1834L34.5151 46.1409L34.7886 47.0529V47.6457V50.8375V51.2478L34.0591 53.0261L33.1017 53.7555L32.1896 54.0292H31.5968H28.405H27.9946L26.2164 53.2995L25.4869 52.342L25.2133 51.4302V50.8375V47.6457V47.2353L25.943 45.4114L26.9005 44.7274L27.8123 44.4539L28.405 44.4083Z" stroke="#6161FF" stroke-width="4" stroke-miterlimit="10" stroke-linecap="round" stroke-linejoin="round"/>
<path fill-rule="evenodd" clip-rule="evenodd" d="M47.6459 44.4083H50.8376H51.248L53.0264 45.1834L53.7557 46.1409L54.0294 47.0529V47.6457V50.8375V51.2478L53.2997 53.0261L52.3423 53.7555L51.4304 54.0292H50.8376H47.6459H47.2356L45.4116 53.2995L44.7275 52.342L44.4542 51.4302L44.4086 50.8375V47.6457V47.2353L45.1836 45.4114L46.1411 44.7274L47.0532 44.4539L47.6459 44.4083Z" stroke="#6161FF" stroke-width="4" stroke-miterlimit="10" stroke-linecap="round" stroke-linejoin="round"/>
</svg>
