<svg width="60" height="60" viewBox="0 0 60 60" fill="none" xmlns="http://www.w3.org/2000/svg">
<g clip-path="url(#clip0_1_2747)">
<path d="M33.3215 42.1843L32.4849 43.178L30.6023 44.7468L28.406 45.8448L26.1051 46.4723L23.7518 46.5247L21.3986 46.1588L19.1499 45.2174L17.1105 43.7531L16.2216 42.8117L15.437 41.8184L14.2345 39.6218L13.6067 37.3209L13.45 34.9155L13.8682 32.5622L14.7051 30.366L16.0647 28.3786L17.895 26.6531L18.9932 25.9733" stroke="#6161FF" stroke-width="4" stroke-miterlimit="10" stroke-linecap="round" stroke-linejoin="round"/>
<path d="M46.5511 35.4908V37.1643L46.0282 40.4066L45.0868 43.4917L43.7272 46.4201L41.9493 49.0873L39.8054 51.4403L37.2954 53.5321L34.4714 55.2056L32.955 55.8854L31.3859 56.5129L28.196 57.2974L25.0061 57.5589L21.7642 57.4018L18.6263 56.7744L15.5935 55.7286L12.7695 54.2119L10.1027 52.2772L8.89978 51.1267L7.74927 49.9239L5.81457 47.257L4.29785 44.3807L3.19983 41.4L2.62463 38.21L2.41528 35.0201L2.72913 31.7781L3.51367 28.6403L4.14111 27.0715L4.82092 25.5551L6.49438 22.7311L8.53381 20.2211L10.9392 18.0772L13.6061 16.299L16.5348 14.9394L19.62 13.9984L22.8622 13.4753L24.5354 13.423" stroke="#6161FF" stroke-width="4" stroke-miterlimit="10" stroke-linecap="round" stroke-linejoin="round"/>
<path d="M28.1433 31.4117L57.5846 2.44104" stroke="#6161FF" stroke-width="4" stroke-miterlimit="10" stroke-linecap="round" stroke-linejoin="round"/>
<path d="M28.1433 20.3781V31.4118H39.1771" stroke="#6161FF" stroke-width="4" stroke-miterlimit="10" stroke-linecap="round" stroke-linejoin="round"/>
</g>
<defs>
<clipPath id="clip0_1_2747">
<rect width="60" height="60" fill="white"/>
</clipPath>
</defs>
</svg>
