<svg width="60" height="60" viewBox="0 0 60 60" fill="none" xmlns="http://www.w3.org/2000/svg">
<path d="M54.6813 5.09668L4.39844 55.3795" stroke="#6161FF" stroke-width="4" stroke-miterlimit="10" stroke-linecap="round" stroke-linejoin="round"/>
<path d="M54.6804 20.1721V5.09668H39.605" stroke="#6161FF" stroke-width="4" stroke-miterlimit="10" stroke-linecap="round" stroke-linejoin="round"/>
<path fill-rule="evenodd" clip-rule="evenodd" d="M7.73633 18.5024V19.1703L8.02271 20.5059L8.54736 21.6985L9.26306 22.7958L10.1696 23.7023L11.2189 24.4178L12.4592 24.9427L13.7473 25.1813L14.463 25.2288L15.131 25.1813L16.4666 24.9427L17.6592 24.4178L18.7087 23.7023L19.6152 22.7958L20.3309 21.6985L20.8556 20.5059L21.142 19.1703V18.5024V17.8344L20.8556 16.4985L20.3309 15.3059L19.6152 14.2086L18.7087 13.3024L17.6592 12.5867L16.4666 12.1098L15.131 11.8234L14.463 11.7756L13.7473 11.8234L12.4592 12.1098L11.2189 12.5867L10.1696 13.3024L9.26306 14.2086L8.54736 15.3059L8.02271 16.4985L7.73633 17.8344V18.5024Z" stroke="#6161FF" stroke-width="4" stroke-miterlimit="10" stroke-linecap="round" stroke-linejoin="round"/>
<path fill-rule="evenodd" clip-rule="evenodd" d="M34.5488 45.3612L34.5966 46.0289L34.8829 47.317L35.3597 48.5574L36.0754 49.6069L37.0295 50.5135L38.079 51.2289L39.2719 51.7538L40.6075 52.0402H41.2755H41.9912L43.2791 51.7538L44.4719 51.2289L45.569 50.5135L46.4755 49.6069L47.1912 48.5574L47.7158 47.317L47.9543 46.0289L48.0022 45.3612L47.9543 44.6455L47.7158 43.3574L47.1912 42.117L46.4755 41.0675L45.569 40.1613L44.4719 39.4455L43.2791 38.9209L41.9912 38.6345H41.2755H40.6075L39.2719 38.9209L38.079 39.4455L37.0295 40.1613L36.0754 41.0675L35.3597 42.117L34.8829 43.3574L34.5966 44.6455L34.5488 45.3612Z" stroke="#6161FF" stroke-width="4" stroke-miterlimit="10" stroke-linecap="round" stroke-linejoin="round"/>
</svg>
