<svg width="60" height="60" viewBox="0 0 60 60" fill="none" xmlns="http://www.w3.org/2000/svg">
<g clip-path="url(#clip0_1_1333)">
<path d="M17.0648 13.3218L7.23389 23.1006" stroke="#6161FF" stroke-width="4" stroke-miterlimit="10" stroke-linecap="round" stroke-linejoin="round"/>
<path d="M35.2627 16.2505L23.8103 13.2178" stroke="#6161FF" stroke-width="4" stroke-miterlimit="10" stroke-linecap="round" stroke-linejoin="round"/>
<path d="M50.1663 7.83105L41.3811 14.6815" stroke="#6161FF" stroke-width="4" stroke-miterlimit="10" stroke-linecap="round" stroke-linejoin="round"/>
<path fill-rule="evenodd" clip-rule="evenodd" d="M16.7505 11.7534L16.8029 12.5378L17.3779 13.8452L18.3716 14.8388L19.6789 15.4139L20.4111 15.4662L21.1953 15.4139L22.5029 14.8388L23.4963 13.8452L24.0717 12.5378L24.1237 11.7534L24.0717 11.0212L23.4963 9.71393L22.5029 8.72021L21.1953 8.14514L20.4111 8.09277L19.6789 8.14514L18.3716 8.72021L17.3779 9.71393L16.8029 11.0212L16.7505 11.7534Z" stroke="#6161FF" stroke-width="4" stroke-miterlimit="10" stroke-linecap="round" stroke-linejoin="round"/>
<path fill-rule="evenodd" clip-rule="evenodd" d="M49.8535 6.26215L49.9056 6.99426L50.4286 8.35394L51.4222 9.34759L52.7819 9.8703L53.514 9.92267L54.2459 9.8703L55.6055 9.34759L56.5992 8.35394L57.1223 6.99426L57.1746 6.26215L57.1223 5.52997L56.5992 4.17035L55.6055 3.17694L54.2459 2.65393L53.514 2.60156L52.7819 2.65393L51.4222 3.17694L50.4286 4.17035L49.9056 5.52997L49.8535 6.26215Z" stroke="#6161FF" stroke-width="4" stroke-miterlimit="10" stroke-linecap="round" stroke-linejoin="round"/>
<path fill-rule="evenodd" clip-rule="evenodd" d="M35.1055 17.2963L35.1578 18.0285L35.7332 19.3358L36.7266 20.3815L38.0339 20.9045L38.8184 20.9568L39.5505 20.9045L40.8578 20.3815L41.8515 19.3358L42.4266 18.0285L42.4789 17.2963L42.4266 16.5641L41.8515 15.2045L40.8578 14.2108L39.5505 13.6881L38.8184 13.6357L38.0339 13.6881L36.7266 14.2108L35.7332 15.2045L35.1578 16.5641L35.1055 17.2963Z" stroke="#6161FF" stroke-width="4" stroke-miterlimit="10" stroke-linecap="round" stroke-linejoin="round"/>
<path fill-rule="evenodd" clip-rule="evenodd" d="M2.05688 26.4997L2.10925 27.2319L2.63232 28.5392L3.62567 29.5328L4.98529 30.1082L5.71747 30.1603L6.44965 30.1082L7.80927 29.5328L8.80298 28.5392L9.32568 27.2319L9.37805 26.4997L9.32568 25.7155L8.80298 24.4082L7.80927 23.4146L6.44965 22.8392L5.71747 22.7871L4.98529 22.8392L3.62567 23.4146L2.63232 24.4082L2.10925 25.7155L2.05688 26.4997Z" stroke="#6161FF" stroke-width="4" stroke-miterlimit="10" stroke-linecap="round" stroke-linejoin="round"/>
<path d="M2.05688 57.7192H57.1746" stroke="#6161FF" stroke-width="4" stroke-miterlimit="10" stroke-linecap="round" stroke-linejoin="round"/>
<path fill-rule="evenodd" clip-rule="evenodd" d="M14.9206 44.2798H7.54706H7.18115L6.50134 44.5936L6.0307 45.0643L5.76917 45.7441L5.7168 46.11V57.7195H16.7509V46.11L16.6985 45.7441L16.437 45.0643L15.9663 44.5413L15.2865 44.2798H14.9206Z" stroke="#6161FF" stroke-width="4" stroke-miterlimit="10" stroke-linecap="round" stroke-linejoin="round"/>
<path fill-rule="evenodd" clip-rule="evenodd" d="M33.2766 27.0752H25.9555L25.5896 27.1276L24.9097 27.389L24.4391 27.9117L24.1252 28.5392V28.9578V57.7193H35.1069V28.9578V28.5392L34.8454 27.9117L34.3227 27.389L33.6429 27.1276L33.2766 27.0752Z" stroke="#6161FF" stroke-width="4" stroke-miterlimit="10" stroke-linecap="round" stroke-linejoin="round"/>
<path fill-rule="evenodd" clip-rule="evenodd" d="M51.6823 36.9062H44.3088H43.9429L43.3151 37.2198L42.7924 37.6905L42.5309 38.3703L42.4785 38.7366V57.7192H53.5126V38.7366V38.3703L53.1987 37.6905L52.728 37.2198L52.0482 36.9062H51.6823Z" stroke="#6161FF" stroke-width="4" stroke-miterlimit="10" stroke-linecap="round" stroke-linejoin="round"/>
</g>
<defs>
<clipPath id="clip0_1_1333">
<rect width="60" height="60" fill="white"/>
</clipPath>
</defs>
</svg>
