<svg width="60" height="60" viewBox="0 0 60 60" fill="none" xmlns="http://www.w3.org/2000/svg">
<g clip-path="url(#clip0_1_1734)">
<path d="M2.32812 54.0586H57.4458" stroke="#6161FF" stroke-width="4" stroke-miterlimit="10" stroke-linecap="round" stroke-linejoin="round"/>
<path fill-rule="evenodd" clip-rule="evenodd" d="M15.1935 28.3301H7.82007H7.4541L6.77429 28.6439L6.30359 29.1146L5.98975 29.7944V30.1603V54.0588H17.0238V30.1603L16.9714 29.7944L16.71 29.1146L16.2393 28.6439L15.5594 28.3301H15.1935Z" stroke="#6161FF" stroke-width="4" stroke-miterlimit="10" stroke-linecap="round" stroke-linejoin="round"/>
<path fill-rule="evenodd" clip-rule="evenodd" d="M33.548 6.26221H26.2268H25.8608L25.181 6.57605L24.6581 7.04669L24.3965 7.7265V8.09247V54.0587H35.3782V8.09247V7.7265L35.1167 7.04669L34.594 6.57605L33.9142 6.26221H33.548Z" stroke="#6161FF" stroke-width="4" stroke-miterlimit="10" stroke-linecap="round" stroke-linejoin="round"/>
<path fill-rule="evenodd" clip-rule="evenodd" d="M51.9552 17.2964H44.5818H44.2158L43.536 17.6099L43.0653 18.0806L42.8038 18.7604L42.7515 19.1266V54.0588H53.7855V19.1266V18.7604L53.4717 18.0806L53.001 17.6099L52.3212 17.2964H51.9552Z" stroke="#6161FF" stroke-width="4" stroke-miterlimit="10" stroke-linecap="round" stroke-linejoin="round"/>
</g>
<defs>
<clipPath id="clip0_1_1734">
<rect width="60" height="60" fill="white"/>
</clipPath>
</defs>
</svg>
