<svg width="60" height="60" viewBox="0 0 60 60" fill="none" xmlns="http://www.w3.org/2000/svg">
<g clip-path="url(#clip0_1_737)">
<path d="M12.4579 45.1081H7.25696H6.28503L5.30457 44.7841L3.68457 43.4881L2.7041 42.1836L2.38013 41.2117V40.2397V20.0928V19.1123L2.7041 18.1404L3.68457 16.5204L5.30457 15.216H6.28503L7.25696 14.892H14.7343" stroke="#6161FF" stroke-width="4" stroke-miterlimit="10" stroke-linecap="round" stroke-linejoin="round"/>
<path d="M37.4713 14.892H42.3481L43.3201 15.216H44.3005L45.9205 16.5204L46.8925 18.1404L47.225 19.1123L47.549 20.0928V40.2397L47.225 41.2117L46.8925 42.1836L45.9205 43.4881L44.3005 44.7841L43.3201 45.1081H42.3481H34.8708" stroke="#6161FF" stroke-width="4" stroke-miterlimit="10" stroke-linecap="round" stroke-linejoin="round"/>
<path d="M57.6199 32.4388V27.5619" stroke="#6161FF" stroke-width="4" stroke-miterlimit="10" stroke-linecap="round" stroke-linejoin="round"/>
<path d="M28.6982 14.892L18.6292 30.162H33.5752L23.506 45.1081" stroke="#6161FF" stroke-width="4" stroke-miterlimit="10" stroke-linecap="round" stroke-linejoin="round"/>
</g>
<defs>
<clipPath id="clip0_1_737">
<rect width="60" height="60" fill="white"/>
</clipPath>
</defs>
</svg>
