<svg width="60" height="60" viewBox="0 0 60 60" fill="none" xmlns="http://www.w3.org/2000/svg">
<path fill-rule="evenodd" clip-rule="evenodd" d="M4.56836 7.07227H19.5144L21.4669 7.39626L23.4193 8.04422L25.0393 8.6922L26.6677 9.99667L27.9636 11.6166L28.9442 13.2451L29.2682 15.189L29.5922 17.1414V52.2344L29.2682 50.9299L28.9442 49.31L28.2876 48.0055L27.3157 47.0336L26.3438 46.0616L25.0393 45.4136L23.4193 44.7571H22.1149H4.56836V7.07227Z" stroke="#6161FF" stroke-width="4" stroke-miterlimit="10" stroke-linecap="round" stroke-linejoin="round"/>
<path fill-rule="evenodd" clip-rule="evenodd" d="M54.6066 7.07227H39.6605L37.7166 7.39626L35.764 8.04422L34.1356 8.6922L32.5157 9.99667L31.2112 11.6166L30.2393 13.2451L29.9153 15.189L29.5913 17.1414V52.2344V50.9299L30.2393 49.31L30.8872 48.0055L31.8677 47.0336L32.8397 46.0616L34.1356 45.4136L35.4401 44.7571H37.0601H54.6066V7.07227Z" stroke="#6161FF" stroke-width="4" stroke-miterlimit="10" stroke-linecap="round" stroke-linejoin="round"/>
</svg>
