<svg width="60" height="60" viewBox="0 0 60 60" fill="none" xmlns="http://www.w3.org/2000/svg">
<g clip-path="url(#clip0_1_663)">
<path fill-rule="evenodd" clip-rule="evenodd" d="M29.6546 54.8449V12.1212L29.4454 11.912L27.6675 10.6045L25.5237 9.40195L22.4905 8.14676L18.4637 6.89185L13.3391 5.89816L7.06378 5.27072L3.35114 5.16602L2.82812 5.27072L2.46216 5.53223L2.14832 5.95053L2.09595 6.47357V46.5827L2.14832 47.1054L2.82812 47.7852L3.29877 47.89L7.01172 47.9944L13.3391 48.6221L18.4637 49.6155L22.4905 50.8184L25.5237 52.0736L27.6675 53.2761L29.4454 54.6357L29.6546 54.8449Z" stroke="#6161FF" stroke-width="4" stroke-miterlimit="10" stroke-linecap="round" stroke-linejoin="round"/>
<path d="M22.2809 28.0183L19.143 27.0247L12.7111 25.7174L9.4165 25.4038" stroke="#6161FF" stroke-width="4" stroke-miterlimit="10" stroke-linecap="round" stroke-linejoin="round"/>
<path d="M22.2809 38.2675L19.143 37.2741L12.7111 36.019L9.4165 35.7051" stroke="#6161FF" stroke-width="4" stroke-miterlimit="10" stroke-linecap="round" stroke-linejoin="round"/>
<path d="M37.0276 28.0183L40.1652 27.0247L46.5974 25.7174L49.892 25.4038" stroke="#6161FF" stroke-width="4" stroke-miterlimit="10" stroke-linecap="round" stroke-linejoin="round"/>
<path d="M37.0276 38.2675L40.1652 37.2741L46.5974 36.019L49.892 35.7051" stroke="#6161FF" stroke-width="4" stroke-miterlimit="10" stroke-linecap="round" stroke-linejoin="round"/>
<path fill-rule="evenodd" clip-rule="evenodd" d="M29.6545 54.8449V12.1212L29.8637 11.912L31.6419 10.6045L33.7858 9.40195L36.8189 8.14676L40.8454 6.89185L45.9703 5.89816L52.2454 5.27072L55.9583 5.16602L56.4813 5.27072L56.8473 5.53223L57.1611 5.95053L57.2135 6.47357V46.5827L57.1611 47.1054L56.4813 47.7852L56.0107 47.89L52.2977 47.9944L45.9703 48.6221L40.8454 49.6155L36.8189 50.8184L33.7858 52.0736L31.6419 53.2761L29.8637 54.6357L29.6545 54.8449Z" stroke="#6161FF" stroke-width="4" stroke-miterlimit="10" stroke-linecap="round" stroke-linejoin="round"/>
</g>
<defs>
<clipPath id="clip0_1_663">
<rect width="60" height="60" fill="white"/>
</clipPath>
</defs>
</svg>
