<svg width="60" height="60" viewBox="0 0 60 60" fill="none" xmlns="http://www.w3.org/2000/svg">
<g clip-path="url(#clip0_1_874)">
<path fill-rule="evenodd" clip-rule="evenodd" d="M32.3239 56.444L34.6769 54.5613L39.7494 51.3714L45.2403 48.966L51.045 47.3449L54.0255 46.9266L54.7576 46.7698L55.9604 46.09L56.9018 45.0439L57.3724 43.7367L57.4248 43.0045V6.08527L57.3724 5.19632L56.6403 3.6799L55.4374 2.63385L53.8163 2.11084L52.9274 2.16321L50.1037 2.68622L44.6128 4.30737L39.3835 6.71274L34.5724 9.79822L32.3239 11.5761L31.7485 11.9421L30.4936 12.3607H29.2384L27.9835 11.9421L27.4081 11.5761L25.1595 9.79822L20.3484 6.71274L15.1191 4.35971L9.6283 2.68622L6.80463 2.16321L5.91534 2.11084L4.29449 2.63385L3.03931 3.6799L2.3595 5.19632L2.30713 6.08527V43.0045L2.3595 43.7367L2.8302 45.0439L3.77148 46.09L4.9743 46.7698L5.70618 46.9266L8.68695 47.3449L14.4917 48.966L19.9825 51.3714L25.0548 54.5613L27.4081 56.444L27.9835 56.8622L29.2384 57.2809H30.4936L31.7485 56.8622L32.3239 56.444Z" stroke="#6161FF" stroke-width="4" stroke-miterlimit="10" stroke-linecap="round" stroke-linejoin="round"/>
<path d="M29.8657 12.4126V57.2808" stroke="#6161FF" stroke-width="4" stroke-miterlimit="10" stroke-linecap="round" stroke-linejoin="round"/>
</g>
<defs>
<clipPath id="clip0_1_874">
<rect width="60" height="60" fill="white"/>
</clipPath>
</defs>
</svg>
