<svg width="60" height="60" viewBox="0 0 60 60" fill="none" xmlns="http://www.w3.org/2000/svg">
<path fill-rule="evenodd" clip-rule="evenodd" d="M52.5811 28.866V31.134L51.9331 33.7344L51.2852 36.0108L50.3132 38.2873L48.6847 40.8877L47.0562 43.1641L44.7883 45.108L42.5119 47.0605L39.9114 48.3564L37.311 49.3369L34.3867 49.9849H31.1382H28.8618L26.2614 49.6609L23.9935 48.6804L21.717 47.7085L7.41895 52.5853L12.2958 38.2873L11.3153 36.0108L10.6674 33.7344L10.0193 31.134V28.866V25.9416L10.6674 23.0172L11.6393 20.0928L13.2678 17.4924L14.8962 15.2159L16.8401 12.9395L19.1166 11.3196L21.717 9.6911L23.9935 8.71918L26.2614 8.07117L28.8618 7.41467H31.1382H32.4427L36.3391 8.07117L40.2355 9.36713L43.4838 11.3196L46.4083 13.596L49.0087 16.5204L50.6371 19.7689L51.9331 23.6652L52.5811 27.5616V28.866Z" stroke="#6161FF" stroke-width="4" stroke-miterlimit="10" stroke-linecap="round" stroke-linejoin="round"/>
</svg>
