<svg width="60" height="60" viewBox="0 0 60 60" fill="none" xmlns="http://www.w3.org/2000/svg">
<g clip-path="url(#clip0_1_1782)">
<path fill-rule="evenodd" clip-rule="evenodd" d="M57.6199 47.7085L57.296 48.6804L56.972 49.6609L55.9915 51.2809L54.3715 52.2613L53.3911 52.5854H52.4191H7.25696H6.27643L5.3045 52.2613L3.68457 51.2809L2.70404 49.6609L2.38007 48.6804V47.7085V20.0928V19.1123L2.70404 18.1404L3.68457 16.5204L5.3045 15.216H6.27643L7.25696 14.892H17.3261L22.203 7.41467H37.473L42.3499 14.892H52.4191L53.3911 15.216H54.3715L55.9915 16.5204L56.972 18.1404L57.296 19.1123L57.6199 20.0928V47.7085Z" stroke="#6161FF" stroke-width="4" stroke-miterlimit="10" stroke-linecap="round" stroke-linejoin="round"/>
<path fill-rule="evenodd" clip-rule="evenodd" d="M29.9966 22.3698H31.949L33.9015 23.0177L35.5214 23.9897L36.8259 25.2942L38.1219 26.5901L39.1024 28.5426L39.7503 30.1625V32.4389V34.3914L39.1024 36.3353L38.1219 37.9638L36.8259 39.2597L35.5214 40.5642L33.9015 41.5362L31.949 42.1841H29.9966H27.7287L26.1002 41.5362L24.1478 40.5642L22.8518 39.2597L21.5558 37.9638L20.5754 36.3353L19.9274 34.3914V32.4389V30.1625L20.5754 28.5426L21.5558 26.5901L22.8518 25.2942L24.1478 23.9897L26.1002 23.0177L27.7287 22.3698H29.9966Z" stroke="#6161FF" stroke-width="4" stroke-miterlimit="10" stroke-linecap="round" stroke-linejoin="round"/>
</g>
<defs>
<clipPath id="clip0_1_1782">
<rect width="60" height="60" fill="white"/>
</clipPath>
</defs>
</svg>
