<svg width="60" height="60" viewBox="0 0 60 60" fill="none" xmlns="http://www.w3.org/2000/svg">
<path d="M52.1147 15.2039V5.1377H42.0486" stroke="#6161FF" stroke-width="4" stroke-miterlimit="10" stroke-linecap="round" stroke-linejoin="round"/>
<path d="M52.1149 5.1377L40.8083 16.3964L40.3313 16.8736L39.1387 17.5415L37.8506 17.8754L36.4672 17.8276L35.7992 17.6846L23.0615 14.2496L22.3936 14.1065H21.058L19.8176 14.4406L18.6725 15.1083L18.1957 15.5854L5.17163 28.6092" stroke="#6161FF" stroke-width="4" stroke-miterlimit="10" stroke-linecap="round" stroke-linejoin="round"/>
<path d="M5.17163 55.4204H55.4543" stroke="#6161FF" stroke-width="4" stroke-miterlimit="10" stroke-linecap="round" stroke-linejoin="round"/>
<path fill-rule="evenodd" clip-rule="evenodd" d="M16.9056 40.9175H10.179H9.84509L9.22498 41.2039L8.79565 41.6332L8.55701 42.2534L8.50928 42.5872V55.4205H18.5754V42.5872L18.5276 42.2534L18.2891 41.6332L17.8119 41.2039L17.2395 40.9175H16.9056Z" stroke="#6161FF" stroke-width="4" stroke-miterlimit="10" stroke-linecap="round" stroke-linejoin="round"/>
<path fill-rule="evenodd" clip-rule="evenodd" d="M33.6511 26.3672H26.9722L26.6383 26.4149L26.0182 26.6535L25.5887 27.0829L25.3025 27.7031V28.0369V55.4206H35.3208V28.0369V27.7031L35.0348 27.0829L34.6053 26.6535L33.9852 26.4149L33.6511 26.3672Z" stroke="#6161FF" stroke-width="4" stroke-miterlimit="10" stroke-linecap="round" stroke-linejoin="round"/>
<path fill-rule="evenodd" clip-rule="evenodd" d="M50.4451 34.1914H43.7184L43.3845 34.2389L42.8119 34.4775L42.335 34.9546L42.0964 35.527L42.0486 35.8611V55.4208H52.1147V35.8611L52.067 35.527L51.8285 34.9546L51.399 34.4775L50.7789 34.2389L50.4451 34.1914Z" stroke="#6161FF" stroke-width="4" stroke-miterlimit="10" stroke-linecap="round" stroke-linejoin="round"/>
</svg>
