<svg width="60" height="60" viewBox="0 0 60 60" fill="none" xmlns="http://www.w3.org/2000/svg">
<path d="M55.3165 55.4414H5.03369" stroke="#6161FF" stroke-width="4" stroke-miterlimit="10" stroke-linecap="round" stroke-linejoin="round"/>
<path fill-rule="evenodd" clip-rule="evenodd" d="M43.5803 40.9385H50.307H50.6409L51.2611 41.2249L51.6904 41.6542L51.929 42.2744L51.9768 42.6082V55.4415H41.9106V42.6082L41.9584 42.2744L42.1969 41.6542L42.6738 41.2249L43.2465 40.9385H43.5803Z" stroke="#6161FF" stroke-width="4" stroke-miterlimit="10" stroke-linecap="round" stroke-linejoin="round"/>
<path fill-rule="evenodd" clip-rule="evenodd" d="M26.8335 26.3882H33.5125L33.8466 26.4359L34.4668 26.6745L34.8961 27.1039L35.1823 27.7241V28.0579V55.4416H25.1638V28.0579V27.7241L25.4502 27.1039L25.8795 26.6745L26.4998 26.4359L26.8335 26.3882Z" stroke="#6161FF" stroke-width="4" stroke-miterlimit="10" stroke-linecap="round" stroke-linejoin="round"/>
<path fill-rule="evenodd" clip-rule="evenodd" d="M10.0432 34.2119H16.77L17.1038 34.2594L17.6763 34.498L18.1533 34.9751L18.392 35.5475L18.4397 35.8816V55.4413H8.37354V35.8816L8.42126 35.5475L8.65991 34.9751L9.08923 34.498L9.70947 34.2594L10.0432 34.2119Z" stroke="#6161FF" stroke-width="4" stroke-miterlimit="10" stroke-linecap="round" stroke-linejoin="round"/>
<path d="M55.3164 18.5645V28.6303H45.2502" stroke="#6161FF" stroke-width="4" stroke-miterlimit="10" stroke-linecap="round" stroke-linejoin="round"/>
<path d="M55.3169 28.6302L44.0581 17.4192L43.5332 16.9898L42.3883 16.2744L41.1002 15.9403H39.7643L39.1442 16.0836L26.2634 19.4706L25.5955 19.6138H24.3076L23.0195 19.2797L21.9222 18.6121L21.3976 18.1827L8.37354 5.15869" stroke="#6161FF" stroke-width="4" stroke-miterlimit="10" stroke-linecap="round" stroke-linejoin="round"/>
</svg>
