<svg width="60" height="60" viewBox="0 0 60 60" fill="none" xmlns="http://www.w3.org/2000/svg">
<path d="M55.1813 27.5573V29.8337L54.8574 33.7301L53.8854 37.635L52.5809 41.2074L50.637 44.4558L48.3605 47.3802L45.4361 49.9806L42.1877 52.257L38.6154 53.553L34.7104 54.525L31.1381 55.1815L27.5657 54.8575L23.9933 54.525L20.7449 53.229L17.8204 51.9331L14.8961 49.9806L12.6196 48.0282L10.3432 45.4277L8.39075 42.8273L6.77081 39.5789L5.79028 36.3305L5.14233 33.0821L4.81836 29.5097L5.14233 25.9373L6.1228 22.0324L7.41876 19.108L9.04724 16.1836L10.9911 13.5917L13.2676 11.3153L16.516 9.03885L19.7644 7.0864L23.0128 5.79044L26.5937 5.14246L30.1661 4.81848L33.4145 5.14246L36.9869 5.79044L40.2353 7.0864" stroke="#6161FF" stroke-width="4" stroke-miterlimit="10" stroke-linecap="round" stroke-linejoin="round"/>
<path d="M55.1818 10.0114L30.1665 35.0351L22.3652 27.5578" stroke="#6161FF" stroke-width="4" stroke-miterlimit="10" stroke-linecap="round" stroke-linejoin="round"/>
</svg>
