<svg width="60" height="60" viewBox="0 0 60 60" fill="none" xmlns="http://www.w3.org/2000/svg">
<g clip-path="url(#clip0_1_2129)">
<path fill-rule="evenodd" clip-rule="evenodd" d="M57.3406 30.3674L57.2883 29.1649L56.5038 26.9163L55.0918 25.0336L53.157 23.674L52.0066 23.3078L52.5817 22.6803L53.3662 21.2163L53.6801 19.6996L53.5753 18.1831L53.0524 16.7711L52.2157 15.5163L51.0129 14.575L49.4965 13.9472L48.6075 13.8428L48.1368 13.3721L47.6139 12.9538L47.8754 12.274L48.1368 10.862V9.45004L47.8754 8.09039L47.4047 6.78314L46.6205 5.63266L45.6791 4.58664L44.5287 3.75003L43.8489 3.43646L43.1691 3.17496L41.7571 2.80872L40.3975 2.75635L38.9855 2.96579L37.6782 3.43646L36.5277 4.16833L35.4296 5.10965L34.5927 6.20776L34.2268 6.88757L33.8085 6.36484L32.7625 5.47589L31.6119 4.95285L30.4094 4.63898H29.1542L27.9514 4.95285L26.8009 5.47589L25.7551 6.36484L25.3369 6.88757L24.9706 6.20776L24.134 5.10965L23.0359 4.16833L21.8855 3.43646L20.5781 2.96579L19.1661 2.75635L17.8065 2.80872L16.3945 3.17496L15.7147 3.43646L15.0349 3.75003L13.8845 4.58664L12.9431 5.63266L12.1589 6.78314L11.6882 8.09039L11.4268 9.45004V10.862L11.6882 12.274L11.9498 12.9538L11.4268 13.3721L10.9561 13.8428L10.0671 13.9472L8.55078 14.575L7.3479 15.5163L6.51099 16.7711L5.98828 18.1831L5.88354 19.6996L6.19739 21.2163L6.98169 22.6803L7.55701 23.3078L6.24976 23.7263L4.26245 25.138L2.9552 27.0731L2.27539 29.2169V31.5179L2.9552 33.662L4.26245 35.5967L6.24976 37.0087L7.55701 37.427L6.98169 38.1068L6.19739 39.5188L5.88354 41.0355L5.98828 42.5519L6.51099 43.9639L7.3479 45.2188L8.55078 46.1601L10.0671 46.7876L10.9561 46.8923L11.4268 47.3629L11.9498 47.7812L11.6882 48.4611L11.4268 49.873V51.285L11.6882 52.6447L12.1589 53.9519L12.9431 55.1024L13.8845 56.1481L15.0349 56.985L15.7147 57.2986L16.3945 57.5601L17.8065 57.9264L19.1661 57.9784L20.5781 57.7693L21.8855 57.2986L23.0359 56.5664L24.134 55.6254L24.9706 54.527L25.3369 53.8472L25.7551 54.3702L26.8009 55.2592L27.9514 55.7822L29.1542 56.0961H30.4094L31.6119 55.7822L32.7625 55.2592L33.8085 54.3702L34.2268 53.8472L34.5927 54.527L35.4296 55.6254L36.5277 56.5664L37.6782 57.2986L38.9855 57.7693L40.3975 57.9784L41.7571 57.9264L43.1691 57.5601L43.8489 57.2986L44.5287 56.985L45.6791 56.1481L46.6205 55.1024L47.4047 53.9519L47.8754 52.6447L48.1368 51.285V49.873L47.8754 48.4611L47.6139 47.7812L48.1368 47.3629L48.6075 46.8923L49.4965 46.7876L51.0129 46.1601L52.2157 45.2188L53.0524 43.9639L53.5753 42.5519L53.6801 41.0355L53.3662 39.5188L52.5817 38.1068L52.0066 37.427L53.157 37.0611L55.0918 35.7014L56.5038 33.8188L57.2883 31.5702L57.3406 30.3674Z" stroke="#6161FF" stroke-width="4" stroke-miterlimit="10" stroke-linecap="round" stroke-linejoin="round"/>
<path fill-rule="evenodd" clip-rule="evenodd" d="M22.4083 19.3335H37.155H37.5734L39.6652 20.2225L40.5017 21.3206L40.7632 22.3663L40.8156 22.9941V37.7408V38.1591L39.9266 40.2509L38.8285 41.0875L37.7825 41.349L37.155 41.4013H22.4083H21.99L19.8982 40.5124L19.0614 39.4142L18.8002 38.3682L18.7478 37.7408V22.9941V22.5758L19.6367 20.484L20.7349 19.6471L21.7806 19.3859L22.4083 19.3335Z" stroke="#6161FF" stroke-width="4" stroke-miterlimit="10" stroke-linecap="round" stroke-linejoin="round"/>
<path d="M24.2915 19.3334V15.6729" stroke="#6161FF" stroke-width="4" stroke-miterlimit="10" stroke-linecap="round" stroke-linejoin="round"/>
<path d="M35.2715 19.3334V15.6729" stroke="#6161FF" stroke-width="4" stroke-miterlimit="10" stroke-linecap="round" stroke-linejoin="round"/>
<path d="M24.2915 45.0619V41.4014" stroke="#6161FF" stroke-width="4" stroke-miterlimit="10" stroke-linecap="round" stroke-linejoin="round"/>
<path d="M35.2715 45.0619V41.4014" stroke="#6161FF" stroke-width="4" stroke-miterlimit="10" stroke-linecap="round" stroke-linejoin="round"/>
<path d="M40.8142 24.8765H44.4749" stroke="#6161FF" stroke-width="4" stroke-miterlimit="10" stroke-linecap="round" stroke-linejoin="round"/>
<path d="M40.8142 35.8579H44.4749" stroke="#6161FF" stroke-width="4" stroke-miterlimit="10" stroke-linecap="round" stroke-linejoin="round"/>
<path d="M15.0859 24.8765H18.7466" stroke="#6161FF" stroke-width="4" stroke-miterlimit="10" stroke-linecap="round" stroke-linejoin="round"/>
<path d="M15.0859 35.8579H18.7466" stroke="#6161FF" stroke-width="4" stroke-miterlimit="10" stroke-linecap="round" stroke-linejoin="round"/>
<path fill-rule="evenodd" clip-rule="evenodd" d="M26.1206 26.7065H33.4418V34.0277H26.1206V26.7065Z" stroke="#6161FF" stroke-width="4" stroke-miterlimit="10" stroke-linecap="round" stroke-linejoin="round"/>
</g>
<defs>
<clipPath id="clip0_1_2129">
<rect width="60" height="60" fill="white"/>
</clipPath>
</defs>
</svg>
