<svg width="60" height="60" viewBox="0 0 60 60" fill="none" xmlns="http://www.w3.org/2000/svg">
<path d="M23.2533 32.0145H8.38098L7.72192 31.9677L6.49829 31.4498L5.60425 30.5555L5.13354 29.379L5.08643 28.72V8.85898L5.13354 8.20001L5.60425 6.97635L6.49829 6.08231L7.72192 5.6116L8.38098 5.56445H48.1033L48.762 5.6116L49.9387 6.08231L50.8328 6.97635L51.3507 8.20001L51.3978 8.85898V28.72" stroke="#6161FF" stroke-width="4" stroke-miterlimit="10" stroke-linecap="round" stroke-linejoin="round"/>
<path fill-rule="evenodd" clip-rule="evenodd" d="M32.3337 33.5677L38.7345 54.0406L38.8759 54.417L39.4877 54.9817L40.2407 55.1702L41.0408 55.0289L41.3701 54.7466L44.7588 45.2396L54.1716 43.263L54.4541 42.9334L54.6895 42.1804L54.5952 41.4272L54.1245 40.7685L53.748 40.5332L34.5928 31.7322L34.1223 31.5439L33.228 31.6851L32.5691 32.2498L32.2397 33.097L32.3337 33.5677Z" stroke="#6161FF" stroke-width="4" stroke-miterlimit="10" stroke-linecap="round" stroke-linejoin="round"/>
<path d="M28.241 19.5896L27.8645 19.5425L27.4409 19.0718V18.46L27.8645 17.9895L28.241 17.9424" stroke="#6161FF" stroke-width="4" stroke-miterlimit="1747.71"/>
<path d="M28.2402 19.5896L28.6169 19.5425L28.9934 19.0718V18.46L28.6169 17.9895L28.2402 17.9424" stroke="#6161FF" stroke-width="4" stroke-miterlimit="1747.71"/>
<path d="M41.4656 19.5896L41.0891 19.5425L40.6655 19.0718V18.46L41.0891 17.9895L41.4656 17.9424" stroke="#6161FF" stroke-width="4" stroke-miterlimit="1747.71"/>
<path d="M41.4648 19.5896L41.8413 19.5425L42.2649 19.0718V18.46L41.8413 17.9895L41.4648 17.9424" stroke="#6161FF" stroke-width="4" stroke-miterlimit="1747.71"/>
<path d="M14.9673 19.5896L14.5908 19.5425L14.2144 19.0718V18.46L14.5908 17.9895L14.9673 17.9424" stroke="#6161FF" stroke-width="4" stroke-miterlimit="1747.71"/>
<path d="M14.9692 19.5896L15.3457 19.5425L15.7693 19.0718V18.46L15.3457 17.9895L14.9692 17.9424" stroke="#6161FF" stroke-width="4" stroke-miterlimit="1747.71"/>
</svg>
