<svg width="60" height="60" viewBox="0 0 60 60" fill="none" xmlns="http://www.w3.org/2000/svg">
<path d="M54.2499 29.0252L31.1786 52.088L28.9021 54.0405L26.3016 55.3364L23.3773 55.9929L20.4529 56.3169L17.5284 55.9929L14.928 55.3364L12.3276 54.0405L9.72717 52.088L7.7832 49.4876L6.47876 46.8957L5.83081 44.2953L5.50684 41.3708L5.83081 38.4464L6.47876 35.522L7.7832 32.9216L9.72717 30.6451L32.7985 7.57385L34.427 6.27789L36.3708 5.30591L37.9994 4.64941H39.9518H41.8958L43.8481 5.30591L45.4767 6.27789L47.0966 7.57385L48.401 9.20233L49.373 10.8223L50.021 12.7747V14.7272V16.6711L49.373 18.2996L48.401 20.252L47.0966 21.8719L24.0253 44.9432L23.3773 45.5912L22.4053 45.9152L20.4529 46.2392L18.5004 45.9152L17.8524 45.5912L16.8805 44.9432L16.2325 43.9713L15.9086 43.3148L15.576 41.3708L15.9086 39.4184L16.2325 38.4464L16.8805 37.7985L38.3234 16.3471" stroke="#6161FF" stroke-width="4" stroke-miterlimit="10" stroke-linecap="round" stroke-linejoin="round"/>
</svg>
