<svg width="60" height="60" viewBox="0 0 60 60" fill="none" xmlns="http://www.w3.org/2000/svg">
<path d="M40.2311 10.0106H45.1081H46.08L47.0605 10.3346L48.6805 11.3151L49.6609 12.935L49.9849 13.9155V14.8875V49.9804V50.9524L49.6609 51.9329L48.6805 53.5528L47.0605 54.8573L46.08 55.1813H45.1081H14.8919H13.9114L12.9395 54.8573L11.3195 53.5528L10.3391 51.9329L10.0151 50.9524V49.9804V14.8875V13.9155L10.3391 12.935L11.3195 11.3151L12.9395 10.3346L13.9114 10.0106H14.8919H20.0928" stroke="#6161FF" stroke-width="4" stroke-miterlimit="10" stroke-linecap="round" stroke-linejoin="round"/>
<path fill-rule="evenodd" clip-rule="evenodd" d="M22.3602 4.81873H37.6387L38.6107 5.1427L39.2586 5.79068L39.9066 6.43866L40.2305 7.41061V12.2875L39.9066 13.2595L39.2586 14.2399L38.6107 14.8879H37.6387H22.3602H21.3881L20.7402 14.2399L20.0922 13.2595V12.2875V7.41061V6.43866L20.7402 5.79068L21.3881 5.1427L22.3602 4.81873Z" stroke="#6161FF" stroke-width="4" stroke-miterlimit="10" stroke-linecap="round" stroke-linejoin="round"/>
</svg>
