<svg width="60" height="60" viewBox="0 0 60 60" fill="none" xmlns="http://www.w3.org/2000/svg">
<path d="M48.4124 18.6034V15.3089L48.3652 14.6028L47.8474 13.4263L46.9534 12.532L45.7765 12.0144L45.0707 11.9673H36.2698" stroke="#6161FF" stroke-width="4" stroke-miterlimit="10" stroke-linecap="round" stroke-linejoin="round"/>
<path d="M17.4895 11.9673H8.68848L8.02954 12.0144L6.80591 12.532L5.91187 13.4263L5.44116 14.6028L5.39404 15.3089V51.6896L5.44116 52.3483L5.91187 53.572L6.80591 54.4663L8.02954 54.937L8.68848 54.9841H16.9719" stroke="#6161FF" stroke-width="4" stroke-miterlimit="10" stroke-linecap="round" stroke-linejoin="round"/>
<path fill-rule="evenodd" clip-rule="evenodd" d="M35.516 14.1789L35.3278 14.6496L34.4808 15.2143L33.963 15.3086H19.7966L19.2791 15.2143L18.4788 14.6496L18.2437 14.1789L16.0315 7.54303L15.9375 7.11945L16.0786 6.36624L16.5022 5.75439L17.2083 5.37793H17.5847H36.1749H36.5986L37.2576 5.75439L37.7283 6.36624L37.8223 7.11945L37.7283 7.54303L35.516 14.1789Z" stroke="#6161FF" stroke-width="4" stroke-miterlimit="10" stroke-linecap="round" stroke-linejoin="round"/>
<path d="M18.621 48.3948H13.6321L13.3027 48.3477L12.7378 48.1123L12.2673 47.6415L12.032 47.0768L11.9849 46.7475V18.603" stroke="#6161FF" stroke-width="4" stroke-miterlimit="10" stroke-linecap="round" stroke-linejoin="round"/>
<path d="M38.4805 20.2505V25.1922" stroke="#6161FF" stroke-width="4" stroke-miterlimit="10" stroke-linecap="round" stroke-linejoin="round"/>
<path d="M18.6208 25.1924H28.5513" stroke="#6161FF" stroke-width="4" stroke-miterlimit="10" stroke-linecap="round" stroke-linejoin="round"/>
<path d="M18.6208 35.1226H21.9154" stroke="#6161FF" stroke-width="4" stroke-miterlimit="10" stroke-linecap="round" stroke-linejoin="round"/>
<path fill-rule="evenodd" clip-rule="evenodd" d="M32.5032 53.8073L24.314 54.9841L25.4905 46.7947L46.5283 25.7571L47.3285 25.0981L49.1168 24.3452H50.9994L52.7878 25.0981L53.541 25.7571L54.2468 26.51L54.9529 28.2987V30.2281L54.2468 32.0165L53.541 32.7697L32.5032 53.8073Z" stroke="#6161FF" stroke-width="4" stroke-miterlimit="10" stroke-linecap="round" stroke-linejoin="round"/>
</svg>
