<svg width="60" height="60" viewBox="0 0 60 60" fill="none" xmlns="http://www.w3.org/2000/svg">
<path fill-rule="evenodd" clip-rule="evenodd" d="M5.19705 29.9999V31.2707L5.47954 33.7651L5.95027 36.2124L6.65608 38.5186L7.59752 40.7777L8.77405 42.8957L10.0917 44.8723L11.645 46.7078L13.2922 48.355L15.1277 49.908L17.1043 51.2259L19.2223 52.3553L21.4814 53.2968L23.7876 54.0497L26.2349 54.5204L28.7293 54.803H29.9999H31.2706L33.7651 54.5204L36.2124 54.0497L38.5186 53.2968L40.7777 52.3553L42.8957 51.2259L44.8723 49.908L46.7078 48.355L48.355 46.7078L49.908 44.8723L51.2259 42.8957L52.4025 40.7777L53.3439 38.5186L54.0497 36.2124L54.5204 33.7651L54.8029 31.2707V29.9999V28.7294L54.5204 26.2349L54.0497 23.7876L53.3439 21.4814L52.4025 19.2223L51.2259 17.1043L49.908 15.1277L48.355 13.2922L46.7078 11.5978L44.8723 10.0917L42.8957 8.77405L40.7777 7.59753L38.5186 6.65607L36.2124 5.95026L33.7651 5.43243L31.2706 5.19708H29.9999H28.7293L26.2349 5.43243L23.7876 5.95026L21.4814 6.65607L19.2223 7.59753L17.1043 8.77405L15.1277 10.0917L13.2922 11.5978L11.645 13.2922L10.0917 15.1277L8.77405 17.1043L7.59752 19.2223L6.65608 21.4814L5.95027 23.7876L5.47954 26.2349L5.19705 28.7294V29.9999Z" stroke="#6161FF" stroke-width="4" stroke-miterlimit="10" stroke-linecap="round" stroke-linejoin="round"/>
<path d="M20.0696 39.9312L39.9306 20.0701" stroke="#6161FF" stroke-width="4" stroke-miterlimit="10" stroke-linecap="round" stroke-linejoin="round"/>
<path d="M39.9307 39.9312L20.0696 20.0701" stroke="#6161FF" stroke-width="4" stroke-miterlimit="10" stroke-linecap="round" stroke-linejoin="round"/>
</svg>
