<svg width="60" height="60" viewBox="0 0 60 60" fill="none" xmlns="http://www.w3.org/2000/svg">
<g clip-path="url(#clip0_1_1978)">
<path d="M50.1468 49.4947L51.7668 48.8382L53.0713 47.8662L54.3672 46.5703L55.6717 45.2658L56.3197 43.6459L56.9676 42.3414L57.6156 40.7215V38.769V37.1491L57.2916 35.5206L56.9676 33.8922L56.3197 31.9482L55.0152 30.6437L53.7192 29.0238L52.4148 27.7193L50.4708 26.4234L49.1664 25.7754L47.5464 25.4514H42.0216L41.0496 22.851L40.0691 20.5746L38.4492 18.2981L36.8207 16.6782L34.8768 14.7257L32.9244 13.4298L30.6479 12.1253L28.3715 11.4773L25.7711 10.8293L23.1792 10.5054H20.5787L17.9783 11.1534L15.3779 11.8013L12.7775 13.0973L10.177 14.7257L7.57661 16.6782L6.28065 18.6221L4.97618 20.2506L4.00422 22.1945L3.03226 26.0994L2.38428 29.9958L2.70827 33.8922L3.68023 37.4731L5.30869 40.7215L7.25262 43.6459L10.177 46.2463" stroke="#6161FF" stroke-width="4" stroke-miterlimit="10" stroke-linecap="round" stroke-linejoin="round"/>
</g>
<defs>
<clipPath id="clip0_1_1978">
<rect width="60" height="60" fill="white"/>
</clipPath>
</defs>
</svg>
