<svg width="60" height="60" viewBox="0 0 60 60" fill="none" xmlns="http://www.w3.org/2000/svg">
<g clip-path="url(#clip0_1_2000)">
<path d="M47.9021 41.6066L49.522 41.2826L51.1504 40.6346L52.7704 39.6626L54.0748 38.6821L55.3708 37.3862L56.3513 35.7577L56.9993 34.4618L57.6472 32.8333L57.9712 31.2134V29.2609V27.641L57.3232 25.6885L56.6753 24.0601L55.6948 22.1161L54.3988 20.4877L52.7704 18.8678L51.7985 17.8873L50.5024 17.2393L49.198 16.9153H47.578H42.3772L41.4053 14.3149L40.1008 12.0385L38.8048 9.76199L37.1764 7.81808L35.2239 6.18961L32.9561 4.56967L30.6796 3.5892L28.4031 2.61722L25.8027 1.96924H23.2023H20.6018L18.01 2.29324L15.4095 3.2652L12.8091 4.56967L10.2086 6.18961L7.60828 8.14206L6.63623 9.43802L5.65576 10.7425L4.68384 13.0189L3.71191 14.9629L3.38794 17.2393L2.73145 19.1917V21.4597V23.4121L3.06384 25.3646L3.38794 27.3085L4.03589 29.2609L5.00781 31.2134L6.96033 34.4618L9.88464 37.3862L11.5046 38.3582L13.1331 39.3301" stroke="#6161FF" stroke-width="4" stroke-miterlimit="10" stroke-linecap="round" stroke-linejoin="round"/>
<path d="M32.9547 26.9844L22.877 41.9304H37.823L27.7538 57.209" stroke="#6161FF" stroke-width="4" stroke-miterlimit="10" stroke-linecap="round" stroke-linejoin="round"/>
</g>
<defs>
<clipPath id="clip0_1_2000">
<rect width="60" height="60" fill="white"/>
</clipPath>
</defs>
</svg>
