<svg width="60" height="60" viewBox="0 0 60 60" fill="none" xmlns="http://www.w3.org/2000/svg">
<g clip-path="url(#clip0_1_1177)">
<path fill-rule="evenodd" clip-rule="evenodd" d="M44.9418 24.9611H42.0174L41.3694 23.0172L40.3974 21.0648L39.4169 19.4363L38.445 17.8163L35.8445 14.8919L32.5962 12.6155L29.0238 10.9956L25.4514 10.0151H23.4989H21.5465H19.2786L17.3261 10.6716L15.3737 11.3195L13.4297 11.9675L11.8013 12.9395L10.1813 13.92L7.25693 16.5119L4.98048 19.7688L3.35202 23.3412L2.70406 26.9136L2.38007 28.866V31.1339L2.70406 33.0864L3.02803 35.0388L4 38.2872L5.62846 41.2116L7.58092 43.8121L10.1813 45.756L12.7732 47.7085L15.6976 49.0044L18.946 49.6609L22.527 49.9849H44.9418H47.5422L49.8186 49.0044L52.0951 48.0324L54.039 46.4125L55.3435 44.46L56.6394 42.5076L57.2874 39.9072L57.6199 37.6392L57.2874 35.0388L56.6394 32.7624L55.3435 30.486L54.039 28.5421L52.0951 27.2376L49.8186 25.9416L47.5422 25.2851L44.9418 24.9611Z" stroke="#6161FF" stroke-width="4" stroke-miterlimit="10" stroke-linecap="round" stroke-linejoin="round"/>
</g>
<defs>
<clipPath id="clip0_1_1177">
<rect width="60" height="60" fill="white"/>
</clipPath>
</defs>
</svg>
