<svg width="60" height="60" viewBox="0 0 60 60" fill="none" xmlns="http://www.w3.org/2000/svg">
<path d="M43.9734 22.3565H45.9173L47.5458 22.689L49.4982 23.013L51.1182 23.661L52.4226 24.633L53.7186 25.9374L54.6906 27.2334L55.671 28.8618L55.995 30.4818L56.319 32.7582L55.995 35.0347L55.0231 36.9786L54.0426 38.931L52.4226 40.5595L50.4702 41.5315L48.5177 42.1794L46.2498 42.5034H43.9734" stroke="#6161FF" stroke-width="4" stroke-miterlimit="10" stroke-linecap="round" stroke-linejoin="round"/>
<path fill-rule="evenodd" clip-rule="evenodd" d="M3.68115 22.3565H43.9749V45.1039L43.6509 47.0563L42.9944 49.0002L42.0225 50.6287L41.0505 52.2571L39.4221 53.2291L37.8021 54.201L35.8497 54.8491L33.8972 55.1816H13.7589L11.8064 54.8491L9.85394 54.201L8.23401 53.2291L6.60556 52.2571L5.3096 50.6287L4.3291 49.0002L4.00513 47.0563L3.68115 45.1039V22.3565Z" stroke="#6161FF" stroke-width="4" stroke-miterlimit="10" stroke-linecap="round" stroke-linejoin="round"/>
<path d="M13.7559 4.81842V12.2872" stroke="#6161FF" stroke-width="4" stroke-miterlimit="10" stroke-linecap="round" stroke-linejoin="round"/>
<path d="M23.8269 4.81842V12.2872" stroke="#6161FF" stroke-width="4" stroke-miterlimit="10" stroke-linecap="round" stroke-linejoin="round"/>
<path d="M33.8962 4.81842V12.2872" stroke="#6161FF" stroke-width="4" stroke-miterlimit="10" stroke-linecap="round" stroke-linejoin="round"/>
</svg>
