<svg width="60" height="60" viewBox="0 0 60 60" fill="none" xmlns="http://www.w3.org/2000/svg">
<g clip-path="url(#clip0_1_1157)">
<path fill-rule="evenodd" clip-rule="evenodd" d="M2.44128 9.76208L2.49365 10.5466L3.06903 11.9586L4.16711 13.2659L5.78827 14.4687L7.77533 15.4621L10.1287 16.2466L12.7432 16.8217L15.6192 17.0832L17.1359 17.1356L18.6523 17.0832L21.5286 16.8217L24.1432 16.2466L26.4965 15.4621L28.4835 14.4687L30.1047 13.2659L31.2028 11.9586L31.7782 10.5466L31.8303 9.76208L31.7782 9.02991L31.2028 7.56586L30.1047 6.25861L28.4835 5.10815L26.4965 4.11444L24.1432 3.27783L21.5286 2.75482L18.6523 2.44098H17.1359H15.6192L12.7432 2.75482L10.1287 3.27783L7.77533 4.11444L5.78827 5.10815L4.16711 6.25861L3.06903 7.56586L2.49365 9.02991L2.44128 9.76208Z" stroke="#6161FF" stroke-width="4" stroke-miterlimit="10" stroke-linecap="round" stroke-linejoin="round"/>
<path d="M31.8292 19.5935V9.76227" stroke="#6161FF" stroke-width="4" stroke-miterlimit="10" stroke-linecap="round" stroke-linejoin="round"/>
<path d="M2.44128 9.76227V46.5247L2.49365 47.309L3.06903 48.7209L4.16711 50.0806L5.78827 51.231L7.77533 52.2247L10.1287 53.009L12.7432 53.5844L15.6192 53.8982H17.1359L19.2277 53.8459L21.2671 53.5844" stroke="#6161FF" stroke-width="4" stroke-miterlimit="10" stroke-linecap="round" stroke-linejoin="round"/>
<path d="M2.44128 37.3731L2.49365 38.1053L3.06903 39.5693L4.16711 40.8769L5.78827 42.0274L7.77533 43.0208L10.1287 43.8053L12.7432 44.3804L15.6192 44.6943H17.1359L19.2798 44.6419L21.3716 44.3804" stroke="#6161FF" stroke-width="4" stroke-miterlimit="10" stroke-linecap="round" stroke-linejoin="round"/>
<path d="M2.44128 28.1695L2.49365 28.9016L3.06903 30.366L4.16711 31.6732L5.78827 32.8237L7.77533 33.8694L10.1287 34.654L12.7432 35.177L15.6192 35.4906H17.1359H19.2277L21.2671 35.2291" stroke="#6161FF" stroke-width="4" stroke-miterlimit="10" stroke-linecap="round" stroke-linejoin="round"/>
<path d="M2.44128 18.9664L2.49365 19.7506L3.06903 21.1626L4.16711 22.4698L5.78827 23.6727L7.77533 24.6663L10.1287 25.4506L12.7432 26.026L15.6192 26.2875L17.1359 26.3395L19.2798 26.2875L21.3716 26.026" stroke="#6161FF" stroke-width="4" stroke-miterlimit="10" stroke-linecap="round" stroke-linejoin="round"/>
<path fill-rule="evenodd" clip-rule="evenodd" d="M28.1696 32.458L28.2219 33.1899L28.7973 34.6542L29.8954 35.9615L31.5165 37.112L33.5036 38.158L35.8569 38.9423L38.4714 39.4653L41.3478 39.7792H42.8642H44.3806L47.2569 39.4653L49.8715 38.9423L52.2247 38.158L54.2118 37.112L55.8329 35.9615L56.931 34.6542L57.5065 33.1899L57.5588 32.458L57.5065 31.6735L56.931 30.2615L55.8329 28.9542L54.2118 27.7514L52.2247 26.758L49.8715 25.9735L47.2569 25.3984L44.3806 25.1369L42.8642 25.0845L41.3478 25.1369L38.4714 25.3984L35.8569 25.9735L33.5036 26.758L31.5165 27.7514L29.8954 28.9542L28.7973 30.2615L28.2219 31.6735L28.1696 32.458Z" stroke="#6161FF" stroke-width="4" stroke-miterlimit="10" stroke-linecap="round" stroke-linejoin="round"/>
<path d="M28.1696 32.4581V50.2379L28.2219 50.9698L28.7973 52.4341L29.8954 53.7414L31.5165 54.8918L33.5036 55.8856L35.8569 56.7221L38.4714 57.2452L41.3478 57.559H42.8642H44.3806L47.2569 57.2452L49.8715 56.7221L52.2247 55.8856L54.2118 54.8918L55.8329 53.7414L56.931 52.4341L57.5065 50.9698L57.5588 50.2379V32.4581" stroke="#6161FF" stroke-width="4" stroke-miterlimit="10" stroke-linecap="round" stroke-linejoin="round"/>
<path d="M57.5588 41.0338L57.5065 41.7659L56.931 43.23L55.8329 44.5375L54.2118 45.7401L52.2247 46.7338L49.8715 47.5183L47.2569 48.041L44.3806 48.3549L42.8642 48.4072L41.3478 48.3549L38.4714 48.041L35.8569 47.5183L33.5036 46.7338L31.5165 45.7401L29.8954 44.5375L28.7973 43.23L28.2219 41.7659L28.1696 41.0338" stroke="#6161FF" stroke-width="4" stroke-miterlimit="10" stroke-linecap="round" stroke-linejoin="round"/>
</g>
<defs>
<clipPath id="clip0_1_1157">
<rect width="60" height="60" fill="white"/>
</clipPath>
</defs>
</svg>
