<svg width="60" height="60" viewBox="0 0 60 60" fill="none" xmlns="http://www.w3.org/2000/svg">
<path d="M8.12152 41.4128C8.12152 42.9285 8.72362 44.3821 9.79536 45.4538C10.8671 46.5256 12.3207 47.1277 13.8364 47.1277C15.352 47.1277 16.8056 46.5256 17.8774 45.4538C18.9491 44.3821 19.5512 42.9285 19.5512 41.4128C19.5512 39.8972 18.9491 38.4436 17.8774 37.3718C16.8056 36.3001 15.352 35.698 13.8364 35.698C12.3207 35.698 10.8671 36.3001 9.79536 37.3718C8.72362 38.4436 8.12152 39.8972 8.12152 41.4128Z" stroke="#6161FF" stroke-width="4" stroke-linecap="round" stroke-linejoin="round"/>
<path d="M22.0004 53.6589C21.2113 52.1792 20.0348 50.9419 18.5968 50.0791C17.1588 49.2163 15.5133 48.7605 13.8364 48.7605C12.1594 48.7605 10.5139 49.2163 9.07594 50.0791C7.63794 50.9419 6.46147 52.1792 5.6723 53.6589" stroke="#6161FF" stroke-width="4" stroke-linecap="round" stroke-linejoin="round"/>
<path d="M40.7778 41.4128C40.7778 42.9285 41.3799 44.3821 42.4516 45.4538C43.5234 46.5256 44.9769 47.1277 46.4926 47.1277C48.0083 47.1277 49.4619 46.5256 50.5336 45.4538C51.6054 44.3821 52.2075 42.9285 52.2075 41.4128C52.2075 39.8972 51.6054 38.4436 50.5336 37.3718C49.4619 36.3001 48.0083 35.698 46.4926 35.698C44.9769 35.698 43.5234 36.3001 42.4516 37.3718C41.3799 38.4436 40.7778 39.8972 40.7778 41.4128Z" stroke="#6161FF" stroke-width="4" stroke-linecap="round" stroke-linejoin="round"/>
<path d="M54.6567 53.6589C53.8675 52.1792 52.691 50.9419 51.253 50.0791C49.815 49.2163 48.1696 48.7605 46.4926 48.7605C44.8156 48.7605 43.1702 49.2163 41.7322 50.0791C40.2942 50.9419 39.1177 52.1792 38.3286 53.6589" stroke="#6161FF" stroke-width="4" stroke-linecap="round" stroke-linejoin="round"/>
<path d="M24.4496 10.3894C24.4496 11.1399 24.5975 11.883 24.8847 12.5764C25.1719 13.2697 25.5928 13.8997 26.1235 14.4304C26.6542 14.9611 27.2842 15.382 27.9775 15.6692C28.6709 15.9564 29.414 16.1042 30.1645 16.1042C30.915 16.1042 31.6581 15.9564 32.3515 15.6692C33.0448 15.382 33.6748 14.9611 34.2055 14.4304C34.7362 13.8997 35.1571 13.2697 35.4443 12.5764C35.7315 11.883 35.8793 11.1399 35.8793 10.3894C35.8793 8.87373 35.2772 7.42014 34.2055 6.3484C33.1338 5.27666 31.6802 4.67456 30.1645 4.67456C28.6488 4.67456 27.1952 5.27666 26.1235 6.3484C25.0517 7.42014 24.4496 8.87373 24.4496 10.3894Z" stroke="#6161FF" stroke-width="4" stroke-linecap="round" stroke-linejoin="round"/>
<path d="M37.2378 21.0027C36.3653 19.9782 35.2808 19.1555 34.0592 18.5913C32.8375 18.0271 31.5079 17.7349 30.1623 17.7349C28.8167 17.7349 27.4871 18.0271 26.2655 18.5913C25.0438 19.1555 23.9593 19.9782 23.0868 21.0027" stroke="#6161FF" stroke-width="4" stroke-linecap="round" stroke-linejoin="round"/>
<path d="M23.7443 45.9454C27.9138 47.5351 32.525 47.5211 36.6848 45.9062" stroke="#6161FF" stroke-width="4" stroke-linecap="round" stroke-linejoin="round"/>
<path d="M17.8618 16.1042C16.0745 17.7782 14.6499 19.8013 13.6763 22.0482C12.7026 24.2951 12.2006 26.718 12.2014 29.1667C12.2014 29.7175 12.2341 30.2553 12.2841 30.7996" stroke="#6161FF" stroke-width="4" stroke-linecap="round" stroke-linejoin="round"/>
<path d="M48.0427 30.7996C48.0906 30.2596 48.1254 29.711 48.1254 29.1667C48.1266 26.7179 47.6248 24.2949 46.6511 22.0479C45.6774 19.801 44.2526 17.778 42.465 16.1042" stroke="#6161FF" stroke-width="4" stroke-linecap="round" stroke-linejoin="round"/>
</svg>
