<svg width="60" height="60" viewBox="0 0 60 60" fill="none" xmlns="http://www.w3.org/2000/svg">
<path fill-rule="evenodd" clip-rule="evenodd" d="M24.1821 20.5033V21.068L24.4172 22.1974L25.1233 23.7507L26.7234 25.3037L28.2295 26.0098L29.3589 26.2451L29.9708 26.292L30.5826 26.2451L31.7123 26.0098L33.2184 25.3037L34.8186 23.7507L35.5244 22.1974L35.7598 21.068V20.5033V19.8915L35.5244 18.7618L34.8186 17.2088L33.2184 15.6555L31.7123 14.9497L30.5826 14.7144H29.9708H29.3589L28.2295 14.9497L26.7234 15.6555L25.1233 17.2088L24.4172 18.7618L24.1821 19.8915V20.5033Z" stroke="#6161FF" stroke-width="4" stroke-miterlimit="10" stroke-linecap="round" stroke-linejoin="round"/>
<path fill-rule="evenodd" clip-rule="evenodd" d="M38.2535 41.1646V36.2229L38.2064 35.3757L37.8771 33.7284L37.2653 32.2694L36.371 30.9518L35.2416 29.8221L33.9236 28.928L32.4175 28.2691L30.8174 27.9395H29.9702H29.1233L27.5228 28.2691L26.017 28.928L24.6991 29.8221L23.5697 30.9518L22.6753 32.2694L22.0635 33.7284L21.7341 35.3757L21.687 36.2229V41.1646H25.0284L26.6757 54.3898H33.2646L34.912 41.1646H38.2535Z" stroke="#6161FF" stroke-width="4" stroke-miterlimit="10" stroke-linecap="round" stroke-linejoin="round"/>
<path d="M43.1948 19.6562L43.8538 20.5503L44.936 22.48L45.7365 24.5038L46.254 26.5746L46.4894 28.7397V30.9046L46.1598 33.0694L45.5479 35.1874L45.1246 36.2228" stroke="#6161FF" stroke-width="4" stroke-miterlimit="10" stroke-linecap="round" stroke-linejoin="round"/>
<path d="M16.7458 19.6562L16.0869 20.5503L15.0044 22.48L14.2043 24.5038L13.6868 26.5746L13.4514 28.7397V30.9046L13.7808 33.0694L14.3926 35.1874L14.8162 36.2228" stroke="#6161FF" stroke-width="4" stroke-miterlimit="10" stroke-linecap="round" stroke-linejoin="round"/>
<path d="M10.11 44.4589L9.02747 42.9528L7.23901 39.7054L6.01538 36.4109L5.30957 33.0692L5.07422 29.6808L5.30957 26.3391L5.96826 23.0917L7.05078 19.9854L8.55701 17.0206L10.3925 14.2907L12.6044 11.7963L15.146 9.63147L17.9697 7.79599L21.076 6.33698L24.4646 5.34866L28.0886 4.83081L29.9711 4.78369L31.7125 4.83081L35.1482 5.30154L38.4426 6.24271L41.549 7.60748L44.4198 9.39612L47.0554 11.5609L49.3616 14.1025L51.3383 16.9263L52.1854 18.4796L52.9384 20.0797L54.0209 23.3742L54.6327 26.7156L54.8209 30.1043L54.4916 33.4928L53.7386 36.8345L52.515 40.0347L50.8678 43.047L49.8323 44.4589" stroke="#6161FF" stroke-width="4" stroke-miterlimit="10" stroke-linecap="round" stroke-linejoin="round"/>
</svg>
