<svg width="60" height="60" viewBox="0 0 60 60" fill="none" xmlns="http://www.w3.org/2000/svg">
<path fill-rule="evenodd" clip-rule="evenodd" d="M6.8623 13.1798L27.1852 5.16498L27.8053 4.97417L28.9979 4.7356H30.2383L31.4312 4.97417L32.0513 5.16498L52.3741 13.1798L52.8988 13.4184L53.8053 14.1816L54.4255 15.1356L54.7596 16.2807V16.8531V42.9009V43.4733L54.4255 44.6184L53.8053 45.5724L52.9465 46.3356L52.3741 46.5742L32.0513 54.589L31.4312 54.7798L30.2383 55.0184H28.9979L27.8053 54.7798L27.1852 54.589L6.8623 46.5742L6.3374 46.3356L5.43115 45.5724L4.81091 44.6184L4.47681 43.4733V42.9009V16.8531V16.2807L4.81091 15.1356L5.43115 14.1816L6.28992 13.4184L6.8623 13.1798Z" stroke="#6161FF" stroke-width="4" stroke-miterlimit="10" stroke-linecap="round" stroke-linejoin="round"/>
<path d="M29.6201 23.9614L5.24243 14.4202" stroke="#6161FF" stroke-width="4" stroke-miterlimit="10" stroke-linecap="round" stroke-linejoin="round"/>
<path d="M29.6177 23.9614L53.9957 14.4202" stroke="#6161FF" stroke-width="4" stroke-miterlimit="10" stroke-linecap="round" stroke-linejoin="round"/>
<path d="M29.6177 55.0184V23.9614" stroke="#6161FF" stroke-width="4" stroke-miterlimit="10" stroke-linecap="round" stroke-linejoin="round"/>
</svg>
