<svg width="60" height="60" viewBox="0 0 60 60" fill="none" xmlns="http://www.w3.org/2000/svg">
<path fill-rule="evenodd" clip-rule="evenodd" d="M26.8992 19.4148H51.0305H51.2993L52.5081 19.9071L53.09 20.8027L53.1349 21.519V51.963V52.2317L52.6423 53.3957L51.7916 53.9778L51.0305 54.0671H26.8992H26.6754L25.4665 53.5748L24.8845 52.6792L24.8397 51.963V21.519V21.2502L25.3322 20.0862L26.1829 19.5042L26.8992 19.4148Z" stroke="#6161FF" stroke-width="4" stroke-miterlimit="10" stroke-linecap="round" stroke-linejoin="round"/>
<path d="M24.8362 47.7545H18.5237L17.8969 47.7097L16.7328 47.2619L15.8821 46.3666L15.4346 45.2471L15.3896 44.6205V16.2807L15.4346 15.6538L15.8821 14.5346L16.7328 13.6391L17.8969 13.1916L18.5237 13.1467H40.5508L41.1776 13.1916L42.3417 13.6391L43.1921 14.5346L43.6399 15.6538L43.6847 16.2807V19.4146" stroke="#6161FF" stroke-width="4" stroke-miterlimit="10" stroke-linecap="round" stroke-linejoin="round"/>
<path d="M15.3915 41.4866H9.07877L8.45193 41.4418L7.28799 40.9492L6.43741 40.0987L5.98965 38.9795L5.94485 38.3078V9.96796L5.98965 9.34113L6.43741 8.22192L7.28799 7.37143L8.45193 6.87881L9.07877 6.83398H31.1059L31.7328 6.87881L32.8968 7.37143L33.7475 8.22192L34.1953 9.34113L34.2399 9.96796V13.1468" stroke="#6161FF" stroke-width="4" stroke-miterlimit="10" stroke-linecap="round" stroke-linejoin="round"/>
<path d="M40.5543 28.8611H46.867" stroke="#6161FF" stroke-width="4" stroke-miterlimit="10" stroke-linecap="round" stroke-linejoin="round"/>
<path d="M31.1053 27.294L32.6723 28.861L35.8511 25.7271" stroke="#6161FF" stroke-width="4" stroke-miterlimit="10" stroke-linecap="round" stroke-linejoin="round"/>
<path d="M40.5543 38.3079H46.867" stroke="#6161FF" stroke-width="4" stroke-miterlimit="10" stroke-linecap="round" stroke-linejoin="round"/>
<path d="M31.1053 36.7408L32.6723 38.3078L35.8511 35.1738" stroke="#6161FF" stroke-width="4" stroke-miterlimit="10" stroke-linecap="round" stroke-linejoin="round"/>
<path d="M40.5543 47.7546H46.867" stroke="#6161FF" stroke-width="4" stroke-miterlimit="10" stroke-linecap="round" stroke-linejoin="round"/>
<path d="M31.1053 46.1876L32.6723 47.7545L35.8511 44.6206" stroke="#6161FF" stroke-width="4" stroke-miterlimit="10" stroke-linecap="round" stroke-linejoin="round"/>
</svg>
