<svg width="60" height="60" viewBox="0 0 60 60" fill="none" xmlns="http://www.w3.org/2000/svg">
<path fill-rule="evenodd" clip-rule="evenodd" d="M53.4716 51.802L53.4239 52.4697L52.9467 53.71L51.9927 54.6165L50.7999 55.0937L50.1321 55.1414H9.86786L9.19989 55.0937L8.00726 54.6165L7.05328 53.71L6.57611 52.4697L6.52838 51.802V8.19812L6.57611 7.53021L7.05328 6.28986L8.00726 5.38361L9.19989 4.90643L9.86786 4.85864H43.4055H44.0734L45.2661 5.38361L45.7432 5.81299L52.4697 12.2533L52.899 12.7302L53.4239 13.9705L53.4716 14.6385V51.802Z" stroke="#6161FF" stroke-width="4" stroke-miterlimit="10" stroke-linecap="round" stroke-linejoin="round"/>
<path d="M23.273 28.33V14.9246" stroke="#6161FF" stroke-width="4" stroke-miterlimit="10" stroke-linecap="round" stroke-linejoin="round"/>
<path d="M16.5933 18.264V14.9246H29.9986V18.264" stroke="#6161FF" stroke-width="4" stroke-miterlimit="10" stroke-linecap="round" stroke-linejoin="round"/>
<path d="M38.3956 24.9426H43.4047" stroke="#6161FF" stroke-width="4" stroke-miterlimit="10" stroke-linecap="round" stroke-linejoin="round"/>
<path d="M38.3956 14.9246H43.4047" stroke="#6161FF" stroke-width="4" stroke-miterlimit="10" stroke-linecap="round" stroke-linejoin="round"/>
<path d="M16.5933 35.009H43.4042" stroke="#6161FF" stroke-width="4" stroke-miterlimit="10" stroke-linecap="round" stroke-linejoin="round"/>
<path d="M16.5933 45.075H43.4042" stroke="#6161FF" stroke-width="4" stroke-miterlimit="10" stroke-linecap="round" stroke-linejoin="round"/>
<path d="M19.9332 28.3298H26.6596" stroke="#6161FF" stroke-width="4" stroke-miterlimit="10" stroke-linecap="round" stroke-linejoin="round"/>
</svg>
