<svg width="60" height="60" viewBox="0 0 60 60" fill="none" xmlns="http://www.w3.org/2000/svg">
<g clip-path="url(#clip0_1_2411)">
<path d="M52.1194 37.3207V22.5217" stroke="#6161FF" stroke-width="4" stroke-miterlimit="10" stroke-linecap="round" stroke-linejoin="round"/>
<path d="M7.98364 22.5217V37.3207" stroke="#6161FF" stroke-width="4" stroke-miterlimit="10" stroke-linecap="round" stroke-linejoin="round"/>
<path d="M25.6592 8.35034L11.9583 15.7762" stroke="#6161FF" stroke-width="4" stroke-miterlimit="10" stroke-linecap="round" stroke-linejoin="round"/>
<path d="M48.0399 15.7238L34.4436 8.35034" stroke="#6161FF" stroke-width="4" stroke-miterlimit="10" stroke-linecap="round" stroke-linejoin="round"/>
<path fill-rule="evenodd" clip-rule="evenodd" d="M25.4504 7.04309L25.5024 7.93207L26.1823 9.60553L27.4375 10.8604L29.111 11.5402L30.052 11.5926L30.9933 11.5402L32.6145 10.8604L33.8696 9.60553L34.5494 7.93207L34.6539 7.04309L34.5494 6.10175L33.8696 4.42853L32.6145 3.17334L30.9933 2.49353L30.052 2.44116L29.111 2.49353L27.4375 3.17334L26.1823 4.42853L25.5024 6.10175L25.4504 7.04309Z" stroke="#6161FF" stroke-width="4" stroke-miterlimit="10" stroke-linecap="round" stroke-linejoin="round"/>
<path d="M25.6592 51.5446L11.9583 44.0667" stroke="#6161FF" stroke-width="4" stroke-miterlimit="10" stroke-linecap="round" stroke-linejoin="round"/>
<path d="M48.0398 44.1189L34.3911 51.5448" stroke="#6161FF" stroke-width="4" stroke-miterlimit="10" stroke-linecap="round" stroke-linejoin="round"/>
<path fill-rule="evenodd" clip-rule="evenodd" d="M25.4504 52.957L25.5024 53.8983L26.1823 55.5715L27.4375 56.8267L29.111 57.5065L30.052 57.5589L30.9933 57.5065L32.6145 56.8267L33.8696 55.5715L34.5494 53.8983L34.6539 52.957L34.5494 52.0681L33.8696 50.3945L32.6145 49.1393L30.9933 48.4595L30.052 48.4075L29.111 48.4595L27.4375 49.1393L26.1823 50.3945L25.5024 52.0681L25.4504 52.957Z" stroke="#6161FF" stroke-width="4" stroke-miterlimit="10" stroke-linecap="round" stroke-linejoin="round"/>
<path d="M3.3302 17.9202L3.38232 18.8615L4.06213 20.535L5.31726 21.7899L6.93848 22.4697L7.87976 22.5221L8.82104 22.4697L10.4943 21.7899L11.7495 20.535L12.4293 18.8615L12.4813 17.9202L12.4293 16.9789L11.7495 15.358L10.4943 14.1028L8.82104 13.423L7.87976 13.3186L6.93848 13.423L5.31726 14.1028L4.06213 15.358L3.38232 16.9789L3.27783 17.9202" stroke="#6161FF" stroke-width="4" stroke-miterlimit="10" stroke-linecap="round" stroke-linejoin="round"/>
<path d="M3.3302 41.923L3.38232 42.8643L4.06213 44.4854L5.31726 45.7403L6.93848 46.4201L7.87976 46.5248L8.82104 46.4201L10.4943 45.7403L11.7495 44.4854L12.4293 42.8643L12.4813 41.923L12.4293 40.9816L11.7495 39.3084L10.4943 38.0532L8.82104 37.3734L7.87976 37.321L6.93848 37.3734L5.31726 38.0532L4.06213 39.3084L3.38232 40.9816L3.27783 41.923" stroke="#6161FF" stroke-width="4" stroke-miterlimit="10" stroke-linecap="round" stroke-linejoin="round"/>
<path fill-rule="evenodd" clip-rule="evenodd" d="M47.5188 17.9202L47.5712 18.8615L48.251 20.535L49.506 21.7899L51.1794 22.4697L52.1207 22.5221L53.0618 22.4697L54.6829 21.7899L55.9381 20.535L56.6179 18.8615L56.7223 17.9202L56.6179 16.9789L55.9381 15.358L54.6829 14.1028L53.0618 13.423L52.1207 13.3186L51.1794 13.423L49.506 14.1028L48.251 15.358L47.5712 16.9789L47.5188 17.9202Z" stroke="#6161FF" stroke-width="4" stroke-miterlimit="10" stroke-linecap="round" stroke-linejoin="round"/>
<path fill-rule="evenodd" clip-rule="evenodd" d="M47.5188 41.923L47.5712 42.8643L48.251 44.4854L49.506 45.7403L51.1794 46.4201L52.1207 46.5248L53.0618 46.4201L54.6829 45.7403L55.9381 44.4854L56.6179 42.8643L56.7223 41.923L56.6179 40.9816L55.9381 39.3084L54.6829 38.0532L53.0618 37.3734L52.1207 37.321L51.1794 37.3734L49.506 38.0532L48.251 39.3084L47.5712 40.9816L47.5188 41.923Z" stroke="#6161FF" stroke-width="4" stroke-miterlimit="10" stroke-linecap="round" stroke-linejoin="round"/>
<path d="M25.5015 35.3339L25.9202 35.8569L26.9135 36.6935L28.1163 37.2689L29.3712 37.478H30.051L31.097 37.4257L32.875 36.8503L34.287 35.8569L35.0192 34.4973L35.1235 33.7127L35.0192 32.9285L34.287 31.5688L32.875 30.5752L31.097 29.9998L30.051 29.9478L29.0052 29.843L27.2274 29.2679L25.8154 28.2742L25.0833 26.9146L24.9788 26.1301L25.0833 25.3458L25.8154 23.9862L27.2274 22.9402L29.0052 22.3651L30.051 22.3127H30.7308L31.9861 22.5742L33.1888 23.1494L34.1822 23.9862L34.6006 24.4569" stroke="#6161FF" stroke-width="4" stroke-miterlimit="10" stroke-linecap="round" stroke-linejoin="round"/>
<path d="M30.052 37.4778V40.0399" stroke="#6161FF" stroke-width="4" stroke-miterlimit="10" stroke-linecap="round" stroke-linejoin="round"/>
<path d="M30.052 19.8025V22.3126" stroke="#6161FF" stroke-width="4" stroke-miterlimit="10" stroke-linecap="round" stroke-linejoin="round"/>
</g>
<defs>
<clipPath id="clip0_1_2411">
<rect width="60" height="60" fill="white"/>
</clipPath>
</defs>
</svg>
