<svg width="60" height="60" viewBox="0 0 60 60" fill="none" xmlns="http://www.w3.org/2000/svg">
<path fill-rule="evenodd" clip-rule="evenodd" d="M10.3434 4.81427H49.6566H50.6371L51.9331 5.14679L52.5811 5.7948L53.5616 6.44275L54.2095 7.0907L54.8575 8.07123L55.1815 9.36713V10.3391V49.6609V50.6329L54.8575 51.6049L54.2095 52.5854L53.5616 53.5573L52.5811 54.2053L51.9331 54.5293L50.6371 54.8533L49.6566 55.1858H10.3434L9.37137 54.8533L8.3909 54.5293L7.41891 54.2053L6.44693 53.5573L5.79044 52.5854L5.46646 51.6049L5.14249 50.6329L4.81851 49.6609V10.3391L5.14249 9.36713L5.46646 8.07123L5.79044 7.0907L6.44693 6.44275L7.41891 5.7948L8.3909 5.14679L9.37137 4.81427H10.3434Z" stroke="#6161FF" stroke-width="4" stroke-miterlimit="10" stroke-linecap="round" stroke-linejoin="round"/>
<path d="M17.4884 4.81427V55.1858" stroke="#6161FF" stroke-width="4" stroke-miterlimit="10" stroke-linecap="round" stroke-linejoin="round"/>
<path d="M42.5114 4.81427V55.1858" stroke="#6161FF" stroke-width="4" stroke-miterlimit="10" stroke-linecap="round" stroke-linejoin="round"/>
<path d="M4.81851 29.8377H55.1815" stroke="#6161FF" stroke-width="4" stroke-miterlimit="10" stroke-linecap="round" stroke-linejoin="round"/>
<path d="M4.81851 17.4925H17.4881" stroke="#6161FF" stroke-width="4" stroke-miterlimit="10" stroke-linecap="round" stroke-linejoin="round"/>
<path d="M4.81851 42.5076H17.4881" stroke="#6161FF" stroke-width="4" stroke-miterlimit="10" stroke-linecap="round" stroke-linejoin="round"/>
<path d="M42.5114 42.5076H55.181" stroke="#6161FF" stroke-width="4" stroke-miterlimit="10" stroke-linecap="round" stroke-linejoin="round"/>
<path d="M42.5114 17.4925H55.181" stroke="#6161FF" stroke-width="4" stroke-miterlimit="10" stroke-linecap="round" stroke-linejoin="round"/>
</svg>
