<svg width="60" height="60" viewBox="0 0 60 60" fill="none" xmlns="http://www.w3.org/2000/svg">
<g clip-path="url(#clip0_1_1676)">
<path d="M16.2014 57.6114L11.2066 48.8566C9.63515 46.1068 10.5332 42.5713 13.2831 40.8875C15.977 39.204 19.5686 39.9897 21.3084 42.6272L26.0788 49.7547V20.123C26.0788 16.8678 28.7162 14.2304 31.9713 14.2304C35.2262 14.2304 37.9202 16.8678 37.9202 20.123V41.8418H46.787C52.9044 42.1221 57.6745 47.1731 57.6183 53.2902V57.6114" stroke="#6161FF" stroke-width="4" stroke-miterlimit="10" stroke-linecap="round" stroke-linejoin="round"/>
<path d="M3.3493 4.35304C2.05853 4.35304 2.05853 2.38861 3.3493 2.38861" stroke="#6161FF" stroke-width="4" stroke-miterlimit="170.782"/>
<path d="M3.34973 4.35304C4.69666 4.35304 4.69666 2.38861 3.34973 2.38861" stroke="#6161FF" stroke-width="4" stroke-miterlimit="170.782"/>
<path d="M17.1562 4.35304C15.8654 4.35304 15.8654 2.38861 17.1562 2.38861" stroke="#6161FF" stroke-width="4" stroke-miterlimit="170.782"/>
<path d="M17.1547 4.35304C18.5016 4.35304 18.5016 2.38861 17.1547 2.38861" stroke="#6161FF" stroke-width="4" stroke-miterlimit="170.782"/>
<path d="M3.3493 18.1589C2.05853 18.1589 2.05853 16.1948 3.3493 16.1948" stroke="#6161FF" stroke-width="4" stroke-miterlimit="170.782"/>
<path d="M3.34973 18.1589C4.69666 18.1589 4.69666 16.1948 3.34973 16.1948" stroke="#6161FF" stroke-width="4" stroke-miterlimit="170.782"/>
<path d="M17.1562 18.1589C15.8654 18.1589 15.8654 16.1948 17.1562 16.1948" stroke="#6161FF" stroke-width="4" stroke-miterlimit="170.782"/>
<path d="M17.1547 18.1589C18.5016 18.1589 18.5016 16.1948 17.1547 16.1948" stroke="#6161FF" stroke-width="4" stroke-miterlimit="170.782"/>
<path d="M3.3493 31.9644C2.05853 31.9644 2.05853 29.9999 3.3493 29.9999" stroke="#6161FF" stroke-width="4" stroke-miterlimit="170.782"/>
<path d="M3.34973 31.9644C4.69666 31.9644 4.69666 29.9999 3.34973 29.9999" stroke="#6161FF" stroke-width="4" stroke-miterlimit="170.782"/>
<path d="M17.1562 31.9644C15.8654 31.9644 15.8654 29.9999 17.1562 29.9999" stroke="#6161FF" stroke-width="4" stroke-miterlimit="170.782"/>
<path d="M17.1547 31.9644C18.5016 31.9644 18.5016 29.9999 17.1547 29.9999" stroke="#6161FF" stroke-width="4" stroke-miterlimit="170.782"/>
<path d="M31.0163 4.35304C29.6692 4.35304 29.6692 2.38861 31.0163 2.38861" stroke="#6161FF" stroke-width="4" stroke-miterlimit="170.782"/>
<path d="M31.0184 4.35304C32.3092 4.35304 32.3092 2.38861 31.0184 2.38861" stroke="#6161FF" stroke-width="4" stroke-miterlimit="170.782"/>
</g>
<defs>
<clipPath id="clip0_1_1676">
<rect width="60" height="60" fill="white"/>
</clipPath>
</defs>
</svg>
