<svg width="60" height="60" viewBox="0 0 60 60" fill="none" xmlns="http://www.w3.org/2000/svg">
<path d="M23.1714 54.9196L17.1 48.0953L16.5824 47.4363L16.1587 46.0715L16.2998 44.8008L16.9117 43.6711L17.9 42.8239L19.0768 42.3534H20.3473L21.618 42.9182L22.23 43.53L26.5127 48.3306V28.4693L26.5598 27.8106L27.0306 26.587L27.9249 25.6927L29.1486 25.2219L29.8073 25.1748L30.4662 25.2219L31.6898 25.6927L32.5842 26.587L33.0549 27.8106L33.1018 28.4693V43.3417H36.4434L37.4316 43.3889L39.4086 43.7653L41.1498 44.5183L42.7499 45.6008L44.115 46.9656L45.1973 48.5189L45.9504 50.3072L46.3269 52.237L46.374 53.2724V54.9196" stroke="#6161FF" stroke-width="4" stroke-miterlimit="10" stroke-linecap="round" stroke-linejoin="round"/>
<path d="M41.3842 33.5993L42.2784 32.6581L43.7375 30.7283L44.9141 28.5635L45.7141 26.3044L46.2317 23.9042L46.373 21.5038L46.1377 19.1036L45.573 16.7034L45.1023 15.5266L44.6316 14.3501L43.3607 12.2323L41.8077 10.3497L40.0194 8.74959L37.9954 7.38455L35.8306 6.34914L33.5244 5.64331L31.077 5.26657L29.8063 5.21973L28.4415 5.26657L25.853 5.64331L23.4526 6.44337L21.2406 7.52567L19.3112 8.8907L17.5697 10.5379L16.1577 12.4206L14.9341 14.4443L14.0869 16.6091L13.4751 18.8682L13.2397 21.2216L13.2869 23.5746L13.7104 25.928L14.5105 28.281L15.687 30.4933L17.2872 32.611L18.2286 33.5993" stroke="#6161FF" stroke-width="4" stroke-miterlimit="10" stroke-linecap="round" stroke-linejoin="round"/>
</svg>
