<svg width="60" height="60" viewBox="0 0 60 60" fill="none" xmlns="http://www.w3.org/2000/svg">
<path fill-rule="evenodd" clip-rule="evenodd" d="M9.85309 37.6393L10.1856 36.9828L12.1296 36.3348L15.054 35.3628L17.3304 35.0388H19.9308H22.5312L25.1317 35.6868L30 37.6393L34.5529 39.2592L37.1533 39.9072H40.0778H42.6782L44.6221 39.5832L47.8705 38.6112L49.499 37.9633L50.1469 37.6393V7.41467L49.499 7.73865L47.8705 8.71912L44.6221 9.36707L42.6782 9.6911L40.0778 10.0151L37.1533 9.6911L34.5529 9.04309L30 7.41467L25.1317 5.4707L22.5312 5.14673L19.9308 4.81421H17.3304L15.054 5.14673L12.1296 6.11871L10.1856 7.09064L9.85309 7.41467V37.6393Z" stroke="#6161FF" stroke-width="4" stroke-miterlimit="10" stroke-linecap="round" stroke-linejoin="round"/>
<path d="M9.85309 55.1859V37.6394" stroke="#6161FF" stroke-width="4" stroke-miterlimit="10" stroke-linecap="round" stroke-linejoin="round"/>
</svg>
