<svg width="60" height="60" viewBox="0 0 60 60" fill="none" xmlns="http://www.w3.org/2000/svg">
<path fill-rule="evenodd" clip-rule="evenodd" d="M29.8752 5.00439L32.4757 5.32837L35.0762 5.65234L37.3441 6.30035L39.6205 6.9483L41.897 8.25281L43.8494 9.22473L45.7933 10.8447L47.7457 12.4731L49.3657 14.1016L50.6702 16.0455L51.9662 18.322L52.9467 20.2744L53.9186 22.5424L54.5665 25.1428L54.8905 27.7432V30.0197V32.6201L54.5665 35.2205L53.9186 37.4969L52.9467 40.0888L51.9662 42.0413L50.6702 44.3177L49.3657 46.2616L47.7457 47.8901L45.7933 49.5186L43.8494 51.1385L41.897 52.1105L39.6205 53.4149L37.3441 54.0629L35.0762 54.7109L32.4757 55.0349L29.8752 55.3674L27.2749 55.0349L24.6744 54.7109L22.3981 54.0629L20.1216 53.4149L17.8536 52.1105L15.9012 51.1385L13.9487 49.5186L12.0049 47.8901L10.3763 46.2616L9.08044 44.3177L7.776 42.0413L6.80396 40.0888L5.83203 37.4969L5.17554 35.2205L4.85156 32.6201V30.0197V27.7432L5.17554 25.1428L5.83203 22.5424L6.80396 20.2744L7.776 18.322L9.08044 16.0455L10.3763 14.1016L12.0049 12.4731L13.9487 10.8447L15.9012 9.22473L17.8536 8.25281L20.1216 6.9483L22.3981 6.30035L24.6744 5.65234L27.2749 5.32837L29.8752 5.00439Z" stroke="#6161FF" stroke-width="4" stroke-miterlimit="10" stroke-linecap="round" stroke-linejoin="round"/>
<path fill-rule="evenodd" clip-rule="evenodd" d="M29.875 20.2744H31.819L33.7715 20.9224L35.3999 21.8943L37.0198 23.1989L38.3243 24.4948L38.9723 26.1232L39.6202 28.0672L39.9442 30.0197L39.6202 32.2961L38.9723 33.916L38.3243 35.8685L37.0198 37.1644L35.3999 38.4689L33.7715 39.4409L31.819 40.0888H29.875H27.9226L25.9702 39.4409L24.3502 38.4689L22.7218 37.1644L21.4258 35.8685L20.4539 33.916L20.1213 32.2961L19.7974 30.0197L20.1213 28.0672L20.4539 26.1232L21.4258 24.4948L22.7218 23.1989L24.3502 21.8943L25.9702 20.9224L27.9226 20.2744H29.875Z" stroke="#6161FF" stroke-width="4" stroke-miterlimit="10" stroke-linecap="round" stroke-linejoin="round"/>
<path d="M12.0044 12.4731L22.7216 23.1989" stroke="#6161FF" stroke-width="4" stroke-miterlimit="10" stroke-linecap="round" stroke-linejoin="round"/>
<path d="M37.0195 37.1646L47.7452 47.8902" stroke="#6161FF" stroke-width="4" stroke-miterlimit="10" stroke-linecap="round" stroke-linejoin="round"/>
<path d="M37.0195 23.1989L47.7452 12.4731" stroke="#6161FF" stroke-width="4" stroke-miterlimit="10" stroke-linecap="round" stroke-linejoin="round"/>
<path d="M37.0195 23.1988L45.7928 14.1016" stroke="#6161FF" stroke-width="4" stroke-miterlimit="10" stroke-linecap="round" stroke-linejoin="round"/>
<path d="M12.0044 47.8902L22.7216 37.1646" stroke="#6161FF" stroke-width="4" stroke-miterlimit="10" stroke-linecap="round" stroke-linejoin="round"/>
</svg>
