<svg width="60" height="60" viewBox="0 0 60 60" fill="none" xmlns="http://www.w3.org/2000/svg">
<g clip-path="url(#clip0_1_603)">
<path fill-rule="evenodd" clip-rule="evenodd" d="M4.36002 47.1458H34.0068H34.2706L35.273 47.6205L35.8006 48.3591L35.8531 48.9921V56.4302V56.6412L35.4311 57.6962L34.64 58.2238L34.0068 58.2766H4.36002H4.09619L3.09409 57.8543L2.5665 57.0632L2.51367 56.4302V48.9921V48.7811L2.93564 47.7258L3.72705 47.1985L4.36002 47.1458Z" stroke="#6161FF" stroke-width="4" stroke-miterlimit="10" stroke-linecap="round" stroke-linejoin="round"/>
<path fill-rule="evenodd" clip-rule="evenodd" d="M26.6212 28.6294H56.2683H56.5318L57.5342 29.0516L58.0618 29.8428L58.1147 30.4757V37.9139V38.1249L57.6924 39.1801L56.9013 39.7074L56.2683 39.7603H26.6212H26.3578L25.3553 39.2855L24.8277 38.5469L24.7749 37.9139V30.4757V30.2648L25.1972 29.2098L25.9883 28.6822L26.6212 28.6294Z" stroke="#6161FF" stroke-width="4" stroke-miterlimit="10" stroke-linecap="round" stroke-linejoin="round"/>
<path fill-rule="evenodd" clip-rule="evenodd" d="M4.36002 2.67505H34.0068H34.2706L35.273 3.09705L35.8006 3.88843L35.8531 4.52142V11.9067V12.1706L35.4311 13.2255L34.64 13.7003L34.0068 13.8059H4.36002H4.09619L3.09409 13.3311L2.5665 12.5397L2.51367 11.9067V4.52142V4.25763L2.93564 3.25549L3.72705 2.72791L4.36002 2.67505Z" stroke="#6161FF" stroke-width="4" stroke-miterlimit="10" stroke-linecap="round" stroke-linejoin="round"/>
<path d="M17.3379 13.8062V17.4988L17.3907 18.2374L17.9709 19.5562L18.9732 20.5586L20.292 21.1387L21.0306 21.1915H32.1611L32.8997 21.2443L34.2713 21.8245L35.2737 22.8268L35.8013 24.1456L35.8538 24.8842V28.6294" stroke="#6161FF" stroke-width="4" stroke-miterlimit="10" stroke-linecap="round" stroke-linejoin="round"/>
<path d="M46.9844 39.7603V50.8911L46.9315 51.6294L46.404 52.9484L45.4019 53.9505L44.0303 54.5309L43.2917 54.5838H35.8535" stroke="#6161FF" stroke-width="4" stroke-miterlimit="10" stroke-linecap="round" stroke-linejoin="round"/>
</g>
<defs>
<clipPath id="clip0_1_603">
<rect width="60" height="60" fill="white"/>
</clipPath>
</defs>
</svg>
