<svg width="60" height="60" viewBox="0 0 60 60" fill="none" xmlns="http://www.w3.org/2000/svg">
<path fill-rule="evenodd" clip-rule="evenodd" d="M27.5369 11.6696C28.9859 13.2797 31.5621 13.2797 33.0114 11.6696L34.8227 9.69733C37.1169 7.12115 41.424 8.89221 41.2227 12.3538L41.1021 15.0106C40.9814 17.1842 42.7927 18.9955 44.9663 18.8748L47.623 18.7541C51.0847 18.593 52.8557 22.8597 50.2796 25.1945L48.3073 26.9656C46.6973 28.4146 46.6973 30.9908 48.3073 32.4401L50.2796 34.2111C52.8557 36.5457 51.0847 40.8527 47.623 40.6514L44.9663 40.5308C42.7927 40.4101 40.9814 42.2214 41.1021 44.395L41.2227 47.0518C41.3837 50.4731 37.1169 52.2444 34.8227 49.7083L33.0114 47.736C31.5621 46.126 29.0262 46.126 27.5369 47.736L25.7658 49.7083C23.431 52.2444 19.1645 50.5134 19.3254 47.0518L19.4864 44.395C19.5668 42.2214 17.7555 40.4101 15.5819 40.5308L12.9251 40.6514C9.4635 40.8527 7.69244 36.5457 10.2686 34.2513L12.2409 32.4401C13.851 30.9908 13.851 28.4549 12.2409 26.9656L10.2686 25.1945C7.69244 22.8597 9.4635 18.593 12.9251 18.7541L15.5819 18.8748C17.7555 18.9955 19.5668 17.1842 19.4461 15.0106L19.3254 12.3538C19.1645 8.89221 23.431 7.12115 25.7658 9.69733L27.5369 11.6696Z" stroke="#6161FF" stroke-width="4" stroke-miterlimit="10" stroke-linecap="round" stroke-linejoin="round"/>
<path fill-rule="evenodd" clip-rule="evenodd" d="M21.7812 29.7028C21.7812 34.4124 25.6054 38.1963 30.2745 38.1963C34.9439 38.1963 38.7681 34.4124 38.7681 29.7028C38.7681 25.0336 34.9439 21.2095 30.2745 21.2095C25.6054 21.2095 21.7812 25.0336 21.7812 29.7028Z" stroke="#6161FF" stroke-width="4" stroke-miterlimit="10" stroke-linecap="round" stroke-linejoin="round"/>
</svg>
