<svg width="60" height="60" viewBox="0 0 60 60" fill="none" xmlns="http://www.w3.org/2000/svg">
<path fill-rule="evenodd" clip-rule="evenodd" d="M20.7554 23.5434C20.3493 23.3913 19.9943 23.1375 19.6898 22.7821L18.2182 21.1076C16.2393 18.9259 12.5861 20.448 12.789 23.3913V25.6237C12.8903 27.4504 11.3682 28.9728 9.54156 28.8712L7.30877 28.7191C4.3659 28.6174 2.89422 32.2202 5.07623 34.1482L6.75079 35.6198C7.41033 36.2289 7.76544 37.0914 7.76544 38.0047C7.76544 38.918 7.41033 39.7805 6.75079 40.3897L5.07623 41.9118C4.11212 42.7742 3.80755 44.1951 4.26422 45.4129C4.77166 46.58 5.98956 47.3412 7.30877 47.2904H9.54156C11.3682 47.189 12.8903 48.7112 12.789 50.5379V52.7706C12.6365 55.7135 16.2393 57.1851 18.2182 55.0031L19.6898 53.3794C20.9584 52.0094 23.0897 52.0094 24.3072 53.3794L25.8295 55.0031C27.7579 57.1851 31.3603 55.7135 31.2082 52.7706V50.5379C31.1066 48.7112 32.629 47.189 34.4556 47.2904H36.6882C38.7685 47.392 40.3417 45.5145 39.8848 43.5355C39.7327 42.8759 39.4282 42.3176 38.921 41.9118L37.2973 40.3897C36.5868 39.7805 36.2315 38.918 36.2315 38.0047C36.2315 37.0914 36.5868 36.2289 37.2973 35.6198L38.921 34.1482C41.1027 32.2202 39.6314 28.6174 36.6882 28.7191L34.4556 28.8712C32.629 28.9728 31.1066 27.4504 31.2082 25.5729V23.3913C31.4112 20.448 27.7579 18.9259 25.8295 21.1076L24.3072 22.7821C23.3939 23.7971 21.9731 24.1016 20.7554 23.5434Z" stroke="#6161FF" stroke-width="4" stroke-miterlimit="10" stroke-linecap="round" stroke-linejoin="round"/>
<path fill-rule="evenodd" clip-rule="evenodd" d="M22.0239 42.4194C24.4597 42.4194 26.4893 40.3898 26.4893 37.9541C26.4893 35.4678 24.4597 33.4888 22.0239 33.4888C19.5377 33.4888 17.5078 35.4678 17.5078 37.9541C17.5078 40.3898 19.5377 42.4194 22.0239 42.4194Z" stroke="#6161FF" stroke-width="4" stroke-miterlimit="10" stroke-linecap="round" stroke-linejoin="round"/>
<path d="M45.4677 15.78C43.8441 15.78 43.8441 13.395 45.4677 13.395" stroke="#6161FF" stroke-width="4" stroke-miterlimit="170.782"/>
<path d="M45.4673 15.78C47.0403 15.78 47.0403 13.395 45.4673 13.395" stroke="#6161FF" stroke-width="4" stroke-miterlimit="170.782"/>
<path fill-rule="evenodd" clip-rule="evenodd" d="M40.6471 5.32711C40.6978 2.993 43.7423 2.1813 44.9602 4.16006L46.3809 6.3926C46.8881 7.20455 47.903 7.45833 48.715 7.05245L51.0493 5.78377C53.0788 4.71834 55.3114 6.95083 54.195 8.98043L52.9771 11.3145C52.5205 12.1265 52.825 13.1415 53.5863 13.6486L55.8696 15.0695C57.7978 16.2873 56.9858 19.3318 54.7025 19.4334L52.013 19.5348C51.0997 19.5348 50.3894 20.296 50.3388 21.2093L50.2373 23.8479C50.1864 26.1821 47.1419 26.9938 45.9243 25.015L44.5035 22.7822C44.0468 21.9705 43.0319 21.7168 42.2199 22.1226L39.8353 23.3913C37.8054 24.4567 35.573 22.2242 36.6892 20.1944L37.9071 17.8603C38.3637 16.9977 38.1099 16.0336 37.2983 15.5261L35.0654 14.1053C33.0866 12.8878 33.8984 9.84322 36.1817 9.7416L38.8712 9.64028C39.7845 9.64028 40.4948 8.87911 40.5457 7.96578L40.6471 5.32711Z" stroke="#6161FF" stroke-width="4" stroke-miterlimit="10" stroke-linecap="round" stroke-linejoin="round"/>
</svg>
