<svg width="60" height="60" viewBox="0 0 60 60" fill="none" xmlns="http://www.w3.org/2000/svg">
<g clip-path="url(#clip0_1_1122)">
<path d="M2.48267 2.60156V57.7192H57.6003" stroke="#6161FF" stroke-width="4" stroke-miterlimit="10" stroke-linecap="round" stroke-linejoin="round"/>
<path d="M39.7151 21.7936L50.6968 7.98828" stroke="#6161FF" stroke-width="4" stroke-miterlimit="10" stroke-linecap="round" stroke-linejoin="round"/>
<path d="M24.1836 18.7603L34.0148 23.153" stroke="#6161FF" stroke-width="4" stroke-miterlimit="10" stroke-linecap="round" stroke-linejoin="round"/>
<path d="M2.48267 28.3298L17.7003 19.1787" stroke="#6161FF" stroke-width="4" stroke-miterlimit="10" stroke-linecap="round" stroke-linejoin="round"/>
<path d="M38.7732 41.2466L50.3823 34.8145" stroke="#6161FF" stroke-width="4" stroke-miterlimit="10" stroke-linecap="round" stroke-linejoin="round"/>
<path d="M20.8359 43.0249H31.8698" stroke="#6161FF" stroke-width="4" stroke-miterlimit="10" stroke-linecap="round" stroke-linejoin="round"/>
<path d="M2.48267 50.3983L13.8826 44.6982" stroke="#6161FF" stroke-width="4" stroke-miterlimit="10" stroke-linecap="round" stroke-linejoin="round"/>
<path fill-rule="evenodd" clip-rule="evenodd" d="M17.1763 17.2963L17.2286 18.0285L17.8037 19.3358L18.7974 20.3815L20.1046 20.9045L20.8368 20.9568L21.621 20.9045L22.9286 20.3815L23.922 19.3358L24.4974 18.0285L24.5494 17.2963L24.4974 16.5641L23.922 15.2045L22.9286 14.2108L21.621 13.6881L20.8368 13.6357L20.1046 13.6881L18.7974 14.2108L17.8037 15.2045L17.2286 16.5641L17.1763 17.2963Z" stroke="#6161FF" stroke-width="4" stroke-miterlimit="10" stroke-linecap="round" stroke-linejoin="round"/>
<path fill-rule="evenodd" clip-rule="evenodd" d="M33.7012 24.6697L33.7535 25.4019L34.3289 26.7094L35.3223 27.7028L36.6296 28.2782L37.4141 28.3303L38.1462 28.2782L39.4536 27.7028L40.4472 26.7094L41.0223 25.4019L41.0746 24.6697L41.0223 23.8854L40.4472 22.5782L39.4536 21.5845L38.1462 21.0094L37.4141 20.957L36.6296 21.0094L35.3223 21.5845L34.3289 22.5782L33.7535 23.8854L33.7012 24.6697Z" stroke="#6161FF" stroke-width="4" stroke-miterlimit="10" stroke-linecap="round" stroke-linejoin="round"/>
<path fill-rule="evenodd" clip-rule="evenodd" d="M50.2773 6.26215L50.3294 6.99426L50.8524 8.35394L51.8461 9.34759L53.2057 9.8703L53.9379 9.92267L54.6698 9.8703L56.0294 9.34759L57.0231 8.35394L57.5461 6.99426L57.5984 6.26215L57.5461 5.52997L57.0231 4.17035L56.0294 3.17694L54.6698 2.65393L53.9379 2.60156L53.2057 2.65393L51.8461 3.17694L50.8524 4.17035L50.3294 5.52997L50.2773 6.26215Z" stroke="#6161FF" stroke-width="4" stroke-miterlimit="10" stroke-linecap="round" stroke-linejoin="round"/>
<path fill-rule="evenodd" clip-rule="evenodd" d="M50.2773 33.8207L50.3294 34.6053L50.8524 35.9125L51.8461 36.9062L53.2057 37.4813L53.9379 37.5337L54.6698 37.4813L56.0294 36.9062L57.0231 35.9125L57.5461 34.6053L57.5984 33.8207L57.5461 33.0889L57.0231 31.7813L56.0294 30.7879L54.6698 30.2125L53.9379 30.1602L53.2057 30.2125L51.8461 30.7879L50.8524 31.7813L50.3294 33.0889L50.2773 33.8207Z" stroke="#6161FF" stroke-width="4" stroke-miterlimit="10" stroke-linecap="round" stroke-linejoin="round"/>
<path fill-rule="evenodd" clip-rule="evenodd" d="M31.8706 43.0248L31.9229 43.757L32.4984 45.1166L33.4917 46.11L34.7993 46.633L35.5311 46.6854L36.3157 46.633L37.6229 46.11L38.6166 45.1166L39.1917 43.757L39.2441 43.0248L39.1917 42.2927L38.6166 40.9854L37.6229 39.9396L36.3157 39.4166L35.5311 39.3643L34.7993 39.4166L33.4917 39.9396L32.4984 40.9854L31.9229 42.2927L31.8706 43.0248Z" stroke="#6161FF" stroke-width="4" stroke-miterlimit="10" stroke-linecap="round" stroke-linejoin="round"/>
<path fill-rule="evenodd" clip-rule="evenodd" d="M13.5154 43.0248L13.5677 43.757L14.0905 45.1166L15.0842 46.11L16.4438 46.633L17.176 46.6854L17.9081 46.633L19.2154 46.11L20.2611 45.1166L20.7841 43.757L20.8365 43.0248L20.7841 42.2927L20.2611 40.9854L19.2154 39.9396L17.9081 39.4166L17.176 39.3643L16.4438 39.4166L15.0842 39.9396L14.0905 40.9854L13.5677 42.2927L13.5154 43.0248Z" stroke="#6161FF" stroke-width="4" stroke-miterlimit="10" stroke-linecap="round" stroke-linejoin="round"/>
</g>
<defs>
<clipPath id="clip0_1_1122">
<rect width="60" height="60" fill="white"/>
</clipPath>
</defs>
</svg>
