<svg width="60" height="60" viewBox="0 0 60 60" fill="none" xmlns="http://www.w3.org/2000/svg">
<path d="M54.9722 55.3018H4.68945" stroke="#6161FF" stroke-width="4" stroke-miterlimit="10" stroke-linecap="round" stroke-linejoin="round"/>
<path fill-rule="evenodd" clip-rule="evenodd" d="M43.2362 39.6543H49.9629L50.2968 39.7021L50.9169 39.9404L51.3463 40.4175L51.5848 40.9899L51.6326 41.324V55.3021H41.5664V41.324L41.6143 40.9899L41.8528 40.4175L42.3297 39.9404L42.9023 39.7021L43.2362 39.6543Z" stroke="#6161FF" stroke-width="4" stroke-miterlimit="10" stroke-linecap="round" stroke-linejoin="round"/>
<path fill-rule="evenodd" clip-rule="evenodd" d="M26.4924 30.7334H33.1714H33.5055L34.1256 31.0195L34.5551 31.4489L34.8411 32.069V32.4031V55.3022H24.8228V32.4031V32.069L25.109 31.4489L25.5385 31.0195L26.1586 30.7334H26.4924Z" stroke="#6161FF" stroke-width="4" stroke-miterlimit="10" stroke-linecap="round" stroke-linejoin="round"/>
<path fill-rule="evenodd" clip-rule="evenodd" d="M9.69897 21.7642H16.4257L16.7595 21.8119L17.3319 22.0502L17.8091 22.5273L18.0476 23.0998L18.0955 23.4339V55.3018H8.0293V23.4339L8.07703 23.0998L8.31555 22.5273L8.745 22.0502L9.36511 21.8119L9.69897 21.7642Z" stroke="#6161FF" stroke-width="4" stroke-miterlimit="10" stroke-linecap="round" stroke-linejoin="round"/>
<path d="M13.0391 5.01904L49.0096 21.3348" stroke="#6161FF" stroke-width="4" stroke-miterlimit="10" stroke-linecap="round" stroke-linejoin="round"/>
<path d="M46.2889 14.2266L49.0082 21.3349L41.8999 24.0064" stroke="#6161FF" stroke-width="4" stroke-miterlimit="10" stroke-linecap="round" stroke-linejoin="round"/>
</svg>
