<svg width="60" height="60" viewBox="0 0 60 60" fill="none" xmlns="http://www.w3.org/2000/svg">
<path d="M4.66602 55.3022H54.9487" stroke="#6161FF" stroke-width="4" stroke-miterlimit="10" stroke-linecap="round" stroke-linejoin="round"/>
<path fill-rule="evenodd" clip-rule="evenodd" d="M16.4032 39.6548H9.67651L9.34265 39.7026L8.72253 39.9409L8.29309 40.418L8.05457 40.9904L8.00684 41.3245V55.3026H18.073V41.3245L18.0251 40.9904L17.7866 40.418L17.3094 39.9409L16.7371 39.7026L16.4032 39.6548Z" stroke="#6161FF" stroke-width="4" stroke-miterlimit="10" stroke-linecap="round" stroke-linejoin="round"/>
<path fill-rule="evenodd" clip-rule="evenodd" d="M33.1475 30.7339H26.4685H26.1346L25.5145 31.02L25.0851 31.4493L24.7988 32.0695V32.4036V55.3027H34.8171V32.4036V32.0695L34.5311 31.4493L34.1017 31.02L33.4816 30.7339H33.1475Z" stroke="#6161FF" stroke-width="4" stroke-miterlimit="10" stroke-linecap="round" stroke-linejoin="round"/>
<path fill-rule="evenodd" clip-rule="evenodd" d="M49.9402 21.7646H43.2135L42.8796 21.8124L42.307 22.0507L41.8301 22.5278L41.5916 23.1003L41.5437 23.4344V55.3023H51.6099V23.4344L51.5621 23.1003L51.3236 22.5278L50.8942 22.0507L50.274 21.8124L49.9402 21.7646Z" stroke="#6161FF" stroke-width="4" stroke-miterlimit="10" stroke-linecap="round" stroke-linejoin="round"/>
<path d="M12.2993 24.0068L48.2699 7.64355" stroke="#6161FF" stroke-width="4" stroke-miterlimit="10" stroke-linecap="round" stroke-linejoin="round"/>
<path d="M45.5989 14.7994L48.2706 7.64355L41.1624 5.01953" stroke="#6161FF" stroke-width="4" stroke-miterlimit="10" stroke-linecap="round" stroke-linejoin="round"/>
</svg>
