<svg width="60" height="60" viewBox="0 0 60 60" fill="none" xmlns="http://www.w3.org/2000/svg">
<path fill-rule="evenodd" clip-rule="evenodd" d="M27.0004 31.0497L26.9578 31.4353L26.6577 32.1208L26.1437 32.6777L25.4153 32.9775L25.0297 33.0205H9.34882L8.9632 32.9775L8.27777 32.6777L7.72083 32.1208L7.42078 31.4353V31.0497V9.37064V8.98502L7.72083 8.25671L8.27777 7.74239L8.9632 7.44257L9.34882 7.39968L25.0297 7.44257H25.4153L26.1437 7.74239L26.6577 8.29935L26.9578 8.98502L27.0004 9.37064V31.0497Z" stroke="#6161FF" stroke-width="4" stroke-miterlimit="10" stroke-linecap="round" stroke-linejoin="round"/>
<path fill-rule="evenodd" clip-rule="evenodd" d="M52.5793 19.0104L52.5364 19.3961L52.2363 20.1244L51.7223 20.6384L51.0369 20.9385H50.6083H34.9703H34.5847L33.8564 20.6384L33.3423 20.1244L33.0423 19.439L32.9994 19.0104V9.37064L33.0423 8.94213L33.3423 8.25671L33.8564 7.74239L34.5418 7.44257H34.9703L50.6083 7.39968L51.0369 7.44257L51.7223 7.69973L52.2363 8.25671L52.5364 8.94213L52.5793 9.32774V19.0104Z" stroke="#6161FF" stroke-width="4" stroke-miterlimit="10" stroke-linecap="round" stroke-linejoin="round"/>
<path fill-rule="evenodd" clip-rule="evenodd" d="M27.0004 50.6296L26.9578 51.0581L26.6577 51.7435L26.1437 52.2576L25.4153 52.5577L25.0297 52.6003L9.34882 52.5577L8.9632 52.5148L8.27777 52.2576L7.72083 51.7006L7.42078 51.0152V50.6296V40.9469V40.5613L7.72083 39.8756L8.27777 39.3615L8.9632 39.0617L9.34882 39.0188H25.0297L25.4153 39.0617L26.1437 39.3615L26.6577 39.8756L26.9578 40.5613L27.0004 40.9469V50.6296Z" stroke="#6161FF" stroke-width="4" stroke-miterlimit="10" stroke-linecap="round" stroke-linejoin="round"/>
<path fill-rule="evenodd" clip-rule="evenodd" d="M34.9703 52.6L34.5847 52.5574L33.8564 52.2573L33.3423 51.7004L33.0423 51.0149L32.9994 50.6293V28.9502L33.0423 28.5646L33.3423 27.8363L33.8564 27.3222L34.5418 27.0222L34.9703 26.9793H50.6083L51.0369 27.0222L51.7223 27.3222L52.2792 27.8363L52.5793 28.5646V28.9502V50.5864V50.972L52.2792 51.7004L51.7223 52.2144L51.0369 52.5145L50.6512 52.5574L34.9703 52.6Z" stroke="#6161FF" stroke-width="4" stroke-miterlimit="10" stroke-linecap="round" stroke-linejoin="round"/>
</svg>
