<svg width="60" height="60" viewBox="0 0 60 60" fill="none" xmlns="http://www.w3.org/2000/svg">
<path d="M4.12305 35.0039V56.1399" stroke="#6161FF" stroke-width="4" stroke-miterlimit="10" stroke-linecap="round" stroke-linejoin="round"/>
<path d="M4.12305 52.6259H39.4163C39.4163 48.71 36.2534 45.5472 32.3376 45.5472H23.5016C23.5016 41.6813 20.3389 38.5186 16.4733 38.5186H4.12305" stroke="#6161FF" stroke-width="4" stroke-miterlimit="10" stroke-linecap="round" stroke-linejoin="round"/>
<path d="M16.4731 45.5471H23.5015" stroke="#6161FF" stroke-width="4" stroke-miterlimit="10" stroke-linecap="round" stroke-linejoin="round"/>
<path fill-rule="evenodd" clip-rule="evenodd" d="M32.3379 24.4112C32.3379 27.3232 34.6975 29.6826 37.6594 29.6826C40.5712 29.6826 42.9308 27.3232 42.9308 24.4112C42.9308 21.4492 40.5712 19.0896 37.6594 19.0896C34.6975 19.0896 32.3379 21.4492 32.3379 24.4112Z" stroke="#6161FF" stroke-width="4" stroke-miterlimit="10" stroke-linecap="round" stroke-linejoin="round"/>
<path d="M41.9259 40.2756L42.2775 37.665C43.934 37.0623 45.4905 36.2089 46.7957 35.0543L51.3642 36.9118C53.021 37.5644 54.8786 36.9118 55.732 35.4058L56.234 34.5522C57.0873 33.0462 56.7361 31.1384 55.3304 30.0339L51.5151 27.0217C51.8662 25.2647 51.8662 23.5074 51.5151 21.7504L55.3304 18.7381C56.7361 17.6837 57.0873 15.7259 56.234 14.2196L55.732 13.4165C54.8786 11.8603 53.021 11.2076 51.3642 11.8603L46.7957 13.7178C45.4905 12.5631 43.934 11.7095 42.3274 11.1071L41.5746 6.23737C41.3738 4.48035 39.8676 3.2251 38.1106 3.2251H37.1567C35.3993 3.2251 33.9436 4.48035 33.6927 6.23737L32.9898 11.1071C31.3329 11.7095 29.7768 12.5631 28.4712 13.7178L23.9028 11.8603C22.246 11.2076 20.3887 11.8603 19.5351 13.4165L19.033 14.2196C18.1796 15.7259 18.5312 17.6837 19.9366 18.7381L23.8025 21.7504C23.4007 23.5074 23.4007 25.2647 23.8025 27.0217L19.9366 30.0339" stroke="#6161FF" stroke-width="4" stroke-miterlimit="10" stroke-linecap="round" stroke-linejoin="round"/>
</svg>
