<svg width="60" height="60" viewBox="0 0 60 60" fill="none" xmlns="http://www.w3.org/2000/svg">
<path fill-rule="evenodd" clip-rule="evenodd" d="M13.6275 43.0705H11.9995H11.3483L10.046 42.7914L8.88324 42.2798L7.85992 41.582L6.97607 40.6984L6.23193 39.6751L5.76672 38.5121L5.48755 37.2098V36.5586V30V29.3491L5.76672 28.0466L6.23193 26.8838L6.97607 25.8139L7.85992 24.93L8.88324 24.2325L10.046 23.7207L11.3483 23.4881L11.9995 23.4418H13.6275L13.9996 23.4881L14.5579 23.7207L15.0229 24.1859L15.2555 24.744L15.3021 25.1161V41.4425L15.2555 41.768L15.0229 42.3727L14.5579 42.7914L13.9996 43.0705H13.6275Z" stroke="#6161FF" stroke-width="4" stroke-miterlimit="10" stroke-linecap="round" stroke-linejoin="round"/>
<path fill-rule="evenodd" clip-rule="evenodd" d="M48.0005 43.0705H46.3726H46.0002L45.4421 42.7914L44.9772 42.3727L44.7446 41.768L44.698 41.4425V25.1161L44.7446 24.744L44.9772 24.1859L45.4421 23.7207L46.0002 23.4881L46.3726 23.4418H48.0005L48.6516 23.4881L49.954 23.7207L51.1168 24.2325L52.1401 24.93L53.024 25.8139L53.7681 26.8838L54.2333 28.0466L54.5125 29.3491V30V36.5586V37.2098L54.2333 38.5121L53.7681 39.6751L53.024 40.6984L52.1401 41.582L51.1168 42.2798L49.954 42.7914L48.6516 43.0705H48.0005Z" stroke="#6161FF" stroke-width="4" stroke-miterlimit="10" stroke-linecap="round" stroke-linejoin="round"/>
<path d="M11.9988 23.4416L12.0919 21.6276L12.7895 18.0925L14.1385 14.8831L16.092 11.9991L18.5573 9.58044L21.3947 7.62697L24.6506 6.23158L28.1392 5.53377L29.9995 5.48718L31.8601 5.53377L35.3487 6.23158L38.6047 7.62697L41.442 9.58044L43.9073 11.9991L45.8608 14.8831L47.2098 18.0925L47.9074 21.6276L48.0005 23.4416" stroke="#6161FF" stroke-width="4" stroke-miterlimit="10" stroke-linecap="round" stroke-linejoin="round"/>
<path d="M36.5583 51.2572H41.4423H42.1401L43.3958 50.978L44.5588 50.4662L45.6285 49.7687L46.5123 48.8848L47.2101 47.8615L47.7217 46.6521L47.9543 45.3962L48.0009 44.6987V43.0707" stroke="#6161FF" stroke-width="4" stroke-miterlimit="10" stroke-linecap="round" stroke-linejoin="round"/>
<path fill-rule="evenodd" clip-rule="evenodd" d="M33.2549 54.5128H29.9989L29.3479 54.4662L28.1385 54.001L27.2547 53.1172L26.7895 51.9078L26.7429 51.2568L26.7895 50.6056L27.2547 49.3962L28.1385 48.5124L29.3479 48.0472L29.9989 48.0009H33.2549L33.9527 48.0472L35.1155 48.5124L35.9993 49.3962L36.5109 50.6056L36.5574 51.2568L36.5109 51.9078L35.9993 53.1172L35.1155 54.001L33.9527 54.4662L33.2549 54.5128Z" stroke="#6161FF" stroke-width="4" stroke-miterlimit="10" stroke-linecap="round" stroke-linejoin="round"/>
</svg>
