<svg width="60" height="60" viewBox="0 0 60 60" fill="none" xmlns="http://www.w3.org/2000/svg">
<path d="M7.41895 45.1084V29.8384L7.74295 27.562L8.06693 25.2855L8.3909 23.3416L9.36288 21.0651L10.3434 19.1127L11.3153 17.4927L12.6113 15.5403L14.2397 13.9203L15.8597 12.6159L17.4881 11.3199L19.4406 10.0154L21.3845 9.04352L23.337 8.39551L25.6134 7.74756L27.8813 7.41504H30.1577H32.4342L34.7106 7.74756L36.9871 8.39551L38.931 9.04352L40.8834 10.0154L42.8359 11.3199L44.4558 12.6159L46.0843 13.9203L47.7042 15.5403L49.0087 17.4927L49.9807 19.1127L50.9526 21.0651L51.6091 23.3416L52.2571 25.2855L52.5811 27.562V29.8384V45.1084" stroke="#6161FF" stroke-width="4" stroke-miterlimit="10" stroke-linecap="round" stroke-linejoin="round"/>
<path fill-rule="evenodd" clip-rule="evenodd" d="M52.5811 47.7081V48.6801L52.2571 49.6606L51.2766 50.9565L49.6567 52.261L48.6847 52.585H47.7042H45.1038H44.1318L43.1599 52.261L41.5314 50.9565L40.5594 49.6606L40.2355 48.6801V47.7081V39.9069V38.9349L40.5594 37.963L41.5314 36.3345L43.1599 35.3625L44.1318 35.0386H45.1038H52.5811V47.7081ZM7.41895 47.7081L7.74295 48.6801L8.06693 49.6606L9.03888 50.9565L10.6674 52.261L11.6393 52.585H12.6113H15.2117H16.1922L17.1642 52.261L18.4601 50.9565L19.7646 49.6606L20.0886 48.6801V47.7081V39.9069V38.9349L19.7646 37.963L18.4601 36.3345L17.1642 35.3625L16.1922 35.0386H15.2117H7.41895V47.7081Z" stroke="#6161FF" stroke-width="4" stroke-miterlimit="10" stroke-linecap="round" stroke-linejoin="round"/>
</svg>
