<svg width="60" height="60" viewBox="0 0 60 60" fill="none" xmlns="http://www.w3.org/2000/svg">
<path fill-rule="evenodd" clip-rule="evenodd" d="M52.0993 10.9956L50.1469 9.36714L47.5465 8.07118L44.9461 7.41469L42.3456 7.0907L39.7452 7.41469L37.1448 8.07118L34.8769 9.36714L32.6004 10.9956L30 13.92L27.3996 10.9956L25.1232 9.36714L22.8552 8.07118L20.2548 7.41469L17.6544 7.0907L15.054 7.41469L12.4535 8.07118L9.85312 9.36714L7.90919 10.9956L5.95674 13.2635L4.65227 15.8639L4.00429 18.1404L3.6803 21.0648L4.00429 23.6652L4.65227 26.2656L5.95674 28.5421L7.90919 30.81L10.5011 33.4104L30 52.9093L49.4989 33.4104L52.0993 30.81L54.0433 28.5421L55.3478 26.2656L55.9957 23.6652L56.3197 21.0648L55.9957 18.1404L55.3478 15.8639L54.0433 13.2635L52.0993 10.9956Z" stroke="#6161FF" stroke-width="4" stroke-miterlimit="10" stroke-linecap="round" stroke-linejoin="round"/>
</svg>
