<svg width="60" height="60" viewBox="0 0 60 60" fill="none" xmlns="http://www.w3.org/2000/svg">
<path fill-rule="evenodd" clip-rule="evenodd" d="M4.95502 50.0551L5.00262 51.053L5.76288 52.8588L7.1413 54.2369L8.94708 54.9974L9.94501 55.045L10.9905 54.9974L12.749 54.2369L14.127 52.8588L14.8874 51.053L14.9825 50.0551L14.8874 49.0096L14.127 47.2036L12.749 45.873L10.9905 45.1125L9.94501 45.0176L8.94708 45.1125L7.1413 45.873L5.76288 47.2036L5.00262 49.0096L4.95502 50.0551Z" stroke="#6161FF" stroke-width="4" stroke-miterlimit="10" stroke-linecap="round" stroke-linejoin="round"/>
<path fill-rule="evenodd" clip-rule="evenodd" d="M16.6464 23.299L16.694 24.3445L17.4543 26.1503L18.8323 27.4811L20.6385 28.2413L21.6364 28.3362L22.6819 28.2413L24.4877 27.4811L25.8184 26.1503L26.5787 24.3445L26.6736 23.299L26.5787 22.3011L25.8184 20.495L24.4877 19.1169L22.6819 18.3566L21.6364 18.3091L20.6385 18.3566L18.8323 19.1169L17.4543 20.495L16.694 22.3011L16.6464 23.299Z" stroke="#6161FF" stroke-width="4" stroke-miterlimit="10" stroke-linecap="round" stroke-linejoin="round"/>
<path fill-rule="evenodd" clip-rule="evenodd" d="M33.3281 36.7006L33.4233 37.6985L34.1835 39.5046L35.5142 40.8827L37.3201 41.6429L38.3655 41.6906L39.3635 41.6429L41.1694 40.8827L42.5477 39.5046L43.3079 37.6985L43.3555 36.7006L43.3079 35.6551L42.5477 33.8493L41.1694 32.5186L39.3635 31.7583L38.3655 31.6631L37.3201 31.7583L35.5142 32.5186L34.1835 33.8493L33.4233 35.6551L33.3281 36.7006Z" stroke="#6161FF" stroke-width="4" stroke-miterlimit="10" stroke-linecap="round" stroke-linejoin="round"/>
<path fill-rule="evenodd" clip-rule="evenodd" d="M45.0175 9.94501L45.1124 10.9905L45.873 12.749L47.251 14.1271L49.0095 14.8873L50.055 14.9349L51.0529 14.8873L52.8587 14.1271L54.2368 12.749L54.9974 10.9905L55.045 9.94501L54.9974 8.94708L54.2368 7.1413L52.8587 5.76294L51.0529 5.00262L50.055 4.95508L49.0095 5.00262L47.251 5.76294L45.873 7.1413L45.1124 8.94708L45.0175 9.94501Z" stroke="#6161FF" stroke-width="4" stroke-miterlimit="10" stroke-linecap="round" stroke-linejoin="round"/>
<path d="M11.9418 45.4448L19.6403 27.9087" stroke="#6161FF" stroke-width="4" stroke-miterlimit="10" stroke-linecap="round" stroke-linejoin="round"/>
<path d="M25.5825 26.436L34.4217 33.5643" stroke="#6161FF" stroke-width="4" stroke-miterlimit="10" stroke-linecap="round" stroke-linejoin="round"/>
<path d="M48.061 14.5552L40.3622 32.091" stroke="#6161FF" stroke-width="4" stroke-miterlimit="10" stroke-linecap="round" stroke-linejoin="round"/>
</svg>
