<svg width="60" height="60" viewBox="0 0 60 60" fill="none" xmlns="http://www.w3.org/2000/svg">
<path fill-rule="evenodd" clip-rule="evenodd" d="M54.3097 22.8605L30.027 4.54126L5.69666 22.8605L5.36292 23.2421L4.93347 24.1487L4.83789 24.6258V52.6294L4.88574 53.1065L5.21985 53.8698L5.83997 54.4899L6.60327 54.824H7.03259H21.6309V43.0881L21.6786 42.2294L22.0125 40.6074L22.6326 39.0807L23.5391 37.7451L24.684 36.6L26.0198 35.6935L27.4988 35.0733L29.1685 34.7395L30.027 34.6917L30.8857 34.7395L32.5077 35.0733L34.0344 35.6935L35.3702 36.6L36.5151 37.7451L37.4216 39.0807L38.0417 40.6074L38.3756 42.2294L38.4233 43.0881V54.824H52.9739H53.451L54.2142 54.4899L54.7866 53.8698L55.1207 53.1065L55.1685 52.6772V24.6258L55.1207 24.1487L54.6914 23.2421L54.3097 22.8605Z" stroke="#6161FF" stroke-width="4" stroke-miterlimit="10" stroke-linecap="round" stroke-linejoin="round"/>
</svg>
