<svg width="60" height="60" viewBox="0 0 60 60" fill="none" xmlns="http://www.w3.org/2000/svg">
<path fill-rule="evenodd" clip-rule="evenodd" d="M15.8393 14.4678L16.0931 15.8889L16.9055 18.5284L18.0223 20.9649L19.4433 23.097L21.2199 25.0766L23.3013 26.7516L25.7377 28.2235L28.4786 29.4927L30.0014 30.0001L31.5244 29.4927L34.2653 28.2235L36.7018 26.7516L38.783 25.0766L40.5596 23.097L41.9807 20.9649L43.0975 18.5284L43.9098 15.8889L44.1634 14.4678L44.265 13.6554L43.8082 12.2343L42.8436 11.0668L41.4225 10.4069L40.661 10.3561H19.342L18.5805 10.4069L17.1591 11.0668L16.1948 12.2343L15.7379 13.6554L15.8393 14.4678Z" stroke="#6161FF" stroke-width="4" stroke-miterlimit="10" stroke-linecap="round" stroke-linejoin="round"/>
<path d="M10.3558 3.24963H49.6442" stroke="#6161FF" stroke-width="4" stroke-miterlimit="10" stroke-linecap="round" stroke-linejoin="round"/>
<path fill-rule="evenodd" clip-rule="evenodd" d="M19.342 49.6441L18.5805 49.5933L17.1591 48.9334L16.1948 47.7658L15.7379 46.3448L15.8393 45.5324L16.0931 44.1113L16.9055 41.4718L18.0223 39.0858L19.4433 36.9032L21.2199 34.9235L23.3013 33.2486L25.7377 31.7764L28.4786 30.5074L30.0014 29.9998L31.5244 30.5074L34.2653 31.7764L36.7018 33.2486L38.783 34.9235L40.5596 36.9032L41.9807 39.0858L43.0975 41.4718L43.9098 44.1113L44.1634 45.5324L44.265 46.3448L43.8082 47.7658L42.8436 48.9334L41.4225 49.5933L40.661 49.6441H19.342Z" stroke="#6161FF" stroke-width="4" stroke-miterlimit="10" stroke-linecap="round" stroke-linejoin="round"/>
<path d="M10.3558 56.7504H49.6442" stroke="#6161FF" stroke-width="4" stroke-miterlimit="10" stroke-linecap="round" stroke-linejoin="round"/>
</svg>
