<svg width="60" height="60" viewBox="0 0 60 60" fill="none" xmlns="http://www.w3.org/2000/svg">
<path fill-rule="evenodd" clip-rule="evenodd" d="M12.6198 7.41467H47.7127H48.6848L49.6567 7.74719L51.2851 8.71915L52.2571 10.3391L52.5811 11.3196V12.2915V47.7085V48.6804L52.2571 49.6609L51.2851 50.9569L49.6567 52.2613L48.6848 52.5853H47.7127H12.6198H11.3154L10.3433 52.2613L9.04742 50.9569L7.74298 49.6609L7.41888 48.6804V47.7085V12.2915V11.3196L7.74298 10.3391L9.04742 8.71915L10.3433 7.74719L11.3154 7.41467H12.6198Z" stroke="#6161FF" stroke-width="4" stroke-miterlimit="10" stroke-linecap="round" stroke-linejoin="round"/>
<path fill-rule="evenodd" clip-rule="evenodd" d="M21.3926 17.4923L22.6887 17.8163L23.9931 18.4643L24.6411 19.7688L24.965 21.0647L24.6411 22.6932L23.9931 23.9891L22.6887 24.6371L21.3926 24.9611L19.7642 24.6371L18.4682 23.9891L17.8203 22.6932L17.4877 21.0647L17.8203 19.7688L18.4682 18.4643L19.7642 17.8163L21.3926 17.4923Z" stroke="#6161FF" stroke-width="4" stroke-miterlimit="10" stroke-linecap="round" stroke-linejoin="round"/>
<path d="M52.5799 37.6392L40.2342 24.9611L12.6186 52.5853" stroke="#6161FF" stroke-width="4" stroke-miterlimit="10" stroke-linecap="round" stroke-linejoin="round"/>
</svg>
