<svg width="60" height="60" viewBox="0 0 60 60" fill="none" xmlns="http://www.w3.org/2000/svg">
<g clip-path="url(#clip0_1_1950)">
<path d="M35.4998 41.0532H33.6663L32.9331 41.0007L31.6232 40.4246L30.6281 39.4292L30.0516 38.1196L29.9993 37.3862V28.1663V27.7997L29.6851 27.1187L29.2136 26.6472L28.5326 26.3328H28.1658H26.3323" stroke="#6161FF" stroke-width="4" stroke-miterlimit="10" stroke-linecap="round" stroke-linejoin="round"/>
<path d="M29.0576 18.9465L28.6383 18.8941L28.2192 18.3702V17.6891L28.6383 17.1655L29.0576 17.113" stroke="#6161FF" stroke-width="4" stroke-miterlimit="1747.71"/>
<path d="M29.0571 18.9465L29.4762 18.8941L29.9478 18.3702V17.6891L29.4762 17.1655L29.0571 17.113" stroke="#6161FF" stroke-width="4" stroke-miterlimit="1747.71"/>
<path fill-rule="evenodd" clip-rule="evenodd" d="M29.9999 57.6072H31.4143L34.1908 57.2928L36.9148 56.7688L39.4817 55.9832L41.9962 54.9353L44.3536 53.6258L46.5537 52.1589L48.5968 50.4303L50.4303 48.5968L52.1588 46.5538L53.6257 44.3537L54.9353 41.9963L55.9832 39.4817L56.7688 36.9148L57.2927 34.1908L57.6072 31.4143V29.9999V28.5857L57.2927 25.8092L56.7688 23.0852L55.9832 20.5182L54.9353 18.0038L53.6257 15.6463L52.1588 13.4462L50.4303 11.4033L48.5968 9.56976L46.5537 7.84088L44.3536 6.37427L41.9962 5.0647L39.4817 4.01678L36.9148 3.2312L34.1908 2.70728L31.4143 2.39282H29.9999H28.5857L25.8092 2.70728L23.0852 3.2312L20.5183 4.01678L18.0038 5.0647L15.6464 6.37427L13.4463 7.84088L11.4032 9.56976L9.5697 11.4033L7.84082 13.4462L6.37427 15.6463L5.0647 18.0038L4.01685 20.5182L3.2312 23.0852L2.70728 25.8092L2.39282 28.5857V29.9999V31.4143L2.70728 34.1908L3.2312 36.9148L4.01685 39.4817L5.0647 41.9963L6.37427 44.3537L7.84082 46.5538L9.5697 48.5968L11.4032 50.4303L13.4463 52.1589L15.6464 53.6258L18.0038 54.9353L20.5183 55.9832L23.0852 56.7688L25.8092 57.2928L28.5857 57.6072H29.9999Z" stroke="#6161FF" stroke-width="4" stroke-miterlimit="10" stroke-linecap="round" stroke-linejoin="round"/>
</g>
<defs>
<clipPath id="clip0_1_1950">
<rect width="60" height="60" fill="white"/>
</clipPath>
</defs>
</svg>
