<svg width="60" height="60" viewBox="0 0 60 60" fill="none" xmlns="http://www.w3.org/2000/svg">
<path fill-rule="evenodd" clip-rule="evenodd" d="M30.1577 4.81848L32.7582 5.14252L35.0346 5.46649L37.635 6.11444L39.9114 6.76245L42.1794 8.06689L44.1318 9.03888L46.0843 10.6588L47.7042 12.2873L49.3326 13.9157L50.9526 15.8597L52.2571 18.1361L53.2291 20.0886L54.201 22.3564L54.5335 24.9569L55.1815 27.5573V29.8337V32.4341L54.5335 35.0346L54.201 37.311L53.2291 39.903L52.2571 41.8554L50.9526 44.1318L49.3326 46.0757L47.7042 47.7042L46.0843 49.3327L44.1318 50.9526L42.1794 51.9246L39.9114 53.2291L37.635 53.877L35.0346 54.525L32.7582 54.849L30.1577 55.1815L27.5573 54.849L24.9569 54.525L22.689 53.877L20.4125 53.2291L18.1361 51.9246L16.1922 50.9526L14.2397 49.3327L12.2873 47.7042L10.6674 46.0757L9.36285 44.1318L8.06689 41.8554L7.08643 39.903L6.11444 37.311L5.46649 35.0346L5.14252 32.4341L4.81848 29.8337L5.14252 27.5573L5.46649 24.9569L6.11444 22.3564L7.08643 20.0886L8.06689 18.1361L9.36285 15.8597L10.6674 13.9157L12.2873 12.2873L14.2397 10.6588L16.1922 9.03888L18.1361 8.06689L20.4125 6.76245L22.689 6.11444L24.9569 5.46649L27.5573 5.14252L30.1577 4.81848Z" stroke="#6161FF" stroke-width="4" stroke-miterlimit="10" stroke-linecap="round" stroke-linejoin="round"/>
<path d="M29.5096 38.9307V28.8615" stroke="#6161FF" stroke-width="4" stroke-miterlimit="10" stroke-linecap="round" stroke-linejoin="round"/>
<path d="M29.3805 21.6007L29.3805 20.6007" stroke="#6161FF" stroke-width="4" stroke-miterlimit="10" stroke-linecap="round" stroke-linejoin="round"/>
</svg>
