<svg width="60" height="60" viewBox="0 0 60 60" fill="none" xmlns="http://www.w3.org/2000/svg">
<path fill-rule="evenodd" clip-rule="evenodd" d="M31.9462 35.7641L37.8086 29.9507L41.8977 31.0345L42.3905 31.1332L43.3266 31.0839L44.2135 30.7882L45.0509 30.2957L45.3957 29.9507L45.6914 29.606L46.1348 28.7684L46.3319 27.8817V26.9455L46.2332 26.5021L45.1493 22.4623L47.0707 20.738L51.1105 21.8218L51.6032 21.8712H52.5394L53.4262 21.5755L54.2637 21.083L54.6084 20.738L54.9041 20.3439L55.3475 19.5557L55.5939 18.6689V17.7327L55.4952 17.2894L54.4114 13.2496L55.1012 12.4121L55.9386 10.4414V8.37231L55.1012 6.40161L54.4114 5.56415L53.5739 4.82501L51.6032 4.03687H49.4848L47.5634 4.82501L46.7259 5.56415L24.2605 28.0787L23.0782 27.5859L20.6148 26.9948L18.1023 26.8964L15.6882 27.1918L13.3234 27.8817L11.1066 28.9655L9.08659 30.4434L7.31294 32.2664L6.57411 33.301L5.88434 34.3848L4.84979 36.7003L4.25867 39.1144L4.06136 41.5775L4.30772 44.041L4.94818 46.4058L5.98299 48.6719L7.46094 50.7412L8.34776 51.6771L9.28365 52.5639L11.353 54.0419L13.6191 55.0764L15.9839 55.7169L18.4473 55.9632L20.9105 55.7662L23.3246 55.175L25.64 54.1405L26.7239 53.4507L27.7584 52.7116L29.5814 50.9382L31.0593 48.9182L32.1432 46.7012L32.833 44.3364L33.1284 41.9225L33.03 39.4098L32.4386 36.9467L31.9462 35.7641Z" stroke="#6161FF" stroke-width="4" stroke-miterlimit="10" stroke-linecap="round" stroke-linejoin="round"/>
<path fill-rule="evenodd" clip-rule="evenodd" d="M12.191 43.45L12.24 44.3365L12.9298 45.9131L14.1124 47.0956L15.6887 47.7852L16.5755 47.8345L17.4623 47.7852L19.0389 47.0956L20.2705 45.9131L20.911 44.3365L20.9603 43.45L20.911 42.5631L20.2705 40.9865L19.0389 39.7549L17.4623 39.1145L16.5755 39.0652L15.6887 39.1145L14.1124 39.7549L12.9298 40.9865L12.24 42.5631L12.191 43.45Z" stroke="#6161FF" stroke-width="4" stroke-miterlimit="10" stroke-linecap="round" stroke-linejoin="round"/>
</svg>
