<svg width="60" height="60" viewBox="0 0 60 60" fill="none" xmlns="http://www.w3.org/2000/svg">
<path fill-rule="evenodd" clip-rule="evenodd" d="M54.3673 18.5706L31.5637 6.78697L30.8003 6.45312H29.1783L28.3673 6.78697L5.56372 18.5706L5.22961 18.8092L4.84802 19.4294V20.1926L5.22961 20.8128L5.56372 21.0513L28.3673 32.8347L29.1783 33.1689H30.8003L31.5637 32.8347L54.3673 21.0513L54.7489 20.8128L55.083 20.1926V19.4294L54.7489 18.8092L54.3673 18.5706Z" stroke="#6161FF" stroke-width="4" stroke-miterlimit="10" stroke-linecap="round" stroke-linejoin="round"/>
<path d="M4.8479 31.5464L28.3672 42.9007L29.1782 43.2345H30.8002L31.5636 42.9007L55.1782 31.5464" stroke="#6161FF" stroke-width="4" stroke-miterlimit="10" stroke-linecap="round" stroke-linejoin="round"/>
<path d="M4.8479 41.6125L28.3672 52.9666L29.1782 53.3007H30.8002L31.5636 52.9666L55.1782 41.6125" stroke="#6161FF" stroke-width="4" stroke-miterlimit="10" stroke-linecap="round" stroke-linejoin="round"/>
</svg>
