<svg width="60" height="60" viewBox="0 0 60 60" fill="none" xmlns="http://www.w3.org/2000/svg">
<path fill-rule="evenodd" clip-rule="evenodd" d="M7.08322 11.6487L7.12674 12.6054L7.82242 14.2145L9.08371 15.4755L10.7361 16.1712L11.6493 16.2583L12.606 16.1712L14.2151 15.4755L15.4761 14.2145L16.1718 12.6054L16.2589 11.6487L16.1718 10.7355L15.4761 9.0831L14.2151 7.82184L12.606 7.12613L11.6493 7.08258L10.7361 7.12613L9.08371 7.82184L7.82242 9.0831L7.12674 10.7355L7.08322 11.6487Z" stroke="#6161FF" stroke-width="4" stroke-miterlimit="10" stroke-linecap="round" stroke-linejoin="round"/>
<path fill-rule="evenodd" clip-rule="evenodd" d="M7.08322 30.0002L7.12674 30.9136L7.82242 32.566L9.08371 33.8271L10.7361 34.523L11.6493 34.5663L12.606 34.523L14.2151 33.8271L15.4761 32.566L16.1718 30.9136L16.2589 30.0002L16.1718 29.0871L15.4761 27.4347L14.2151 26.1736L12.606 25.4777L11.6493 25.4341L10.7361 25.4777L9.08371 26.1736L7.82242 27.4347L7.12674 29.0871L7.08322 30.0002Z" stroke="#6161FF" stroke-width="4" stroke-miterlimit="10" stroke-linecap="round" stroke-linejoin="round"/>
<path fill-rule="evenodd" clip-rule="evenodd" d="M7.08322 48.3514L7.12674 49.2645L7.82242 50.9169L9.08371 52.1779L10.7361 52.8739L11.6493 52.9174L12.606 52.8739L14.2151 52.1779L15.4761 50.9169L16.1718 49.2645L16.2589 48.3514L16.1718 47.3947L15.4761 45.7856L14.2151 44.5245L12.606 43.8286L11.6493 43.7418L10.7361 43.8286L9.08371 44.5245L7.82242 45.7856L7.12674 47.3947L7.08322 48.3514Z" stroke="#6161FF" stroke-width="4" stroke-miterlimit="10" stroke-linecap="round" stroke-linejoin="round"/>
<path d="M22.3459 11.649H52.9168" stroke="#6161FF" stroke-width="4" stroke-miterlimit="10" stroke-linecap="round" stroke-linejoin="round"/>
<path d="M22.3459 30.0001H52.9168" stroke="#6161FF" stroke-width="4" stroke-miterlimit="10" stroke-linecap="round" stroke-linejoin="round"/>
<path d="M22.3459 48.3516H52.9168" stroke="#6161FF" stroke-width="4" stroke-miterlimit="10" stroke-linecap="round" stroke-linejoin="round"/>
</svg>
