<svg width="60" height="60" viewBox="0 0 60 60" fill="none" xmlns="http://www.w3.org/2000/svg">
<g clip-path="url(#clip0_1_731)">
<path fill-rule="evenodd" clip-rule="evenodd" d="M52.5853 24.7991V28.0475L51.6049 31.3045L50.6329 34.5529L49.337 37.4773L47.3845 40.0777L45.4321 43.0021L41.5356 47.8705L37.3068 51.7754L33.7344 55.0238L30.162 57.6157L26.5896 55.0238L23.0172 51.7754L18.7883 47.8705L14.568 43.0021L12.9395 40.0777L10.9956 37.4773L9.6911 34.5529L8.3952 31.3045L7.73865 28.0475L7.41467 24.7991L7.73865 22.5312L8.07117 20.2548L8.71918 17.9784L9.36713 16.0259L10.3391 14.082L11.3196 12.1296L12.6155 10.5096L14.244 8.88116L15.864 7.25269L17.4924 5.95673L19.4363 4.9848L21.3888 4.00427L23.3412 3.35632L25.6177 2.70831L27.8856 2.38434H30.162H32.4385L34.7149 2.70831L36.9828 3.35632L38.9352 4.00427L40.8877 4.9848L42.8316 5.95673L44.4601 7.25269L46.08 8.88116L47.7085 10.5096L49.0045 12.1296L49.9849 14.082L50.9569 16.0259L51.6049 17.9784L52.2613 20.2548L52.5853 22.5312V24.7991Z" stroke="#6161FF" stroke-width="4" stroke-miterlimit="10" stroke-linecap="round" stroke-linejoin="round"/>
<path fill-rule="evenodd" clip-rule="evenodd" d="M30.1642 17.3306H31.7927L33.0886 17.9786L34.3846 18.6266L35.3651 19.6071L36.337 20.579L36.985 21.875L37.6415 23.1794V24.7994V26.4279L36.985 27.7238L36.337 29.0283L35.3651 30.3242L34.3846 30.9722L33.0886 31.9527L31.7927 32.2767H30.1642H28.5443L27.2398 31.9527L25.9438 30.9722L24.9634 30.3242L23.9914 29.0283L23.3434 27.7238L22.6954 26.4279V24.7994V23.1794L23.3434 21.875L23.9914 20.579L24.9634 19.6071L25.9438 18.6266L27.2398 17.9786L28.5443 17.3306H30.1642Z" stroke="#6161FF" stroke-width="4" stroke-miterlimit="10" stroke-linecap="round" stroke-linejoin="round"/>
</g>
<defs>
<clipPath id="clip0_1_731">
<rect width="60" height="60" fill="white"/>
</clipPath>
</defs>
</svg>
