<svg width="60" height="60" viewBox="0 0 60 60" fill="none" xmlns="http://www.w3.org/2000/svg">
<g clip-path="url(#clip0_1_396)">
<path fill-rule="evenodd" clip-rule="evenodd" d="M24.3999 24.9365L24.4527 26.0446L25.297 28.0491L26.8267 29.5788L28.8312 30.423L29.9389 30.4755L31.047 30.423L33.0515 29.5788L34.5812 28.0491L35.4254 26.0446L35.4779 24.9365L35.4254 23.7762L34.5812 21.7715L33.0515 20.2946L31.047 19.4503L29.9389 19.345L28.8312 19.4503L26.8267 20.2946L25.297 21.7715L24.4527 23.7762L24.3999 24.9365Z" stroke="#6161FF" stroke-width="4" stroke-miterlimit="10" stroke-linecap="round" stroke-linejoin="round"/>
<path d="M29.9395 30.4758V41.6067" stroke="#6161FF" stroke-width="4" stroke-miterlimit="10" stroke-linecap="round" stroke-linejoin="round"/>
<path fill-rule="evenodd" clip-rule="evenodd" d="M2.13867 30.4755V31.8998L2.45529 34.6958L2.98291 37.4389L3.77403 40.0238L4.82925 42.5559L6.14798 44.9299L7.62486 47.1454L9.36586 49.2027L11.2122 51.049L13.2695 52.7897L15.485 54.2669L17.859 55.5856L20.3911 56.6409L22.976 57.4319L25.7191 57.9596L28.515 58.2762H29.9391H31.3634L34.1594 57.9596L36.9025 57.4319L39.4874 56.6409L42.0195 55.5856L44.3935 54.2669L46.609 52.7897L48.6663 51.049L50.5126 49.2027L52.2533 47.1454L53.7305 44.9299L55.0492 42.5559L56.1044 40.0238L56.8956 37.4389L57.4232 34.6958L57.7398 31.8998V30.4755V29.0514L57.4232 26.2555L56.8956 23.5124L56.1044 20.9275L55.0492 18.3954L53.7305 16.0214L52.2533 13.8059L50.5126 11.7486L48.6663 9.90228L46.609 8.16125L44.3935 6.68439L42.0195 5.36566L39.4874 4.31042L36.9025 3.51929L34.1594 2.9917L31.3634 2.67505H29.9391H28.515L25.7191 2.9917L22.976 3.51929L20.3911 4.31042L17.859 5.36566L15.485 6.68439L13.2695 8.16125L11.2122 9.90228L9.36586 11.7486L7.62486 13.8059L6.14798 16.0214L4.82925 18.3954L3.77403 20.9275L2.98291 23.5124L2.45529 26.2555L2.13867 29.0514V30.4755Z" stroke="#6161FF" stroke-width="4" stroke-miterlimit="10" stroke-linecap="round" stroke-linejoin="round"/>
</g>
<defs>
<clipPath id="clip0_1_396">
<rect width="60" height="60" fill="white"/>
</clipPath>
</defs>
</svg>
