<svg width="60" height="60" viewBox="0 0 60 60" fill="none" xmlns="http://www.w3.org/2000/svg">
<path fill-rule="evenodd" clip-rule="evenodd" d="M33.3142 4.43213V26.4999H55.3823L55.33 24.1993L54.441 19.911L52.7675 15.9369L50.3621 12.4331L47.3813 9.45233L43.8776 7.04694L39.9031 5.37347L35.6151 4.4845L33.3142 4.43213Z" stroke="#6161FF" stroke-width="4" stroke-miterlimit="10" stroke-linecap="round" stroke-linejoin="round"/>
<path fill-rule="evenodd" clip-rule="evenodd" d="M25.9931 11.7529L24.3199 11.8053L21.0776 12.3283L17.9925 13.2693L15.0638 14.6292L12.3969 16.4072L10.0436 18.551L7.95209 21.0611L6.27863 23.8851L5.59882 25.4015L4.97131 26.9703L4.18683 30.1081L3.92529 33.3501L4.0824 36.54L4.70984 39.7299L5.75555 42.7106L7.27228 45.587L9.20697 48.2538L10.3575 49.4567L11.5603 50.6072L14.2272 52.5419L17.1032 54.0586L20.084 55.1043L23.2739 55.7318L26.4638 55.8889L29.7061 55.6274L32.8436 54.8428L34.4127 54.2154L35.9291 53.5356L38.7527 51.8621L41.2628 49.7703L43.407 47.4172L45.1849 44.7501L46.5446 41.8217L47.4858 38.7365L48.0089 35.4942L48.0612 33.8207H25.9931V11.7529Z" stroke="#6161FF" stroke-width="4" stroke-miterlimit="10" stroke-linecap="round" stroke-linejoin="round"/>
</svg>
