<svg width="60" height="60" viewBox="0 0 60 60" fill="none" xmlns="http://www.w3.org/2000/svg">
<path fill-rule="evenodd" clip-rule="evenodd" d="M27.1035 7.78223H29.3799L31.3323 8.10623L33.2762 8.76273L35.2287 9.41071L38.4771 11.0306L41.4015 13.631L44.002 16.5555L45.6304 20.1364L46.2784 21.7563L46.9263 23.7088L47.2504 25.6527V27.9291V29.8816L46.9263 31.8255L46.2784 33.778L45.6304 35.7304L44.002 38.9788L41.4015 41.9032L38.4771 44.5036L35.2287 46.4476L33.2762 47.1041L31.3323 47.4281L29.3799 47.752L27.1035 48.076L25.1595 47.752L23.2071 47.4281L21.2546 47.1041L19.3107 46.4476L16.0623 44.5036L13.1379 41.9032L10.5375 38.9788L8.58502 35.7304L7.93701 33.778L7.61304 31.8255L7.28906 29.8816V27.9291V25.6527L7.61304 23.7088L7.93701 21.7563L8.58502 20.1364L10.5375 16.5555L13.1379 13.631L16.0623 11.0306L19.3107 9.41071L21.2546 8.76273L23.2071 8.10623L25.1595 7.78223H27.1035Z" stroke="#6161FF" stroke-width="4" stroke-miterlimit="10" stroke-linecap="round" stroke-linejoin="round"/>
<path d="M52.4501 52.953L41.4004 41.9033" stroke="#6161FF" stroke-width="4" stroke-miterlimit="10" stroke-linecap="round" stroke-linejoin="round"/>
</svg>
