<svg width="60" height="60" viewBox="0 0 60 60" fill="none" xmlns="http://www.w3.org/2000/svg">
<g clip-path="url(#clip0_1_103)">
<path fill-rule="evenodd" clip-rule="evenodd" d="M17.306 38.6353H11.7141H10.7645L8.97102 38.2659L7.33566 37.5273L5.80595 36.5252L4.59257 35.3118L3.59016 33.7821L2.85188 32.1467L2.48242 30.3532V29.4037V28.4541L2.85188 26.6077L3.59016 24.9724L4.59257 23.4952L5.80595 22.2293L7.33566 21.2269L8.97102 20.4883L10.7645 20.1191H11.7141H17.306V38.6353Z" stroke="#6161FF" stroke-width="4" stroke-miterlimit="10" stroke-linecap="round" stroke-linejoin="round"/>
<path fill-rule="evenodd" clip-rule="evenodd" d="M17.3044 38.6353L19.3618 38.6879L23.3708 39.0045L27.3801 39.5846L31.3366 40.4817L35.1874 41.6419L38.9857 43.0663L42.6256 44.8073L46.1598 46.8118L47.9008 47.9196L50.6967 49.7659V8.98828L47.9008 10.8346L46.1598 11.9427L42.6256 13.9472L38.9857 15.6879L35.1874 17.1122L31.3366 18.3256L27.3801 19.1696L23.3708 19.8025L19.3618 20.0663L17.3044 20.1191V38.6353Z" stroke="#6161FF" stroke-width="4" stroke-miterlimit="10" stroke-linecap="round" stroke-linejoin="round"/>
<path d="M58.0818 25.6582V33.0964" stroke="#6161FF" stroke-width="4" stroke-miterlimit="10" stroke-linecap="round" stroke-linejoin="round"/>
<path d="M17.3044 38.6353L17.3573 40.4816L18.0956 44.0158L19.5199 47.3393L21.5772 50.3462L22.8435 51.6121" stroke="#6161FF" stroke-width="4" stroke-miterlimit="10" stroke-linecap="round" stroke-linejoin="round"/>
</g>
<defs>
<clipPath id="clip0_1_103">
<rect width="60" height="60" fill="white"/>
</clipPath>
</defs>
</svg>
