<svg width="60" height="60" viewBox="0 0 60 60" fill="none" xmlns="http://www.w3.org/2000/svg">
<g clip-path="url(#clip0_1_272)">
<path d="M2.06104 2.68359L57.3009 57.9149" stroke="#6161FF" stroke-width="4" stroke-miterlimit="10" stroke-linecap="round" stroke-linejoin="round"/>
<path d="M21.2263 22.5063V29.9751L21.5503 31.9276L22.2068 33.5475L23.1788 35.176L24.8073 36.4719L26.1032 37.1199L27.0752 37.4524L28.3796 37.7764H29.6756L30.9801 37.4524L32.276 36.7959L33.248 36.1479L34.2285 35.4999" stroke="#6161FF" stroke-width="4" stroke-miterlimit="10" stroke-linecap="round" stroke-linejoin="round"/>
<path d="M36.5058 22.5065V10.4763L36.1733 7.88446L35.2014 5.93201L33.5814 3.97955L32.601 3.33157L31.305 3.0076L29.6765 2.68359H28.0566L26.4281 3.0076L25.1322 3.65558L23.8277 4.62753L22.8557 5.60803L21.8838 6.90396L21.5513 8.53244" stroke="#6161FF" stroke-width="4" stroke-miterlimit="10" stroke-linecap="round" stroke-linejoin="round"/>
<path d="M41.3743 42.6446L38.7739 44.9211L35.5255 46.5495L32.2771 47.5215L29.0287 47.8455L25.7803 47.5215L22.5319 46.5495L19.2835 44.9211L16.683 42.9686L14.4066 40.0442L12.7867 37.1198L11.4822 33.5474L11.1582 30.299V25.0981" stroke="#6161FF" stroke-width="4" stroke-miterlimit="10" stroke-linecap="round" stroke-linejoin="round"/>
<path d="M46.5762 25.0981V30.299L46.2522 33.2234" stroke="#6161FF" stroke-width="4" stroke-miterlimit="10" stroke-linecap="round" stroke-linejoin="round"/>
<path d="M29.0293 47.8457V57.9149" stroke="#6161FF" stroke-width="4" stroke-miterlimit="10" stroke-linecap="round" stroke-linejoin="round"/>
<path d="M18.9592 57.915H38.7736" stroke="#6161FF" stroke-width="4" stroke-miterlimit="10" stroke-linecap="round" stroke-linejoin="round"/>
</g>
<defs>
<clipPath id="clip0_1_272">
<rect width="60" height="60" fill="white"/>
</clipPath>
</defs>
</svg>
