<svg width="60" height="60" viewBox="0 0 60 60" fill="none" xmlns="http://www.w3.org/2000/svg">
<path fill-rule="evenodd" clip-rule="evenodd" d="M25.0928 26.6136V27.3848L25.3928 28.8417L25.9927 30.2126L26.7639 31.4124L27.792 32.3976L28.9918 33.2117L30.3627 33.8116L31.8192 34.1114H32.5905H33.3617L34.8612 33.8116L36.1895 33.2117L37.3892 32.3976L38.4174 31.4124L39.2314 30.2126L39.7885 28.8417L40.0883 27.3848L40.1311 26.6136L40.0883 25.8427L39.7885 24.3431L39.2314 23.0149L38.4174 21.8152L37.3892 20.787L36.1895 19.9729L34.8612 19.373L33.3617 19.0732H32.5905H31.8192L30.3627 19.373L28.9918 19.9729L27.792 20.787L26.7639 21.8152L25.9927 23.0149L25.3928 24.3431L25.0928 25.8427V26.6136Z" stroke="#6161FF" stroke-width="4" stroke-miterlimit="10" stroke-linecap="round" stroke-linejoin="round"/>
<path fill-rule="evenodd" clip-rule="evenodd" d="M43.1309 11.5323L43.2164 12.4749L43.9021 14.0603L45.1444 15.3027L46.7299 15.9881L47.6724 16.031L48.572 15.9881L50.2001 15.3027L51.4425 14.0603L52.1282 12.4749L52.171 11.5323L52.1282 10.6327L51.4425 9.00464L50.2001 7.76202L48.572 7.0766L47.6724 7.03369L46.7299 7.0766L45.1444 7.76202L43.9021 9.00464L43.2164 10.6327L43.1309 11.5323Z" stroke="#6161FF" stroke-width="4" stroke-miterlimit="10" stroke-linecap="round" stroke-linejoin="round"/>
<path fill-rule="evenodd" clip-rule="evenodd" d="M43.1309 37.1534L43.2164 38.053L43.9021 39.681L45.1444 40.9237L46.7299 41.6091L47.6724 41.652L48.572 41.6091L50.2001 40.9237L51.4425 39.681L52.1282 38.053L52.171 37.1534L52.1282 36.2108L51.4425 34.5828L50.2001 33.3831L48.572 32.6976L47.6724 32.6118L46.7299 32.6976L45.1444 33.3831L43.9021 34.5828L43.2164 36.2108L43.1309 37.1534Z" stroke="#6161FF" stroke-width="4" stroke-miterlimit="10" stroke-linecap="round" stroke-linejoin="round"/>
<path fill-rule="evenodd" clip-rule="evenodd" d="M28.0918 47.6929L28.1348 48.5926L28.8204 50.2206L30.0629 51.463L31.6908 52.1487L32.5905 52.1916L33.5331 52.1487L35.1614 51.463L36.3608 50.2206L37.0463 48.5926L37.1321 47.6929L37.0463 46.7504L36.3608 45.1221L35.1614 43.9226L33.5331 43.2369L32.5905 43.1514L31.6908 43.2369L30.0629 43.9226L28.8204 45.1221L28.1348 46.7504L28.0918 47.6929Z" stroke="#6161FF" stroke-width="4" stroke-miterlimit="10" stroke-linecap="round" stroke-linejoin="round"/>
<path fill-rule="evenodd" clip-rule="evenodd" d="M7.01074 47.6929L7.05371 48.5926L7.73914 50.2206L8.98169 51.463L10.6097 52.1487L11.5094 52.1916L12.452 52.1487L14.0374 51.463L15.2798 50.2206L15.9652 48.5926L16.051 47.6929L15.9652 46.7504L15.2798 45.1221L14.0374 43.9226L12.452 43.2369L11.5094 43.1514L10.6097 43.2369L8.98169 43.9226L7.73914 45.1221L7.05371 46.7504L7.01074 47.6929Z" stroke="#6161FF" stroke-width="4" stroke-miterlimit="10" stroke-linecap="round" stroke-linejoin="round"/>
<path fill-rule="evenodd" clip-rule="evenodd" d="M8.51221 16.0738L8.55505 16.9734L9.24048 18.6014L10.4832 19.8012L12.1111 20.4866L13.0109 20.5724L13.9534 20.4866L15.5814 19.8012L16.7811 18.6014L17.4666 16.9734L17.5524 16.0738L17.4666 15.1312L16.7811 13.5032L15.5814 12.3035L13.9534 11.618L13.0109 11.5322L12.1111 11.618L10.4832 12.3035L9.24048 13.5032L8.55505 15.1312L8.51221 16.0738Z" stroke="#6161FF" stroke-width="4" stroke-miterlimit="10" stroke-linecap="round" stroke-linejoin="round"/>
<path d="M37.9448 21.2578L44.457 14.7456" stroke="#6161FF" stroke-width="4" stroke-miterlimit="10" stroke-linecap="round" stroke-linejoin="round"/>
<path d="M39.2305 30.2124L43.8147 34.7969" stroke="#6161FF" stroke-width="4" stroke-miterlimit="10" stroke-linecap="round" stroke-linejoin="round"/>
<path d="M32.5903 34.1113V43.1515" stroke="#6161FF" stroke-width="4" stroke-miterlimit="10" stroke-linecap="round" stroke-linejoin="round"/>
<path d="M27.278 31.9268L14.7246 44.4801" stroke="#6161FF" stroke-width="4" stroke-miterlimit="10" stroke-linecap="round" stroke-linejoin="round"/>
<path d="M25.5652 23.8719L16.7393 18.6021" stroke="#6161FF" stroke-width="4" stroke-miterlimit="10" stroke-linecap="round" stroke-linejoin="round"/>
</svg>
