<svg width="60" height="60" viewBox="0 0 60 60" fill="none" xmlns="http://www.w3.org/2000/svg">
<path d="M33.3629 31.6697H28.783L28.2106 31.7175L27.2088 32.0991L26.4456 32.767L25.9684 33.6257L25.7776 34.5798L25.9207 35.5818L26.3502 36.4881L27.1611 37.2038L27.686 37.4424L32.3133 39.3029L32.8382 39.589L33.6492 40.3047L34.0786 41.2109L34.2216 42.1652L34.0308 43.1193L33.5539 44.0258L32.7905 44.6937L31.7886 45.0753H31.1685H26.6364" stroke="#6161FF" stroke-width="4" stroke-miterlimit="10" stroke-linecap="round" stroke-linejoin="round"/>
<path d="M29.9774 31.6695V29.9998" stroke="#6161FF" stroke-width="4" stroke-miterlimit="10" stroke-linecap="round" stroke-linejoin="round"/>
<path d="M29.9774 46.7924V45.075" stroke="#6161FF" stroke-width="4" stroke-miterlimit="10" stroke-linecap="round" stroke-linejoin="round"/>
<path d="M18.2415 21.6038H41.7608" stroke="#6161FF" stroke-width="4" stroke-miterlimit="10" stroke-linecap="round" stroke-linejoin="round"/>
<path d="M37.9429 14.4476L41.1871 8.00732L41.378 7.43488L41.1871 6.43311L40.4714 5.71741L39.4697 5.52661L38.8973 5.76514L34.6512 7.86426L34.0788 8.05505L32.9338 7.76874L32.5046 7.29187L31.4073 5.57434L31.1209 5.24023L30.4056 4.85864H29.5945L28.8788 5.24023L28.5925 5.57434L27.4477 7.29187L27.0661 7.76874L25.921 8.05505L25.3486 7.86426L21.1026 5.76514L20.5302 5.52661L19.5284 5.76514L18.8127 6.43311L18.6219 7.43488L18.8127 8.00732L21.9614 14.3046" stroke="#6161FF" stroke-width="4" stroke-miterlimit="10" stroke-linecap="round" stroke-linejoin="round"/>
<path d="M19.1945 26.6604L12.9925 33.8165L12.4201 34.6275L11.466 36.345L10.7503 38.11L10.3687 39.923L10.2256 41.7358L10.321 43.5008L10.6551 45.2661L11.2275 46.9358L12.0385 48.5577L13.0402 50.0367L14.1854 51.3726L15.5688 52.5174L17.0477 53.5192L18.7173 54.2827L20.5302 54.8551L22.4863 55.1414H23.5358H36.4643H37.5136L39.4218 54.8551L41.2349 54.2827L42.9046 53.5192L44.4311 52.5174L45.8148 51.3726L46.9595 50.0367L47.9614 48.5577L48.7248 46.9358L49.2972 45.2661L49.6788 43.5008L49.7744 41.7358L49.631 39.923L49.2017 38.11L48.5338 36.345L47.5798 34.6275L46.9595 33.8165L40.8055 26.6604" stroke="#6161FF" stroke-width="4" stroke-miterlimit="10" stroke-linecap="round" stroke-linejoin="round"/>
</svg>
