<svg width="60" height="60" viewBox="0 0 60 60" fill="none" xmlns="http://www.w3.org/2000/svg">
<path fill-rule="evenodd" clip-rule="evenodd" d="M34.5776 21.0076L35.4364 21.6277L37.2494 23.202L39.0622 25.1102L40.7797 27.2568L42.3061 29.6423L43.5942 32.123L44.5482 34.6993L45.0254 37.323L45.0732 38.6111L45.0254 39.8993L44.3574 42.38L43.1171 44.6221L41.3998 46.6257L39.3007 48.3432L36.8676 49.6791L34.196 50.6331L31.4293 51.158L29.9978 51.2055L28.5667 51.158L25.7999 50.6331L23.1281 49.6791L20.6951 48.3432L18.596 46.6257L16.8785 44.6221L15.6382 42.38L14.9705 39.8993L14.9227 38.6111L14.9705 37.323L15.4473 34.6993L16.4017 32.123L17.6898 29.6423L19.2162 27.2568L20.9337 25.1102L22.7465 23.202L24.5595 21.6277L25.418 21.0076L21.9355 12.7064L21.7447 12.3248L21.6969 11.4661L21.9355 10.7028L22.5079 10.0826L22.8898 9.89185L24.607 9.36694L28.1851 8.79456H31.8109L35.3411 9.36694L37.1061 9.89185L37.4877 10.0826L38.0604 10.7028L38.2987 11.4661L38.2512 12.3248L38.0604 12.7064L34.5776 21.0076Z" stroke="#6161FF" stroke-width="4" stroke-miterlimit="10" stroke-linecap="round" stroke-linejoin="round"/>
<path d="M25.4198 21.0079H34.5795" stroke="#6161FF" stroke-width="4" stroke-miterlimit="10" stroke-linecap="round" stroke-linejoin="round"/>
<path d="M13.2074 49.5358L12.0148 49.4405L9.9635 48.8681L8.29376 47.8185L7.00562 46.3871L6.05164 44.7177L5.43146 42.8093L4.90649 39.8993L4.85876 38.0862L4.90649 37.0367L5.24036 34.9854L5.81305 32.9818L6.62402 31.1212L7.67358 29.356L8.91394 27.6862L10.3451 26.2076L11.967 24.9194L12.8258 24.3467L10.011 20.2919L9.77271 19.8625L9.72491 18.9559L10.1543 18.1927L10.9175 17.7156L11.3947 17.6681H16.5947" stroke="#6161FF" stroke-width="4" stroke-miterlimit="10" stroke-linecap="round" stroke-linejoin="round"/>
<path d="M26.279 41.903L26.6606 42.3801L27.5671 43.0955L28.6644 43.6205L29.8093 43.859H30.4294L31.3359 43.8113L33.0057 43.2863L34.246 42.3323L34.9617 41.092L35.0093 40.3763L34.9617 39.7086L34.246 38.4682L33.0057 37.5139L31.3359 36.9893L30.4294 36.9415L29.4754 36.8937L27.8057 36.3691L26.5653 35.4149L25.8496 34.1745L25.8021 33.459L25.8496 32.7911L26.5653 31.5507L27.8057 30.5964L29.4754 30.0718L30.4294 30.024H31.0021L32.1947 30.2626L33.2443 30.7397L34.1983 31.5029L34.5799 31.9801" stroke="#6161FF" stroke-width="4" stroke-miterlimit="10" stroke-linecap="round" stroke-linejoin="round"/>
<path d="M30.4296 43.859V46.1489" stroke="#6161FF" stroke-width="4" stroke-miterlimit="10" stroke-linecap="round" stroke-linejoin="round"/>
<path d="M30.4296 27.734V30.0239" stroke="#6161FF" stroke-width="4" stroke-miterlimit="10" stroke-linecap="round" stroke-linejoin="round"/>
<path d="M46.7926 49.5358L47.9852 49.4405L50.0366 48.8681L51.7063 47.8185L52.9944 46.3871L53.9484 44.7177L54.5686 42.8093L55.0935 39.8993L55.1413 38.0862L55.0935 37.0367L54.7594 34.9854L54.187 32.9818L53.376 31.1212L52.3265 29.356L51.0861 27.6862L49.6549 26.2076L48.033 24.9194L47.1742 24.3467L49.9888 20.2919L50.2274 19.8625L50.2751 18.9559L49.8458 18.1927L49.0825 17.7156L48.6054 17.6681H43.4054" stroke="#6161FF" stroke-width="4" stroke-miterlimit="10" stroke-linecap="round" stroke-linejoin="round"/>
</svg>
