<svg width="60" height="60" viewBox="0 0 60 60" fill="none" xmlns="http://www.w3.org/2000/svg">
<g clip-path="url(#clip0_1_114)">
<path fill-rule="evenodd" clip-rule="evenodd" d="M16.1619 57.7193L34.8306 28.1209L35.3013 27.6503L36.3997 27.0752H37.6546L38.7527 27.6503L39.2234 28.1209L57.8401 57.7193H16.1619Z" stroke="#6161FF" stroke-width="4" stroke-miterlimit="10" stroke-linecap="round" stroke-linejoin="round"/>
<path d="M16.1616 57.7194L2.72217 57.7714L17.4168 35.7036L24.4241 44.6982" stroke="#6161FF" stroke-width="4" stroke-miterlimit="10" stroke-linecap="round" stroke-linejoin="round"/>
<path d="M28.6089 38.057L36.9758 43.6523L45.395 37.8999" stroke="#6161FF" stroke-width="4" stroke-miterlimit="10" stroke-linecap="round" stroke-linejoin="round"/>
<path d="M37.0278 27.0228V2.54932" stroke="#6161FF" stroke-width="4" stroke-miterlimit="10" stroke-linecap="round" stroke-linejoin="round"/>
<path d="M37.0278 2.54932H54.6508L55.0168 2.60168L55.5919 2.9679L55.801 3.28149L55.9057 3.64771L55.8534 4.32751L55.6442 4.64111L52.8726 8.09253L52.6111 8.45874V9.29535L52.8726 9.71368L55.6442 13.2695L55.8534 13.531L55.9057 14.2632L55.801 14.5771L55.5919 14.8906L55.0168 15.3092H54.6508H37.0278" stroke="#6161FF" stroke-width="4" stroke-miterlimit="10" stroke-linecap="round" stroke-linejoin="round"/>
</g>
<defs>
<clipPath id="clip0_1_114">
<rect width="60" height="60" fill="white"/>
</clipPath>
</defs>
</svg>
