<svg width="60" height="60" viewBox="0 0 60 60" fill="none" xmlns="http://www.w3.org/2000/svg">
<path fill-rule="evenodd" clip-rule="evenodd" d="M22.689 42.5076H12.6198L10.9913 42.8316L9.69539 43.4881L8.3909 44.4601L7.74294 46.08L7.41895 47.3845V48.3564L8.06693 49.6609L8.3909 50.6329L9.3714 51.2809L10.3434 51.9288L11.3153 52.5853H12.6198H17.4881H18.4686L19.4406 52.2614L21.069 51.2809L22.041 49.6609L22.365 48.6804L22.689 47.7085V42.5076ZM52.5811 37.6393H42.8359H41.2074L39.9115 38.6113L38.607 39.5832L37.959 40.8877L37.635 42.1837V43.4881L37.959 44.4601L38.607 45.4321L39.2635 46.4125L40.2354 47.0605L41.5314 47.3845L42.5119 47.7085H47.7127L48.6847 47.3845L49.6566 47.0605L51.2851 46.08L52.2571 44.4601L52.5811 43.4881V42.5076V37.6393Z" stroke="#6161FF" stroke-width="4" stroke-miterlimit="10" stroke-linecap="round" stroke-linejoin="round"/>
<path d="M22.6875 42.5076V12.2916L52.5796 7.41467V37.6393" stroke="#6161FF" stroke-width="4" stroke-miterlimit="10" stroke-linecap="round" stroke-linejoin="round"/>
</svg>
