<svg width="60" height="60" viewBox="0 0 60 60" fill="none" xmlns="http://www.w3.org/2000/svg">
<path fill-rule="evenodd" clip-rule="evenodd" d="M24.5787 8.31998L24.6292 9.43004L25.4367 11.2971L26.8999 12.7603L28.8172 13.5675L29.8767 13.618L30.9365 13.5675L32.8538 12.7603L34.317 11.2971L35.1245 9.43004L35.1748 8.31998L35.1245 7.26045L34.317 5.34317L32.8538 3.87972L30.9365 3.07249L29.8767 3.02197L28.8172 3.07249L26.8999 3.87972L25.4367 5.34317L24.6292 7.26045L24.5787 8.31998Z" stroke="#6161FF" stroke-width="4" stroke-miterlimit="10" stroke-linecap="round" stroke-linejoin="round"/>
<path fill-rule="evenodd" clip-rule="evenodd" d="M24.5787 50.9055L24.6292 51.9651L25.4367 53.8824L26.8999 55.3455L28.8172 56.153L29.8767 56.2035L30.9365 56.153L32.8538 55.3455L34.317 53.8824L35.1245 51.9651L35.1748 50.9055L35.1245 49.7955L34.317 47.8779L32.8538 46.4653L30.9365 45.6578L29.8767 45.557L28.8172 45.6578L26.8999 46.4653L25.4367 47.8779L24.6292 49.7955L24.5787 50.9055Z" stroke="#6161FF" stroke-width="4" stroke-miterlimit="10" stroke-linecap="round" stroke-linejoin="round"/>
<path fill-rule="evenodd" clip-rule="evenodd" d="M5.04993 50.9055L5.1005 51.9651L5.90767 53.8824L7.37107 55.3455L9.2884 56.153L10.3479 56.2035L11.458 56.153L13.3753 55.3455L14.7882 53.8824L15.5954 51.9651L15.6964 50.9055L15.5954 49.7955L14.7882 47.8779L13.3753 46.4653L11.458 45.6578L10.3479 45.557L9.2884 45.6578L7.37107 46.4653L5.90767 47.8779L5.1005 49.7955L5.04993 50.9055Z" stroke="#6161FF" stroke-width="4" stroke-miterlimit="10" stroke-linecap="round" stroke-linejoin="round"/>
<path fill-rule="evenodd" clip-rule="evenodd" d="M44.0535 50.9055L44.1542 51.9651L44.9617 53.8824L46.3743 55.3455L48.2918 56.153L49.402 56.2035L50.4615 56.153L52.3788 55.3455L53.8419 53.8824L54.6494 51.9651L54.7 50.9055L54.6494 49.7955L53.8419 47.8779L52.3788 46.4653L50.4615 45.6578L49.402 45.557L48.2918 45.6578L46.3743 46.4653L44.9617 47.8779L44.1542 49.7955L44.0535 50.9055Z" stroke="#6161FF" stroke-width="4" stroke-miterlimit="10" stroke-linecap="round" stroke-linejoin="round"/>
<path d="M10.3475 45.5575L10.3981 44.0943L11.0035 41.319L12.063 38.7963L13.5768 36.5256L15.4943 34.6084L17.7647 33.0947L20.3381 31.9846L23.1132 31.4294L24.5764 31.3789H35.1724L36.6358 31.4294L39.4108 31.9846L41.984 33.0947L44.2547 34.6084L46.172 36.5256L47.6856 38.7963L48.7455 41.319L49.3509 44.0943L49.4015 45.5575" stroke="#6161FF" stroke-width="4" stroke-miterlimit="10" stroke-linecap="round" stroke-linejoin="round"/>
<path d="M29.8745 13.6681V45.5569" stroke="#6161FF" stroke-width="4" stroke-miterlimit="10" stroke-linecap="round" stroke-linejoin="round"/>
</svg>
