<svg width="60" height="60" viewBox="0 0 60 60" fill="none" xmlns="http://www.w3.org/2000/svg">
<g clip-path="url(#clip0_1_1410)">
<path d="M56.8004 42.9935L57.4568 40.4016L57.7808 38.1252L57.4568 35.5247L56.8004 33.2483L55.5045 31.2958L54.2084 29.3519L52.256 27.7234L49.9796 26.4275L47.7032 25.7795L45.1027 25.447H41.8543L40.8824 22.5226L39.5864 19.5982L37.634 17.3303L35.3575 15.0538L33.0811 13.4254L30.1567 11.8055L27.2322 10.8335L24.3078 10.501" stroke="#6161FF" stroke-width="4" stroke-miterlimit="10" stroke-linecap="round" stroke-linejoin="round"/>
<path d="M12.6116 12.7778L10.6677 14.0823L9.03925 15.3783L7.74335 16.6742L6.43878 17.9787L4.17096 21.2271L2.86639 24.7995L2.21844 28.7044V32.6007L2.54242 34.5532L2.86639 36.4971L3.83844 38.4496L4.49493 40.0695L6.11481 42.6699L7.74335 44.6224L10.0197 46.2423L12.2877 47.8708L14.5641 49.1667L17.1645 49.8232L19.765 50.4712H22.3654H45.1042H47.3806L49.3331 49.8232" stroke="#6161FF" stroke-width="4" stroke-miterlimit="10" stroke-linecap="round" stroke-linejoin="round"/>
<path d="M2.54169 2.38428L57.7816 57.6156" stroke="#6161FF" stroke-width="4" stroke-miterlimit="10" stroke-linecap="round" stroke-linejoin="round"/>
</g>
<defs>
<clipPath id="clip0_1_1410">
<rect width="60" height="60" fill="white"/>
</clipPath>
</defs>
</svg>
