<svg width="60" height="60" viewBox="0 0 60 60" fill="none" xmlns="http://www.w3.org/2000/svg">
<g clip-path="url(#clip0_1_150)">
<path d="M2.06104 2.38007L57.2924 57.6199" stroke="#6161FF" stroke-width="4" stroke-miterlimit="10" stroke-linecap="round" stroke-linejoin="round"/>
<path d="M53.072 52.7434H7.90985H6.92938L5.9574 52.4194L4.32898 51.1149L3.35699 49.495L3.03302 48.5145L2.70898 47.5425V19.9268L3.03302 18.9464L3.35699 17.9744L4.32898 16.3545L5.9574 15.374L6.92938 15.05H7.90985H15.3786" stroke="#6161FF" stroke-width="4" stroke-miterlimit="10" stroke-linecap="round" stroke-linejoin="round"/>
<path d="M22.8545 7.58124H38.1246L42.9929 15.05H53.0706H54.0425L55.0145 15.374L56.643 16.3545L57.6149 17.9744L57.939 18.9464V19.9268V42.6656" stroke="#6161FF" stroke-width="4" stroke-miterlimit="10" stroke-linecap="round" stroke-linejoin="round"/>
<path d="M37.8011 38.1212L36.4966 39.7412L35.2007 40.7217L33.2482 41.6936L31.2958 42.3416H29.6758H27.7234L25.7795 41.6936L23.827 40.7217L22.5225 39.4172L21.2266 37.7973L20.2546 36.1688L19.5981 34.2249V32.2724V30.32L20.2546 28.376L21.2266 26.7476L22.5225 25.4516L23.827 24.1472" stroke="#6161FF" stroke-width="4" stroke-miterlimit="10" stroke-linecap="round" stroke-linejoin="round"/>
</g>
<defs>
<clipPath id="clip0_1_150">
<rect width="60" height="60" fill="white"/>
</clipPath>
</defs>
</svg>
