<svg width="60" height="60" viewBox="0 0 60 60" fill="none" xmlns="http://www.w3.org/2000/svg">
<path fill-rule="evenodd" clip-rule="evenodd" d="M25.0853 25.1321L25.1806 26.1342L25.9441 27.9469L27.3275 29.3303L29.0925 30.0938L30.142 30.1413L31.1441 30.0938L32.9568 29.3303L34.3402 27.9469L35.1037 26.1342L35.1512 25.1321L35.1037 24.0828L34.3402 22.2698L32.9568 20.9342L31.1441 20.1707L30.142 20.0754L29.0925 20.1707L27.3275 20.9342L25.9441 22.2698L25.1806 24.0828L25.0853 25.1321Z" stroke="#6161FF" stroke-width="4" stroke-miterlimit="10" stroke-linecap="round" stroke-linejoin="round"/>
<path d="M38.5381 38.5378L38.2995 37.822L37.7271 36.4864L36.4867 34.7211L34.2921 32.9561L32.2885 32.1451L30.8573 31.8588L30.1416 31.811L29.3784 31.8588L27.995 32.1451L25.9912 32.9561L23.7968 34.7211L22.5565 36.4864L21.9841 37.822L21.7455 38.5378" stroke="#6161FF" stroke-width="4" stroke-miterlimit="10" stroke-linecap="round" stroke-linejoin="round"/>
<path fill-rule="evenodd" clip-rule="evenodd" d="M25.9449 9.19821L25.9924 10.0092L26.6604 11.5359L27.7577 12.6807L29.2844 13.3009L30.1429 13.3487L31.0016 13.3009L32.4806 12.6807L33.6257 11.5359L34.2933 10.0092L34.3411 9.19821L34.2933 8.33948L33.6257 6.81305L32.4806 5.66794L31.0016 5.04776L30.1429 5L29.2844 5.04776L27.7577 5.66794L26.6604 6.81305L25.9924 8.33948L25.9449 9.19821Z" stroke="#6161FF" stroke-width="4" stroke-miterlimit="10" stroke-linecap="round" stroke-linejoin="round"/>
<path fill-rule="evenodd" clip-rule="evenodd" d="M46.9338 30.1413L46.9813 31.0001L47.6015 32.479L48.7466 33.6241L50.2255 34.2917L51.0843 34.3395L51.943 34.2917L53.4695 33.6241L54.6145 32.479L55.2347 31.0001L55.2825 30.1413L55.2347 29.2828L54.6145 27.8039L53.4695 26.6588L51.943 25.9909L51.0843 25.9434L50.2255 25.9909L48.7466 26.6588L47.6015 27.8039L46.9813 29.2828L46.9338 30.1413Z" stroke="#6161FF" stroke-width="4" stroke-miterlimit="10" stroke-linecap="round" stroke-linejoin="round"/>
<path fill-rule="evenodd" clip-rule="evenodd" d="M25.9449 51.0845L25.9924 51.9433L26.6604 53.4697L27.7577 54.6148L29.2844 55.235L30.1429 55.2827L31.0016 55.235L32.4806 54.6148L33.6257 53.4697L34.2933 51.9433L34.3411 51.0845L34.2933 50.2736L33.6257 48.7469L32.4806 47.6017L31.0016 46.9816L30.1429 46.9341L29.2844 46.9816L27.7577 47.6017L26.6604 48.7469L25.9924 50.2736L25.9449 51.0845Z" stroke="#6161FF" stroke-width="4" stroke-miterlimit="10" stroke-linecap="round" stroke-linejoin="round"/>
<path fill-rule="evenodd" clip-rule="evenodd" d="M4.99976 30.1413L5.04752 31.0001L5.6677 32.479L6.81279 33.6241L8.33922 34.2917L9.1502 34.3395L10.0089 34.2917L11.5356 33.6241L12.6805 32.479L13.3006 31.0001L13.3484 30.1413L13.3006 29.2828L12.6805 27.8039L11.5356 26.6588L10.0089 25.9909L9.19797 25.9434L8.33922 25.9909L6.81279 26.6588L5.6677 27.8039L5.04752 29.2828L4.99976 30.1413Z" stroke="#6161FF" stroke-width="4" stroke-miterlimit="10" stroke-linecap="round" stroke-linejoin="round"/>
<path d="M40.2067 12.6807L41.3515 13.3964L43.4506 14.9706L45.3111 16.8311L46.8856 18.9302L47.601 20.0753" stroke="#6161FF" stroke-width="4" stroke-miterlimit="10" stroke-linecap="round" stroke-linejoin="round"/>
<path d="M47.601 40.2075L46.8856 41.3523L45.3111 43.4514L43.4506 45.312L41.3515 46.8864L40.2067 47.6019" stroke="#6161FF" stroke-width="4" stroke-miterlimit="10" stroke-linecap="round" stroke-linejoin="round"/>
<path d="M20.0745 47.6019L18.9294 46.8864L16.8303 45.312L14.9697 43.4514L13.3955 41.3523L12.6798 40.2075" stroke="#6161FF" stroke-width="4" stroke-miterlimit="10" stroke-linecap="round" stroke-linejoin="round"/>
<path d="M12.6798 20.0753L13.3955 18.9302L14.9697 16.8311L16.8303 14.9706L18.9294 13.3964L20.0745 12.6807" stroke="#6161FF" stroke-width="4" stroke-miterlimit="10" stroke-linecap="round" stroke-linejoin="round"/>
</svg>
