<svg width="60" height="60" viewBox="0 0 60 60" fill="none" xmlns="http://www.w3.org/2000/svg">
<g clip-path="url(#clip0_1_2791)">
<path d="M44.6689 15.3289C41.0481 11.7104 35.1741 11.7104 31.5556 15.3289C28.8596 18.0248 25.4359 29.687 24.205 34.6361L25.364 35.7952C30.3131 34.5643 41.973 31.1382 44.6689 28.4422C48.292 24.8237 48.292 18.9521 44.6689 15.3289Z" stroke="#6161FF" stroke-width="4" stroke-miterlimit="10" stroke-linecap="round" stroke-linejoin="round"/>
<path d="M38.1134 24.2048C39.3936 24.2048 40.4314 23.167 40.4314 21.8867C40.4314 20.6065 39.3936 19.5687 38.1134 19.5687C36.8331 19.5687 35.7953 20.6065 35.7953 21.8867C35.7953 23.167 36.8331 24.2048 38.1134 24.2048Z" stroke="#6161FF" stroke-width="4" stroke-miterlimit="10" stroke-linecap="round" stroke-linejoin="round"/>
<path d="M36.4814 23.5187L24.7844 35.2157" stroke="#6161FF" stroke-width="4" stroke-miterlimit="10" stroke-linecap="round" stroke-linejoin="round"/>
<path d="M47.3857 3.34219L56.658 12.6145L50.8628 16.0916L43.9086 9.13737L47.3857 3.34219Z" stroke="#6161FF" stroke-width="4" stroke-miterlimit="10" stroke-linecap="round" stroke-linejoin="round"/>
<path d="M42.7495 13.7735L45.0676 10.2964" stroke="#6161FF" stroke-width="4" stroke-miterlimit="10" stroke-linecap="round" stroke-linejoin="round"/>
<path d="M49.7037 14.9325L46.2266 17.2506" stroke="#6161FF" stroke-width="4" stroke-miterlimit="10" stroke-linecap="round" stroke-linejoin="round"/>
<path d="M20.7278 38.1133H12.6146C12.6146 38.1133 7.97843 38.1133 7.97843 42.7494C7.97843 47.3855 12.6146 47.3855 12.6146 47.3855H40.4314C40.4314 47.3855 45.0675 47.3855 45.0675 52.0217C45.0675 56.6578 40.4314 56.6578 40.4314 56.6578H3.34229" stroke="#6161FF" stroke-width="4" stroke-miterlimit="10" stroke-linecap="round" stroke-linejoin="round"/>
</g>
<defs>
<clipPath id="clip0_1_2791">
<rect width="60" height="60" fill="white"/>
</clipPath>
</defs>
</svg>
