<svg width="60" height="60" viewBox="0 0 60 60" fill="none" xmlns="http://www.w3.org/2000/svg">
<path d="M36.1725 13.9199L37.801 14.244L39.421 14.8919L41.0494 15.8639L42.6694 17.1683L43.6498 18.4643L44.6218 20.0928L45.5937 21.7127L45.9178 23.6652" stroke="#6161FF" stroke-width="4" stroke-miterlimit="10" stroke-linecap="round" stroke-linejoin="round"/>
<path d="M36.1725 3.84229L39.7449 4.4903L43.3259 5.79474L46.5743 7.73865L49.4986 10.3391L52.0991 12.9395L53.7191 16.1879L55.3475 19.7689L55.9954 23.6652" stroke="#6161FF" stroke-width="4" stroke-miterlimit="10" stroke-linecap="round" stroke-linejoin="round"/>
<path fill-rule="evenodd" clip-rule="evenodd" d="M54.0436 43.8121V51.2808L53.7197 52.2613L53.3956 53.2333L52.4236 54.8532L50.7952 55.8337L49.8232 56.1577H48.8427H48.5187L42.67 55.1857L37.1451 53.5573L31.9528 51.2808L26.7519 48.6804L22.5316 45.432L18.3027 41.8596L14.7303 37.9632L11.8058 33.4103L8.88141 28.542L6.60504 23.0172L4.98505 17.4923L4.00458 11.6435V10.663L4.32855 9.69104L4.98505 8.07111L6.60504 6.76666L7.57697 6.44263H8.55743L8.88141 6.11865H16.3503L18.3027 6.44263L19.9311 7.41461L20.9031 9.04309L21.5511 10.663L22.199 14.244L23.5035 17.8163V19.1122V20.4167L22.8555 21.7127L22.199 23.0172L18.9506 26.2656L21.8751 30.486L25.456 34.7148L29.6763 38.2872L33.8967 41.2116L37.1451 37.9632L38.4495 36.9827L39.7455 36.6588H41.05L42.67 36.9827L45.9184 37.9632L49.4992 38.6112L51.4432 39.2592L52.7476 40.2311L53.7197 41.8596L54.0436 43.8121Z" stroke="#6161FF" stroke-width="4" stroke-miterlimit="10" stroke-linecap="round" stroke-linejoin="round"/>
</svg>
