<svg width="60" height="60" viewBox="0 0 60 60" fill="none" xmlns="http://www.w3.org/2000/svg">
<path fill-rule="evenodd" clip-rule="evenodd" d="M55.2155 42.8291V50.3064V51.2783L54.8915 52.2503L53.911 53.8788L52.2911 54.8507L51.3191 55.1747L50.3386 55.5073L50.0146 55.1747L44.1659 54.2028L38.641 52.9068L33.1162 50.6304L28.2478 47.7059L23.6949 44.4576L19.7986 40.8852L16.2262 36.9803L12.9778 32.4359L10.3773 27.5591L8.10095 22.0342L6.47241 16.5094L5.50049 10.6606V9.6886V8.71661L6.47241 7.0882L8.10095 5.79224L9.07288 5.46826H10.0533H10.3773H17.8461L19.7986 5.79224L21.4185 6.44019L22.399 8.06012L23.047 9.6886L23.6949 13.261L24.6669 16.8334L24.9994 18.1378V19.7578L24.3429 20.7383L23.6949 22.0342L20.4465 25.2826L23.371 29.8355L26.9434 33.7319L30.8483 37.3043L35.3926 40.2287L38.641 36.9803L39.9454 36.3323L41.2415 35.6843H42.5459L43.8418 36.0083L47.4142 36.9803L50.9866 37.6368L52.6151 38.2847L54.2435 39.2567L54.8915 40.8852L55.2155 42.8291Z" stroke="#6161FF" stroke-width="4" stroke-miterlimit="10" stroke-linecap="round" stroke-linejoin="round"/>
</svg>
