<svg width="60" height="60" viewBox="0 0 60 60" fill="none" xmlns="http://www.w3.org/2000/svg">
<g clip-path="url(#clip0_1_2064)">
<path fill-rule="evenodd" clip-rule="evenodd" d="M29.6045 10.6592L27.7549 10.7121L24.0032 11.3461L20.3041 12.6674L16.6578 14.5696L13.1702 16.8948L9.8938 19.59L6.82874 22.4963L4.02795 25.614L2.81274 27.1996L2.33716 27.9391L1.80859 29.6302V31.3214L2.33716 33.0122L2.81274 33.7521L4.02795 35.2847L6.72314 38.3495L9.78796 41.3087L13.0643 44.004L16.552 46.3291L20.1454 48.2313L23.8973 49.5526L27.7023 50.2396L29.6045 50.2922L31.5068 50.2396L35.3118 49.5526L39.0635 48.2313L42.6571 46.3291L46.1449 44.004L49.4209 41.3087L52.486 38.3495L55.1809 35.2847L56.3965 33.7521L56.8721 33.0122L57.4006 31.3214V29.6302L56.8721 27.9391L56.3965 27.1996L55.1809 25.614L52.3805 22.4963L49.3154 19.59L46.0391 16.8948L42.5513 14.5696L38.9052 12.6674L35.2061 11.3461L31.454 10.7121L29.6045 10.6592Z" stroke="#6161FF" stroke-width="4" stroke-miterlimit="10" stroke-linecap="round" stroke-linejoin="round"/>
<path d="M24.0562 30.4757L29.6049 36.0244L40.755 23.0249" stroke="#6161FF" stroke-width="4" stroke-miterlimit="10" stroke-linecap="round" stroke-linejoin="round"/>
<path d="M41.9716 32.2197L41.8129 33.2236L41.2847 35.0205L40.4918 36.6588L39.5406 38.1382L37.744 39.9877L34.8376 41.7844L31.6141 42.7356L28.1793 42.8414L25.6954 42.2071L24.0573 41.5201L22.5249 40.5692L21.098 39.3537L20.411 38.6138L19.777 37.8739L18.7728 36.2886L18.0333 34.6505L17.5576 32.9597L17.2935 30.3702L17.8219 26.9883L19.1959 23.9232L21.3623 21.2809L23.4761 19.7485L25.0084 18.9557L26.7526 18.4275L28.6021 18.1104H29.606H30.8214L33.1995 18.5859L34.3621 19.0087" stroke="#6161FF" stroke-width="4" stroke-miterlimit="10" stroke-linecap="round" stroke-linejoin="round"/>
</g>
<defs>
<clipPath id="clip0_1_2064">
<rect width="60" height="60" fill="white"/>
</clipPath>
</defs>
</svg>
