<svg width="60" height="60" viewBox="0 0 60 60" fill="none" xmlns="http://www.w3.org/2000/svg">
<g clip-path="url(#clip0_1_785)">
<path fill-rule="evenodd" clip-rule="evenodd" d="M36.3348 37.1491V9.20944L36.0108 6.93301L35.0389 4.98056L33.4104 3.6846L32.4384 3.03662L31.4579 2.71265L29.838 2.38013L28.5335 2.71265L27.2376 3.03662L25.9417 3.6846L24.9611 4.65656L24.3132 5.96103L23.9892 7.25699L23.6652 8.88547V37.1491L21.7128 38.7776L20.0928 40.7215L19.1123 42.9979L18.7883 45.2744V47.8748L19.4363 50.1512L20.4168 52.4191L22.0367 54.6956L23.3412 55.6761L24.6371 56.324L26.2656 56.972L27.8856 57.62H29.19H30.8099L32.4384 57.296L34.0583 56.972L36.3348 55.6761L38.2872 54.0476L39.9072 52.0952L40.8877 49.8272L41.2117 47.2268V44.9504L40.5637 42.3499L39.2592 40.0735L37.9633 38.4536L36.3348 37.1491Z" stroke="#6161FF" stroke-width="4" stroke-miterlimit="10" stroke-linecap="round" stroke-linejoin="round"/>
</g>
<defs>
<clipPath id="clip0_1_785">
<rect width="60" height="60" fill="white"/>
</clipPath>
</defs>
</svg>
