<svg width="60" height="60" viewBox="0 0 60 60" fill="none" xmlns="http://www.w3.org/2000/svg">
<g clip-path="url(#clip0_1_2709)">
<path fill-rule="evenodd" clip-rule="evenodd" d="M22.6516 13.5331L22.7035 14.2628L22.9641 15.6695L23.5375 17.0244L24.319 18.1708L25.3092 19.1609L26.5078 19.9427L27.8104 20.5158L29.2697 20.8286H29.999H30.7286L32.1877 20.5158L33.4905 19.9427L34.6891 19.1609L35.679 18.1708L36.4608 17.0244L37.0338 15.6695L37.2944 14.2628L37.3466 13.5331L37.2944 12.7513L37.0338 11.3444L36.4608 9.9895L35.679 8.84332L34.6891 7.85315L33.4905 7.07135L32.1877 6.49829L30.7286 6.18555H29.999H29.2697L27.8104 6.49829L26.5078 7.07135L25.3092 7.85315L24.319 8.84332L23.5375 9.9895L22.9641 11.3444L22.7035 12.7513L22.6516 13.5331Z" stroke="#6161FF" stroke-width="4" stroke-miterlimit="10" stroke-linecap="round" stroke-linejoin="round"/>
<path fill-rule="evenodd" clip-rule="evenodd" d="M2.53735 46.4669V47.2484L2.8501 48.6553L3.37134 49.9583L4.20496 51.1566L5.19519 52.1469L6.34167 52.9283L7.64429 53.5017L9.10315 53.7623L9.83276 53.8145L10.6146 53.7623L12.0216 53.5017L13.3243 52.9283L14.5229 52.1469L15.5128 51.1566L16.2946 49.9583L16.8677 48.6553L17.1283 47.2484L17.1804 46.4669L17.1283 45.7372L16.8677 44.2783L16.2946 42.9753L15.5128 41.8289L14.5229 40.839L13.3243 40.0051L12.0216 39.4842L10.6146 39.1714H9.83276H9.10315L7.64429 39.4842L6.34167 40.0051L5.19519 40.839L4.20496 41.8289L3.37134 42.9753L2.8501 44.2783L2.53735 45.7372V46.4669Z" stroke="#6161FF" stroke-width="4" stroke-miterlimit="10" stroke-linecap="round" stroke-linejoin="round"/>
<path fill-rule="evenodd" clip-rule="evenodd" d="M42.8196 46.4669L42.8717 47.2484L43.1323 48.6553L43.7053 49.9583L44.4872 51.1566L45.4771 52.1469L46.6757 52.9283L47.9784 53.5017L49.3854 53.7623L50.1671 53.8145L50.8965 53.7623L52.3557 53.5017L53.6583 52.9283L54.8048 52.1469L55.7949 51.1566L56.6287 49.9583L57.1498 48.6553L57.4626 47.2484V46.4669V45.7372L57.1498 44.2783L56.6287 42.9753L55.7949 41.8289L54.8048 40.839L53.6583 40.0051L52.3557 39.4842L50.8965 39.1714H50.1671H49.3854L47.9784 39.4842L46.6757 40.0051L45.4771 40.839L44.4872 41.8289L43.7053 42.9753L43.1323 44.2783L42.8717 45.7372L42.8196 46.4669Z" stroke="#6161FF" stroke-width="4" stroke-miterlimit="10" stroke-linecap="round" stroke-linejoin="round"/>
<path d="M17.1804 46.4668H42.8186" stroke="#6161FF" stroke-width="4" stroke-miterlimit="10" stroke-linecap="round" stroke-linejoin="round"/>
<path d="M34.0637 19.6299L46.9348 39.9008" stroke="#6161FF" stroke-width="4" stroke-miterlimit="10" stroke-linecap="round" stroke-linejoin="round"/>
<path d="M25.9348 19.6299L13.0637 39.9008" stroke="#6161FF" stroke-width="4" stroke-miterlimit="10" stroke-linecap="round" stroke-linejoin="round"/>
</g>
<defs>
<clipPath id="clip0_1_2709">
<rect width="60" height="60" fill="white"/>
</clipPath>
</defs>
</svg>
