<svg width="60" height="60" viewBox="0 0 60 60" fill="none" xmlns="http://www.w3.org/2000/svg">
<path fill-rule="evenodd" clip-rule="evenodd" d="M14.3991 22.9171L13.7873 23.3879L12.9401 24.6586L12.7519 26.1174L13.2226 27.5295L13.7404 28.1414L31.86 46.2609L32.4718 46.7787L33.8836 47.2492L35.3427 47.061L36.6135 46.2138L37.0842 45.602L37.8371 44.1901L38.8725 41.178L39.3433 38.0718L39.2019 34.9186L38.8725 33.3654L53.2743 24.1879L53.8861 23.7172L54.639 22.4935L54.8272 21.0345L54.3568 19.6697L53.839 19.0579L40.9434 6.16235L40.3316 5.64453L38.9668 5.17377L37.5547 5.3623L36.2841 6.11523L35.8134 6.72705L26.636 21.1288L25.0827 20.7991L21.9295 20.658L18.8233 21.1288L15.811 22.1642L14.3991 22.9171Z" stroke="#6161FF" stroke-width="4" stroke-miterlimit="10" stroke-linecap="round" stroke-linejoin="round"/>
<path d="M22.8218 37.1772L5.17276 54.8263" stroke="#6161FF" stroke-width="4" stroke-miterlimit="10" stroke-linecap="round" stroke-linejoin="round"/>
</svg>
