<svg width="60" height="60" viewBox="0 0 60 60" fill="none" xmlns="http://www.w3.org/2000/svg">
<g clip-path="url(#clip0_1_2505)">
<path fill-rule="evenodd" clip-rule="evenodd" d="M57.62 30.4863L57.296 27.8859L56.3154 24.9615L55.6675 22.361L54.3716 20.0931L53.0671 17.8167L51.4471 15.5403L49.4948 13.5878L47.5422 11.9679L45.5983 10.3394L43.3219 8.71945L40.7214 7.73898L38.1211 6.767L35.5206 6.11905L32.9287 5.47107H30.0043H27.4039L24.8035 5.79504L22.527 6.44302L20.2506 7.091L17.9741 8.06296L16.0302 9.36743L14.0778 10.6634L12.1254 11.9679L10.1814 13.5878L8.87695 15.2162L7.25696 17.1687L5.95251 19.1126L4.98059 21.3891L4.00854 23.3415L3.35205 25.6094L2.7041 28.2099L2.38013 30.4863H57.62Z" stroke="#6161FF" stroke-width="4" stroke-miterlimit="10" stroke-linecap="round" stroke-linejoin="round"/>
<path d="M44.9492 46.7362V48.6802L44.2927 49.9846L43.3208 51.6046L42.3489 52.5851L41.0443 53.557L39.4244 54.205L37.7959 54.529L36.176 54.205L34.8716 53.881L33.5756 53.233L32.5951 52.5851L31.6232 51.6046L30.9752 50.3086L30.3271 49.3282L30.0032 48.0322V46.4037V30.4857" stroke="#6161FF" stroke-width="4" stroke-miterlimit="10" stroke-linecap="round" stroke-linejoin="round"/>
</g>
<defs>
<clipPath id="clip0_1_2505">
<rect width="60" height="60" fill="white"/>
</clipPath>
</defs>
</svg>
