<svg width="60" height="60" viewBox="0 0 60 60" fill="none" xmlns="http://www.w3.org/2000/svg">
<path fill-rule="evenodd" clip-rule="evenodd" d="M30.1601 4.81848L34.779 5.14246L39.0606 5.46646L43.0223 6.11444L46.3178 7.0864L49.2847 8.06689L51.2568 9.36282L52.5803 10.9913L52.909 11.6393V12.2872V13.2592L52.5803 13.9157L51.2568 15.2117L49.2847 16.5076L46.3178 17.8121L43.0223 18.784L39.0606 19.432L34.779 19.7645L30.1601 20.0885L25.5496 19.7645L21.2594 19.432L17.3064 18.784L14.0108 17.8121L11.0441 16.5076L9.0632 15.2117L7.74848 13.9157L7.41981 13.2592L7.091 12.2872L7.41981 11.6393L7.74848 10.9913L9.0632 9.36282L11.0441 8.06689L14.0108 7.0864L17.3064 6.11444L21.2594 5.46646L25.5496 5.14246L30.1601 4.81848Z" stroke="#6161FF" stroke-width="4" stroke-miterlimit="10" stroke-linecap="round" stroke-linejoin="round"/>
<path d="M52.909 29.8341V30.8061L52.585 31.4626L51.2805 32.7585L49.3366 34.0545L46.4122 35.3589L43.1638 36.3309L39.2588 36.9789L35.0385 37.3114L30.4857 37.6354L25.9412 37.3114L21.7123 36.9789L17.816 36.3309L14.5676 35.3589L11.6432 34.0545L9.69073 32.7585L8.39484 31.4626L8.07086 30.8061L7.74677 29.8341" stroke="#6161FF" stroke-width="4" stroke-miterlimit="10" stroke-linecap="round" stroke-linejoin="round"/>
<path d="M7.091 12.2872V47.7042V48.3521L7.42352 49.0002L9.04352 50.6286L10.9959 51.9245L13.5964 52.9051L17.1688 53.877L20.7411 54.525L25.294 54.849L29.8384 55.1815L34.3913 54.849L38.6116 54.525L42.508 53.877L45.765 52.9051L48.3569 51.9245L50.6332 50.6286L51.9377 49.0002L52.2618 48.3521V47.7042V12.2872" stroke="#6161FF" stroke-width="4" stroke-miterlimit="10" stroke-linecap="round" stroke-linejoin="round"/>
</svg>
