<svg width="60" height="60" viewBox="0 0 60 60" fill="none" xmlns="http://www.w3.org/2000/svg">
<path d="M12.0979 23.4572L12.145 22.0453L12.5686 19.3155L13.3215 16.8211L14.4041 14.468L15.8159 12.3972L17.4633 10.5145L19.3458 8.91441L21.4639 7.54938L23.6758 6.51396L26.0288 5.76102L28.4762 5.33742L30.9706 5.24316L33.4651 5.47853L35.9595 6.13748L38.4069 7.12578L40.7599 8.53767L41.8895 9.43199" stroke="#6161FF" stroke-width="4" stroke-miterlimit="10" stroke-linecap="round" stroke-linejoin="round"/>
<path d="M47.2551 16.8682L47.8198 18.4683L48.4789 21.7628L48.526 23.4572V36.7292L48.4316 38.5647L47.7258 42.1417L46.3608 45.3891L44.3843 48.3071L41.8898 50.7544L39.0189 52.731L35.7244 54.1429L32.1945 54.849L30.3119 54.8961L28.6647 54.849L27.0173 54.6136" stroke="#6161FF" stroke-width="4" stroke-miterlimit="10" stroke-linecap="round" stroke-linejoin="round"/>
<path d="M18.734 50.7544L17.9808 50.0954L16.5688 48.6364L14.7805 46.2362L13.0862 42.6592L12.3333 39.7411L12.145 37.7174L12.0979 36.7291V31.7402" stroke="#6161FF" stroke-width="4" stroke-miterlimit="10" stroke-linecap="round" stroke-linejoin="round"/>
<path d="M38.5966 36.7292V23.4572L38.5023 22.2336L37.8436 19.9745L36.6199 18.0919L34.9727 16.6328L32.9958 15.6445L30.8309 15.1738L28.5719 15.3149L26.4067 16.1621L25.3245 16.8682" stroke="#6161FF" stroke-width="4" stroke-miterlimit="10" stroke-linecap="round" stroke-linejoin="round"/>
<path d="M22.0291 23.457V36.729L22.0762 37.8116L22.6409 39.8353L23.6292 41.6237L24.9939 43.0356L26.6411 44.1653L28.5238 44.8242L30.5004 45.0125L32.5712 44.6828L33.6067 44.3064" stroke="#6161FF" stroke-width="4" stroke-miterlimit="10" stroke-linecap="round" stroke-linejoin="round"/>
<path d="M30.3123 25.1514V35.0349" stroke="#6161FF" stroke-width="4" stroke-miterlimit="10" stroke-linecap="round" stroke-linejoin="round"/>
</svg>
