<svg width="60" height="60" viewBox="0 0 60 60" fill="none" xmlns="http://www.w3.org/2000/svg">
<path fill-rule="evenodd" clip-rule="evenodd" d="M12.6198 28.2094H47.7128H48.6848L49.6567 28.5333L51.2852 29.5138L52.2571 31.1338L52.5811 32.1143V33.0862V50.6327V51.6046L52.2571 52.5851L51.2852 54.2051L49.6567 55.177L48.6848 55.5096L47.7128 55.8335H12.6198L11.6393 55.5096L10.6674 55.177L9.04742 54.2051L8.06696 52.5851L7.74298 51.6046L7.41895 50.6327V33.0862L7.74298 32.1143L8.06696 31.1338L9.04742 29.5138L10.6674 28.5333L11.6393 28.2094H12.6198Z" stroke="#6161FF" stroke-width="4" stroke-miterlimit="10" stroke-linecap="round" stroke-linejoin="round"/>
<path d="M17.4868 28.2097V16.836L17.8193 14.2441L18.4673 11.9677L19.7632 9.69122L21.3917 7.73877L23.0117 6.44281L25.2881 5.13834L27.5645 4.49036L30.165 4.16638L32.4414 4.49036L34.3853 4.81436L36.3378 5.79483L37.9577 7.09079L39.5862 8.39526L40.8821 10.3392L41.8626 12.2916L42.5106 14.2441" stroke="#6161FF" stroke-width="4" stroke-miterlimit="10" stroke-linecap="round" stroke-linejoin="round"/>
</svg>
