<svg width="60" height="60" viewBox="0 0 60 60" fill="none" xmlns="http://www.w3.org/2000/svg">
<path d="M33.2935 44.8723L33.3877 46.2371L33.9053 48.8258L34.7525 51.3199L35.8821 53.7204L36.6351 54.803H23.3631L24.116 53.7204L25.2457 51.3199L26.0926 48.8258L26.6104 46.2371L26.7044 44.8723" stroke="#6161FF" stroke-width="4" stroke-miterlimit="10" stroke-linecap="round" stroke-linejoin="round"/>
<path d="M18.4217 54.803H41.5772" stroke="#6161FF" stroke-width="4" stroke-miterlimit="10" stroke-linecap="round" stroke-linejoin="round"/>
<path d="M5.19705 37.1541H54.8029" stroke="#6161FF" stroke-width="4" stroke-miterlimit="10" stroke-linecap="round" stroke-linejoin="round"/>
<path fill-rule="evenodd" clip-rule="evenodd" d="M8.49155 5.19702H51.5084H51.932L53.7675 5.95023L54.5204 6.93852L54.8029 7.8797V8.49153V41.5777V42.0013L54.0497 43.8368L53.0614 44.5898L52.1203 44.8723H51.5084H8.49155H8.06796L6.23248 44.1193L5.47952 43.1307L5.19705 42.1896V41.5777V8.49153V8.06793L5.95026 6.23244L6.93857 5.47951L7.87973 5.19702H8.49155Z" stroke="#6161FF" stroke-width="4" stroke-miterlimit="10" stroke-linecap="round" stroke-linejoin="round"/>
<path d="M41.0132 14.0452L29.3413 27.1761L29.0117 27.4586L28.2116 27.7408L27.788 27.7879H27.3173L26.5172 27.4586L26.1407 27.1761L22.2815 23.364" stroke="#6161FF" stroke-width="4" stroke-miterlimit="10" stroke-linecap="round" stroke-linejoin="round"/>
</svg>
