<svg width="60" height="60" viewBox="0 0 60 60" fill="none" xmlns="http://www.w3.org/2000/svg">
<path d="M8.06683 38.2736V14.802L8.11456 14.0863L8.63922 12.8937L9.54572 11.9872L10.7383 11.4626L11.4062 11.4148H48.3312L48.9988 11.4626L50.1917 11.9872L51.098 12.8937L51.6229 14.0863L51.6707 14.802V38.2736" stroke="#6161FF" stroke-width="4" stroke-miterlimit="10" stroke-linecap="round" stroke-linejoin="round"/>
<path fill-rule="evenodd" clip-rule="evenodd" d="M35.6449 38.2734L35.1199 39.0844L33.8796 40.3248L32.3529 41.1835L30.731 41.5651H29.0137L27.3915 41.1835L25.8651 40.3248L24.6247 39.0844L24.0998 38.2734H4.73096V41.6129V42.3286L5.01727 43.6165L5.49445 44.8093L6.25763 45.9064L7.16418 46.8129L8.21368 47.5286L9.40631 48.0533L10.7419 48.2918L11.4099 48.3396H48.3348L49.0024 48.2918L50.3384 48.0533L51.5309 47.5286L52.5805 46.8129L53.487 45.9064L54.2502 44.8093L54.7274 43.6165L55.0137 42.3286V41.6129V38.2734H35.6449Z" stroke="#6161FF" stroke-width="4" stroke-miterlimit="10" stroke-linecap="round" stroke-linejoin="round"/>
</svg>
