<svg width="60" height="60" viewBox="0 0 60 60" fill="none" xmlns="http://www.w3.org/2000/svg">
<path d="M50.1434 29.8335V55.1812H9.84961V29.8335" stroke="#6161FF" stroke-width="4" stroke-miterlimit="10" stroke-linecap="round" stroke-linejoin="round"/>
<path fill-rule="evenodd" clip-rule="evenodd" d="M4.98047 17.4883H55.0195V29.8339H4.98047V17.4883Z" stroke="#6161FF" stroke-width="4" stroke-miterlimit="10" stroke-linecap="round" stroke-linejoin="round"/>
<path d="M29.9968 55.1816V17.4883" stroke="#6161FF" stroke-width="4" stroke-miterlimit="10" stroke-linecap="round" stroke-linejoin="round"/>
<path fill-rule="evenodd" clip-rule="evenodd" d="M29.9962 17.488H18.955L17.0026 17.164L15.0501 16.1835L13.4302 14.5636L13.1062 13.5831L12.7737 12.6111L12.4497 11.3152L12.7737 9.68671L13.1062 8.39075L13.7542 7.0863L14.7261 6.11432L16.0306 5.46637L17.3266 5.14233L18.6225 4.81836L20.251 5.14233L21.8709 5.46637L23.1754 6.11432L24.1474 6.76227L26.0998 8.71472L27.7197 11.3152L28.7002 13.5831L29.6722 15.5355L29.9962 17.488Z" stroke="#6161FF" stroke-width="4" stroke-miterlimit="10" stroke-linecap="round" stroke-linejoin="round"/>
<path fill-rule="evenodd" clip-rule="evenodd" d="M29.9968 17.488H41.0465L43.3229 17.164L44.9429 16.1835L46.5713 14.5636L47.2193 13.5831L47.5433 12.6111V11.3152V9.68671L46.8953 8.39075L46.2473 7.0863L45.2669 6.11432L43.9709 5.46637L42.675 5.14233L41.3705 4.81836L39.7505 5.14233L38.4461 5.46637L37.1501 6.11432L35.8456 6.76227L33.9017 8.71472L32.2733 11.3152L31.3013 13.5831L30.6448 15.5355L29.9968 17.488Z" stroke="#6161FF" stroke-width="4" stroke-miterlimit="10" stroke-linecap="round" stroke-linejoin="round"/>
</svg>
