<svg width="60" height="60" viewBox="0 0 60 60" fill="none" xmlns="http://www.w3.org/2000/svg">
<g clip-path="url(#clip0_1_160)">
<path fill-rule="evenodd" clip-rule="evenodd" d="M14.7263 10.1768H44.9509H45.9229L46.8948 10.5008L48.5233 11.4812L49.4952 13.1012L49.8192 14.0817V15.0536V45.2697V46.2417L49.4952 47.2222L48.5233 48.8421L46.8948 49.8226L45.9229 50.1466H44.9509H14.7263H13.7543L12.7823 49.8226L11.1539 48.8421L10.1819 47.2222L9.85791 46.2417V45.2697V15.0536V14.0817L10.1819 13.1012L11.1539 11.4812L12.7823 10.5008L13.7543 10.1768H14.7263Z" stroke="#6161FF" stroke-width="4" stroke-miterlimit="10" stroke-linecap="round" stroke-linejoin="round"/>
<path fill-rule="evenodd" clip-rule="evenodd" d="M22.2031 22.5225H37.4731V37.801H22.2031V22.5225Z" stroke="#6161FF" stroke-width="4" stroke-miterlimit="10" stroke-linecap="round" stroke-linejoin="round"/>
<path d="M22.2031 2.38428V10.177" stroke="#6161FF" stroke-width="4" stroke-miterlimit="10" stroke-linecap="round" stroke-linejoin="round"/>
<path d="M37.4717 2.38428V10.177" stroke="#6161FF" stroke-width="4" stroke-miterlimit="10" stroke-linecap="round" stroke-linejoin="round"/>
<path d="M22.2031 50.147V57.6157" stroke="#6161FF" stroke-width="4" stroke-miterlimit="10" stroke-linecap="round" stroke-linejoin="round"/>
<path d="M37.4717 50.147V57.6157" stroke="#6161FF" stroke-width="4" stroke-miterlimit="10" stroke-linecap="round" stroke-linejoin="round"/>
<path d="M49.8188 22.5225H57.6201" stroke="#6161FF" stroke-width="4" stroke-miterlimit="10" stroke-linecap="round" stroke-linejoin="round"/>
<path d="M49.8188 35.2007H57.6201" stroke="#6161FF" stroke-width="4" stroke-miterlimit="10" stroke-linecap="round" stroke-linejoin="round"/>
<path d="M2.37988 22.5225H9.85718" stroke="#6161FF" stroke-width="4" stroke-miterlimit="10" stroke-linecap="round" stroke-linejoin="round"/>
<path d="M2.37988 35.2007H9.85718" stroke="#6161FF" stroke-width="4" stroke-miterlimit="10" stroke-linecap="round" stroke-linejoin="round"/>
</g>
<defs>
<clipPath id="clip0_1_160">
<rect width="60" height="60" fill="white"/>
</clipPath>
</defs>
</svg>
