<svg width="60" height="60" viewBox="0 0 60 60" fill="none" xmlns="http://www.w3.org/2000/svg">
<g clip-path="url(#clip0_1_1776)">
<path d="M23.4583 45.7728L21.19 48.0414L20.3458 48.8325L18.4995 50.046L16.495 50.8899L14.3848 51.3118H12.2221L10.112 50.8899L8.1075 50.046L6.26116 48.8325L5.41692 48.0414L4.67833 47.25L3.41242 45.3508L2.621 43.3464L2.19904 41.2362V39.126L2.621 37.0162L3.41242 35.0114L4.67833 33.1651L5.41692 32.3212L17.2336 20.5045L18.0247 19.7662L19.7657 18.6057L21.6648 17.7614L23.6693 17.3395L25.6738 17.2341L27.7311 17.5504L29.6831 18.1834L31.4766 19.2386L32.3206 19.9244L33.1648 20.663L34.4307 22.298L35.4331 24.0919L36.0133 26.0435L36.2771 28.1008L36.1189 30.1057L35.6441 32.1102L34.7474 34.0093L34.1144 34.9061" stroke="#6161FF" stroke-width="4" stroke-miterlimit="10" stroke-linecap="round" stroke-linejoin="round"/>
<path d="M36.9637 13.7525L38.81 11.9061L39.6539 11.1147L41.5003 9.90131L43.5051 9.11023L45.6152 8.68823H47.7779L49.888 9.11023L51.8925 9.90131L53.7389 11.1147L54.5831 11.9061L55.3214 12.7501L56.5876 14.5964L57.3787 16.6009L57.801 18.7111V20.874L57.3787 22.9842L56.5876 24.9886L55.3214 26.835L54.5831 27.679L42.7665 39.4427L41.9751 40.1813L40.2344 41.3944L38.3352 42.1859L36.3307 42.6606L34.3262 42.7134L32.2689 42.4496L30.3169 41.7639L28.5234 40.7615L27.6791 40.0757L26.8352 39.3371L25.5693 37.702L24.5669 35.8557L23.9868 33.9037L23.723 31.8992L23.8811 29.8419L24.4087 27.8371L25.2527 25.9382L25.8856 25.0415" stroke="#6161FF" stroke-width="4" stroke-miterlimit="10" stroke-linecap="round" stroke-linejoin="round"/>
</g>
<defs>
<clipPath id="clip0_1_1776">
<rect width="60" height="60" fill="white"/>
</clipPath>
</defs>
</svg>
