<svg width="60" height="60" viewBox="0 0 60 60" fill="none" xmlns="http://www.w3.org/2000/svg">
<g clip-path="url(#clip0_1_1930)">
<path fill-rule="evenodd" clip-rule="evenodd" d="M54.6974 7.13333L51.6122 15.5526L56.7892 20.7819L57.2075 21.2526L57.4166 22.2983L56.9983 23.2396L56.057 23.8671H55.4819L46.5397 23.815L43.2974 32.0772L42.9838 32.6526L41.9377 33.2277L40.7872 33.1756L39.8983 32.4434L39.6368 31.816L36.97 22.403L27.557 19.7361L26.9296 19.5267L26.1974 18.5857L26.145 17.4352L26.7205 16.4415L27.2955 16.0756L35.558 12.8333L35.4535 3.89105L35.5056 3.26361L36.0809 2.37463L37.0747 1.95605L38.1204 2.1655L38.5911 2.5838L43.8204 7.76077L52.2396 4.6756L52.8147 4.57086L53.8085 4.83237L54.5405 5.56454L54.8021 6.55792L54.6974 7.13333Z" stroke="#6161FF" stroke-width="4" stroke-miterlimit="10" stroke-linecap="round" stroke-linejoin="round"/>
<path d="M36.9691 22.4028L2.24609 57.1258" stroke="#6161FF" stroke-width="4" stroke-miterlimit="10" stroke-linecap="round" stroke-linejoin="round"/>
</g>
<defs>
<clipPath id="clip0_1_1930">
<rect width="60" height="60" fill="white"/>
</clipPath>
</defs>
</svg>
