<svg width="60" height="60" viewBox="0 0 60 60" fill="none" xmlns="http://www.w3.org/2000/svg">
<path fill-rule="evenodd" clip-rule="evenodd" d="M7.85352 4.48868H21.5048H21.892L23.8284 5.2634L24.6028 6.27992L24.845 7.24797L24.8931 7.87727V21.4801V21.9158L24.1187 23.8522L23.1022 24.5782L22.0856 24.8687L21.5048 24.9169H7.85352H7.46626L5.52988 24.094L4.75549 23.0775L4.51344 22.1094L4.46497 21.4801V7.87727V7.44158L5.28784 5.55367L6.30462 4.77923L7.27269 4.48868H7.85352Z" stroke="#6161FF" stroke-width="4" stroke-miterlimit="10" stroke-linecap="round" stroke-linejoin="round"/>
<path d="M4.46497 11.2656H24.8931" stroke="#6161FF" stroke-width="4" stroke-miterlimit="10" stroke-linecap="round" stroke-linejoin="round"/>
<path fill-rule="evenodd" clip-rule="evenodd" d="M38.4954 4.48868H52.1464H52.5339L54.4699 5.2634L55.1962 6.27992L55.4867 7.24797L55.535 7.87727V21.4801V21.9158L54.7121 23.8522L53.6955 24.5782L52.7275 24.8687L52.1464 24.9169H38.4954H38.0596L36.1717 24.094L35.3973 23.0775L35.1067 22.1094V21.4801V7.87727V7.44158L35.8812 5.55367L36.898 4.77923L37.9145 4.48868H38.4954Z" stroke="#6161FF" stroke-width="4" stroke-miterlimit="10" stroke-linecap="round" stroke-linejoin="round"/>
<path d="M35.1067 11.2656H55.535" stroke="#6161FF" stroke-width="4" stroke-miterlimit="10" stroke-linecap="round" stroke-linejoin="round"/>
<path fill-rule="evenodd" clip-rule="evenodd" d="M7.85352 35.1313H21.5048H21.892L23.8284 35.9057L24.6028 36.9225L24.845 37.8906L24.8931 38.5199V52.1227V52.5584L24.1187 54.4945L23.1022 55.2208L22.0856 55.5113H21.5048H7.85352H7.46626L5.52988 54.7366L4.75549 53.7201L4.51344 52.752L4.46497 52.1227V38.5199V38.0842L5.28784 36.1963L6.30462 35.4219L7.27269 35.1313H7.85352Z" stroke="#6161FF" stroke-width="4" stroke-miterlimit="10" stroke-linecap="round" stroke-linejoin="round"/>
<path d="M4.46497 41.9082H24.8931" stroke="#6161FF" stroke-width="4" stroke-miterlimit="10" stroke-linecap="round" stroke-linejoin="round"/>
<path fill-rule="evenodd" clip-rule="evenodd" d="M38.4954 35.1313H52.1464H52.5339L54.4699 35.9057L55.1962 36.9225L55.4867 37.8906L55.535 38.5199V52.1227V52.5584L54.7121 54.4945L53.6955 55.2208L52.7275 55.5113H52.1464H38.4954H38.0596L36.1717 54.7366L35.3973 53.7201L35.1067 52.752V52.1227V38.5199V38.0842L35.8812 36.1963L36.898 35.4219L37.9145 35.1313H38.4954Z" stroke="#6161FF" stroke-width="4" stroke-miterlimit="10" stroke-linecap="round" stroke-linejoin="round"/>
<path d="M35.1067 41.9082H55.535" stroke="#6161FF" stroke-width="4" stroke-miterlimit="10" stroke-linecap="round" stroke-linejoin="round"/>
</svg>
