<svg width="60" height="60" viewBox="0 0 60 60" fill="none" xmlns="http://www.w3.org/2000/svg">
<g clip-path="url(#clip0_1_2191)">
<path fill-rule="evenodd" clip-rule="evenodd" d="M46.5238 11.5925H6.10071L5.36865 11.6449L4.00903 12.22L3.01562 13.2137L2.49255 14.5209L2.44019 15.3055V37.3733L2.49255 38.1055L3.01562 39.4127L4.00903 40.4064L5.36865 40.9815L6.10071 41.0339H46.5238L47.308 40.9815L48.6156 40.4064L49.609 39.4127L50.1843 38.1055L50.2367 37.3733V15.3055L50.1843 14.5209L49.609 13.2137L48.6156 12.22L47.308 11.6449L46.5238 11.5925Z" stroke="#6161FF" stroke-width="4" stroke-miterlimit="10" stroke-linecap="round" stroke-linejoin="round"/>
<path d="M10.7041 20.7963L10.2858 20.744L9.81519 20.2209V19.5411L10.2858 19.0184L10.7041 18.9661" stroke="#6161FF" stroke-width="4" stroke-miterlimit="1747.71"/>
<path d="M10.7048 20.7963L11.1232 20.744L11.5939 20.2209V19.5411L11.1232 19.0184L10.7048 18.9661" stroke="#6161FF" stroke-width="4" stroke-miterlimit="1747.71"/>
<path d="M41.9761 33.6606L41.5055 33.6086L41.0872 33.0855V32.4057L41.5055 31.8827L41.9761 31.8303" stroke="#6161FF" stroke-width="4" stroke-miterlimit="1747.71"/>
<path d="M41.9756 33.6606L42.3939 33.6086L42.8123 33.0855V32.4057L42.3939 31.8827L41.9756 31.8303" stroke="#6161FF" stroke-width="4" stroke-miterlimit="1747.71"/>
<path fill-rule="evenodd" clip-rule="evenodd" d="M26.3392 33.6604H27.0714L28.5358 33.3468L29.843 32.8238L30.9935 31.9872L31.9872 30.9935L32.8239 29.843L33.3468 28.5358L33.6604 27.0714V26.3392V25.555L33.3468 24.143L32.8239 22.8358L31.9872 21.6329L30.9935 20.6392L29.843 19.855L28.5358 19.2796L27.0714 19.0184L26.3392 18.9661L25.5551 19.0184L24.1431 19.2796L22.8358 19.855L21.6329 20.6392L20.6393 21.6329L19.8551 22.8358L19.2797 24.143L19.0184 25.555L18.9661 26.3392L19.0184 27.0714L19.2797 28.5358L19.8551 29.843L20.6393 30.9935L21.6329 31.9872L22.8358 32.8238L24.1431 33.3468L25.5551 33.6604H26.3392Z" stroke="#6161FF" stroke-width="4" stroke-miterlimit="10" stroke-linecap="round" stroke-linejoin="round"/>
<path d="M57.5597 22.6267V44.6946L57.5073 45.4791L56.9843 46.7864L55.9906 47.7797L54.631 48.3551L53.8992 48.4075H13.4761" stroke="#6161FF" stroke-width="4" stroke-miterlimit="10" stroke-linecap="round" stroke-linejoin="round"/>
</g>
<defs>
<clipPath id="clip0_1_2191">
<rect width="60" height="60" fill="white"/>
</clipPath>
</defs>
</svg>
