<svg width="60" height="60" viewBox="0 0 60 60" fill="none" xmlns="http://www.w3.org/2000/svg">
<path fill-rule="evenodd" clip-rule="evenodd" d="M29.9948 20.0885H31.9473L33.8911 20.7365L35.5197 21.7084L36.8156 23.0129L38.12 24.3089L39.092 26.2613L39.74 27.8813V30.1577V32.1101L39.092 34.0626L38.12 35.6825L36.8156 36.987L35.5197 38.2829L33.8911 39.2549L31.9473 39.9114L29.9948 40.2354L27.7183 39.9114L26.0984 39.2549L24.1459 38.2829L22.85 36.987L21.5455 35.6825L20.5735 34.0626L19.9255 32.1101V30.1577V27.8813L20.5735 26.2613L21.5455 24.3089L22.85 23.0129L24.1459 21.7084L26.0984 20.7365L27.7183 20.0885H29.9948Z" stroke="#6161FF" stroke-width="4" stroke-miterlimit="10" stroke-linecap="round" stroke-linejoin="round"/>
<path d="M40.0649 20.0885V32.4341L40.3975 34.7106L41.3694 36.987L42.9894 38.6069L43.9698 39.2549L45.2657 39.5789L46.8943 39.9114H48.8381L50.4667 39.5789L52.0951 38.6069L53.391 37.311L54.363 36.0065L55.0195 34.3866V32.4341V30.4817L54.687 26.2613L53.715 22.0324L52.0951 18.1361L49.8186 14.8877L47.2183 11.6393L43.9698 9.03883L40.3975 7.0864L36.4926 5.79044L32.9202 5.14247L29.3478 4.81848L26.0994 5.14247L22.851 5.79044L19.9265 7.0864L17.0021 8.39087L14.4017 10.3433L12.1252 12.2872L10.1729 14.8877L8.22888 17.4881L6.92444 20.4125L5.62842 23.3369L4.98047 26.5853V29.8337V33.4061L5.62842 36.987L6.60046 38.9309L7.24841 41.2074L8.22888 43.1598L9.5249 44.7798L10.8293 46.7322L12.4492 48.3522L14.0778 49.6566L16.0216 50.9526L19.6025 52.905L23.4989 54.201L27.3953 54.8575L31.3002 55.1815L34.8726 54.525L38.4449 53.553L42.0173 51.9331L45.2657 49.9806" stroke="#6161FF" stroke-width="4" stroke-miterlimit="10" stroke-linecap="round" stroke-linejoin="round"/>
</svg>
