<svg width="60" height="60" viewBox="0 0 60 60" fill="none" xmlns="http://www.w3.org/2000/svg">
<g clip-path="url(#clip0_1_2541)">
<path fill-rule="evenodd" clip-rule="evenodd" d="M1.59717 30.3121L3.56396 27.3535L5.86731 24.0671L9.15417 20.1251L13.0966 16.5023L15.3999 14.8635L17.7032 13.2159L20.3345 11.9048L23.2935 10.9128L26.2524 10.2573H29.5392H32.826L36.1128 10.9128L38.744 11.9048L41.3751 13.2159L44.0063 14.8635L46.301 16.5023L50.2521 20.1251L53.5389 24.0671L55.8423 27.3535L57.4813 30.3121L55.8423 33.5985L53.5389 36.8849L50.2521 40.4991L46.301 44.4496L44.0063 46.0886L41.3751 47.4083L38.744 48.7194L36.1128 49.7028L32.826 50.3669L29.5392 50.6947L26.2524 50.3669L23.2935 49.7028L20.3345 48.7194L17.7032 47.4083L15.3999 46.0886L13.0966 44.4496L9.15417 40.4991L5.86731 36.8849L3.56396 33.5985L1.59717 30.3121Z" stroke="#6161FF" stroke-width="4" stroke-miterlimit="10" stroke-linecap="round" stroke-linejoin="round"/>
<path fill-rule="evenodd" clip-rule="evenodd" d="M29.5383 22.7473L31.1775 23.0837L32.4973 23.4115L33.8086 24.067L35.1285 25.0504L36.1119 26.0337L36.7676 27.3535L37.0955 28.9923L37.4319 30.3121L37.0955 31.9509L36.7676 33.2707L36.1119 34.5818L35.1285 35.9016L33.8086 36.8848L32.4973 37.5404L31.1775 37.8682L29.5383 38.2046L28.2185 37.8682L26.5793 37.5404L25.2595 36.8848L24.276 35.9016L23.2926 34.5818L22.637 33.2707L22.3005 31.9509L21.9727 30.3121L22.3005 28.9923L22.637 27.3535L23.2926 26.0337L24.276 25.0504L25.2595 24.067L26.5793 23.4115L28.2185 23.0837L29.5383 22.7473Z" stroke="#6161FF" stroke-width="4" stroke-miterlimit="10" stroke-linecap="round" stroke-linejoin="round"/>
</g>
<defs>
<clipPath id="clip0_1_2541">
<rect width="60" height="60" fill="white"/>
</clipPath>
</defs>
</svg>
