<svg width="60" height="60" viewBox="0 0 60 60" fill="none" xmlns="http://www.w3.org/2000/svg">
<g clip-path="url(#clip0_1_370)">
<path d="M42.3508 52.5808V47.3885V45.4361L41.7028 43.4836L40.7223 41.8637L39.4264 40.2352L38.1219 39.2632L36.502 38.2913L34.5495 37.6348L32.5971 37.3108H12.4587L10.1823 37.6348L8.5538 38.2913L6.60988 39.2632L5.3054 40.2352L4.00946 41.8637L3.02896 43.4836L2.381 45.4361V47.3885V52.5808" stroke="#6161FF" stroke-width="4" stroke-miterlimit="10" stroke-linecap="round" stroke-linejoin="round"/>
<path fill-rule="evenodd" clip-rule="evenodd" d="M22.5278 7.41895H24.4803L26.4242 8.06693L28.0526 9.04739L29.3486 10.3434L30.6531 11.6478L31.625 13.5918L32.273 15.2202L32.597 17.4966L32.273 19.4406L31.625 21.393L30.6531 23.013L29.3486 24.3174L28.0526 25.6134L26.4242 26.5939L24.4803 27.2419L22.5278 27.5658L20.2514 27.2419L18.6314 26.5939L16.679 25.6134L15.383 24.3174L14.0786 23.013L13.1066 21.393L12.4586 19.4406V17.4966V15.2202L13.1066 13.5918L14.0786 11.6478L15.383 10.3434L16.679 9.04739L18.6314 8.06693L20.2514 7.41895H22.5278Z" stroke="#6161FF" stroke-width="4" stroke-miterlimit="10" stroke-linecap="round" stroke-linejoin="round"/>
<path d="M57.619 52.5811V47.3887L57.295 45.7603L56.971 44.1403L56.3231 42.8358L55.3426 41.2159L54.3706 40.2354L53.0661 39.2635L51.7702 38.2915L50.1417 37.635" stroke="#6161FF" stroke-width="4" stroke-miterlimit="10" stroke-linecap="round" stroke-linejoin="round"/>
<path d="M40.0739 7.74292L42.0263 8.39941L43.6463 9.3714L44.9507 10.6673L46.2467 12.2958L46.8947 13.9157L47.5512 15.8682V17.8206L47.2186 19.7646L46.2467 22.365L44.6268 24.3174L42.3503 25.9374L40.0739 27.2419" stroke="#6161FF" stroke-width="4" stroke-miterlimit="10" stroke-linecap="round" stroke-linejoin="round"/>
</g>
<defs>
<clipPath id="clip0_1_370">
<rect width="60" height="60" fill="white"/>
</clipPath>
</defs>
</svg>
