<svg width="60" height="60" viewBox="0 0 60 60" fill="none" xmlns="http://www.w3.org/2000/svg">
<path d="M47.3055 30.8757L48.3799 30.2937L50.3049 28.8163L51.1108 27.876" stroke="#6161FF" stroke-width="4" stroke-miterlimit="10" stroke-linecap="round" stroke-linejoin="round"/>
<path d="M53.5265 21.9214L53.616 20.7126L53.2578 18.2951L52.8997 17.1311" stroke="#6161FF" stroke-width="4" stroke-miterlimit="10" stroke-linecap="round" stroke-linejoin="round"/>
<path d="M49.0031 12.0274L47.9733 11.3109L45.7349 10.3708L44.5708 10.1023" stroke="#6161FF" stroke-width="4" stroke-miterlimit="10" stroke-linecap="round" stroke-linejoin="round"/>
<path d="M12.427 33.1589L11.3079 33.741L9.33789 35.3976L8.53198 36.4274" stroke="#6161FF" stroke-width="4" stroke-miterlimit="10" stroke-linecap="round" stroke-linejoin="round"/>
<path d="M6.38367 42.7847V44.0383L6.92102 46.5455L7.45825 47.7543" stroke="#6161FF" stroke-width="4" stroke-miterlimit="10" stroke-linecap="round" stroke-linejoin="round"/>
<path d="M12.0669 52.6342L13.2308 53.2162L15.6934 53.8876L16.9917 53.9773" stroke="#6161FF" stroke-width="4" stroke-miterlimit="10" stroke-linecap="round" stroke-linejoin="round"/>
<path d="M28.4115 22.5034V53.9773" stroke="#6161FF" stroke-width="4" stroke-miterlimit="10" stroke-linecap="round" stroke-linejoin="round"/>
<path d="M22.4113 28.5026L28.4105 22.5034L34.4099 28.5026" stroke="#6161FF" stroke-width="4" stroke-miterlimit="10" stroke-linecap="round" stroke-linejoin="round"/>
<path fill-rule="evenodd" clip-rule="evenodd" d="M23.6653 11.4898L23.7546 12.4747L24.4712 14.1314L25.7246 15.4296L27.4258 16.1461L28.4108 16.2355L29.3512 16.1461L31.0524 15.4296L32.3506 14.1314L33.0671 12.4747L33.1117 11.4898L33.0671 10.5496L32.3506 8.84842L31.0524 7.55017L29.3512 6.83365L28.4108 6.78882L27.4258 6.83365L25.7246 7.55017L24.4712 8.84842L23.7546 10.5496L23.6653 11.4898Z" stroke="#6161FF" stroke-width="4" stroke-miterlimit="10" stroke-linecap="round" stroke-linejoin="round"/>
</svg>
