<svg width="60" height="60" viewBox="0 0 60 60" fill="none" xmlns="http://www.w3.org/2000/svg">
<path fill-rule="evenodd" clip-rule="evenodd" d="M12.2915 27.5573H47.3845H48.6804L49.3284 27.8812L50.9569 28.8617L52.2528 30.4817L52.5853 31.4622V32.4341V49.9806V51.2766L52.2528 51.933L50.9569 53.553L49.3284 54.8574L48.6804 55.1815H47.3845H12.2915H11.3195L10.3391 54.8574L8.71915 53.553L7.73865 51.933L7.41467 51.2766V49.9806V32.4341V31.4622L7.73865 30.4817L8.71915 28.8617L10.3391 27.8812L11.3195 27.5573H12.2915Z" stroke="#6161FF" stroke-width="4" stroke-miterlimit="10" stroke-linecap="round" stroke-linejoin="round"/>
<path d="M17.4918 27.5573V17.8121V15.8597L18.1398 13.5917L19.1118 11.6393L20.0923 9.68683L21.7122 8.06689L23.3407 6.76245L25.2846 5.79047L27.237 5.14252L30.1614 4.81848L33.0858 5.46649L35.6863 6.43842L37.9627 7.74292L39.9066 9.68683L41.2111 11.9633L42.1831 14.5637L42.5071 17.4881V27.5573" stroke="#6161FF" stroke-width="4" stroke-miterlimit="10" stroke-linecap="round" stroke-linejoin="round"/>
</svg>
