<svg width="60" height="60" viewBox="0 0 60 60" fill="none" xmlns="http://www.w3.org/2000/svg">
<path d="M47.3817 54.7432L47.6202 52.2622V51.642L47.5249 50.4017L47 48.6844L45.5689 46.7762L44.09 45.7266L42.9926 45.2495L42.3725 45.1064L34.2149 43.2936V30.4604L34.1671 29.6017L33.4992 28.0753L32.4018 26.9301L30.8754 26.31L30.0166 26.2622L29.1579 26.31L27.679 26.9301L26.5342 28.0753L25.8662 29.6017L25.8184 30.4604V51.0219L22.5267 48.5411L21.9066 48.1595L20.7137 47.8257L19.5211 47.9687L18.4716 48.4937L17.6606 49.3046L17.1359 50.3542L16.9926 51.499L17.3268 52.7393L17.7084 53.3595L18.8057 54.7432" stroke="#6161FF" stroke-width="4" stroke-miterlimit="10" stroke-linecap="round" stroke-linejoin="round"/>
<path fill-rule="evenodd" clip-rule="evenodd" d="M23.3395 10.3284V10.9008L23.5781 12.0459L24.2935 13.6201L25.868 15.1945L27.4422 15.91L28.5873 16.1486L29.2074 16.1964L29.7799 16.1486L30.9247 15.91L32.4991 15.1945L34.0733 13.6201L34.789 12.0459L35.0276 10.9008L35.0751 10.3284L35.0276 9.70822L34.789 8.56342L34.0733 6.98892L32.4991 5.41473L30.9247 4.69904L29.7799 4.46045H29.2074H28.5873L27.4422 4.69904L25.868 5.41473L24.2935 6.98892L23.5781 8.56342L23.3395 9.70822V10.3284Z" stroke="#6161FF" stroke-width="4" stroke-miterlimit="10" stroke-linecap="round" stroke-linejoin="round"/>
<path d="M34.3104 19.345L33.1178 18.677L30.5415 17.9138H27.87L25.2938 18.6293L24.1012 19.2972" stroke="#6161FF" stroke-width="4" stroke-miterlimit="10" stroke-linecap="round" stroke-linejoin="round"/>
<path fill-rule="evenodd" clip-rule="evenodd" d="M8.21518 25.4038L8.26267 26.024L8.45348 27.1688L9.21697 28.6955L10.7912 30.3175L12.3179 31.0332L13.5104 31.2715H14.0829H14.703L15.8481 31.0332L17.3748 30.3175L18.9968 28.6955L19.7122 27.1688L19.9508 26.024V25.4038V24.7836L19.7122 23.6385L18.9968 22.1118L17.3748 20.4899L15.8481 19.7744L14.703 19.5359H14.0829H13.5104L12.3179 19.7744L10.7912 20.4899L9.21697 22.1118L8.45348 23.6385L8.26267 24.7836L8.21518 25.4038Z" stroke="#6161FF" stroke-width="4" stroke-miterlimit="10" stroke-linecap="round" stroke-linejoin="round"/>
<path d="M18.3297 33.9432L17.4709 33.5613L15.6582 33.0845L13.8454 32.9412L12.0801 33.1797L10.3626 33.7047L8.78842 34.5634L7.35727 35.7082L6.1644 37.1394L5.68753 37.9981" stroke="#6161FF" stroke-width="4" stroke-miterlimit="10" stroke-linecap="round" stroke-linejoin="round"/>
<path d="M17.4211 12.8091H14.0817" stroke="#6161FF" stroke-width="4" stroke-miterlimit="10" stroke-linecap="round" stroke-linejoin="round"/>
<path d="M17.4211 6.13019L14.0817 4.46045" stroke="#6161FF" stroke-width="4" stroke-miterlimit="10" stroke-linecap="round" stroke-linejoin="round"/>
<path d="M40.9409 12.8091H44.2804" stroke="#6161FF" stroke-width="4" stroke-miterlimit="10" stroke-linecap="round" stroke-linejoin="round"/>
<path d="M40.9409 6.13019L44.2804 4.46045" stroke="#6161FF" stroke-width="4" stroke-miterlimit="10" stroke-linecap="round" stroke-linejoin="round"/>
<path fill-rule="evenodd" clip-rule="evenodd" d="M40.0822 25.4038L40.13 26.024L40.3208 27.1688L41.0365 28.6955L42.6585 30.3175L44.1852 31.0332L45.33 31.2715H45.9502H46.5703L47.7155 31.0332L49.2419 30.3175L50.8641 28.6955L51.5796 27.1688L51.8181 26.024V25.4038V24.7836L51.5796 23.6385L50.8641 22.1118L49.2419 20.4899L47.7155 19.7744L46.5703 19.5359H45.9502H45.33L44.1852 19.7744L42.6585 20.4899L41.0365 22.1118L40.3208 23.6385L40.13 24.7836L40.0822 25.4038Z" stroke="#6161FF" stroke-width="4" stroke-miterlimit="10" stroke-linecap="round" stroke-linejoin="round"/>
<path d="M41.7066 33.9432L42.565 33.5613L44.3781 33.0845L46.1909 32.9412L48.0036 33.1797L49.6733 33.7047L51.2953 34.5634L52.679 35.7082L53.8715 37.1394L54.3487 37.9981" stroke="#6161FF" stroke-width="4" stroke-miterlimit="10" stroke-linecap="round" stroke-linejoin="round"/>
</svg>
