<svg width="60" height="60" viewBox="0 0 60 60" fill="none" xmlns="http://www.w3.org/2000/svg">
<path fill-rule="evenodd" clip-rule="evenodd" d="M22.9785 29.5865L23.0253 30.2455L23.2607 31.5634L23.7786 32.74L24.4844 33.8225L25.3787 34.7166L26.4612 35.4226L27.6378 35.9402L28.9557 36.1756L29.6144 36.2227L30.2733 36.1756L31.5912 35.9402L32.7678 35.4226L33.8503 34.7166L34.7444 33.8225L35.4504 32.74L35.968 31.5634L36.2034 30.2455L36.2505 29.5865L36.2034 28.9279L35.968 27.61L35.4504 26.4334L34.7444 25.3509L33.8503 24.4566L32.7678 23.7507L31.5912 23.2329L30.2733 22.9975L29.6144 22.9507L28.9557 22.9975L27.6378 23.2329L26.4612 23.7507L25.3787 24.4566L24.4844 25.3509L23.7786 26.4334L23.2607 27.61L23.0253 28.9279L22.9785 29.5865Z" stroke="#6161FF" stroke-width="4" stroke-miterlimit="10" stroke-linecap="round" stroke-linejoin="round"/>
<path fill-rule="evenodd" clip-rule="evenodd" d="M19.6831 52.7422L19.7302 51.7536L20.1067 49.777L20.8596 47.9886L21.9421 46.4354L23.3069 45.0706L24.8602 43.988L26.6486 43.2351L28.5781 42.8586L29.6135 42.8115L30.6489 42.8586L32.5786 43.2351L34.367 43.988L35.9203 45.0706L37.285 46.4354L38.3676 47.9886L39.1205 49.777L39.497 51.7536L39.5441 52.7422H19.6831Z" stroke="#6161FF" stroke-width="4" stroke-miterlimit="10" stroke-linecap="round" stroke-linejoin="round"/>
<path d="M19.0723 40.129L18.2252 39.2347L16.8604 37.3052L15.825 35.3283L15.1189 33.2575L14.7424 31.1398L14.6953 29.0218L14.9307 26.9038L15.4954 24.8801L16.2954 22.9035L17.3308 21.1151L18.6487 19.4679L20.2018 18.0089L21.9432 16.7381L23.9199 15.7498L26.0378 15.0908L28.3909 14.7144H29.6146H30.8382L33.1916 15.0908L35.3095 15.7498L37.2861 16.7381L39.0276 18.0089L40.5806 19.4679L41.8986 21.1151L42.9337 22.9035L43.7341 24.8801L44.2988 26.9038L44.5341 29.0218L44.487 31.1398L44.1105 33.2575L43.4044 35.3283L42.369 37.3052L41.0042 39.2347L40.157 40.129" stroke="#6161FF" stroke-width="4" stroke-miterlimit="10" stroke-linecap="round" stroke-linejoin="round"/>
<path d="M13.2363 45.9648L12.0126 44.694L9.98889 41.9171L8.38873 38.9051L7.25909 35.7516L6.6004 32.4571L6.41187 29.0686L6.74152 25.6799L7.58868 22.3385L8.2005 20.7384L8.90631 19.138L10.6949 16.1731L12.8598 13.5375L15.3542 11.2784L18.178 9.44296L21.1901 7.98395L24.4846 6.99536L27.8734 6.47778L29.6146 6.43066L31.3561 6.47778L34.7446 6.99536L38.0391 7.98395L41.0514 9.44296L43.8752 11.2784L46.3696 13.5375L48.5344 16.1731L50.3228 19.138L51.0289 20.7384L51.6407 22.3385L52.4879 25.6799L52.8173 29.0686L52.629 32.4571L51.97 35.7516L50.8406 38.9051L49.2405 41.9171L47.2168 44.694L45.9931 45.9648" stroke="#6161FF" stroke-width="4" stroke-miterlimit="10" stroke-linecap="round" stroke-linejoin="round"/>
</svg>
