<svg width="60" height="60" viewBox="0 0 60 60" fill="none" xmlns="http://www.w3.org/2000/svg">
<path d="M25.0723 48.0079L23.5117 49.0887L20.1971 50.9183L18.4254 51.6017L18.1154 49.6604L18.0513 45.7687L18.2559 43.7944" stroke="#6161FF" stroke-width="4" stroke-miterlimit="10" stroke-linecap="round" stroke-linejoin="round"/>
<path d="M41.5162 11.6385L43.5677 8.08789" stroke="#6161FF" stroke-width="4" stroke-miterlimit="10" stroke-linecap="round" stroke-linejoin="round"/>
<path fill-rule="evenodd" clip-rule="evenodd" d="M24.1838 27.7247L21.7187 27.5119L21.0801 27.4731L19.9142 27.6807L18.8352 28.2136L17.9326 29.0135L17.5812 29.5263L14.5518 34.7695L14.45 35.0412L14.4589 35.5971L14.6351 35.8641L14.8115 36.131L15.3481 36.4411L15.6672 36.4604L21.8481 36.342L29.9398 41.0172L32.8829 46.4072L33.0591 46.6741L33.6371 47.008L33.9564 47.0274L34.2754 47.0467L34.827 46.7595L35.0114 46.5358L38.0171 41.3338L38.2858 40.7732L38.528 39.5917L38.4508 38.3908L38.0481 37.2768L37.6958 36.743L36.2803 34.7137L44.1544 26.7081L44.7489 26.0603L45.614 24.4677L45.9535 22.7365L45.7434 20.908L45.4104 20.0549L41.5176 11.6384L32.3406 12.5586L31.4352 12.6962L29.77 13.3861L28.3984 14.5209L27.4336 16.0007L27.1454 16.8806L24.1838 27.7247Z" stroke="#6161FF" stroke-width="4" stroke-miterlimit="10" stroke-linecap="round" stroke-linejoin="round"/>
<path fill-rule="evenodd" clip-rule="evenodd" d="M32.5661 20.4548L32.2735 21.0567L32.09 22.3274L32.4213 23.5651L33.2324 24.6393L33.7863 25.0145L34.3882 25.3071L35.7239 25.4733L36.9616 25.142L37.9709 24.3486L38.3459 23.7943L38.6625 23.1514L38.8461 21.8806L38.5147 20.643L37.7038 19.5686L37.1495 19.1935L36.5479 18.9008L35.2121 18.7349L33.9745 19.0659L32.9651 19.8596L32.5661 20.4548Z" stroke="#6161FF" stroke-width="4" stroke-miterlimit="10" stroke-linecap="round" stroke-linejoin="round"/>
</svg>
