<svg width="60" height="60" viewBox="0 0 60 60" fill="none" xmlns="http://www.w3.org/2000/svg">
<path d="M12.2917 35.201L14.5682 33.5726L16.5206 32.2766L18.4731 31.3047L20.741 30.3242L23.0175 29.6762L25.2939 29.0282L27.8943 28.7042H30.1622H32.4387L34.7151 29.0282L36.9916 29.6762L39.268 30.3242L41.5359 31.3047L43.8123 32.2766L45.7648 33.5726L47.7087 35.201" stroke="#6161FF" stroke-width="4" stroke-miterlimit="10" stroke-linecap="round" stroke-linejoin="round"/>
<path d="M3.51831 26.1037L6.44269 23.8273L9.36713 21.8748L12.624 19.9309L15.8724 18.6264L19.4448 17.6545L23.0172 16.6825L26.5896 16.3585L30.162 16.026L33.4189 16.3585L36.9913 16.6825L40.5637 17.6545L44.136 18.6264L47.3845 19.9309L50.6329 21.8748L53.5573 23.8273L56.4817 26.1037" stroke="#6161FF" stroke-width="4" stroke-miterlimit="10" stroke-linecap="round" stroke-linejoin="round"/>
<path d="M21.3889 43.9741L23.3414 42.6696L25.6178 42.0216L27.8943 41.3737H30.1622H32.4386L34.715 42.0216L36.6675 42.6696L38.6115 43.9741" stroke="#6161FF" stroke-width="4" stroke-miterlimit="10" stroke-linecap="round" stroke-linejoin="round"/>
</svg>
