<svg width="60" height="60" viewBox="0 0 60 60" fill="none" xmlns="http://www.w3.org/2000/svg">
<g clip-path="url(#clip0_1_2315)">
<path d="M44.953 45.4219L41.3722 47.6983L37.7998 49.3182L33.9033 50.2987L30.007 50.6227L26.7585 50.2987L23.8342 49.6422L20.9098 48.6703L18.3093 47.3743L15.7089 46.0698L13.4325 44.4499L9.53613 40.545L6.28772 36.9726L4.01123 33.7242L2.38281 30.4758L4.98328 26.2469L7.90759 22.3506L11.156 18.7782L15.0609 15.5298" stroke="#6161FF" stroke-width="4" stroke-miterlimit="10" stroke-linecap="round" stroke-linejoin="round"/>
<path d="M24.8066 10.9771L27.4071 10.6531H30.0074H33.2559L36.1803 11.3011L39.1047 12.2816L41.7051 13.5775L43.973 15.206L46.2495 16.8259L50.4784 20.4068L53.4028 24.3032L55.6707 27.5516L57.6232 30.476L55.0227 34.6964L52.0983 38.6013" stroke="#6161FF" stroke-width="4" stroke-miterlimit="10" stroke-linecap="round" stroke-linejoin="round"/>
<path d="M35.2007 36.0006L34.2288 36.9725L32.9327 37.6205L31.3043 37.9445L30.0083 38.277H28.7039L27.084 37.9445L25.7794 37.2966L24.4835 36.3246L23.5031 35.0201L22.855 33.7242L22.531 32.4282L22.207 31.1237V29.5038L22.531 28.1993L23.1791 26.9034L24.1595 25.5989L24.4835 25.2749" stroke="#6161FF" stroke-width="4" stroke-miterlimit="10" stroke-linecap="round" stroke-linejoin="round"/>
<path d="M2.38281 2.86035L57.6227 58.0917" stroke="#6161FF" stroke-width="4" stroke-miterlimit="10" stroke-linecap="round" stroke-linejoin="round"/>
</g>
<defs>
<clipPath id="clip0_1_2315">
<rect width="60" height="60" fill="white"/>
</clipPath>
</defs>
</svg>
