<svg width="60" height="60" viewBox="0 0 60 60" fill="none" xmlns="http://www.w3.org/2000/svg">
<g clip-path="url(#clip0_1_897)">
<path fill-rule="evenodd" clip-rule="evenodd" d="M17.134 7.93201L17.1864 8.50739L17.7091 9.60547L18.6505 10.5989L20.0624 11.4358L22.7817 12.5339L27.3835 13.3705L29.9981 13.4752L32.6129 13.3705L37.2148 12.5339L39.934 11.4358L41.346 10.5989L42.287 9.60547L42.8101 8.50739L42.8624 7.93201L42.8101 7.35693L42.287 6.31085L41.346 5.3175L39.934 4.42853L37.2148 3.33008L32.6129 2.49353L29.9981 2.44116L27.3835 2.49353L22.7817 3.33008L20.0624 4.42853L18.6505 5.3175L17.7091 6.31085L17.1864 7.35693L17.134 7.93201Z" stroke="#6161FF" stroke-width="4" stroke-miterlimit="10" stroke-linecap="round" stroke-linejoin="round"/>
<path d="M17.134 7.93188V15.3054L17.1864 15.8804L17.7091 16.9265L18.6505 17.9199L20.0624 18.8088L22.7817 19.9073L27.3835 20.7438L29.9981 20.7962L32.6129 20.7438L37.2148 19.9073L39.934 18.8088L41.346 17.9199L42.287 16.9265L42.8101 15.8804L42.8624 15.3054V7.93188" stroke="#6161FF" stroke-width="4" stroke-miterlimit="10" stroke-linecap="round" stroke-linejoin="round"/>
<path d="M17.134 15.3054V22.6266L17.1864 23.2017L17.7091 24.2997L18.6505 25.2935L20.0624 26.1824L22.7817 27.2285L27.3835 28.0651L29.9981 28.1695L32.6129 28.0651L37.2148 27.2285L39.934 26.1824L41.346 25.2935L42.287 24.2997L42.8101 23.2017L42.8624 22.6266V15.3054" stroke="#6161FF" stroke-width="4" stroke-miterlimit="10" stroke-linecap="round" stroke-linejoin="round"/>
<path fill-rule="evenodd" clip-rule="evenodd" d="M6.10223 35.5427H20.7969H21.2675L23.3593 36.3793L24.1436 37.4777L24.4575 38.5235L24.5095 39.2033V46.5244V46.9951L23.6205 49.0869L22.5224 49.8711L21.4767 50.185L20.7969 50.2374H6.10223H5.63159L3.59216 49.3484L2.75555 48.25L2.44165 47.2042V46.5244V39.2033V38.7326L3.27856 36.6409L4.37671 35.8566L5.42242 35.5427H6.10223Z" stroke="#6161FF" stroke-width="4" stroke-miterlimit="10" stroke-linecap="round" stroke-linejoin="round"/>
<path d="M13.4744 50.2375V57.5587" stroke="#6161FF" stroke-width="4" stroke-miterlimit="10" stroke-linecap="round" stroke-linejoin="round"/>
<path d="M7.93188 57.5588H18.966" stroke="#6161FF" stroke-width="4" stroke-miterlimit="10" stroke-linecap="round" stroke-linejoin="round"/>
<path fill-rule="evenodd" clip-rule="evenodd" d="M39.2031 35.5427H53.8978H54.3685L56.4079 36.3793L57.2444 37.4777L57.5583 38.5235V39.2033V46.5244V46.9951L56.7214 49.0869L55.6234 49.8711L54.5776 50.185L53.8978 50.2374H39.2031H38.7325L36.6407 49.3484L35.8564 48.25L35.5426 47.2042L35.4902 46.5244V39.2033V38.7326L36.3792 36.6409L37.4776 35.8566L38.5233 35.5427H39.2031Z" stroke="#6161FF" stroke-width="4" stroke-miterlimit="10" stroke-linecap="round" stroke-linejoin="round"/>
<path d="M46.5249 50.2375V57.5587" stroke="#6161FF" stroke-width="4" stroke-miterlimit="10" stroke-linecap="round" stroke-linejoin="round"/>
<path d="M41.033 57.5588H52.067" stroke="#6161FF" stroke-width="4" stroke-miterlimit="10" stroke-linecap="round" stroke-linejoin="round"/>
<path d="M6.10132 28.1699V24.5093L6.15369 23.725L6.72876 22.4178L7.72247 21.4241L9.02972 20.849L9.7619 20.7966" stroke="#6161FF" stroke-width="4" stroke-miterlimit="10" stroke-linecap="round" stroke-linejoin="round"/>
<path d="M53.8988 28.1699V24.5093L53.8464 23.725L53.2711 22.4178L52.2777 21.4241L50.9702 20.849L50.2383 20.7966" stroke="#6161FF" stroke-width="4" stroke-miterlimit="10" stroke-linecap="round" stroke-linejoin="round"/>
</g>
<defs>
<clipPath id="clip0_1_897">
<rect width="60" height="60" fill="white"/>
</clipPath>
</defs>
</svg>
