<svg width="60" height="60" viewBox="0 0 60 60" fill="none" xmlns="http://www.w3.org/2000/svg">
<path fill-rule="evenodd" clip-rule="evenodd" d="M54.8322 16.9007L31.9807 5.11703L31.2173 4.7832H29.5953L28.8322 5.11703L5.98071 16.9007L5.64661 17.1393L5.26501 17.7594V18.4749L5.64661 19.1428L5.98071 19.3336L28.8322 31.1648L29.5953 31.4989H31.2173L31.9807 31.1648L54.8322 19.3814L55.1659 19.1428L55.5479 18.5227V17.7594L55.1659 17.1393L54.8322 16.9007Z" stroke="#6161FF" stroke-width="4" stroke-miterlimit="10" stroke-linecap="round" stroke-linejoin="round"/>
<path d="M14.9969 24.009L5.98059 28.6364L5.64648 28.8749L5.26489 29.4951V30.2586L5.64648 30.8788L5.98059 31.1171L28.832 42.9007L29.5952 43.2346H31.2172L31.9806 42.9007L54.832 31.1171L55.1658 30.8788L55.5477 30.2586V29.4951L55.1658 28.8749L54.832 28.6364L45.8152 24.009" stroke="#6161FF" stroke-width="4" stroke-miterlimit="10" stroke-linecap="round" stroke-linejoin="round"/>
<path d="M14.9969 35.7446L5.98059 40.3722L5.64648 40.6108L5.26489 41.231V41.9942L5.64648 42.6144L5.98059 42.8529L28.832 54.6363L29.5952 54.9704H31.2172L31.9806 54.6363L54.832 42.8529L55.1658 42.6144L55.5477 41.9942V41.2787L55.1658 40.6108L54.832 40.42L45.8152 35.7446" stroke="#6161FF" stroke-width="4" stroke-miterlimit="10" stroke-linecap="round" stroke-linejoin="round"/>
</svg>
