<svg width="60" height="60" viewBox="0 0 60 60" fill="none" xmlns="http://www.w3.org/2000/svg">
<g clip-path="url(#clip0_1_186)">
<path d="M20.5768 6.9249L22.5292 6.27692L24.1492 5.30496L26.1016 4.98097L28.0541 4.65698H29.9981L31.9505 4.98097L33.9029 5.30496L35.5229 5.95293L37.4753 6.9249L39.0953 7.90538L40.7237 8.87735L42.0197 10.1818L43.3242 11.8018L44.2961 13.4302L45.2681 15.3741L46.2486 17.3266L46.5726 19.927L46.8965 22.5275V32.2726" stroke="#6161FF" stroke-width="4" stroke-miterlimit="10" stroke-linecap="round" stroke-linejoin="round"/>
<path d="M41.696 42.3413H4.00262H5.63104L6.92694 41.6933L8.23151 41.0453L9.5274 40.0733L10.1839 39.0929L11.1558 37.7969L11.4798 36.4924V34.8725V22.2029L11.8039 20.2504L12.1279 18.298L12.7758 16.3541L13.4323 14.4016" stroke="#6161FF" stroke-width="4" stroke-miterlimit="10" stroke-linecap="round" stroke-linejoin="round"/>
<path d="M34.2276 52.4192L33.5711 53.3912L32.923 54.0391L31.3032 54.6956L29.3506 55.0196L28.3787 54.6956L27.3983 54.3631L26.4263 53.3912L25.4543 52.4192" stroke="#6161FF" stroke-width="4" stroke-miterlimit="10" stroke-linecap="round" stroke-linejoin="round"/>
<path d="M2.38007 2.38013L57.6199 57.62" stroke="#6161FF" stroke-width="4" stroke-miterlimit="10" stroke-linecap="round" stroke-linejoin="round"/>
</g>
<defs>
<clipPath id="clip0_1_186">
<rect width="60" height="60" fill="white"/>
</clipPath>
</defs>
</svg>
