<svg width="60" height="60" viewBox="0 0 60 60" fill="none" xmlns="http://www.w3.org/2000/svg">
<path fill-rule="evenodd" clip-rule="evenodd" d="M40.3115 17.5839L40.1287 19.0467L40.6774 21.6063L41.2257 22.8863L41.9573 23.9833L44.1514 25.4461L45.4313 25.8119L46.8939 25.9948L49.4537 25.629L50.5508 24.8977L51.6478 24.1662L53.2936 21.9721L53.6591 20.6921L53.8419 19.4122L53.4762 16.8526L52.7449 15.5727L52.0137 14.4756L49.8196 13.0128L48.5396 12.6473L47.2596 12.2815L44.5168 12.8299L43.4198 13.3785L42.3228 14.2927L40.6774 16.3039L40.3115 17.5839Z" stroke="#6161FF" stroke-width="4" stroke-miterlimit="10" stroke-linecap="round" stroke-linejoin="round"/>
<path d="M9.41138 7.34473H5.20605V21.6064L5.38892 24.1663L7.21716 28.5545L10.6913 32.0285L15.2623 34.0398H17.822H20.3818L24.953 32.0285L28.2441 28.5545L30.2554 24.1663L30.4382 21.6064V7.34473H26.05" stroke="#6161FF" stroke-width="4" stroke-miterlimit="10" stroke-linecap="round" stroke-linejoin="round"/>
<path d="M18.0068 34.2226V38.9765L18.1897 41.9019L20.3838 47.2046L24.4065 51.0441L29.526 53.2382L32.4514 53.4211L35.5599 53.2382L40.6794 51.0441L44.7019 47.2046L46.896 41.9019L47.0789 38.9765V26.7261" stroke="#6161FF" stroke-width="4" stroke-miterlimit="10" stroke-linecap="round" stroke-linejoin="round"/>
</svg>
