<svg width="60" height="60" viewBox="0 0 60 60" fill="none" xmlns="http://www.w3.org/2000/svg">
<path fill-rule="evenodd" clip-rule="evenodd" d="M30.166 4.81848L32.7579 5.14246L35.0343 5.46649L37.6348 6.11444L39.9112 6.76239L42.1876 8.06689L44.1316 9.03888L46.084 10.6588L48.0364 12.2872L49.6564 13.9157L50.9609 15.8596L52.2568 18.1361L53.2288 20.0885L54.2093 22.3564L54.8572 24.9568L55.1812 27.5573V29.8337V32.4341L54.8572 35.0346L54.2093 37.311L53.2288 39.9029L52.2568 41.8553L50.9609 44.1318L49.6564 46.0757L48.0364 47.7042L46.084 49.3326L44.1316 50.9526L42.1876 51.9246L39.9112 53.229L37.6348 53.877L35.0343 54.525L32.7579 54.8489L30.166 55.1815L27.5656 54.8489L24.9651 54.525L22.6887 53.877L20.4123 53.229L18.1443 51.9246L16.1919 50.9526L14.2394 49.3326L12.2955 47.7042L10.6671 46.0757L9.37109 44.1318L8.06662 41.8553L7.09467 39.9029L6.11417 37.311L5.4662 35.0346L5.14221 32.4341V29.8337V27.5573L5.4662 24.9568L6.11417 22.3564L7.09467 20.0885L8.06662 18.1361L9.37109 15.8596L10.6671 13.9157L12.2955 12.2872L14.2394 10.6588L16.1919 9.03888L18.1443 8.06689L20.4123 6.76239L22.6887 6.11444L24.9651 5.46649L27.5656 5.14246L30.166 4.81848Z" stroke="#6161FF" stroke-width="4" stroke-miterlimit="10" stroke-linecap="round" stroke-linejoin="round"/>
<path d="M4.81848 29.1862H55.1815" stroke="#6161FF" stroke-width="4" stroke-miterlimit="10" stroke-linecap="round" stroke-linejoin="round"/>
<path fill-rule="evenodd" clip-rule="evenodd" d="M30.1672 4.81848L32.4351 7.4104L34.3875 10.3348L36.016 13.2592L37.312 16.5076L38.6079 19.7645L39.2644 23.0129L39.9124 26.5853L40.2364 29.8337L39.9124 33.4061L39.2644 36.9785L38.6079 40.2354L37.312 43.4838L36.016 46.7322L34.3875 49.6566L32.4351 52.5811L30.1672 55.1815L27.8907 52.5811L25.9383 49.6566L24.3184 46.7322L22.6899 43.4838L21.7179 40.2354L20.7374 36.9785L20.4135 33.4061L20.0895 29.8337L20.4135 26.5853L20.7374 23.0129L21.7179 19.7645L22.6899 16.5076L24.3184 13.2592L25.9383 10.3348L27.8907 7.4104L30.1672 4.81848Z" stroke="#6161FF" stroke-width="4" stroke-miterlimit="10" stroke-linecap="round" stroke-linejoin="round"/>
</svg>
