<svg width="60" height="60" viewBox="0 0 60 60" fill="none" xmlns="http://www.w3.org/2000/svg">
<path d="M27.8473 30.2038L36.5921 21.459" stroke="#6161FF" stroke-width="4" stroke-miterlimit="10" stroke-linecap="round" stroke-linejoin="round"/>
<path fill-rule="evenodd" clip-rule="evenodd" d="M36.5931 21.4588L37.804 13.5211L44.5307 6.79443L45.6071 12.3102L51.1229 13.3867L44.3962 20.2479L36.5931 21.4588Z" stroke="#6161FF" stroke-width="4" stroke-miterlimit="10" stroke-linecap="round" stroke-linejoin="round"/>
<path d="M48.8368 25.226L49.644 28.8584L49.1057 35.5854L46.6842 41.3704L42.5135 46.079L37.2666 49.308L31.2124 51.0569L24.8894 50.7879L18.7007 48.2316L15.7409 46.079L13.0501 43.523L9.68661 37.7379L8.47592 31.5492L9.14865 25.3604L11.5702 19.5754L15.6064 14.8668L20.9877 11.5033L27.4455 9.88892L31.2124 10.0234" stroke="#6161FF" stroke-width="4" stroke-miterlimit="10" stroke-linecap="round" stroke-linejoin="round"/>
<path d="M39.822 27.7823L40.0909 29.6656L39.822 33.1636L38.611 36.2581L36.4585 38.8141L33.6332 40.5633L30.5389 41.5049H27.1755L23.812 40.294L22.3321 39.2179L20.8522 37.8725L18.8341 34.9127L18.0269 31.6837L18.1614 28.455L19.2379 25.3604L21.1212 22.6699L23.812 20.6518L27.1755 19.5754L29.0588 19.4409" stroke="#6161FF" stroke-width="4" stroke-miterlimit="10" stroke-linecap="round" stroke-linejoin="round"/>
<path d="M18.2954 47.8281L16.8156 54.1514" stroke="#6161FF" stroke-width="4" stroke-miterlimit="10" stroke-linecap="round" stroke-linejoin="round"/>
<path d="M40.3588 47.8281L41.9734 54.1514" stroke="#6161FF" stroke-width="4" stroke-miterlimit="10" stroke-linecap="round" stroke-linejoin="round"/>
</svg>
