<svg width="60" height="60" viewBox="0 0 60 60" fill="none" xmlns="http://www.w3.org/2000/svg">
<g clip-path="url(#clip0_1_2006)">
<path fill-rule="evenodd" clip-rule="evenodd" d="M2.19873 52.2615L2.25159 53.3693L3.09546 55.3738L4.62549 56.9034L6.63 57.7477L7.73767 57.8005L8.89832 57.7477L10.8502 56.9034L12.38 55.3738L13.2239 53.3693L13.3296 52.2615L13.2239 51.101L12.38 49.149L10.8502 47.6193L8.89832 46.775L7.73767 46.6697L6.63 46.775L4.62549 47.6193L3.09546 49.149L2.25159 51.101L2.19873 52.2615Z" stroke="#6161FF" stroke-width="4" stroke-miterlimit="10" stroke-linecap="round" stroke-linejoin="round"/>
<path fill-rule="evenodd" clip-rule="evenodd" d="M24.46 52.2615L24.5128 53.3693L25.3571 55.3738L26.8867 56.9034L28.8912 57.7477L29.999 57.8005L31.1071 57.7477L33.1116 56.9034L34.6412 55.3738L35.4855 53.3693L35.5381 52.2615L35.4855 51.101L34.6412 49.149L33.1116 47.6193L31.1071 46.775L29.999 46.6697L28.8912 46.775L26.8867 47.6193L25.3571 49.149L24.5128 51.101L24.46 52.2615Z" stroke="#6161FF" stroke-width="4" stroke-miterlimit="10" stroke-linecap="round" stroke-linejoin="round"/>
<path fill-rule="evenodd" clip-rule="evenodd" d="M46.6704 52.2615L46.7758 53.3693L47.62 55.3738L49.1498 56.9034L51.1017 57.7477L52.2623 57.8005L53.37 57.7477L55.3745 56.9034L56.9043 55.3738L57.7485 53.3693L57.8013 52.2615L57.7485 51.101L56.9043 49.149L55.3745 47.6193L53.37 46.775L52.2623 46.6697L51.1017 46.775L49.1498 47.6193L47.62 49.149L46.7758 51.101L46.6704 52.2615Z" stroke="#6161FF" stroke-width="4" stroke-miterlimit="10" stroke-linecap="round" stroke-linejoin="round"/>
<path fill-rule="evenodd" clip-rule="evenodd" d="M22.5604 15.1765H37.4364H37.8584L39.9685 16.0204L40.8125 17.1282L41.0763 18.1834L41.1292 18.8692V28.1534V28.6282L40.2324 30.6855L39.1246 31.5298L38.0695 31.8461H37.4364H22.5604H22.1384L20.0283 31.0021L19.1841 29.8944L18.9205 28.7866L18.8677 28.1534V18.8692V18.3944L19.7645 16.3371L20.8722 15.4928L21.9271 15.1765H22.5604Z" stroke="#6161FF" stroke-width="4" stroke-miterlimit="10" stroke-linecap="round" stroke-linejoin="round"/>
<path d="M29.9985 46.6695V31.8459" stroke="#6161FF" stroke-width="4" stroke-miterlimit="10" stroke-linecap="round" stroke-linejoin="round"/>
<path d="M7.7373 46.6698V39.2844H52.2605V46.6698" stroke="#6161FF" stroke-width="4" stroke-miterlimit="10" stroke-linecap="round" stroke-linejoin="round"/>
<path d="M22.5625 15.1767V9.58484L22.615 8.84622L22.8788 7.36935L23.4592 6.05063L24.2504 4.89005L25.2528 3.88766L26.4662 3.0437L27.7849 2.51611L29.2621 2.19946H30.0004H30.7389L32.2162 2.51611L33.5349 3.0437L34.7483 3.88766L35.7504 4.89005L36.5417 6.05063L37.1219 7.36935L37.3857 8.84622L37.4385 9.58484V15.1767" stroke="#6161FF" stroke-width="4" stroke-miterlimit="10" stroke-linecap="round" stroke-linejoin="round"/>
</g>
<defs>
<clipPath id="clip0_1_2006">
<rect width="60" height="60" fill="white"/>
</clipPath>
</defs>
</svg>
