<svg width="60" height="60" viewBox="0 0 60 60" fill="none" xmlns="http://www.w3.org/2000/svg">
<path fill-rule="evenodd" clip-rule="evenodd" d="M14.475 55.0184L23.5394 33.8843L23.6824 33.4549L23.5872 32.6439L23.1578 31.976L22.4421 31.5943L22.0127 31.5466H15.3815L14.9521 31.4991L14.2365 31.1172L13.8074 30.4495L13.7118 29.6385L13.8549 29.2092L24.1118 5.73738L24.3504 5.30827L25.1614 4.78337L25.6385 4.7356H42.8605L43.3851 4.78337L44.1486 5.26051L44.5302 6.11926L44.4347 7.02551L44.1486 7.45488L35.132 18.7614L34.8456 19.1908L34.7504 20.097L35.132 20.9083L35.8952 21.4329L36.4201 21.4807H44.0053L44.5302 21.5285L45.2934 22.1009L45.675 22.9596L45.532 23.9136L45.1504 24.343L14.475 55.0184Z" stroke="#6161FF" stroke-width="4" stroke-miterlimit="10" stroke-linejoin="round"/>
</svg>
