<svg width="60" height="60" viewBox="0 0 60 60" fill="none" xmlns="http://www.w3.org/2000/svg">
<path fill-rule="evenodd" clip-rule="evenodd" d="M36.637 54.803H23.365L25.0591 44.8723H34.9427L36.637 54.803Z" stroke="#6161FF" stroke-width="4" stroke-miterlimit="10" stroke-linecap="round" stroke-linejoin="round"/>
<path d="M18.4236 54.803H41.5792" stroke="#6161FF" stroke-width="4" stroke-miterlimit="10" stroke-linecap="round" stroke-linejoin="round"/>
<path fill-rule="evenodd" clip-rule="evenodd" d="M11.7861 5.19702H48.2139H48.4021L50.2848 5.47951L52.1203 6.32669L53.2968 7.31499L54.238 8.72688L54.7558 10.6095L54.8029 11.786V38.2832V38.4715L54.5205 40.3541L53.6733 42.1896L52.685 43.3661L51.2731 44.3075L49.3905 44.8251L48.2139 44.8723H11.7861H11.5978L9.71523 44.5898L7.87973 43.7426L6.7032 42.7543L5.76202 41.3424L5.24419 39.4598L5.19705 38.2832V11.786V11.5978L5.47954 9.71519L6.32674 7.8797L7.31503 6.70317L8.72693 5.76199L10.6095 5.24414L11.7861 5.19702Z" stroke="#6161FF" stroke-width="4" stroke-miterlimit="10" stroke-linecap="round" stroke-linejoin="round"/>
<path d="M5.19705 27.2234L13.998 18.4225L14.2805 18.1871L14.8452 17.9517H15.5042L16.0689 18.1871L16.3514 18.4225L20.5399 22.7524L20.8224 22.9878L21.3871 23.2228H22.0461L22.6579 22.9878L22.8933 22.7524L31.7414 13.9514" stroke="#6161FF" stroke-width="4" stroke-miterlimit="10" stroke-linecap="round" stroke-linejoin="round"/>
<path d="M5.19705 36.0715H54.8029" stroke="#6161FF" stroke-width="4" stroke-miterlimit="10" stroke-linecap="round" stroke-linejoin="round"/>
<path d="M34.9436 22.8464V28.9179" stroke="#6161FF" stroke-width="4" stroke-miterlimit="10" stroke-linecap="round" stroke-linejoin="round"/>
<path d="M48.2146 22.8464V28.9179" stroke="#6161FF" stroke-width="4" stroke-miterlimit="10" stroke-linecap="round" stroke-linejoin="round"/>
<path d="M41.5786 17.8577V28.9177" stroke="#6161FF" stroke-width="4" stroke-miterlimit="10" stroke-linecap="round" stroke-linejoin="round"/>
</svg>
