<svg width="60" height="60" viewBox="0 0 60 60" fill="none" xmlns="http://www.w3.org/2000/svg">
<path fill-rule="evenodd" clip-rule="evenodd" d="M17.326 4.81848H42.3499L44.9502 5.14249L47.2181 5.79047L49.4946 7.0864L51.447 8.71487L52.743 10.3348L54.0475 12.6112L54.6954 14.8877L55.0194 17.4881V42.5034L54.6954 45.1038L54.0475 47.3802L52.743 49.6566L51.447 51.2766L49.4946 52.9051L47.2181 54.201L44.9502 54.849L42.3499 55.1815H17.326L14.7256 54.849L12.4578 54.201L10.5052 52.9051L8.55286 51.2766L6.93286 49.6566L5.95239 47.3802L4.98047 45.1038V42.5034V17.4881V14.8877L5.95239 12.6112L6.93286 10.3348L8.55286 8.71487L10.5052 7.0864L12.4578 5.79047L14.7256 5.14249L17.326 4.81848Z" stroke="#6161FF" stroke-width="4" stroke-miterlimit="10" stroke-linecap="round" stroke-linejoin="round"/>
<path fill-rule="evenodd" clip-rule="evenodd" d="M40.0724 29.5097V31.4621V33.4061L39.1005 35.3585L38.12 36.9785L36.824 38.2829L35.5195 39.5789L33.5756 40.5594L31.6232 40.8834H29.6707L27.7268 40.5594L25.7743 39.9029L24.1544 38.9309L22.8499 37.6349L21.554 36.3305L20.8975 34.3865L20.2495 32.4341V30.4817L20.5735 28.5377L21.23 26.5853L22.2019 24.9568L23.4979 23.6609L24.8024 22.3564L26.7463 21.3844L28.6987 21.0604H30.3271H31.6232L33.2516 21.3844L34.8716 22.0324L36.176 22.6889L37.1479 23.9848L38.444 24.9568L39.1005 26.2613L39.7484 27.8812L40.0724 29.5097Z" stroke="#6161FF" stroke-width="4" stroke-miterlimit="10" stroke-linecap="round" stroke-linejoin="round"/>
</svg>
