<svg width="60" height="60" viewBox="0 0 60 60" fill="none" xmlns="http://www.w3.org/2000/svg">
<path fill-rule="evenodd" clip-rule="evenodd" d="M25.7711 9.52484L4.32825 44.9418L4.00427 45.9223L3.6803 46.8942L4.00427 48.8467L4.65222 50.4666L5.30023 51.4386L6.2807 52.0951L7.25269 52.4191L8.54865 52.743H51.1188L52.0908 52.4191L53.0628 52.0951L54.6912 51.1146L55.6632 49.4947L55.9872 48.5142L56.3197 47.5422L55.9872 46.2463L55.3392 44.9418L34.2203 9.52484L33.5724 8.87689L32.9244 8.22888L30.972 7.25696H29.3435L28.3715 7.58093L27.3996 7.90491L26.4191 8.55292L25.7711 9.52484Z" stroke="#6161FF" stroke-width="4" stroke-miterlimit="10" stroke-linecap="round" stroke-linejoin="round"/>
<path d="M30.0009 22.527V32.5962" stroke="#6161FF" stroke-width="4" stroke-miterlimit="10" stroke-linecap="round" stroke-linejoin="round"/>
<path d="M30.1312 40.6007L30.1312 39.6007" stroke="#6161FF" stroke-width="4" stroke-miterlimit="10" stroke-linecap="round" stroke-linejoin="round"/>
</svg>
