<svg width="60" height="60" viewBox="0 0 60 60" fill="none" xmlns="http://www.w3.org/2000/svg">
<path fill-rule="evenodd" clip-rule="evenodd" d="M30 4.81848L32.6004 5.14252L35.2008 5.46649L37.4773 6.11444L39.7452 6.76245L42.0216 8.06689L43.9741 9.03888L45.918 10.6674L47.8705 12.2873L49.4989 13.9157L50.7949 15.8597L52.0909 18.1361L53.0713 20.0886L54.0433 22.3564L54.6913 24.9569L55.0152 27.5573V29.8337V32.4341L54.6913 35.0346L54.0433 37.311L53.0713 39.903L52.0909 41.8554L50.7949 44.1318L49.4989 46.0757L47.8705 47.7042L45.918 49.3327L43.9741 50.9526L42.0216 51.9246L39.7452 53.2291L37.4773 53.877L35.2008 54.525L32.6004 54.849L30 55.1815L27.3996 54.849L25.1231 54.525L22.5227 53.877L20.2548 53.2291L17.9784 51.9246L16.0259 50.9526L14.082 49.3327L12.4535 47.7042L10.825 46.0757L9.20511 44.1318L7.90915 41.8554L6.92868 39.903L5.9567 37.311L5.63272 35.0346L4.98477 32.4341V29.8337V27.5573L5.63272 24.9569L5.9567 22.3564L6.92868 20.0886L7.90915 18.1361L9.20511 15.8597L10.825 13.9157L12.4535 12.2873L14.082 10.6674L16.0259 9.03888L17.9784 8.06689L20.2548 6.76245L22.5227 6.11444L25.1231 5.46649L27.3996 5.14252L30 4.81848Z" stroke="#6161FF" stroke-width="4" stroke-miterlimit="10" stroke-linecap="round" stroke-linejoin="round"/>
<path fill-rule="evenodd" clip-rule="evenodd" d="M40.7254 19.4318L35.5246 35.3583L19.2741 40.5591L24.7989 24.6326L40.7254 19.4318Z" stroke="#6161FF" stroke-width="4" stroke-miterlimit="10" stroke-linecap="round" stroke-linejoin="round"/>
</svg>
