<svg width="60" height="60" viewBox="0 0 60 60" fill="none" xmlns="http://www.w3.org/2000/svg">
<g clip-path="url(#clip0_1_575)">
<path d="M39.9071 40.0734V42.6739L39.5831 43.6458V44.6263L38.2871 46.2462L36.6587 47.2267L35.6867 47.5507H34.7148H7.09055H6.11859L5.14664 47.2267L3.51816 46.2462L2.5462 44.6263L2.22223 43.6458V42.6739V17.3261V16.3542L2.5462 15.3822L3.51816 13.7537L5.14664 12.7818L6.11859 12.4578H7.09055H12.2914" stroke="#6161FF" stroke-width="4" stroke-miterlimit="10" stroke-linecap="round" stroke-linejoin="round"/>
<path d="M27.2374 12.4578H34.7147H35.6866L36.6586 12.7818L38.287 13.7537L39.583 15.3822V16.3542L39.907 17.3261V25.7754L42.1834 28.3758L57.4535 17.3261V42.6739" stroke="#6161FF" stroke-width="4" stroke-miterlimit="10" stroke-linecap="round" stroke-linejoin="round"/>
<path d="M2.54645 2.38013L57.7778 57.62" stroke="#6161FF" stroke-width="4" stroke-miterlimit="10" stroke-linecap="round" stroke-linejoin="round"/>
</g>
<defs>
<clipPath id="clip0_1_575">
<rect width="60" height="60" fill="white"/>
</clipPath>
</defs>
</svg>
