<svg width="60" height="60" viewBox="0 0 60 60" fill="none" xmlns="http://www.w3.org/2000/svg">
<path fill-rule="evenodd" clip-rule="evenodd" d="M46.3623 25.093L30.4122 41.0431L29.7622 41.643L28.4122 42.5431L26.9122 43.143L25.3622 43.4431H23.8121L22.2621 43.143L20.7622 42.5431L19.4121 41.643L18.8121 41.0431L18.2123 40.4429L17.3123 39.0931L16.7123 37.5931L16.4122 36.0431V34.4931L16.7123 32.9431L17.3123 31.4431L18.2123 30.093L18.8121 29.4431L34.7622 13.493L35.0123 13.1929L35.3121 12.4431V11.6929L35.0123 10.9431L34.7622 10.5929L28.9624 4.79303L28.6122 4.54297L27.8623 4.24316H27.1122L26.3621 4.54297L26.0623 4.79303L10.1122 20.7431L8.66235 22.2931L6.41223 25.693L4.91223 29.4431L4.16211 33.2929V37.243L4.91223 41.0929L6.41223 44.7932L8.66235 48.2431L10.1122 49.7431L11.6622 51.193L15.0621 53.4431L18.7621 54.9431L22.6123 55.6932H26.5624L30.4623 54.9431L34.1624 53.4431L37.5623 51.193L39.1122 49.7431L55.0623 33.8431L55.3124 33.4929L55.6122 32.7431V31.993L55.3124 31.2431L55.0623 30.943L49.2621 25.093L48.9122 24.843L48.1621 24.5429H47.4122L46.6621 24.843L46.3623 25.093Z" stroke="#6161FF" stroke-width="4" stroke-miterlimit="10" stroke-linecap="round" stroke-linejoin="round"/>
<path d="M18.812 12.043L27.5121 20.7429" stroke="#6161FF" stroke-width="4" stroke-miterlimit="10" stroke-linecap="round" stroke-linejoin="round"/>
<path d="M39.1138 32.3433L47.8138 41.0432" stroke="#6161FF" stroke-width="4" stroke-miterlimit="10" stroke-linecap="round" stroke-linejoin="round"/>
</svg>
