<svg width="60" height="60" viewBox="0 0 60 60" fill="none" xmlns="http://www.w3.org/2000/svg">
<path fill-rule="evenodd" clip-rule="evenodd" d="M52.5811 32.1145L52.2571 34.3909L51.6091 36.6588L50.9526 38.6112L49.9806 40.5637L48.6847 42.5076L47.3802 44.1361L46.0843 45.756L44.4558 47.3845L42.5119 48.6804L40.8834 49.6609L38.931 50.6329L36.6631 51.6049L34.7106 51.9288L32.4342 52.5853H30.1577H27.8898L25.6134 52.2613L23.3369 51.6049L21.3845 50.9569L19.1166 49.9849L17.4881 48.6804L15.5357 47.3845L13.9157 46.08L12.6113 44.4601L11.3153 42.5076L10.0194 40.8877L9.03887 38.9352L8.3909 36.6588L7.74292 34.7149L7.41893 32.4384V30.162V27.8856L8.06691 23.9892L9.68684 20.4168L11.6393 16.8444L13.9157 13.92L16.8401 11.6436L20.0885 9.69112L23.9849 8.07118L27.8898 7.41467L25.9374 10.6631L24.9654 13.92L24.3089 17.1684L24.6329 20.4168L25.2894 23.6652L26.9093 26.9136L28.8618 29.514L31.4622 32.1145L34.0626 33.4104L36.6631 34.7149L39.2549 35.3629H41.8554H44.7798L47.3802 34.7149L49.9806 33.4104L52.5811 32.1145Z" stroke="#6161FF" stroke-width="4" stroke-miterlimit="10" stroke-linecap="round" stroke-linejoin="round"/>
</svg>
