<svg width="60" height="60" viewBox="0 0 60 60" fill="none" xmlns="http://www.w3.org/2000/svg">
<path fill-rule="evenodd" clip-rule="evenodd" d="M30.158 24.9614H31.1384L32.1104 25.2854L33.7303 26.5899L34.7108 28.2098L35.0348 28.8663V30.1623V31.1342L34.7108 32.1147L33.7303 33.4107L32.1104 34.7151L31.1384 35.0391H30.158H29.1859L28.214 34.7151L26.5856 33.4107L25.6135 32.1147L25.2896 31.1342L24.957 30.1623L25.2896 28.8663L25.6135 28.2098L26.5856 26.5899L28.214 25.2854L29.1859 24.9614H30.158Z" stroke="#6161FF" stroke-width="4" stroke-miterlimit="10" stroke-linecap="round" stroke-linejoin="round"/>
<path d="M40.8828 19.436L42.5027 21.7125L44.1312 24.3129L44.7792 27.2373L45.1031 30.1617L44.7792 32.7621L44.1312 35.6866L42.5027 38.287L40.8828 40.5634" stroke="#6161FF" stroke-width="4" stroke-miterlimit="10" stroke-linecap="round" stroke-linejoin="round"/>
<path d="M19.442 40.5634L17.4895 38.287L16.1936 35.6866L15.2131 32.7621L14.8892 30.1617L15.2131 27.2373L16.1936 24.3129L17.4895 21.7125L19.442 19.436" stroke="#6161FF" stroke-width="4" stroke-miterlimit="10" stroke-linecap="round" stroke-linejoin="round"/>
<path d="M47.7051 12.2915L49.6575 14.244L50.9534 16.1879L52.2579 18.4643L53.2299 20.4168L54.2018 23.0172L54.8583 25.2851L55.1823 27.5615V30.162V32.4384L54.8583 34.7148L54.2018 37.3153L53.2299 39.5832L52.2579 41.5356L50.9534 43.8121L49.6575 45.756L47.7051 47.7085" stroke="#6161FF" stroke-width="4" stroke-miterlimit="10" stroke-linecap="round" stroke-linejoin="round"/>
<path d="M12.2866 47.7085L10.6666 45.756L9.03821 43.8121L7.74231 41.5356L6.76172 39.5832L6.11377 37.3153L5.46582 34.7148L5.14185 32.4384L4.81787 30.162L5.14185 27.5615L5.46582 25.2851L6.11377 23.0172L6.76172 20.4168L7.74231 18.4643L9.03821 16.1879L10.6666 14.244L12.2866 12.2915" stroke="#6161FF" stroke-width="4" stroke-miterlimit="10" stroke-linecap="round" stroke-linejoin="round"/>
</svg>
