<svg width="60" height="60" viewBox="0 0 60 60" fill="none" xmlns="http://www.w3.org/2000/svg">
<g clip-path="url(#clip0_1_2333)">
<path d="M50.3413 35.3861L36.7451 38.053" stroke="#6161FF" stroke-width="4" stroke-miterlimit="10" stroke-linecap="round" stroke-linejoin="round"/>
<path d="M9.60449 35.3863H15.618L24.1943 45.0604L24.7174 45.5311L25.9723 46.1065L26.6521 46.1588L30.365 43.4393L37.4247 37.4257L40.719 34.1834L40.8237 33.6083L40.4054 32.5099L40.0392 32.0393L33.8685 24.0907" stroke="#6161FF" stroke-width="4" stroke-miterlimit="10" stroke-linecap="round" stroke-linejoin="round"/>
<path d="M26.4973 17.9197L25.6604 17.1878L24.9806 16.7692L23.4641 16.2985L22.6276 16.2465L21.6863 16.2985L20.7449 16.6124L9.76318 20.9528" stroke="#6161FF" stroke-width="4" stroke-miterlimit="10" stroke-linecap="round" stroke-linejoin="round"/>
<path d="M2.44067 16.7694H7.30408H7.77478L8.6637 17.1356L9.29126 17.7107L9.70947 18.5476L9.76184 19.0183V34.7587L9.70947 35.229L9.29126 36.0136L8.61145 36.641L7.77478 36.9549L7.30408 37.0072H2.44067" stroke="#6161FF" stroke-width="4" stroke-miterlimit="10" stroke-linecap="round" stroke-linejoin="round"/>
<path d="M57.5593 37.0072H52.6959L52.2253 36.9549L51.3887 36.641L50.7089 36.0136L50.2903 35.229L50.2383 34.7587V19.0183L50.2903 18.5476L50.7089 17.7107L51.3363 17.1356L52.2253 16.7694H52.6959H57.5593" stroke="#6161FF" stroke-width="4" stroke-miterlimit="10" stroke-linecap="round" stroke-linejoin="round"/>
<path d="M36.7451 23.1494L28.2734 25.921L27.5413 26.1301L26.0773 26.0781L24.7697 25.5027L23.724 24.509L23.358 23.8292L23.0966 23.0973L23.0442 21.5806L23.5148 20.1166L24.5082 18.9661L25.188 18.5999L33.4504 14.4166L34.0259 14.1551L35.3331 13.8412H36.0129L37.0066 13.8935L38 14.1551L50.2369 18.6522" stroke="#6161FF" stroke-width="4" stroke-miterlimit="10" stroke-linecap="round" stroke-linejoin="round"/>
</g>
<defs>
<clipPath id="clip0_1_2333">
<rect width="60" height="60" fill="white"/>
</clipPath>
</defs>
</svg>
