<svg width="60" height="60" viewBox="0 0 60 60" fill="none" xmlns="http://www.w3.org/2000/svg">
<path fill-rule="evenodd" clip-rule="evenodd" d="M55.373 42.1565H5.33398H6.63L8.25842 41.5086L9.55432 40.8606L10.5348 40.2126L11.5068 38.9081L12.1548 37.6122L12.4788 36.3077L12.8113 34.6878V22.9901L13.1353 19.4177L13.7832 16.4933L15.0792 13.5689L17.0316 10.9685L19.3081 8.69205L21.9086 6.73959L24.8329 5.44365L28.0813 4.79567L30.0253 4.47168L31.9777 4.79567L33.9302 5.11966L35.55 5.44365L37.5026 6.09163L39.1224 7.07211L42.0469 9.01604L44.3234 11.6165L46.2758 14.8649L46.9237 16.4933L47.5718 18.4372L47.8957 20.3897V22.0182V34.6878V36.3077L48.5522 37.6122L49.2002 38.9081L50.1721 40.2126L51.1526 40.8606L52.4486 41.5086L53.7445 42.1565H55.373Z" stroke="#6161FF" stroke-width="4" stroke-miterlimit="10" stroke-linecap="round" stroke-linejoin="round"/>
<path d="M34.2532 52.2344L33.6052 53.2063L32.6248 53.8543L31.0048 54.5108L29.0524 54.8348L28.0803 54.5108L27.0999 54.1783L26.1279 53.2063L25.48 52.2344" stroke="#6161FF" stroke-width="4" stroke-miterlimit="10" stroke-linecap="round" stroke-linejoin="round"/>
</svg>
