<svg width="60" height="60" viewBox="0 0 60 60" fill="none" xmlns="http://www.w3.org/2000/svg">
<path d="M54.4173 53.5467L41.9922 41.1216" stroke="#6161FF" stroke-width="4" stroke-miterlimit="10" stroke-linecap="round" stroke-linejoin="round"/>
<path d="M17.0029 43.6161L15.6381 42.6749L13.2848 40.4629L11.355 38.0154L9.84918 35.2387L8.7666 32.3206L8.2019 29.2615L8.10767 26.0612L8.53125 22.9078L8.95483 21.3077L9.47272 19.7544L10.8846 16.8835L12.7201 14.3422L14.8849 12.0831L17.3794 10.2005L20.156 8.7886L23.1683 7.7532L26.3215 7.23535L27.9687 7.18848" stroke="#6161FF" stroke-width="4" stroke-miterlimit="10" stroke-linecap="round" stroke-linejoin="round"/>
<path d="M17.0022 31.4268V43.6162H4.8125" stroke="#6161FF" stroke-width="4" stroke-miterlimit="10" stroke-linecap="round" stroke-linejoin="round"/>
<path d="M38.9324 10.5298L40.2972 11.4713L42.6034 13.6361L44.58 16.1305L46.0861 18.8603L47.1216 21.8252L47.7334 24.8844L47.8276 28.0378L47.4041 31.2383L46.9805 32.7913L46.4626 34.3443L45.0507 37.2152L43.2152 39.8039L41.0504 42.063L38.5088 43.8985L35.7322 45.3575L32.767 46.3458L29.6136 46.8634L27.9663 46.9105" stroke="#6161FF" stroke-width="4" stroke-miterlimit="10" stroke-linecap="round" stroke-linejoin="round"/>
<path d="M38.9336 22.7195V10.5298H51.1233" stroke="#6161FF" stroke-width="4" stroke-miterlimit="10" stroke-linecap="round" stroke-linejoin="round"/>
</svg>
