<svg width="60" height="60" viewBox="0 0 60 60" fill="none" xmlns="http://www.w3.org/2000/svg">
<path fill-rule="evenodd" clip-rule="evenodd" d="M46.39 9.9736L45.8651 9.35342L44.4817 8.68546L43.7183 8.6377H16.8597L16.0963 8.68546L14.7129 9.35342L14.188 9.9736L6.74585 19.8965L6.41199 20.3736L6.07788 21.4706L6.12561 22.568L6.5072 23.6175L6.84131 24.0947L27.7366 49.3312L28.2616 49.9038L29.5972 50.4763H31.0283L32.3164 49.9038L32.8892 49.3312L53.7366 24.0469L54.1183 23.6175L54.5001 22.568V21.4706L54.166 20.3736L53.8799 19.8965L46.39 9.9736Z" stroke="#6161FF" stroke-width="4" stroke-miterlimit="10" stroke-linecap="round" stroke-linejoin="round"/>
<path d="M15.3315 8.97168L30.3114 50.5242" stroke="#6161FF" stroke-width="4" stroke-miterlimit="10" stroke-linecap="round" stroke-linejoin="round"/>
<path d="M45.2444 8.97168L30.3123 50.5242" stroke="#6161FF" stroke-width="4" stroke-miterlimit="10" stroke-linecap="round" stroke-linejoin="round"/>
<path d="M6.07788 22.0435H54.5476" stroke="#6161FF" stroke-width="4" stroke-miterlimit="10" stroke-linecap="round" stroke-linejoin="round"/>
<path d="M20.2463 22.0433L30.3125 8.6377L40.3787 22.0433" stroke="#6161FF" stroke-width="4" stroke-miterlimit="10" stroke-linecap="round" stroke-linejoin="round"/>
</svg>
