<svg width="60" height="60" viewBox="0 0 60 60" fill="none" xmlns="http://www.w3.org/2000/svg">
<path fill-rule="evenodd" clip-rule="evenodd" d="M8.06482 5.22168H21.3158H21.7402L23.6265 5.97635L24.3337 6.96658L24.6167 7.90959L24.6636 8.52261V21.7736V22.198L23.862 24.037L22.8718 24.7915L21.9288 25.0745H21.3158H8.06482H7.64038L5.80133 24.3198L5.04694 23.3296L4.76392 22.3866V21.7736V8.52261V8.09819L5.51855 6.2119L6.50879 5.50471L7.45178 5.22168H8.06482Z" stroke="#6161FF" stroke-width="4" stroke-miterlimit="10" stroke-linecap="round" stroke-linejoin="round"/>
<path fill-rule="evenodd" clip-rule="evenodd" d="M8.06482 35.0244H21.3158H21.7402L23.6265 35.826L24.3337 36.8165L24.6167 37.7596L24.6636 38.3726V51.6235V52.0479L23.862 53.887L22.8718 54.6414L21.9288 54.9245H21.3158H8.06482H7.64038L5.80133 54.1698L5.04694 53.1796L4.76392 52.2365V51.6235V38.3726V37.9482L5.51855 36.0619L6.50879 35.3547L7.45178 35.0716L8.06482 35.0244Z" stroke="#6161FF" stroke-width="4" stroke-miterlimit="10" stroke-linecap="round" stroke-linejoin="round"/>
<path fill-rule="evenodd" clip-rule="evenodd" d="M37.915 5.22168H51.166H51.5904L53.4294 5.97635L54.1839 6.96658L54.4669 7.90959V8.52261V21.7736V22.198L53.7122 24.037L52.722 24.7915L51.779 25.0745H51.166H37.915H37.4906L35.6043 24.3198L34.8972 23.3296L34.6141 22.3866L34.5669 21.7736V8.52261V8.09819L35.3685 6.2119L36.359 5.50471L37.302 5.22168H37.915Z" stroke="#6161FF" stroke-width="4" stroke-miterlimit="10" stroke-linecap="round" stroke-linejoin="round"/>
<path fill-rule="evenodd" clip-rule="evenodd" d="M37.915 35.0244H51.166H51.5904L53.4294 35.826L54.1839 36.8165L54.4669 37.7596V38.3726V51.6235V52.0479L53.7122 53.887L52.722 54.6414L51.779 54.9245H51.166H37.915H37.4906L35.6043 54.1698L34.8972 53.1796L34.6141 52.2365L34.5669 51.6235V38.3726V37.9482L35.3685 36.0619L36.359 35.3547L37.302 35.0716L37.915 35.0244Z" stroke="#6161FF" stroke-width="4" stroke-miterlimit="10" stroke-linecap="round" stroke-linejoin="round"/>
</svg>
