<svg width="60" height="60" viewBox="0 0 60 60" fill="none" xmlns="http://www.w3.org/2000/svg">
<path fill-rule="evenodd" clip-rule="evenodd" d="M39.5852 54.8389H49.6514H49.9852L50.6054 54.5525L51.0348 54.1231L51.3211 53.5029V53.1691V42.1489V41.8148L51.0348 41.1946L50.844 40.9561L48.4586 38.5709L48.22 38.3323L47.5998 38.0938H47.266H39.5852H39.2514L38.6312 38.3801L38.2018 38.8094L37.9155 39.4296V39.7635V53.1691V53.5029L38.2018 54.1231L38.6312 54.5525L39.2514 54.8389H39.5852Z" stroke="#6161FF" stroke-width="4" stroke-miterlimit="10" stroke-linecap="round" stroke-linejoin="round"/>
<path fill-rule="evenodd" clip-rule="evenodd" d="M39.5852 24.6406H49.6514H49.9852L50.6054 24.402L51.0348 23.9249L51.3211 23.3525V22.9709V11.9507V11.6166L51.0348 10.9964L50.844 10.7579L48.4586 8.37268L48.22 8.18188L47.5998 7.89551H47.266H39.5852H39.2514L38.6312 8.18188L38.2018 8.61127L37.9155 9.23145V9.56525V22.9709V23.3525L38.2018 23.9249L38.6312 24.402L39.2514 24.6406H39.5852Z" stroke="#6161FF" stroke-width="4" stroke-miterlimit="10" stroke-linecap="round" stroke-linejoin="round"/>
<path d="M7.71655 4.55664V7.89606" stroke="#6161FF" stroke-width="4" stroke-miterlimit="10" stroke-linecap="round" stroke-linejoin="round"/>
<path d="M7.71655 14.6226V21.3015" stroke="#6161FF" stroke-width="4" stroke-miterlimit="10" stroke-linecap="round" stroke-linejoin="round"/>
<path d="M7.71655 28.0278V34.7068" stroke="#6161FF" stroke-width="4" stroke-miterlimit="10" stroke-linecap="round" stroke-linejoin="round"/>
<path d="M7.71655 41.4336V44.7731L7.76434 45.4885L8.28897 46.6813L9.1955 47.5876L10.3881 48.1125L11.056 48.1603H14.4433" stroke="#6161FF" stroke-width="4" stroke-miterlimit="10" stroke-linecap="round" stroke-linejoin="round"/>
<path d="M21.1233 48.1602H27.8497" stroke="#6161FF" stroke-width="4" stroke-miterlimit="10" stroke-linecap="round" stroke-linejoin="round"/>
<path d="M34.5293 48.1602H37.9165" stroke="#6161FF" stroke-width="4" stroke-miterlimit="10" stroke-linecap="round" stroke-linejoin="round"/>
<path d="M7.71655 17.9619H14.4433" stroke="#6161FF" stroke-width="4" stroke-miterlimit="10" stroke-linecap="round" stroke-linejoin="round"/>
<path d="M21.1233 17.9619H27.8497" stroke="#6161FF" stroke-width="4" stroke-miterlimit="10" stroke-linecap="round" stroke-linejoin="round"/>
<path d="M34.5293 17.9619H37.9165" stroke="#6161FF" stroke-width="4" stroke-miterlimit="10" stroke-linecap="round" stroke-linejoin="round"/>
</svg>
