<svg width="60" height="60" viewBox="0 0 60 60" fill="none" xmlns="http://www.w3.org/2000/svg">
<g clip-path="url(#clip0_1_557)">
<path fill-rule="evenodd" clip-rule="evenodd" d="M32.1187 2.87027L52.2571 12.9395L53.5616 13.5874L54.2095 14.8919L54.8575 16.1879L55.1815 17.4923V41.2116L54.8575 42.8316L54.2095 44.136L53.5616 45.108L52.2571 45.756L32.1187 55.8337L31.1382 56.1577L29.8423 56.4817L28.8703 56.1577L27.5658 55.8337L7.74292 45.756L6.44696 45.108L5.47501 44.136L5.15103 42.8316L4.81851 41.2116V17.4923L5.15103 16.1879L5.47501 14.8919L6.44696 13.5874L7.74292 12.9395L27.5658 2.87027L28.8703 2.54628L29.8423 2.22229L31.1382 2.54628L32.1187 2.87027Z" stroke="#6161FF" stroke-width="4" stroke-miterlimit="10" stroke-linecap="round" stroke-linejoin="round"/>
<path d="M6.12271 14.568L30.166 26.9136L54.5333 14.568" stroke="#6161FF" stroke-width="4" stroke-miterlimit="10" stroke-linecap="round" stroke-linejoin="round"/>
<path d="M29.8415 57.7777V27.5616" stroke="#6161FF" stroke-width="4" stroke-miterlimit="10" stroke-linecap="round" stroke-linejoin="round"/>
<path d="M17.82 8.07092L42.8352 20.7405" stroke="#6161FF" stroke-width="4" stroke-miterlimit="10" stroke-linecap="round" stroke-linejoin="round"/>
</g>
<defs>
<clipPath id="clip0_1_557">
<rect width="60" height="60" fill="white"/>
</clipPath>
</defs>
</svg>
