<svg width="60" height="60" viewBox="0 0 60 60" fill="none" xmlns="http://www.w3.org/2000/svg">
<path d="M53.886 39.9028L52.5815 42.1792L51.2856 44.1317L49.9811 46.0756L48.0372 48.0281L46.4088 49.6565L44.4648 50.9525L42.1883 52.257L40.2359 53.2289L37.9594 54.2009L35.3591 54.5249L33.0911 54.8489L30.4907 55.1814L28.2143 54.8489L25.6138 54.5249L23.3373 53.8769L20.7455 53.2289L18.4691 51.9245L16.5167 50.6285L14.5641 49L12.6202 47.3801L10.9918 45.7516L9.69586 43.8077L8.3913 41.5313L7.41937 39.2548L6.44745 36.9784L6.12347 34.7105L5.79095 32.4341L5.46698 29.8336L5.79095 27.5572L6.12347 24.9568L6.77142 22.6888L7.41937 20.0884L8.71539 18.136L9.69586 15.8595L11.3157 14.2396L12.9443 12.2872L14.5641 10.6587L16.5167 9.36273L18.4691 8.06679L20.7455 7.0863" stroke="#6161FF" stroke-width="4" stroke-miterlimit="10" stroke-linecap="round" stroke-linejoin="round"/>
<path fill-rule="evenodd" clip-rule="evenodd" d="M54.533 30.1579V27.5575L53.8851 24.9571L53.5611 22.6892L52.5805 20.0888L51.6086 18.1363L50.3127 15.8599L48.6841 13.916L47.0557 12.2875L45.4357 10.659L43.4833 9.36307L41.5394 8.06712L39.263 6.76265L36.9865 6.11467L34.386 5.46669L32.1097 5.14272L29.5178 4.81873V30.1579H54.533Z" stroke="#6161FF" stroke-width="4" stroke-miterlimit="10" stroke-linecap="round" stroke-linejoin="round"/>
</svg>
