<svg width="60" height="60" viewBox="0 0 60 60" fill="none" xmlns="http://www.w3.org/2000/svg">
<path fill-rule="evenodd" clip-rule="evenodd" d="M35.8774 22.5426V12.4734L35.5535 11.1689L35.2295 9.54901L34.573 8.24451L33.6011 7.27252L32.3051 6.3006L31.0006 5.65259L29.7047 5.32007L28.0762 4.99609L18.3311 27.7434V55.3591H46.6031L48.2231 55.0351L49.8516 54.0632L50.8235 52.7672L51.4716 50.8148L55.0439 28.3914V27.4194V26.4475L54.0719 24.4951L52.776 23.1991L51.7955 22.8666L50.8235 22.5426H49.8516H35.8774Z" stroke="#6161FF" stroke-width="4" stroke-miterlimit="10" stroke-linecap="round" stroke-linejoin="round"/>
<path d="M18.3328 55.3588H10.5315L9.55945 55.0349L8.58752 54.7109L6.95911 53.7389L5.98706 52.1105L5.66309 51.1385V50.1665V32.6201V31.6396L5.98706 30.6676L6.95911 29.0477L8.58752 28.0672L9.55945 27.7432H10.5315H18.3328" stroke="#6161FF" stroke-width="4" stroke-miterlimit="10" stroke-linecap="round" stroke-linejoin="round"/>
</svg>
