<svg width="60" height="60" viewBox="0 0 60 60" fill="none" xmlns="http://www.w3.org/2000/svg">
<path d="M35.5767 14.5093H53.2415L53.9438 14.5595L55.1986 15.0612L56.2021 16.0147L56.7041 17.3195L56.7543 18.0222V53.3012L56.7041 54.0035L56.2021 55.3083L55.1986 56.2619L53.9438 56.7638L53.2415 56.8141H21.4753L20.7726 56.7638L19.5181 56.2619L18.5143 55.3083L18.0126 54.0035L17.9624 53.3012V39.1995" stroke="#6161FF" stroke-width="4" stroke-miterlimit="10" stroke-linecap="round" stroke-linejoin="round"/>
<path d="M32.0647 25.0981H49.7295" stroke="#6161FF" stroke-width="4" stroke-miterlimit="10" stroke-linecap="round" stroke-linejoin="round"/>
<path d="M26.7954 35.6367H49.7295" stroke="#6161FF" stroke-width="4" stroke-miterlimit="10" stroke-linecap="round" stroke-linejoin="round"/>
<path d="M26.7954 46.2256H49.7295" stroke="#6161FF" stroke-width="4" stroke-miterlimit="10" stroke-linecap="round" stroke-linejoin="round"/>
<path fill-rule="evenodd" clip-rule="evenodd" d="M21.4756 25.0978V18.0221L31.3618 8.18616L31.8634 7.53378L32.1144 6.12851L31.5625 4.82376L30.3579 3.97067L29.5551 3.92041H6.3201L5.51726 3.97067L4.36296 4.82376L3.81079 6.12851L4.06175 7.53378L4.56367 8.18616L14.4499 18.0221V32.1235L21.4756 25.0978Z" stroke="#6161FF" stroke-width="4" stroke-miterlimit="10" stroke-linecap="round" stroke-linejoin="round"/>
</svg>
