<svg width="60" height="60" viewBox="0 0 60 60" fill="none" xmlns="http://www.w3.org/2000/svg">
<g clip-path="url(#clip0_1_2914)">
<path d="M26.4212 57.4712H2.56262V55.0853C2.56262 53.7707 3.63149 52.6995 4.94848 52.6995H24.0354C25.3547 52.6995 26.4212 53.7707 26.4212 55.0853V57.4712Z" stroke="#6161FF" stroke-width="4" stroke-miterlimit="10" stroke-linecap="round" stroke-linejoin="round"/>
<path d="M24.0354 52.6995H4.94849V50.3136C4.94849 48.999 6.01735 47.9277 7.33435 47.9277H21.6495C22.9689 47.9277 24.0354 48.999 24.0354 50.3136V52.6995Z" stroke="#6161FF" stroke-width="4" stroke-miterlimit="10" stroke-linecap="round" stroke-linejoin="round"/>
<path d="M31.192 9.49416L18.0702 22.616L26.421 30.9668L39.5429 17.845L31.192 9.49416Z" stroke="#6161FF" stroke-width="4" stroke-miterlimit="10" stroke-linecap="round" stroke-linejoin="round"/>
<path d="M18.0706 22.6161L16.8777 21.4232C14.6302 19.1805 11.0443 22.7474 13.2989 25.002L24.0353 35.7384C26.2851 37.9859 29.8711 34.4142 27.6141 32.1596L26.4211 30.9667" stroke="#6161FF" stroke-width="4" stroke-miterlimit="10" stroke-linecap="round" stroke-linejoin="round"/>
<path d="M39.5434 17.8444L40.7363 19.0373C42.9862 21.2848 46.5721 17.7132 44.3151 15.4585L33.5787 4.72216C31.3313 2.47946 27.7453 6.04632 30 8.30095L31.1929 9.49388" stroke="#6161FF" stroke-width="4" stroke-miterlimit="10" stroke-linecap="round" stroke-linejoin="round"/>
<path d="M32.9823 24.4055L57.4374 48.8606" stroke="#6161FF" stroke-width="4" stroke-miterlimit="10" stroke-linecap="round" stroke-linejoin="round"/>
</g>
<defs>
<clipPath id="clip0_1_2914">
<rect width="60" height="60" fill="white"/>
</clipPath>
</defs>
</svg>
