<svg width="60" height="60" viewBox="0 0 60 60" fill="none" xmlns="http://www.w3.org/2000/svg">
<g clip-path="url(#clip0_1_2267)">
<path fill-rule="evenodd" clip-rule="evenodd" d="M30.0054 17.9784L32.5973 18.3024L34.8738 18.9504L36.8262 20.2549L38.7701 21.5508L40.3986 23.5032L41.3706 25.7711L42.3511 28.0476V30.648V32.9245L41.3706 35.5249L40.3986 37.4688L38.7701 39.4213L36.8262 41.0497L34.8738 42.0217L32.5973 42.6696L30.0054 42.9937L27.405 42.6696L25.1285 42.0217L22.8521 41.0497L21.2322 39.4213L19.6038 37.4688L18.3077 35.5249L17.6512 32.9245L17.3273 30.648L17.6512 28.0476L18.3077 25.7711L19.6038 23.5032L21.2322 21.5508L22.8521 20.2549L25.1285 18.9504L27.405 18.3024L30.0054 17.9784Z" stroke="#6161FF" stroke-width="4" stroke-miterlimit="10" stroke-linecap="round" stroke-linejoin="round"/>
<path d="M30.005 2.38416V7.57648" stroke="#6161FF" stroke-width="4" stroke-miterlimit="10" stroke-linecap="round" stroke-linejoin="round"/>
<path d="M30.005 52.7474V57.6158" stroke="#6161FF" stroke-width="4" stroke-miterlimit="10" stroke-linecap="round" stroke-linejoin="round"/>
<path d="M10.505 11.1576L14.0774 14.406" stroke="#6161FF" stroke-width="4" stroke-miterlimit="10" stroke-linecap="round" stroke-linejoin="round"/>
<path d="M45.9225 46.5746L49.4949 50.147" stroke="#6161FF" stroke-width="4" stroke-miterlimit="10" stroke-linecap="round" stroke-linejoin="round"/>
<path d="M2.38 29.9999H7.25684" stroke="#6161FF" stroke-width="4" stroke-miterlimit="10" stroke-linecap="round" stroke-linejoin="round"/>
<path d="M52.4191 29.9999H57.62" stroke="#6161FF" stroke-width="4" stroke-miterlimit="10" stroke-linecap="round" stroke-linejoin="round"/>
<path d="M10.505 50.147L14.0774 46.5746" stroke="#6161FF" stroke-width="4" stroke-miterlimit="10" stroke-linecap="round" stroke-linejoin="round"/>
<path d="M45.9225 14.406L49.4949 11.1576" stroke="#6161FF" stroke-width="4" stroke-miterlimit="10" stroke-linecap="round" stroke-linejoin="round"/>
</g>
<defs>
<clipPath id="clip0_1_2267">
<rect width="60" height="60" fill="white"/>
</clipPath>
</defs>
</svg>
