<svg width="60" height="60" viewBox="0 0 60 60" fill="none" xmlns="http://www.w3.org/2000/svg">
<path fill-rule="evenodd" clip-rule="evenodd" d="M44.516 26.3352H14.5197L13.3889 26.286L11.2742 25.8434L9.30743 25.0074L7.5863 23.8274L6.11111 22.3522L4.93079 20.5819L4.09485 18.6641L3.65228 16.5004L3.60303 15.3693L3.65228 14.2385L4.09485 12.1237L4.93079 10.157L6.11111 8.43591L7.5863 6.96072L9.30743 5.7804L11.2742 4.94446L13.3889 4.50186L14.5197 4.45264H44.516L45.6471 4.50186L47.7616 4.94446L49.7286 5.7804L51.4497 6.96072L52.9249 8.43591L54.1052 10.157L54.9411 12.1237L55.3837 14.2385L55.4329 15.3693L55.3837 16.5004L54.9411 18.6641L54.1052 20.5819L52.9249 22.3522L51.4497 23.8274L49.7286 25.0074L47.7616 25.8434L45.6471 26.286L44.516 26.3352Z" stroke="#6161FF" stroke-width="4" stroke-miterlimit="10" stroke-linecap="round" stroke-linejoin="round"/>
<path fill-rule="evenodd" clip-rule="evenodd" d="M10.4878 15.3694L10.5863 16.3038L11.2745 17.9757L12.5041 19.2542L14.1759 19.9427L15.1104 19.992L16.0445 19.9427L17.7163 19.2542L18.9459 17.9757L19.6341 16.3038L19.7326 15.3694L19.6341 14.4353L18.9459 12.8124L17.7163 11.5338L16.0445 10.8454L15.1104 10.7964L14.1759 10.8454L12.5041 11.5338L11.2745 12.8124L10.5863 14.4353L10.4878 15.3694Z" stroke="#6161FF" stroke-width="4" stroke-miterlimit="10" stroke-linecap="round" stroke-linejoin="round"/>
<path fill-rule="evenodd" clip-rule="evenodd" d="M14.5197 56.2825H44.516L45.6471 56.2332L47.7616 55.7907L49.7286 54.9547L51.4497 53.7744L52.9249 52.2992L54.1052 50.5781L54.9411 48.6111L55.3837 46.4966L55.4329 45.3655L55.3837 44.2347L54.9411 42.071L54.1052 40.1533L52.9249 38.3829L51.4497 36.9077L49.7286 35.7274L47.7616 34.8914L45.6471 34.4489L44.516 34.3999H14.5197L13.3889 34.4489L11.2742 34.8914L9.30743 35.7274L7.5863 36.9077L6.11111 38.3829L4.93079 40.1533L4.09485 42.071L3.65228 44.2347L3.60303 45.3655L3.65228 46.4966L4.09485 48.6111L4.93079 50.5781L6.11111 52.2992L7.5863 53.7744L9.30743 54.9547L11.2742 55.7907L13.3889 56.2332L14.5197 56.2825Z" stroke="#6161FF" stroke-width="4" stroke-miterlimit="10" stroke-linecap="round" stroke-linejoin="round"/>
<path fill-rule="evenodd" clip-rule="evenodd" d="M39.3042 45.3654L39.4024 46.2998L40.0909 47.9228L41.3202 49.2013L42.9923 49.8895L43.9265 49.9387L44.8609 49.8895L46.5327 49.2013L47.7621 47.9228L48.4505 46.2998L48.549 45.3654L48.4505 44.4313L47.7621 42.7594L46.5327 41.4809L44.8609 40.7924L43.9265 40.7432L42.9923 40.7924L41.3202 41.4809L40.0909 42.7594L39.4024 44.4313L39.3042 45.3654Z" stroke="#6161FF" stroke-width="4" stroke-miterlimit="10" stroke-linecap="round" stroke-linejoin="round"/>
</svg>
