<svg width="60" height="60" viewBox="0 0 60 60" fill="none" xmlns="http://www.w3.org/2000/svg">
<path fill-rule="evenodd" clip-rule="evenodd" d="M30.1663 4.81848L32.7667 5.151L35.0431 5.47498L37.6436 6.12299L39.9115 6.77094L42.1879 7.74292L44.1404 9.04736L46.0844 10.6673L47.7128 12.2958L49.3326 13.9243L50.9612 15.8682L52.2571 18.1446L53.2375 20.097L53.8856 22.365L54.5336 24.9654L55.1815 27.5658V29.8423V32.4427L54.5336 35.0431L53.8856 37.311L53.2375 39.9114L52.2571 41.8639L50.9612 44.1403L49.3326 46.0842L47.7128 47.7127L46.0844 49.3412L44.1404 50.9611L42.1879 51.9331L39.9115 53.2375L37.6436 53.8856L35.0431 54.5335L32.7667 54.8575L30.1663 55.1815L27.5659 54.8575L24.9655 54.5335L22.689 53.8856L20.4211 53.2375L18.1447 51.9331L15.8682 50.9611L14.2483 49.3412L12.2958 47.7127L10.6674 46.0842L9.37146 44.1403L8.06689 41.8639L6.771 39.9114L6.12305 37.311L5.47498 35.0431L5.151 32.4427L4.81848 29.8423L5.151 27.5658L5.47498 24.9654L6.12305 22.365L6.771 20.097L8.06689 18.1446L9.37146 15.8682L10.6674 13.9243L12.2958 12.2958L14.2483 10.6673L15.8682 9.04736L18.1447 7.74292L20.4211 6.77094L22.689 6.12299L24.9655 5.47498L27.5659 5.151L30.1663 4.81848Z" stroke="#6161FF" stroke-width="4" stroke-miterlimit="10" stroke-linecap="round" stroke-linejoin="round"/>
<path d="M20.0973 35.0431L20.7454 35.6911L22.6892 37.6436L23.9938 38.2915L25.9462 39.2635L27.8901 39.9114H30.1665H32.443L34.3868 39.2635L36.0154 38.2915L37.3113 37.6436L39.2638 35.6911L40.2357 35.0431" stroke="#6161FF" stroke-width="4" stroke-miterlimit="10" stroke-linecap="round" stroke-linejoin="round"/>
</svg>
