<svg width="60" height="60" viewBox="0 0 60 60" fill="none" xmlns="http://www.w3.org/2000/svg">
<path fill-rule="evenodd" clip-rule="evenodd" d="M24.2582 40.4482L40.4483 24.2582L41.2486 24.6349L42.8487 25.1053L44.4488 25.2936L46.0019 25.1996L47.4608 24.9171L48.8728 24.3995L50.8025 23.317L52.8734 21.199L54.0028 19.2695L54.5206 17.9045L54.8031 16.3986L54.8499 14.8453L54.6617 13.2924L54.1913 11.6922L53.8617 10.8922L50.7083 14.0453L50.0964 14.5631L48.8259 15.0807L47.5551 14.9867L46.4254 14.4689L45.5314 13.5746L45.0136 12.4451L44.9196 11.1744L45.4372 9.90356L45.955 9.29175L49.1081 6.13861L48.3081 5.80902L46.7079 5.33856L45.1078 5.15002L43.6017 5.19714L42.0955 5.52679L40.7307 6.04437L38.8012 7.12689L36.6833 9.24487L35.6007 11.1273L35.0832 12.5391L34.8007 14.0453L34.7065 15.5515L34.8949 17.1516L35.3654 18.7517L35.7419 19.5518L19.5518 35.7418L18.7517 35.3654L17.1516 34.8949L15.5515 34.7064L13.9982 34.8007L12.5392 35.0831L11.1273 35.6007L9.19778 36.6832L7.12692 38.8012L5.99728 40.7307L5.47971 42.0955L5.19724 43.6016L5.15005 45.1549L5.33859 46.7079L5.80905 48.308L6.13864 49.1081L9.29178 45.955L9.90359 45.4371L11.1744 44.9664L12.4452 45.0135L13.5746 45.5782L14.4689 46.4254L14.9868 47.5551L15.0807 48.8259L14.5631 50.0964L14.0453 50.7082L10.8922 53.8616L11.6922 54.1912L13.2924 54.6617L14.8925 54.8499L16.3987 54.803L17.9045 54.5206L19.2696 54.0027L21.1991 52.8733L23.317 50.8025L24.3996 48.8727L24.9171 47.4608L25.1996 45.955L25.2936 44.4488L25.1054 42.8487L24.6349 41.2485L24.2582 40.4482Z" stroke="#6161FF" stroke-width="4" stroke-miterlimit="10" stroke-linecap="round" stroke-linejoin="round"/>
</svg>
