<svg width="60" height="60" viewBox="0 0 60 60" fill="none" xmlns="http://www.w3.org/2000/svg">
<path d="M37.5944 55.194V46.9578L39.8064 47.3342L40.5593 47.4282L42.0183 47.3342L43.3833 46.9578L44.6538 46.2988L45.6893 45.4045L46.5836 44.2751L47.1483 43.0043L47.4779 41.5453L47.5248 40.7923V35.3799L49.5956 34.8623L50.3956 34.5798L51.5254 33.5444L52.0901 32.1325L51.949 30.5323L51.5254 29.8263L47.5248 23.8019V22.155V21.2135L47.2897 19.4723L46.5836 16.8836L44.8892 13.7773L42.5361 11.0006L39.5709 8.74155L36.1354 7.00006L32.229 5.91776L28.0402 5.54102L25.8754 5.6824L24.2753 5.87064L21.2161 6.67072L18.3452 7.89435L15.7094 9.58875L13.4034 11.6125L11.4265 14.0127L9.82642 16.6953L8.69702 19.6134L8.27344 21.1664L7.99097 22.7668L7.80273 25.9199L8.13208 29.0262L8.93213 32.0382L10.1558 34.8623L11.8501 37.4507L13.921 39.7569L16.3683 41.7806L17.7333 42.6278V55.194" stroke="#6161FF" stroke-width="4" stroke-miterlimit="10" stroke-linecap="round" stroke-linejoin="round"/>
<path d="M22.2993 22.1078L22.3464 21.1195L22.8643 19.3309L23.8527 17.825L25.1234 16.6953L26.6764 15.8953L28.3707 15.4717L30.1592 15.5659L31.9006 16.1778L32.7476 16.6953L33.5479 17.3072L34.6774 18.7662L35.3834 20.4135L35.5717 22.155L35.3363 23.8962L34.6774 25.4963L33.5479 26.9082L32.0417 27.9908L31.1475 28.3672L30.6768 28.5555L29.8298 29.1673L29.2648 30.0145L28.9827 30.9559L28.9354 31.4735V32.0382" stroke="#6161FF" stroke-width="4" stroke-miterlimit="10" stroke-linecap="round" stroke-linejoin="round"/>
<path d="M28.9351 40.3216L28.5586 40.2744L28.135 39.804V39.1921L28.5586 38.7214L28.9351 38.6743" stroke="#6161FF" stroke-width="4" stroke-miterlimit="1747.71"/>
<path d="M28.9353 40.3216L29.3119 40.2744L29.7355 39.804V39.1921L29.3119 38.7214L28.9353 38.6743" stroke="#6161FF" stroke-width="4" stroke-miterlimit="1747.71"/>
</svg>
