<svg width="60" height="60" viewBox="0 0 60 60" fill="none" xmlns="http://www.w3.org/2000/svg">
<path fill-rule="evenodd" clip-rule="evenodd" d="M24.4711 37.635V47.3887L24.7951 49.0087L25.1276 50.3132L25.7757 51.6091L26.7476 52.9136L27.7195 53.8856L29.024 54.5335L30.644 54.8575L31.9484 55.1815L42.0176 32.4427V4.81848H13.754L12.1255 5.14246L10.5056 6.12299L9.52508 7.41895L8.87714 9.04736L5.30475 31.7947V32.7667V33.7386L6.27667 35.3671L7.58124 36.663L8.55316 37.311H9.52508L10.1816 37.635H24.4711Z" stroke="#6161FF" stroke-width="4" stroke-miterlimit="10" stroke-linecap="round" stroke-linejoin="round"/>
<path d="M42.0172 4.81848H48.8465H49.8184L50.7903 5.14246L52.7429 6.12299L54.0388 7.74292L54.3713 8.72339L54.6953 10.0193V27.5658L54.3713 28.5378L54.0388 29.5182L52.7429 31.1382L50.7903 32.1187L49.8184 32.4427H48.8465H42.0172" stroke="#6161FF" stroke-width="4" stroke-miterlimit="10" stroke-linecap="round" stroke-linejoin="round"/>
</svg>
