<svg width="60" height="60" viewBox="0 0 60 60" fill="none" xmlns="http://www.w3.org/2000/svg">
<g clip-path="url(#clip0_1_689)">
<path d="M29.6545 39.1606V57.5158" stroke="#6161FF" stroke-width="4" stroke-miterlimit="10" stroke-linecap="round" stroke-linejoin="round"/>
<path d="M11.2458 57.5156H48.0607" stroke="#6161FF" stroke-width="4" stroke-miterlimit="10" stroke-linecap="round" stroke-linejoin="round"/>
<path d="M2.98486 57.5158L2.56659 57.4634L2.09595 56.9404V56.2606L2.56659 55.7376L2.98486 55.6855" stroke="#6161FF" stroke-width="4" stroke-miterlimit="1747.71"/>
<path d="M2.98438 57.5158L3.40302 57.4634L3.87335 56.9404V56.2606L3.40302 55.7376L2.98438 55.6855" stroke="#6161FF" stroke-width="4" stroke-miterlimit="1747.71"/>
<path d="M56.3221 57.5158L55.9037 57.4634L55.4331 56.9404V56.2606L55.9037 55.7376L56.3221 55.6855" stroke="#6161FF" stroke-width="4" stroke-miterlimit="1747.71"/>
<path d="M56.3247 57.5158L56.7433 57.4634L57.2139 56.9404V56.2606L56.7433 55.7376L56.3247 55.6855" stroke="#6161FF" stroke-width="4" stroke-miterlimit="1747.71"/>
<path fill-rule="evenodd" clip-rule="evenodd" d="M29.6533 17.0925L31.3791 17.0402L34.569 16.7787L37.5498 16.2036L40.2167 15.4191L42.4653 14.4257L44.2432 13.2228L45.4984 11.9156L46.1258 10.5036L46.1782 9.71906L46.1258 8.98688L45.4984 7.52283L44.2432 6.21558L42.4653 5.06512L40.2167 4.07141L37.5498 3.2348L34.569 2.71179L31.3791 2.39795H29.6533H27.9277L24.7378 2.71179L21.757 3.2348L19.0901 4.07141L16.8416 5.06512L15.0634 6.21558L13.8085 7.52283L13.181 8.98688L13.1287 9.71906L13.181 10.5036L13.8085 11.9156L15.0634 13.2228L16.8416 14.4257L19.0901 15.4191L21.757 16.2036L24.7378 16.7787L27.9277 17.0402L29.6533 17.0925Z" stroke="#6161FF" stroke-width="4" stroke-miterlimit="10" stroke-linecap="round" stroke-linejoin="round"/>
<path d="M13.1287 9.71924V20.7533L13.181 21.5375L13.8085 22.9495L15.0634 24.2568L16.8416 25.4596L19.0901 26.4533L21.757 27.2375L24.7378 27.8129L27.9277 28.0745L29.6533 28.1265L31.3791 28.0745L34.569 27.8129L37.5498 27.2375L40.2167 26.4533L42.4653 25.4596L44.2432 24.2568L45.4984 22.9495L46.1258 21.5375L46.1782 20.7533V9.71924" stroke="#6161FF" stroke-width="4" stroke-miterlimit="10" stroke-linecap="round" stroke-linejoin="round"/>
<path d="M13.1287 20.7534V31.7872L13.181 32.5717L13.8085 33.9837L15.0634 35.291L16.8416 36.4938L19.0901 37.4872L21.757 38.2717L24.7378 38.8468L27.9277 39.1083L29.6533 39.1607L31.3791 39.1083L34.569 38.8468L37.5498 38.2717L40.2167 37.4872L42.4653 36.4938L44.2432 35.291L45.4984 33.9837L46.1258 32.5717L46.1782 31.7872V20.7534" stroke="#6161FF" stroke-width="4" stroke-miterlimit="10" stroke-linecap="round" stroke-linejoin="round"/>
</g>
<defs>
<clipPath id="clip0_1_689">
<rect width="60" height="60" fill="white"/>
</clipPath>
</defs>
</svg>
