<svg width="60" height="60" viewBox="0 0 60 60" fill="none" xmlns="http://www.w3.org/2000/svg">
<path fill-rule="evenodd" clip-rule="evenodd" d="M38.6165 55.0183H21.824L23.4937 44.9521H36.9468L38.6165 55.0183Z" stroke="#6161FF" stroke-width="4" stroke-miterlimit="10" stroke-linecap="round" stroke-linejoin="round"/>
<path d="M16.8162 55.0183H43.6272" stroke="#6161FF" stroke-width="4" stroke-miterlimit="10" stroke-linecap="round" stroke-linejoin="round"/>
<path d="M5.08124 36.031H55.364" stroke="#6161FF" stroke-width="4" stroke-miterlimit="10" stroke-linecap="round" stroke-linejoin="round"/>
<path fill-rule="evenodd" clip-rule="evenodd" d="M11.7602 4.7356H48.6851H48.8759L50.7842 5.02194L52.6447 5.88069L53.8373 6.88248L54.7913 8.31363L55.3162 10.2219L55.364 11.4145V38.2733V38.4641L55.0777 40.3724L54.2189 42.2329L53.2171 43.4255L51.786 44.3798L49.8777 44.9044L48.6851 44.9522H11.7602H11.5694L9.66104 44.6659L7.80051 43.8071L6.60794 42.8053L5.6539 41.3742L5.129 39.4659L5.08124 38.2733V11.4145V11.2237L5.36758 9.31541L6.22632 7.45488L7.22812 6.2623L8.65927 5.30827L10.5676 4.78337L11.7602 4.7356Z" stroke="#6161FF" stroke-width="4" stroke-miterlimit="10" stroke-linecap="round" stroke-linejoin="round"/>
</svg>
