<svg width="60" height="60" viewBox="0 0 60 60" fill="none" xmlns="http://www.w3.org/2000/svg">
<path fill-rule="evenodd" clip-rule="evenodd" d="M30.0043 4.81848H32.5961L34.8726 5.47498L37.4731 6.12292L39.7495 6.77094L42.0259 7.74286L43.9698 9.04736L45.9223 10.6673L47.5507 12.2958L49.1707 13.9157L50.7991 15.8682L52.0952 18.1446L53.0671 20.097L54.0475 22.3649L54.3715 24.9654L55.0195 27.2418V29.8422V32.4426L54.3715 35.0431L54.0475 37.311L53.0671 39.5874L52.0952 41.8639L50.7991 44.1403L49.1707 45.7603L47.5507 47.7127L45.9223 49.3326L43.9698 50.6371L42.0259 51.933L39.7495 53.2375L37.4731 53.8855L34.8726 54.5335L32.5961 54.8575L30.0043 55.1815L27.4039 54.8575L24.8034 54.5335L22.527 53.8855L20.2505 53.2375L17.9826 51.933L16.0302 50.6371L14.0777 49.3326L12.1339 47.7127L10.5053 45.7603L9.20941 44.1403L7.90497 41.8639L6.93292 39.5874L5.95245 37.311L5.3045 35.0431L4.98053 32.4426V29.8422V27.2418L5.3045 24.9654L5.95245 22.3649L6.93292 20.097L7.90497 18.1446L9.20941 15.8682L10.5053 13.9157L12.1339 12.2958L14.0777 10.6673L16.0302 9.04736L17.9826 7.74286L20.2505 6.77094L22.527 6.12292L24.8034 5.47498L27.4039 4.81848H30.0043Z" stroke="#6161FF" stroke-width="4" stroke-miterlimit="10" stroke-linecap="round" stroke-linejoin="round"/>
<path fill-rule="evenodd" clip-rule="evenodd" d="M30.0052 14.8966L32.9295 15.2206L35.8539 16.1926L38.4459 17.497L40.7223 19.441L42.3508 21.3934L43.9706 23.9938L44.6273 26.9183L44.9512 29.8427L44.6273 33.0911L43.9706 35.6915L42.3508 38.2919L40.7223 40.5598L38.4459 42.5123L35.8539 43.8168L32.9295 44.7887L30.0052 45.1127L26.7568 44.7887L24.1563 43.8168L21.5558 42.5123L19.2795 40.5598L17.327 38.2919L16.0311 35.6915L15.0591 33.0911L14.7266 29.8427L15.0591 26.9183L16.0311 23.9938L17.327 21.3934L19.2795 19.441L21.5558 17.497L24.1563 16.1926L26.7568 15.2206L30.0052 14.8966Z" stroke="#6161FF" stroke-width="4" stroke-miterlimit="10" stroke-linecap="round" stroke-linejoin="round"/>
<path fill-rule="evenodd" clip-rule="evenodd" d="M30.0054 24.9655H30.9774L31.9493 25.2894L33.5778 26.2699L34.5497 27.8898L34.8737 28.8703V29.8423V30.8143L34.5497 31.7947L33.5778 33.4147L31.9493 34.7106H30.9774L30.0054 35.0432L29.0248 34.7106H28.0529L26.4245 33.4147L25.4525 31.7947L25.1285 30.8143L24.8045 29.8423L25.1285 28.8703L25.4525 27.8898L26.4245 26.2699L28.0529 25.2894L29.0248 24.9655H30.0054Z" stroke="#6161FF" stroke-width="4" stroke-miterlimit="10" stroke-linecap="round" stroke-linejoin="round"/>
</svg>
