<svg width="60" height="60" viewBox="0 0 60 60" fill="none" xmlns="http://www.w3.org/2000/svg">
<path d="M35.2334 48.0644H33.039L32.5619 47.9688L31.9417 47.3487L31.8939 46.8715V10.6148L31.9417 10.1855L32.5619 9.56528L33.039 9.46973H35.2334" stroke="#6161FF" stroke-width="4" stroke-miterlimit="10" stroke-linecap="round" stroke-linejoin="round"/>
<path d="M26.8861 29.6018H31.8953" stroke="#6161FF" stroke-width="4" stroke-miterlimit="10" stroke-linecap="round" stroke-linejoin="round"/>
<path fill-rule="evenodd" clip-rule="evenodd" d="M41.9609 9.46988L42.0565 10.5194L42.8197 12.2847L44.1553 13.6681L45.9684 14.4313L47.0179 14.5269L48.0197 14.4313L49.8324 13.6681L51.1684 12.2847L51.9793 10.5194L52.0271 9.46988L51.9793 8.46811L51.1684 6.65533L49.8324 5.27167L48.0197 4.50845L47.0179 4.46069L45.9684 4.50845L44.1553 5.27167L42.8197 6.65533L42.0565 8.46811L41.9609 9.46988Z" stroke="#6161FF" stroke-width="4" stroke-miterlimit="10" stroke-linecap="round" stroke-linejoin="round"/>
<path fill-rule="evenodd" clip-rule="evenodd" d="M55.3661 22.8755L55.1751 22.1597L54.5549 20.8716L53.3623 19.1066L51.1202 17.3413L49.1641 16.5304L47.733 16.2443L47.0175 16.1965L46.254 16.2443L44.8229 16.5304L42.8671 17.3413L40.6246 19.1066L39.4321 20.8716L38.8119 22.1597L38.6211 22.8755H55.3661Z" stroke="#6161FF" stroke-width="4" stroke-miterlimit="10" stroke-linecap="round" stroke-linejoin="round"/>
<path fill-rule="evenodd" clip-rule="evenodd" d="M41.9609 41.3378L42.0565 42.3874L42.8197 44.1524L44.1553 45.536L45.9684 46.2992L47.0179 46.3948L48.0197 46.2992L49.8324 45.536L51.1684 44.1524L51.9793 42.3874L52.0271 41.3378L51.9793 40.336L51.1684 38.5233L49.8324 37.1396L48.0197 36.3764L47.0179 36.3286L45.9684 36.3764L44.1553 37.1396L42.8197 38.5233L42.0565 40.336L41.9609 41.3378Z" stroke="#6161FF" stroke-width="4" stroke-miterlimit="10" stroke-linecap="round" stroke-linejoin="round"/>
<path fill-rule="evenodd" clip-rule="evenodd" d="M55.3661 54.7434L55.1751 54.0276L54.5549 52.7395L53.3623 50.9745L51.1202 49.2093L49.1641 48.3983L47.733 48.1119L47.0175 48.0645L46.254 48.1119L44.8229 48.3983L42.8671 49.2093L40.6246 50.9745L39.4321 52.7395L38.8119 54.0276L38.6211 54.7434H55.3661Z" stroke="#6161FF" stroke-width="4" stroke-miterlimit="10" stroke-linecap="round" stroke-linejoin="round"/>
<path fill-rule="evenodd" clip-rule="evenodd" d="M8.42099 22.8755V23.5909L8.70737 24.879L9.23196 26.1194L9.94772 27.1689L10.8542 28.0755L11.9035 28.7909L13.1438 29.3158L14.432 29.6019H15.1477H15.8156L17.1035 29.3158L18.3438 28.7909L19.3934 28.0755L20.2999 27.1689L21.0157 26.1194L21.5403 24.879L21.8266 23.5909V22.8755V22.2075L21.5403 20.8716L21.0157 19.679L20.2999 18.6295L19.3934 17.723L18.3438 17.0075L17.1035 16.4826L15.8156 16.1965H15.1477H14.432L13.1438 16.4826L11.9035 17.0075L10.8542 17.723L9.94772 18.6295L9.23196 19.679L8.70737 20.8716L8.42099 22.2075V22.8755Z" stroke="#6161FF" stroke-width="4" stroke-miterlimit="10" stroke-linecap="round" stroke-linejoin="round"/>
<path fill-rule="evenodd" clip-rule="evenodd" d="M5.08118 43.0073V42.0056L5.51056 40.0017L6.27405 38.2367L7.37109 36.6147L8.70703 35.2311L10.329 34.134L12.1417 33.3705L14.0978 32.9889L15.1473 32.9412L16.1492 32.9889L18.1052 33.3705L19.918 34.134L21.5399 35.2311L22.9233 36.6147L23.9729 38.2367L24.7364 40.0017L25.1658 42.0056V43.0073H5.08118Z" stroke="#6161FF" stroke-width="4" stroke-miterlimit="10" stroke-linecap="round" stroke-linejoin="round"/>
</svg>
