<svg width="60" height="60" viewBox="0 0 60 60" fill="none" xmlns="http://www.w3.org/2000/svg">
<path fill-rule="evenodd" clip-rule="evenodd" d="M38.1213 22.0367H41.3698L44.6267 22.6932L47.5511 23.6652L50.1431 25.6176L52.0955 27.8856L53.7239 30.486L54.6959 33.7344L55.0199 36.9828V54.5293H44.9507V36.9828L44.6267 35.3629L43.9702 34.0584L42.9983 32.7624L41.7023 32.1144L40.3978 31.7905H39.1019L38.1213 32.4384L36.8254 32.7624L36.1775 33.7344L35.521 34.7149L35.197 35.6868L34.8729 36.9828V54.5293H24.8038V37.3153L25.1278 34.7149L25.7758 31.7905L27.0802 29.514L28.7002 27.2376L30.6526 25.2851L32.9291 23.6652L35.197 22.6932L38.1213 22.0367Z" stroke="#6161FF" stroke-width="4" stroke-miterlimit="10" stroke-linecap="round" stroke-linejoin="round"/>
<path fill-rule="evenodd" clip-rule="evenodd" d="M4.9801 24.3131H14.7253V54.5292H4.9801V24.3131Z" stroke="#6161FF" stroke-width="4" stroke-miterlimit="10" stroke-linecap="round" stroke-linejoin="round"/>
<path fill-rule="evenodd" clip-rule="evenodd" d="M9.85706 5.47083L10.829 5.79483L11.8009 6.1188L13.4294 7.09076L14.4014 8.71924L14.7253 9.69119L15.0579 10.6717L14.7253 11.6436L14.4014 12.6156L13.4294 14.2441L11.8009 15.216L10.829 15.54H9.85706H8.87646L7.90454 15.216L6.28467 14.2441L5.30408 12.6156L4.9801 11.6436V10.6717V9.69119L5.30408 8.71924L6.28467 7.09076L7.90454 6.1188L8.87646 5.79483L9.85706 5.47083Z" stroke="#6161FF" stroke-width="4" stroke-miterlimit="10" stroke-linecap="round" stroke-linejoin="round"/>
</svg>
