<svg width="60" height="60" viewBox="0 0 60 60" fill="none" xmlns="http://www.w3.org/2000/svg">
<path fill-rule="evenodd" clip-rule="evenodd" d="M30.1577 4.81848L32.7582 5.14246L35.0345 5.46646L37.635 6.11444L39.9115 6.76239L42.1793 8.06689L44.1318 9.03885L46.0842 10.6673L47.7042 12.2872L49.3326 13.9157L50.9526 15.8596L52.2571 18.1361L53.229 20.0885L54.201 22.6889L54.5336 24.9568L55.1815 27.5573V30.1577V32.4341L54.5336 35.0346L54.201 37.635L53.229 39.9029L52.2571 41.8553L50.9526 44.1318L49.3326 46.0843L47.7042 47.7042L46.0842 49.3326L44.1318 50.9526L42.1793 51.9331L39.9115 53.229L37.635 53.877L35.0345 54.525L32.7582 54.8575L30.1577 55.1815L27.5574 54.8575L24.9569 54.525L22.689 53.877L20.4126 53.229L18.1361 51.9331L16.1921 50.9526L14.2397 49.3326L12.2872 47.7042L10.6674 46.0843L9.36292 44.1318L8.06689 41.8553L7.08643 39.9029L6.1145 37.635L5.46643 35.0346L5.14246 32.4341L4.81848 30.1577L5.14246 27.5573L5.46643 24.9568L6.1145 22.6889L7.08643 20.0885L8.06689 18.1361L9.36292 15.8596L10.6674 13.9157L12.2872 12.2872L14.2397 10.6673L16.1921 9.03885L18.1361 8.06689L20.4126 6.76239L22.689 6.11444L24.9569 5.46646L27.5574 5.14246L30.1577 4.81848Z" stroke="#6161FF" stroke-width="4" stroke-miterlimit="10" stroke-linecap="round" stroke-linejoin="round"/>
<path d="M29.5104 14.8873V30.1574L39.2556 35.0342" stroke="#6161FF" stroke-width="4" stroke-miterlimit="10" stroke-linecap="round" stroke-linejoin="round"/>
</svg>
