<svg width="60" height="60" viewBox="0 0 60 60" fill="none" xmlns="http://www.w3.org/2000/svg">
<path d="M21.8794 55.6172H38.672" stroke="#6161FF" stroke-width="4" stroke-miterlimit="10" stroke-linecap="round" stroke-linejoin="round"/>
<path d="M30.2754 48.9385V55.6174" stroke="#6161FF" stroke-width="4" stroke-miterlimit="10" stroke-linecap="round" stroke-linejoin="round"/>
<path d="M5.13281 40.542H55.4156" stroke="#6161FF" stroke-width="4" stroke-miterlimit="10" stroke-linecap="round" stroke-linejoin="round"/>
<path d="M52.0761 10.3438L52.7438 10.3915L53.9842 10.9161L54.8907 11.8227L55.3679 13.0153L55.4156 13.6832V45.5511L55.3679 46.2666L54.8907 47.4595L53.9842 48.3657L52.7438 48.8906L52.0761 48.9384H8.47229L7.80432 48.8906L6.56396 48.3657L5.65771 47.4595L5.1806 46.2666L5.13281 45.5511V13.6832L5.1806 13.0153L5.65771 11.8227L6.56396 10.9161L7.80432 10.3915L8.47229 10.3438" stroke="#6161FF" stroke-width="4" stroke-miterlimit="10" stroke-linecap="round" stroke-linejoin="round"/>
<path d="M15.1997 33.8152V8.67395L15.2475 8.00604L15.7244 6.76569L16.6309 5.85944L17.8712 5.38226L18.5392 5.33447H42.0107L42.6786 5.38226L43.919 5.85944L44.8253 6.76569L45.3024 8.00604L45.3502 8.67395V33.8152" stroke="#6161FF" stroke-width="4" stroke-miterlimit="10" stroke-linecap="round" stroke-linejoin="round"/>
<path fill-rule="evenodd" clip-rule="evenodd" d="M21.8794 18.7402H28.6058V25.4667H21.8794V18.7402Z" stroke="#6161FF" stroke-width="4" stroke-miterlimit="10" stroke-linecap="round" stroke-linejoin="round"/>
<path d="M15.1997 12.0134H45.3502" stroke="#6161FF" stroke-width="4" stroke-miterlimit="10" stroke-linecap="round" stroke-linejoin="round"/>
<path d="M35.2832 18.7402H38.6705" stroke="#6161FF" stroke-width="4" stroke-miterlimit="10" stroke-linecap="round" stroke-linejoin="round"/>
<path d="M35.2832 23.7495H38.6705" stroke="#6161FF" stroke-width="4" stroke-miterlimit="10" stroke-linecap="round" stroke-linejoin="round"/>
<path d="M21.8794 32.1455H38.672" stroke="#6161FF" stroke-width="4" stroke-miterlimit="10" stroke-linecap="round" stroke-linejoin="round"/>
</svg>
