<svg width="60" height="60" viewBox="0 0 60 60" fill="none" xmlns="http://www.w3.org/2000/svg">
<path fill-rule="evenodd" clip-rule="evenodd" d="M30.1578 4.81848L32.4341 5.151L35.0346 5.47498L37.6351 6.12292L39.9114 6.77094L41.8554 7.74286L44.1318 9.04736L46.0843 10.6673L47.7042 12.2958L49.3327 13.9242L50.9611 15.8682L51.933 18.1446L53.2291 20.097L53.8856 22.3649L54.5335 24.9654L54.8575 27.5658L55.1815 29.8422L54.8575 32.4426L54.5335 35.0431L53.8856 37.311L53.2291 39.9114L51.933 41.8639L50.9611 44.1403L49.3327 46.0842L47.7042 47.7127L46.0843 49.3412L44.1318 50.9611L41.8554 51.933L39.9114 53.2375L37.6351 53.8855L35.0346 54.5335L32.4341 54.8575L30.1578 55.1815L27.5659 54.8575L24.9654 54.5335L22.689 53.8855L20.0886 53.2375L18.136 51.933L15.8682 50.9611L13.9157 49.3412L12.2873 47.7127L10.6673 46.0842L9.03888 44.1403L8.06696 41.8639L6.77094 39.9114L6.11444 37.311L5.46649 35.0431L5.14252 32.4426L4.81854 29.8422L5.14252 27.5658L5.46649 24.9654L6.11444 22.3649L6.77094 20.097L8.06696 18.1446L9.03888 15.8682L10.6673 13.9242L12.2873 12.2958L13.9157 10.6673L15.8682 9.04736L18.136 7.74286L20.0886 6.77094L22.689 6.12292L24.9654 5.47498L27.5659 5.151L30.1578 4.81848Z" stroke="#6161FF" stroke-width="4" stroke-miterlimit="10" stroke-linecap="round" stroke-linejoin="round"/>
<path d="M12.2878 12.296L47.7047 47.713" stroke="#6161FF" stroke-width="4" stroke-miterlimit="10" stroke-linecap="round" stroke-linejoin="round"/>
</svg>
