<svg width="60" height="60" viewBox="0 0 60 60" fill="none" xmlns="http://www.w3.org/2000/svg">
<g clip-path="url(#clip0_1_1243)">
<path d="M14.0479 36.0103V48.0316H2.02661" stroke="#6161FF" stroke-width="4" stroke-miterlimit="10" stroke-linecap="round" stroke-linejoin="round"/>
<path d="M13.251 48.0318L11.7126 46.3797L9.26288 42.6194L7.43964 38.5743L6.35736 34.3584L6.01538 29.9716L6.41443 25.6415L7.4967 21.3685L9.37695 17.2667L10.6304 15.3297L11.9405 13.5065L15.1309 10.259L18.6633 7.69513L22.5943 5.75812L26.8102 4.50476L31.1403 3.99194L35.5271 4.21985L39.9142 5.18829L42.079 5.98602" stroke="#6161FF" stroke-width="4" stroke-miterlimit="10" stroke-linecap="round" stroke-linejoin="round"/>
<path d="M13.2501 48.0318L11.598 46.2086L8.97705 42.1638L7.21088 37.7766L6.1853 33.2191L6.07153 28.5471L6.75513 23.8754L8.29346 19.4316L10.6862 15.2156L12.2245 13.2786L13.8769 11.4554L17.6368 8.43579L21.796 6.21387L26.2969 4.7326L30.9116 4.16309L35.5832 4.33392L40.1982 5.4162L44.585 7.35352L46.6927 8.7207L48.6868 10.1449L52.1054 13.5635L54.726 17.4946L56.663 21.7676L57.7456 26.3251L57.9734 30.9968L57.4036 35.6688L55.9224 40.2834L54.8401 42.5054L53.5867 44.6135L50.51 48.3737L46.921 51.393L42.8188 53.729L38.432 55.2673L33.817 56.0079L29.0883 55.9509L24.3596 54.9254L22.0239 54.071" stroke="#6161FF" stroke-width="4" stroke-miterlimit="10" stroke-linecap="round" stroke-linejoin="round"/>
</g>
<defs>
<clipPath id="clip0_1_1243">
<rect width="60" height="60" fill="white"/>
</clipPath>
</defs>
</svg>
