<svg width="60" height="60" viewBox="0 0 60 60" fill="none" xmlns="http://www.w3.org/2000/svg">
<g clip-path="url(#clip0_1_2347)">
<path d="M37.5472 43.2314V48.7747L37.4949 49.5065L36.9198 50.8141L35.926 51.8075L34.6188 52.3829L33.8342 52.4352H26.5132L25.7289 52.3829L24.4216 51.8075L23.428 50.8141L22.8525 49.5065L22.8005 48.7747V43.2314" stroke="#6161FF" stroke-width="4" stroke-miterlimit="10" stroke-linecap="round" stroke-linejoin="round"/>
<path d="M30.1736 2.80859V6.46915" stroke="#6161FF" stroke-width="4" stroke-miterlimit="10" stroke-linecap="round" stroke-linejoin="round"/>
<path d="M4.44531 28.5371H8.10583" stroke="#6161FF" stroke-width="4" stroke-miterlimit="10" stroke-linecap="round" stroke-linejoin="round"/>
<path d="M9.9375 10.1299L12.6567 12.7447" stroke="#6161FF" stroke-width="4" stroke-miterlimit="10" stroke-linecap="round" stroke-linejoin="round"/>
<path d="M55.9026 28.5371H52.2419" stroke="#6161FF" stroke-width="4" stroke-miterlimit="10" stroke-linecap="round" stroke-linejoin="round"/>
<path d="M50.4132 10.1299L47.6938 12.7447" stroke="#6161FF" stroke-width="4" stroke-miterlimit="10" stroke-linecap="round" stroke-linejoin="round"/>
<path fill-rule="evenodd" clip-rule="evenodd" d="M22.593 43.2316H37.7579L38.7516 42.7086L40.6343 41.4013L42.3075 39.8849L43.7195 38.1067L44.9222 36.2243L45.8113 34.1325L46.4387 31.9884L46.7002 29.6874V28.537L46.6478 26.8637L45.9156 23.6215L44.6608 20.6931L42.8828 18.0783L40.6343 15.8297L38.0194 14.0518L35.0911 12.7445L31.8488 12.0647L30.1753 11.96L28.5021 12.0647L25.2599 12.7445L22.3314 14.0518L19.7167 15.8297L17.468 18.0783L15.6902 20.6931L14.4349 23.6215L13.703 26.8637L13.6506 28.537V29.6874L13.9642 31.9884L14.5397 34.1325L15.4286 36.2243L16.6315 38.1067L18.0435 39.8849L19.7167 41.4013L21.5992 42.7086L22.593 43.2316Z" stroke="#6161FF" stroke-width="4" stroke-miterlimit="10" stroke-linecap="round" stroke-linejoin="round"/>
<path d="M30.1736 52.4355V57.9264" stroke="#6161FF" stroke-width="4" stroke-miterlimit="10" stroke-linecap="round" stroke-linejoin="round"/>
<path d="M30.1736 34.0278V43.2316" stroke="#6161FF" stroke-width="4" stroke-miterlimit="10" stroke-linecap="round" stroke-linejoin="round"/>
<path d="M24.6833 28.5371L30.1742 34.028L35.665 28.5371" stroke="#6161FF" stroke-width="4" stroke-miterlimit="10" stroke-linecap="round" stroke-linejoin="round"/>
</g>
<defs>
<clipPath id="clip0_1_2347">
<rect width="60" height="60" fill="white"/>
</clipPath>
</defs>
</svg>
