<svg width="60" height="60" viewBox="0 0 60 60" fill="none" xmlns="http://www.w3.org/2000/svg">
<path d="M46.8958 5.19672L38.6124 10.1385L43.5542 18.4219" stroke="#6161FF" stroke-width="4" stroke-miterlimit="10" stroke-linecap="round" stroke-linejoin="round"/>
<path d="M54.8035 21.5754L54.3798 20.4459L53.1562 18.2808L51.65 16.3985L49.8617 14.7981L47.8377 13.5276L45.6729 12.5861L43.3195 11.9743L40.8722 11.7861L39.6486 11.8332" stroke="#6161FF" stroke-width="4" stroke-miterlimit="10" stroke-linecap="round" stroke-linejoin="round"/>
<path d="M13.1022 54.8032L21.3853 49.8614L16.4435 41.5781" stroke="#6161FF" stroke-width="4" stroke-miterlimit="10" stroke-linecap="round" stroke-linejoin="round"/>
<path d="M5.19644 38.4247L5.62003 39.5544L6.84366 41.7192L8.34982 43.6019L10.1382 45.202L12.1619 46.4728L14.327 47.4142L16.6801 48.0261L19.1274 48.2143L20.351 48.1672" stroke="#6161FF" stroke-width="4" stroke-miterlimit="10" stroke-linecap="round" stroke-linejoin="round"/>
<path fill-rule="evenodd" clip-rule="evenodd" d="M8.49094 5.19672H28.352H28.7756L30.6111 5.94995L31.3643 6.93823L31.6465 7.87946V8.49127V28.3523V28.7759L30.8935 30.6114L29.9052 31.3646L28.917 31.6468H28.352H8.49094H8.06735L6.23184 30.8939L5.47891 29.9056L5.19644 28.9173V28.3523V8.49127V8.06769L5.94962 6.23218L6.93796 5.47925L7.87912 5.19672H8.49094Z" stroke="#6161FF" stroke-width="4" stroke-miterlimit="10" stroke-linecap="round" stroke-linejoin="round"/>
<path d="M38.2838 28.353H51.509L52.1677 28.4001L53.3914 28.918L54.2856 29.812L54.7564 30.9888L54.8035 31.6475V51.5088L54.7564 52.1675L54.2856 53.3911L53.3914 54.2855L52.1677 54.7562L51.509 54.8033H31.6477L30.989 54.7562L29.8122 54.2855L28.9182 53.3911L28.4003 52.1675L28.3531 51.5088V38.2836" stroke="#6161FF" stroke-width="4" stroke-miterlimit="10" stroke-linecap="round" stroke-linejoin="round"/>
<path d="M37.7169 43.225H45.4354" stroke="#6161FF" stroke-width="4" stroke-miterlimit="10" stroke-linecap="round" stroke-linejoin="round"/>
<path d="M18.421 11.7861V15.1277" stroke="#6161FF" stroke-width="4" stroke-miterlimit="10" stroke-linecap="round" stroke-linejoin="round"/>
<path d="M11.7868 15.1279H25.0588" stroke="#6161FF" stroke-width="4" stroke-miterlimit="10" stroke-linecap="round" stroke-linejoin="round"/>
<path d="M21.7174 15.1279L21.6232 15.4101L20.3995 18.2342L18.6112 21.0108L17.0579 22.7523L15.1756 24.1642L13.0105 24.9643L11.7868 25.0583" stroke="#6161FF" stroke-width="4" stroke-miterlimit="10" stroke-linecap="round" stroke-linejoin="round"/>
<path d="M18.421 21.1992L18.9857 21.9993L20.4448 23.3171L22.1391 24.3055L24.0217 24.8702L25.0569 25.0115" stroke="#6161FF" stroke-width="4" stroke-miterlimit="10" stroke-linecap="round" stroke-linejoin="round"/>
<path d="M37.7169 48.2136V39.3655L37.764 38.5654L38.3759 37.2004L39.4113 36.165L40.7761 35.5532L41.5762 35.5063L42.3762 35.5532L43.741 36.165L44.8235 37.2004L45.3882 38.5654L45.4354 39.3655V48.2136" stroke="#6161FF" stroke-width="4" stroke-miterlimit="10" stroke-linecap="round" stroke-linejoin="round"/>
</svg>
