<svg width="60" height="60" viewBox="0 0 60 60" fill="none" xmlns="http://www.w3.org/2000/svg">
<path d="M14.8971 22.3566V4.8186H45.1132V22.3566" stroke="#6161FF" stroke-width="4" stroke-miterlimit="10" stroke-linecap="round" stroke-linejoin="round"/>
<path d="M14.8962 45.1035H10.0194H9.04736L8.06689 44.7795L6.44702 43.4836L5.47498 41.8551L5.151 41.2072L4.81848 39.9027V27.5571L5.151 26.5851L5.47498 25.6131L6.44702 23.9847L8.06689 23.0127L9.04736 22.6887L10.0194 22.3562H49.9891L51.2852 22.6887L52.2571 23.0127L53.5615 23.9847L54.8575 25.6131L55.1815 26.5851V27.5571V39.9027V41.2072L54.8575 41.8551L53.5615 43.4836L52.2571 44.7795L51.2852 45.1035H49.9891H45.1123" stroke="#6161FF" stroke-width="4" stroke-miterlimit="10" stroke-linecap="round" stroke-linejoin="round"/>
<path fill-rule="evenodd" clip-rule="evenodd" d="M14.8971 35.0344H45.1132V55.1813H14.8971V35.0344Z" stroke="#6161FF" stroke-width="4" stroke-miterlimit="10" stroke-linecap="round" stroke-linejoin="round"/>
</svg>
