<svg width="60" height="60" viewBox="0 0 60 60" fill="none" xmlns="http://www.w3.org/2000/svg">
<path fill-rule="evenodd" clip-rule="evenodd" d="M53.4717 51.802L53.4239 52.4697L52.899 53.71L51.9928 54.6165L50.7999 55.0937L50.1322 55.1414H9.8678L9.19983 55.0937L7.95947 54.6165L7.05322 53.71L6.57617 52.4697L6.52832 51.802V8.19812L6.57617 7.53021L7.05322 6.28986L7.95947 5.38361L9.19983 4.90643L9.8678 4.85864H43.4055L44.0735 4.90643L45.266 5.38361L45.7432 5.7652L52.4696 12.2533L52.899 12.7302L53.4239 13.9705L53.4717 14.6385V51.802Z" stroke="#6161FF" stroke-width="4" stroke-miterlimit="10" stroke-linecap="round" stroke-linejoin="round"/>
<path d="M41.7373 24.9905H43.4071" stroke="#6161FF" stroke-width="4" stroke-miterlimit="10" stroke-linecap="round" stroke-linejoin="round"/>
<path d="M38.3975 14.9246H43.4066" stroke="#6161FF" stroke-width="4" stroke-miterlimit="10" stroke-linecap="round" stroke-linejoin="round"/>
<path d="M35.0098 35.009H43.4062" stroke="#6161FF" stroke-width="4" stroke-miterlimit="10" stroke-linecap="round" stroke-linejoin="round"/>
<path d="M16.5952 45.075H43.4062" stroke="#6161FF" stroke-width="4" stroke-miterlimit="10" stroke-linecap="round" stroke-linejoin="round"/>
<path fill-rule="evenodd" clip-rule="evenodd" d="M13.208 23.2734L13.2557 24.323L13.6375 26.2788L14.4006 28.0918L15.4979 29.7138L16.8813 31.0494L18.4558 32.1467L20.2686 32.91L22.2725 33.3393H23.2742H24.3237L26.2795 32.91L28.0925 32.1467L29.7146 31.0494L31.0502 29.7138L32.1475 28.0918L32.9106 26.2788L33.2926 24.323L33.3401 23.2734L33.2926 22.2717L32.9106 20.3156L32.1475 18.5028L31.0502 16.8806L29.7146 15.4972L28.0925 14.4476L26.2795 13.6844L24.3237 13.2551L23.2742 13.2073L22.2725 13.2551L20.2686 13.6844L18.4558 14.4476L16.8813 15.4972L15.4979 16.8806L14.4006 18.5028L13.6375 20.3156L13.2557 22.2717L13.208 23.2734Z" stroke="#6161FF" stroke-width="4" stroke-miterlimit="10" stroke-linecap="round" stroke-linejoin="round"/>
<path d="M14.8779 28.855L23.2743 23.2734V13.2073" stroke="#6161FF" stroke-width="4" stroke-miterlimit="10" stroke-linecap="round" stroke-linejoin="round"/>
</svg>
