<svg width="60" height="60" viewBox="0 0 60 60" fill="none" xmlns="http://www.w3.org/2000/svg">
<g clip-path="url(#clip0_1_1009)">
<path fill-rule="evenodd" clip-rule="evenodd" d="M2.38031 8.06677H40.0737V40.5593H2.38031V8.06677Z" stroke="#6161FF" stroke-width="4" stroke-miterlimit="10" stroke-linecap="round" stroke-linejoin="round"/>
<path fill-rule="evenodd" clip-rule="evenodd" d="M40.0732 20.4213H49.8184L57.6197 28.214V40.5596H40.0732V20.4213Z" stroke="#6161FF" stroke-width="4" stroke-miterlimit="10" stroke-linecap="round" stroke-linejoin="round"/>
<path fill-rule="evenodd" clip-rule="evenodd" d="M14.733 39.2635L16.029 39.5875L17.325 39.9115L18.3054 40.5595L19.2774 41.216L19.9254 42.188L20.5818 43.1599L20.9059 44.4644V45.7603V47.0648L20.5818 48.0368L19.9254 49.0087L19.2774 49.9892L18.3054 50.9612L17.325 51.2852L16.029 51.9331H14.733H13.4286L12.4566 51.2852L11.1522 50.9612L10.1802 49.9892L9.53217 49.0087L8.88422 48.0368L8.5517 47.0648V45.7603V44.4644L8.88422 43.1599L9.53217 42.188L10.1802 41.216L11.1522 40.5595L12.4566 39.9115L13.4286 39.5875L14.733 39.2635Z" stroke="#6161FF" stroke-width="4" stroke-miterlimit="10" stroke-linecap="round" stroke-linejoin="round"/>
<path fill-rule="evenodd" clip-rule="evenodd" d="M47.5492 39.2635L48.5212 39.5875L49.8171 39.9115L50.7976 40.5595L51.7695 41.216L52.7415 42.188L53.074 43.1599L53.398 44.4644L53.722 45.7603L53.398 47.0648L53.074 48.0368L52.7415 49.0087L51.7695 49.9892L50.7976 50.9612L49.8171 51.2852L48.5212 51.9331H47.5492H46.2447L44.9488 51.2852L43.9683 50.9612L42.9963 49.9892L42.3483 49.0087L41.7004 48.0368L41.3764 47.0648L41.0439 45.7603L41.3764 44.4644L41.7004 43.1599L42.3483 42.188L42.9963 41.216L43.9683 40.5595L44.9488 39.9115L46.2447 39.5875L47.5492 39.2635Z" stroke="#6161FF" stroke-width="4" stroke-miterlimit="10" stroke-linecap="round" stroke-linejoin="round"/>
</g>
<defs>
<clipPath id="clip0_1_1009">
<rect width="60" height="60" fill="white"/>
</clipPath>
</defs>
</svg>
