<svg width="60" height="60" viewBox="0 0 60 60" fill="none" xmlns="http://www.w3.org/2000/svg">
<g clip-path="url(#clip0_1_747)">
<path d="M26.754 33.248L30.9743 36.8204L35.2032 39.7449L38.4516 36.4965L39.7475 35.5245L41.0519 35.2005L42.348 34.8765L43.6524 35.2005L47.2248 36.4965L50.7972 37.153L52.7497 37.8009L54.0456 38.7729L55.0175 40.4014V42.0213V49.4986V50.7945L54.6935 51.7665L53.7216 53.071L52.0932 54.3669L51.1212 54.6909H50.1492H49.8253L43.9764 53.7189L38.4516 52.099L32.9267 49.8226L28.0499 46.8981L23.8295 43.9738L19.6006 40.4014" stroke="#6161FF" stroke-width="4" stroke-miterlimit="10" stroke-linecap="round" stroke-linejoin="round"/>
<path d="M13.1009 31.3041L10.1765 26.1033L7.90851 20.9024L6.28009 15.3776L5.30817 9.52875V8.55682L5.63214 7.57629L6.28009 5.95636L7.90851 4.6604L8.88055 4.32788L9.85248 4.00391H10.1765H17.6537L19.5977 4.32788L21.2261 5.30841L22.1981 6.60437L22.8547 8.55682L23.5026 12.1292L24.7985 15.7016V17.006V18.302L24.1506 19.6064L23.5026 20.9024L20.2542 23.8268" stroke="#6161FF" stroke-width="4" stroke-miterlimit="10" stroke-linecap="round" stroke-linejoin="round"/>
<path d="M57.6157 2.38428L2.38434 57.6156" stroke="#6161FF" stroke-width="4" stroke-miterlimit="10" stroke-linecap="round" stroke-linejoin="round"/>
</g>
<defs>
<clipPath id="clip0_1_747">
<rect width="60" height="60" fill="white"/>
</clipPath>
</defs>
</svg>
