<svg width="60" height="60" viewBox="0 0 60 60" fill="none" xmlns="http://www.w3.org/2000/svg">
<path d="M4.37476 21.4807V8.07506L4.42249 7.40712L4.89966 6.16676L5.80591 5.26051L7.04626 4.78337L7.71417 4.7356H21.1198" stroke="#6161FF" stroke-width="4" stroke-miterlimit="10" stroke-linecap="round" stroke-linejoin="round"/>
<path d="M54.6586 21.4807V8.07506L54.6109 7.40712L54.1337 6.16676L53.2272 5.26051L51.9869 4.78337L51.3192 4.7356H37.9136" stroke="#6161FF" stroke-width="4" stroke-miterlimit="10" stroke-linecap="round" stroke-linejoin="round"/>
<path d="M54.6586 38.2732V51.6788L54.6109 52.3465L54.1337 53.5868L53.2272 54.4934L51.9869 54.9705L51.3192 55.0183H37.9136" stroke="#6161FF" stroke-width="4" stroke-miterlimit="10" stroke-linecap="round" stroke-linejoin="round"/>
<path fill-rule="evenodd" clip-rule="evenodd" d="M7.71405 28.207H27.8461H28.2755L30.136 28.9705L30.8995 29.9723L31.1856 30.9263V31.5465V51.6788V52.1082L30.4224 53.9687L29.4206 54.7319L28.4663 55.0183H27.8461H7.71405H7.28467L5.42413 54.2548L4.66095 53.253L4.37463 52.299V51.6788V31.5465V31.1171L5.13812 29.2566L6.13989 28.4934L7.09387 28.207H7.71405Z" stroke="#6161FF" stroke-width="4" stroke-miterlimit="10" stroke-linecap="round" stroke-linejoin="round"/>
</svg>
