<svg width="60" height="60" viewBox="0 0 60 60" fill="none" xmlns="http://www.w3.org/2000/svg">
<path fill-rule="evenodd" clip-rule="evenodd" d="M14.73 4.81848H44.946H45.9265L46.8984 5.15097L48.527 6.44693L49.4989 8.07538L49.8229 8.72336L50.1469 10.0193V49.9891L49.8229 50.9611L49.4989 51.933L48.527 53.5615L46.8984 54.5335L45.9265 54.8575L44.946 55.1815H14.73L13.7579 54.8575L12.7775 54.5335L11.1576 53.5615L10.1855 51.933L9.85303 50.9611V49.9891V10.0193V8.72336L10.1855 8.07538L11.1576 6.44693L12.7775 5.15097L13.7579 4.81848H14.73Z" stroke="#6161FF" stroke-width="4" stroke-miterlimit="10" stroke-linecap="round" stroke-linejoin="round"/>
<path fill-rule="evenodd" clip-rule="evenodd" d="M28.7041 24.3175H30.9806L32.6006 24.9655L34.553 25.946L35.8489 27.2419L37.1534 28.5379L38.1254 30.1664L38.7733 32.1188V34.0627V36.3391L38.1254 37.9676L37.1534 39.9115L35.8489 41.216L34.553 42.512L32.6006 43.4925L30.9806 44.1404H28.7041H26.7517L24.7992 43.4925L23.1793 42.512L21.5509 41.216L20.5789 39.9115L19.6069 37.9676L18.959 36.3391L18.6265 34.0627L18.959 32.1188L19.6069 30.1664L20.5789 28.5379L21.5509 27.2419L23.1793 25.946L24.7992 24.9655L26.7517 24.3175H28.7041Z" stroke="#6161FF" stroke-width="4" stroke-miterlimit="10" stroke-linecap="round" stroke-linejoin="round"/>
</svg>
