<svg width="60" height="60" viewBox="0 0 60 60" fill="none" xmlns="http://www.w3.org/2000/svg">
<path fill-rule="evenodd" clip-rule="evenodd" d="M53.159 51.6789L53.1113 52.3466L52.5863 53.5869L51.6801 54.4935L50.4873 54.9706L49.8196 55.0184H9.55518L8.88725 54.9706L7.64689 54.4935L6.74064 53.5869L6.2635 52.3466L6.21572 51.6789V8.07506L6.2635 7.40712L6.74064 6.16676L7.64689 5.26051L8.88725 4.78337L9.55518 4.7356H43.0929L43.7608 4.78337L44.9534 5.26051L45.4305 5.64212L52.157 12.1302L52.5863 12.6071L53.1113 13.8475L53.159 14.5154V51.6789Z" stroke="#6161FF" stroke-width="4" stroke-miterlimit="10" stroke-linecap="round" stroke-linejoin="round"/>
<path d="M41.4226 24.8677H43.0923" stroke="#6161FF" stroke-width="4" stroke-miterlimit="10" stroke-linecap="round" stroke-linejoin="round"/>
<path d="M38.0867 14.8018H43.0959" stroke="#6161FF" stroke-width="4" stroke-miterlimit="10" stroke-linecap="round" stroke-linejoin="round"/>
<path d="M34.6954 34.886H43.0918" stroke="#6161FF" stroke-width="4" stroke-miterlimit="10" stroke-linecap="round" stroke-linejoin="round"/>
<path d="M16.2818 44.9521H43.0927" stroke="#6161FF" stroke-width="4" stroke-miterlimit="10" stroke-linecap="round" stroke-linejoin="round"/>
<path fill-rule="evenodd" clip-rule="evenodd" d="M12.8954 23.1504L12.9431 24.2L13.3248 26.1557L14.088 27.9688L15.1853 29.5907L16.5687 30.9264L18.1432 32.0237L19.9559 32.7869L21.9598 33.2163H22.9616H24.0111L25.9669 32.7869L27.7799 32.0237L29.4019 30.9264L30.7375 29.5907L31.8348 27.9688L32.5981 26.1557L32.98 24.2L33.0274 23.1504L32.98 22.1486L32.5981 20.1925L31.8348 18.3798L30.7375 16.7575L29.4019 15.3741L27.7799 14.3246L25.9669 13.5614L24.0111 13.132L22.9616 13.0842L21.9598 13.132L19.9559 13.5614L18.1432 14.3246L16.5687 15.3741L15.1853 16.7575L14.088 18.3798L13.3248 20.1925L12.9431 22.1486L12.8954 23.1504Z" stroke="#6161FF" stroke-width="4" stroke-miterlimit="10" stroke-linecap="round" stroke-linejoin="round"/>
<path d="M14.5673 28.732L22.9637 23.1504V13.0842" stroke="#6161FF" stroke-width="4" stroke-miterlimit="10" stroke-linecap="round" stroke-linejoin="round"/>
</svg>
