<svg width="60" height="60" viewBox="0 0 60 60" fill="none" xmlns="http://www.w3.org/2000/svg">
<path fill-rule="evenodd" clip-rule="evenodd" d="M9.84879 17.4923H50.1426H51.1146L52.095 17.8163L53.715 18.7883L54.6955 20.4167L55.0195 21.3887V22.3692V47.7084V48.6804L54.6955 49.6609L53.715 51.2808L52.095 52.2613L51.1146 52.5853H50.1426H9.84879H8.87683L7.90488 52.2613L6.2764 51.2808L5.30444 49.6609L4.98047 48.6804V47.7084V22.3692V21.3887L5.30444 20.4167L6.2764 18.7883L7.90488 17.8163L8.87683 17.4923H9.84879Z" stroke="#6161FF" stroke-width="4" stroke-miterlimit="10" stroke-linecap="round" stroke-linejoin="round"/>
<path d="M40.0756 52.5854V12.2915L39.7516 11.3196V10.3391L38.4471 9.04315L36.8272 7.74719L35.8467 7.41467H34.8748H24.797H23.8251L22.8531 7.74719L21.5486 9.04315L20.2527 10.3391L19.9287 11.3196V12.2915V52.5854" stroke="#6161FF" stroke-width="4" stroke-miterlimit="10" stroke-linecap="round" stroke-linejoin="round"/>
</svg>
