<svg width="60" height="60" viewBox="0 0 60 60" fill="none" xmlns="http://www.w3.org/2000/svg">
<path fill-rule="evenodd" clip-rule="evenodd" d="M46.798 38.2734L54.1924 30.8791L54.6219 30.3541L55.0989 29.1138V27.8257L54.6219 26.6331L54.1924 26.1084L49.4695 21.3853L48.9925 22.3871L47.7043 24.0568L46.1302 25.3449L44.3173 26.1559L42.3613 26.5375L40.3577 26.4423L38.4017 25.8699L36.6367 24.8203L35.8254 24.0568L35.0622 23.2458L34.0126 21.4808L33.4402 19.5248L33.3447 17.5212L33.7266 15.5651L34.5375 13.7524L35.8254 12.1779L37.4952 10.89L38.4971 10.4129L33.7741 5.69003L33.2494 5.26067L32.0568 4.78352H30.7687L29.5284 5.26067L29.0035 5.69003L21.6091 13.0844L21.5613 11.7488L20.798 9.31557L19.3669 7.312L17.5062 5.88084L15.3117 4.97432L12.9741 4.68799L10.5889 5.06985L8.34674 6.26245L7.29718 7.16898L6.39069 8.21852L5.19806 10.4607L4.81622 12.8458L5.1026 15.1835L6.00909 17.3779L7.44025 19.2387L9.44379 20.6699L11.877 21.4331L13.2126 21.4808L5.8183 28.8752L5.38885 29.4001L4.91168 30.6405V31.9286L5.38885 33.1212L5.8183 33.6458L10.5411 38.369L11.0182 37.3669L12.3061 35.6972L13.8806 34.4093L15.6933 33.5981L17.6495 33.2165L19.653 33.312L21.6091 33.8844L23.3741 34.934L24.185 35.6972L24.9485 36.5084L25.9981 38.2734L26.5705 40.2295L26.6657 42.2331L26.2841 44.1891L25.4732 46.0019L24.185 47.5761L22.5153 48.8642L21.5135 49.3414L26.2366 54.0642L26.7613 54.4936L27.9539 54.9707H29.242L30.4824 54.4936L31.0073 54.0642L38.4017 46.6699L38.4494 48.0055L39.2126 50.4387L40.6437 52.4423L42.5043 53.8734L44.6989 54.78L47.0367 55.066L49.4218 54.6844L51.664 53.4918L52.7136 52.5853L53.6201 51.5358L54.8127 49.2936L55.1943 46.9084L54.9081 44.5708L54.0016 42.3761L52.5705 40.5156L50.567 39.0844L48.1337 38.3212L46.798 38.2734Z" stroke="#6161FF" stroke-width="4" stroke-miterlimit="10" stroke-linecap="round" stroke-linejoin="round"/>
</svg>
