<svg width="60" height="60" viewBox="0 0 60 60" fill="none" xmlns="http://www.w3.org/2000/svg">
<path d="M28.9594 40.6007L28.9594 39.6007" stroke="#6161FF" stroke-width="4" stroke-miterlimit="10" stroke-linecap="round" stroke-linejoin="round"/>
<path fill-rule="evenodd" clip-rule="evenodd" d="M30 4.81848L32.6004 5.14252L35.2008 5.46649L37.4773 6.11444L39.7452 6.76245L42.0216 8.06689L43.9741 9.03888L45.918 10.6588L47.8704 12.2873L49.4989 13.9157L50.7949 15.8597L52.0908 18.1361L53.0713 20.0886L54.0433 22.3564L54.6912 24.9569L55.0152 27.5573V29.8337V32.4341L54.6912 35.0346L54.0433 37.311L53.0713 39.903L52.0908 41.8554L50.7949 44.1318L49.4989 46.0757L47.8704 47.7042L45.918 49.3327L43.9741 50.9526L42.0216 51.9246L39.7452 53.2291L37.4773 53.877L35.2008 54.525L32.6004 54.849L30 55.1815L27.3995 54.849L25.1231 54.525L22.5227 53.877L20.2548 53.2291L17.9783 51.9246L16.0259 50.9526L14.082 49.3327L12.4535 47.7042L10.825 46.0757L9.20508 44.1318L7.90918 41.8554L6.92865 39.903L5.95673 37.311L5.63269 35.0346L4.98474 32.4341V29.8337V27.5573L5.63269 24.9569L5.95673 22.3564L6.92865 20.0886L7.90918 18.1361L9.20508 15.8597L10.825 13.9157L12.4535 12.2873L14.082 10.6588L16.0259 9.03888L17.9783 8.06689L20.2548 6.76245L22.5227 6.11444L25.1231 5.46649L27.3995 5.14252L30 4.81848Z" stroke="#6161FF" stroke-width="4" stroke-miterlimit="10" stroke-linecap="round" stroke-linejoin="round"/>
<path d="M22.8553 22.3568L23.5033 21.0608L24.1512 19.7649L25.4472 18.7844L26.7517 18.1364L28.0477 17.8124L29.3521 17.4884H30.972L32.2766 17.8124L34.553 19.1083L36.1729 20.7368L37.1449 22.6893L37.4774 24.9572L37.1449 26.5856L36.1729 28.2056L34.877 29.5101L33.5725 30.4821L30.972 32.1105L30.0001 32.4344" stroke="#6161FF" stroke-width="4" stroke-miterlimit="10" stroke-linecap="round" stroke-linejoin="round"/>
</svg>
