<svg width="160" height="120" viewBox="0 0 160 120" fill="none" xmlns="http://www.w3.org/2000/svg">
<path d="M70.3034 28.085C57.6978 30.9978 46.5813 38.3779 38.9997 48.8486C57.1282 50.5291 71.321 65.7793 71.321 84.3467C71.321 104.038 55.3586 120 35.6677 120C15.9766 120 0.0134562 104.038 0.0134005 84.3467C0.0134005 83.8695 0.0250999 83.3945 0.043674 82.9219C-0.541268 64.9693 4.76146 47.2517 15.2351 32.5205C26.9063 16.1049 44.1895 4.53575 63.8142 0.000976562L70.3034 28.085Z" fill="currentColor"/>
<path d="M158.695 28.084C146.089 30.9969 134.972 38.3774 127.391 48.8486C145.52 50.5283 159.714 65.7788 159.714 84.3467C159.714 104.038 143.751 120.001 124.06 120.001C104.369 120.001 88.4062 104.038 88.4062 84.3467C88.4062 83.8714 88.4181 83.3985 88.4365 82.9277C87.85 64.9728 93.1519 47.2526 103.627 32.5195C115.298 16.104 132.581 4.53483 152.205 0L158.695 28.084Z" fill="currentColor"/>
</svg>
