<svg width="60" height="60" viewBox="0 0 60 60" fill="none" xmlns="http://www.w3.org/2000/svg">
<path fill-rule="evenodd" clip-rule="evenodd" d="M48.1596 34.7191L46.7949 36.037L43.7357 38.0136L40.4883 39.3315L37.0056 40.0373H33.5228L30.0872 39.3315L26.7927 38.0136L23.7804 36.037L22.4156 34.7191L21.1448 33.3543L19.1211 30.342L17.8032 27.0478L17.1445 23.6119V20.1292L17.8032 16.6935L19.1211 13.399L21.1448 10.387L22.4156 9.02197L48.1596 34.7191Z" stroke="#6161FF" stroke-width="4" stroke-miterlimit="10" stroke-linecap="round" stroke-linejoin="round"/>
<path fill-rule="evenodd" clip-rule="evenodd" d="M49.3366 14.8581L48.7248 15.3757L47.3597 16.0818L45.9478 16.3171L44.5831 16.176L43.2651 15.6111L42.1829 14.7639L41.3357 13.5873L40.9121 12.1754L40.865 11.3282L40.9121 10.5282L41.3357 9.11627L42.1829 7.93976L43.2651 7.04544L44.5831 6.52786L45.9478 6.33936L47.3597 6.57471L48.7248 7.28079L49.3366 7.84549L49.9953 8.59845L50.7014 10.3871V12.3165L49.9953 14.1052L49.3366 14.8581Z" stroke="#6161FF" stroke-width="4" stroke-miterlimit="10" stroke-linecap="round" stroke-linejoin="round"/>
<path d="M42.3237 14.8579L35.2639 21.8705" stroke="#6161FF" stroke-width="4" stroke-miterlimit="10" stroke-linecap="round" stroke-linejoin="round"/>
<path d="M9.37939 52.7444L18.7453 43.3787L19.2629 42.9551L20.4397 42.4844H21.7102L22.887 42.9551L23.4046 43.3787L32.7703 52.7444" stroke="#6161FF" stroke-width="4" stroke-miterlimit="10" stroke-linecap="round" stroke-linejoin="round"/>
</svg>
