<svg width="60" height="60" viewBox="0 0 60 60" fill="none" xmlns="http://www.w3.org/2000/svg">
<g clip-path="url(#clip0_1_1798)">
<path d="M40.0729 32.6003V52.7473" stroke="#6161FF" stroke-width="4" stroke-miterlimit="10" stroke-linecap="round" stroke-linejoin="round"/>
<path d="M19.925 32.6003V52.7473" stroke="#6161FF" stroke-width="4" stroke-miterlimit="10" stroke-linecap="round" stroke-linejoin="round"/>
<path d="M30.0021 37.8015V57.6159" stroke="#6161FF" stroke-width="4" stroke-miterlimit="10" stroke-linecap="round" stroke-linejoin="round"/>
<path d="M50.1426 41.6974L51.7711 40.7254L53.0671 39.7449L54.3715 38.449L55.3434 37.1445L56.3239 35.8485L56.972 34.2201L57.296 32.6001L57.6199 30.9717V29.3517L57.296 27.3993L56.648 25.7794L55.9915 24.1509L55.0195 22.5224L53.7236 20.9025L52.095 19.598L50.1426 18.3021L48.8467 17.6541H47.5507H41.702L41.0453 15.0536L39.7495 12.7772L38.445 10.5008L36.825 8.55685L34.8726 6.92841L32.5961 5.30847L30.3282 4.32797L28.0518 3.35602L25.4514 2.70804L22.851 2.38403L20.2505 2.70804L17.6501 3.03201L15.0582 4.004L12.4578 4.98447L9.85736 6.6044L7.58087 8.88086L5.95245 10.5008L4.98053 12.4532L4.00848 14.4057L2.70404 18.3021L2.38007 22.1984L2.70404 25.7794L3.68451 29.3517L4.98053 32.9241L7.2569 35.8485L9.85736 38.449" stroke="#6161FF" stroke-width="4" stroke-miterlimit="10" stroke-linecap="round" stroke-linejoin="round"/>
</g>
<defs>
<clipPath id="clip0_1_1798">
<rect width="60" height="60" fill="white"/>
</clipPath>
</defs>
</svg>
