<svg width="60" height="60" viewBox="0 0 60 60" fill="none" xmlns="http://www.w3.org/2000/svg">
<path d="M54.8497 5.19702V21.7167H38.33" stroke="#6161FF" stroke-width="4" stroke-miterlimit="10" stroke-linecap="round" stroke-linejoin="round"/>
<path d="M30.0471 54.8029L28.1647 54.7558L24.5877 54.285L21.2462 53.2968L18.187 51.8849L15.3632 50.0962L12.8216 47.9785L10.6568 45.5312L8.77411 42.8485L7.26801 39.9305L6.13861 36.8713L5.43256 33.6708L5.15033 30.3766L5.33856 27.082L5.95038 23.7404L7.07977 20.4459L8.72699 17.2457L9.76239 15.6924L10.8922 14.1862L13.3394 11.5507L16.0693 9.38586L19.0341 7.69147L22.0933 6.42065L25.2938 5.57349L28.5412 5.19702L31.8358 5.24414L35.0359 5.66772L38.1894 6.51495L41.2485 7.78571L44.0723 9.4798L46.7078 11.5038L49.0612 13.9511L51.0849 16.7749L52.7794 19.9752L53.438 21.7167" stroke="#6161FF" stroke-width="4" stroke-miterlimit="10" stroke-linecap="round" stroke-linejoin="round"/>
</svg>
