<svg width="60" height="60" viewBox="0 0 60 60" fill="none" xmlns="http://www.w3.org/2000/svg">
<path fill-rule="evenodd" clip-rule="evenodd" d="M30.0043 4.81421H32.6047L35.2051 5.4707L37.4731 6.11871L39.7495 6.76666L42.0259 7.73865L43.9783 9.04309L45.9223 10.663L47.8747 12.2915L49.4947 13.92L50.7991 15.8639L52.0952 17.8163L53.0756 20.0928L54.0475 22.3607L54.6955 24.9611L55.0195 27.2375V29.838V32.4384L54.6955 35.0388L54.0475 37.3068L53.0756 39.5832L52.0952 41.8596L50.7991 44.136L49.4947 45.756L47.8747 47.7084L45.9223 49.3369L43.9783 50.6329L42.0259 51.9288L39.7495 53.2333L37.4731 53.8813L35.2051 54.5292L32.6047 54.8532L30.0043 55.1857L27.4039 54.8532L24.8034 54.5292L22.527 53.8813L20.2505 53.2333L17.9826 51.9288L16.0302 50.6329L14.0777 49.3369L12.1339 47.7084L10.5053 45.756L9.20941 44.136L7.90497 41.8596L6.93292 39.5832L5.961 37.3068L5.3045 35.0388L4.98053 32.4384V29.838V27.2375L5.3045 24.9611L5.961 22.3607L6.93292 20.0928L7.90497 17.8163L9.20941 15.8639L10.5053 13.92L12.1339 12.2915L14.0777 10.663L16.0302 9.04309L17.9826 7.73865L20.2505 6.76666L22.527 6.11871L24.8034 5.4707L27.4039 4.81421H30.0043Z" stroke="#6161FF" stroke-width="4" stroke-miterlimit="10" stroke-linecap="round" stroke-linejoin="round"/>
<path d="M40.0756 39.9072L39.4277 39.2592L37.4753 37.6393L35.8553 36.6588L34.2269 35.6868L32.2829 35.0388H30.0065H27.73L25.7776 35.6868L24.1577 36.6588L22.5292 37.6393L20.5853 39.2592L19.9288 39.9072" stroke="#6161FF" stroke-width="4" stroke-miterlimit="10" stroke-linecap="round" stroke-linejoin="round"/>
</svg>
