<svg width="60" height="60" viewBox="0 0 60 60" fill="none" xmlns="http://www.w3.org/2000/svg">
<path d="M29.5195 53.7303V13.5137" stroke="#6161FF" stroke-width="4" stroke-miterlimit="10" stroke-linecap="round" stroke-linejoin="round"/>
<path d="M19.4534 53.7305H39.5854" stroke="#6161FF" stroke-width="4" stroke-miterlimit="10" stroke-linecap="round" stroke-linejoin="round"/>
<path d="M32.8594 10.1265H44.5953" stroke="#6161FF" stroke-width="4" stroke-miterlimit="10" stroke-linecap="round" stroke-linejoin="round"/>
<path d="M14.4438 10.1265H26.1795" stroke="#6161FF" stroke-width="4" stroke-miterlimit="10" stroke-linecap="round" stroke-linejoin="round"/>
<path fill-rule="evenodd" clip-rule="evenodd" d="M26.1797 10.1266L26.2274 10.8423L26.7046 12.0349L27.6111 12.9414L28.8515 13.466L29.5191 13.5138L30.1871 13.466L31.4275 12.9414L32.334 12.0349L32.8111 10.8423L32.8586 10.1266L32.8111 9.45862L32.334 8.26605L31.4275 7.3595L30.1871 6.83484L29.5191 6.78711L28.8515 6.83484L27.6111 7.3595L26.7046 8.26605L26.2274 9.45862L26.1797 10.1266Z" stroke="#6161FF" stroke-width="4" stroke-miterlimit="10" stroke-linecap="round" stroke-linejoin="round"/>
<path fill-rule="evenodd" clip-rule="evenodd" d="M22.7917 33.5977V34.5042L22.4576 36.1262L21.7899 37.605L20.8834 38.941L19.7861 40.0858L18.4505 40.9923L16.9238 41.6602L15.3018 41.9941H14.4431H13.5843L11.9146 41.6602L10.4356 40.9923L9.10001 40.0858L7.95493 38.941L7.0484 37.605L6.38074 36.1262L6.04663 34.5042V33.5977H22.7917Z" stroke="#6161FF" stroke-width="4" stroke-miterlimit="10" stroke-linecap="round" stroke-linejoin="round"/>
<path d="M14.4431 10.1265L6.04663 26.919" stroke="#6161FF" stroke-width="4" stroke-miterlimit="10" stroke-linecap="round" stroke-linejoin="round"/>
<path d="M14.4438 10.1265L22.7925 26.919" stroke="#6161FF" stroke-width="4" stroke-miterlimit="10" stroke-linecap="round" stroke-linejoin="round"/>
<path fill-rule="evenodd" clip-rule="evenodd" d="M52.9907 33.5977V34.5042L52.6566 36.1262L51.9886 37.605L51.0824 38.941L49.9373 40.0858L48.6017 40.9923L47.1227 41.6602L45.453 41.9941H44.5943H43.7355L42.1136 41.6602L40.5869 40.9923L39.2512 40.0858L38.1539 38.941L37.2474 37.605L36.5794 36.1262L36.2456 34.5042V33.5977H52.9907Z" stroke="#6161FF" stroke-width="4" stroke-miterlimit="10" stroke-linecap="round" stroke-linejoin="round"/>
<path d="M44.5943 10.1265L36.2456 26.919" stroke="#6161FF" stroke-width="4" stroke-miterlimit="10" stroke-linecap="round" stroke-linejoin="round"/>
<path d="M44.5933 10.1265L52.9897 26.919" stroke="#6161FF" stroke-width="4" stroke-miterlimit="10" stroke-linecap="round" stroke-linejoin="round"/>
</svg>
