<svg width="60" height="60" viewBox="0 0 60 60" fill="none" xmlns="http://www.w3.org/2000/svg">
<path fill-rule="evenodd" clip-rule="evenodd" d="M16.0303 7.41467H17.6587L18.9546 8.07118L20.2506 8.71916L21.5551 9.69112L22.527 10.6631L23.175 11.9676L23.5076 13.2635L23.8315 14.892L23.5076 16.5119L23.175 17.8164L22.527 19.1123L21.5551 20.4168L20.2506 21.0648L18.9546 22.0367L17.6587 22.3607H16.0303H14.7343L13.1058 22.0367L11.8098 21.0648L10.8293 20.4168L9.85742 19.1123L9.20947 17.8164L8.8855 16.5119L8.55298 14.892L8.8855 13.2635L9.20947 11.9676L9.85742 10.6631L10.8293 9.69112L11.8098 8.71916L13.1058 8.07118L14.7343 7.41467H16.0303Z" stroke="#6161FF" stroke-width="4" stroke-miterlimit="10" stroke-linecap="round" stroke-linejoin="round"/>
<path fill-rule="evenodd" clip-rule="evenodd" d="M16.0303 37.6393H17.6587L18.9546 38.2872L20.2506 38.9352L21.5551 39.5832L22.527 40.8877L23.175 42.1836L23.5076 43.4881L23.8315 45.108L23.5076 46.7365L23.175 48.0325L22.527 49.3369L21.5551 50.3089L20.2506 51.2809L18.9546 51.9288L17.6587 52.5853H16.0303H14.7343L13.1058 51.9288L11.8098 51.2809L10.8293 50.3089L9.85742 49.3369L9.20947 48.0325L8.8855 46.7365L8.55298 45.108L8.8855 43.4881L9.20947 42.1836L9.85742 40.8877L10.8293 39.5832L11.8098 38.9352L13.1058 38.2872L14.7343 37.6393H16.0303Z" stroke="#6161FF" stroke-width="4" stroke-miterlimit="10" stroke-linecap="round" stroke-linejoin="round"/>
<path d="M51.4465 10.0153L21.5544 39.9074" stroke="#6161FF" stroke-width="4" stroke-miterlimit="10" stroke-linecap="round" stroke-linejoin="round"/>
<path d="M37.4729 36.3346L51.447 49.9847" stroke="#6161FF" stroke-width="4" stroke-miterlimit="10" stroke-linecap="round" stroke-linejoin="round"/>
<path d="M21.5544 20.4171L31.2997 30.1623" stroke="#6161FF" stroke-width="4" stroke-miterlimit="10" stroke-linecap="round" stroke-linejoin="round"/>
</svg>
