<svg width="60" height="60" viewBox="0 0 60 60" fill="none" xmlns="http://www.w3.org/2000/svg">
<g clip-path="url(#clip0_1_1096)">
<path d="M54.1484 17.3904V13.6977L54.0956 12.9062L53.5152 11.5875L52.5131 10.5851L51.1941 10.005L50.4558 9.95215H5.93268L5.19409 10.005L3.82251 10.5851L2.82043 11.5875L2.29285 12.9062L2.23999 13.6977V28.5209L2.29285 29.2595L2.82043 30.5782L3.82251 31.5806L5.19409 32.161L5.93268 32.2136H18.9099" stroke="#6161FF" stroke-width="4" stroke-miterlimit="10" stroke-linecap="round" stroke-linejoin="round"/>
<path d="M19.8596 23.8791L19.4374 23.8262L18.9629 23.2986V22.6129L19.4374 22.0852L19.8596 22.0327" stroke="#6161FF" stroke-width="4" stroke-miterlimit="1747.71"/>
<path d="M19.8594 23.8791L20.2814 23.8262L20.7033 23.2986V22.6129L20.2814 22.0852L19.8594 22.0327" stroke="#6161FF" stroke-width="4" stroke-miterlimit="1747.71"/>
<path d="M10.5743 23.8791L10.1523 23.8262L9.67749 23.2986V22.6129L10.1523 22.0852L10.5743 22.0327" stroke="#6161FF" stroke-width="4" stroke-miterlimit="1747.71"/>
<path d="M10.5737 23.8791L10.9957 23.8262L11.4705 23.2986V22.6129L10.9957 22.0852L10.5737 22.0327" stroke="#6161FF" stroke-width="4" stroke-miterlimit="1747.71"/>
<path fill-rule="evenodd" clip-rule="evenodd" d="M39.3251 45.1909L40.6439 45.1381L43.176 44.6633L45.4971 43.6612L47.6072 42.2368L49.3479 40.4958L50.7723 38.4385L51.7219 36.0648L52.2495 33.5327L52.3023 32.2137L52.2495 30.895L51.7219 28.3629L50.7723 26.0417L49.3479 23.9316L47.6072 22.1909L45.4971 20.7665L43.176 19.817L40.6439 19.2896L39.3251 19.2368L37.9536 19.2896L35.4214 19.817L33.1003 20.7665L31.043 22.1909L29.3023 23.9316L27.8779 26.0417L26.8755 28.3629L26.4008 30.895L26.3479 32.2137L26.4008 33.5327L26.8755 36.0648L27.8779 38.4385L29.3023 40.4958L31.043 42.2368L33.1003 43.6612L35.4214 44.6633L37.9536 45.1381L39.3251 45.1909Z" stroke="#6161FF" stroke-width="4" stroke-miterlimit="10" stroke-linecap="round" stroke-linejoin="round"/>
<path d="M57.8408 50.7827L48.5034 41.3926" stroke="#6161FF" stroke-width="4" stroke-miterlimit="10" stroke-linecap="round" stroke-linejoin="round"/>
</g>
<defs>
<clipPath id="clip0_1_1096">
<rect width="60" height="60" fill="white"/>
</clipPath>
</defs>
</svg>
