<svg width="60" height="60" viewBox="0 0 60 60" fill="none" xmlns="http://www.w3.org/2000/svg">
<path d="M40.0641 52.0106H50.9598C52.8651 52.0106 54.3798 50.496 54.3798 48.5904V10.7737C54.3798 8.86804 52.8651 7.35352 50.9598 7.35352H9.72266C7.81726 7.35352 6.30273 8.86804 6.30273 10.7737V48.5904C6.30273 50.496 7.81726 52.0106 9.72266 52.0106H20.6183" stroke="#6161FF" stroke-width="4" stroke-miterlimit="10" stroke-linecap="round" stroke-linejoin="round"/>
<path d="M6.30273 15.9526H54.3798" stroke="#6161FF" stroke-width="4" stroke-miterlimit="10" stroke-linecap="round" stroke-linejoin="round"/>
<path fill-rule="evenodd" clip-rule="evenodd" d="M21.7422 35.8873C21.7422 40.6267 25.6021 44.4377 30.3412 44.4377C35.0806 44.4377 38.9404 40.6267 38.9404 35.8873C38.9404 31.0991 35.0806 27.2881 30.3412 27.2881C25.6021 27.2881 21.7422 31.0991 21.7422 35.8873Z" stroke="#6161FF" stroke-width="4" stroke-miterlimit="10" stroke-linecap="round" stroke-linejoin="round"/>
<path d="M30.3418 27.2879V23.135" stroke="#6161FF" stroke-width="4" stroke-miterlimit="10" stroke-linecap="round" stroke-linejoin="round"/>
<path d="M30.3418 48.5904V44.4375" stroke="#6161FF" stroke-width="4" stroke-miterlimit="10" stroke-linecap="round" stroke-linejoin="round"/>
<path d="M38.9414 35.8872H43.0457" stroke="#6161FF" stroke-width="4" stroke-miterlimit="10" stroke-linecap="round" stroke-linejoin="round"/>
<path d="M17.6387 35.8872H21.7429" stroke="#6161FF" stroke-width="4" stroke-miterlimit="10" stroke-linecap="round" stroke-linejoin="round"/>
<path d="M22.2305 26.7993L24.771 29.3401" stroke="#6161FF" stroke-width="4" stroke-miterlimit="10" stroke-linecap="round" stroke-linejoin="round"/>
<path d="M38.453 26.7993L35.9126 29.3401" stroke="#6161FF" stroke-width="4" stroke-miterlimit="10" stroke-linecap="round" stroke-linejoin="round"/>
<path d="M22.2305 44.9263L24.771 42.3855" stroke="#6161FF" stroke-width="4" stroke-miterlimit="10" stroke-linecap="round" stroke-linejoin="round"/>
<path d="M38.453 44.9263L35.9126 42.3855" stroke="#6161FF" stroke-width="4" stroke-miterlimit="10" stroke-linecap="round" stroke-linejoin="round"/>
<path fill-rule="evenodd" clip-rule="evenodd" d="M30.3408 34.2749C31.8557 34.2749 32.6372 36.1316 31.5624 37.2064C30.4875 38.2813 28.6309 37.4997 28.6309 35.9849C28.6309 35.0568 29.4127 34.2749 30.3408 34.2749Z" stroke="#6161FF" stroke-width="4" stroke-miterlimit="10" stroke-linecap="round" stroke-linejoin="round"/>
</svg>
