<svg width="60" height="60" viewBox="0 0 60 60" fill="none" xmlns="http://www.w3.org/2000/svg">
<path fill-rule="evenodd" clip-rule="evenodd" d="M45.1041 4.81836L46.7325 5.15088L48.0285 5.47485L49.333 6.12283L50.629 7.0948L51.2769 8.07529L52.2574 9.37123L52.5814 10.9997V12.2957V13.9241L52.2574 15.2201L51.2769 16.516L50.629 17.8205L49.333 18.7924L48.0285 19.4404L46.7325 19.7729L45.1041 20.0969L43.8082 19.7729L42.1797 19.4404L40.8837 18.7924L39.9118 17.8205L38.9313 16.516L38.2833 15.2201L37.9594 13.9241L37.6354 12.2957L37.9594 10.9997L38.2833 9.37123L38.9313 8.07529L39.9118 7.0948L40.8837 6.12283L42.1797 5.47485L43.8082 5.15088L45.1041 4.81836Z" stroke="#6161FF" stroke-width="4" stroke-miterlimit="10" stroke-linecap="round" stroke-linejoin="round"/>
<path fill-rule="evenodd" clip-rule="evenodd" d="M15.2114 22.3647L16.5158 22.6887L18.1357 23.0212L19.1077 23.6692L20.4122 24.6412L21.3842 25.6131L22.0321 26.9176L22.3646 28.5376L22.6886 29.842L22.3646 31.462L22.0321 32.7664L21.3842 34.0624L20.4122 35.3669L19.1077 36.3388L18.1357 36.9868L16.5158 37.3108L15.2114 37.6433L13.5914 37.3108L12.2869 36.9868L10.991 36.3388L9.68652 35.3669L8.71454 34.0624L8.06659 32.7664L7.74255 31.462L7.41858 29.842L7.74255 28.5376L8.06659 26.9176L8.71454 25.6131L9.68652 24.6412L10.991 23.6692L12.2869 23.0212L13.5914 22.6887L15.2114 22.3647Z" stroke="#6161FF" stroke-width="4" stroke-miterlimit="10" stroke-linecap="round" stroke-linejoin="round"/>
<path fill-rule="evenodd" clip-rule="evenodd" d="M45.1041 39.9116L46.7325 40.2356L48.0285 40.5681L49.333 41.2161L50.629 42.188L51.2769 43.4925L52.2574 44.4645L52.5814 46.0844V47.7129V49.0088L52.2574 50.6373L51.2769 51.6093L50.629 52.9137L49.333 53.8857L48.0285 54.5337L46.7325 54.8577L45.1041 55.1817L43.8082 54.8577L42.1797 54.5337L40.8837 53.8857L39.9118 52.9137L38.9313 51.6093L38.2833 50.6373L37.9594 49.0088L37.6354 47.7129L37.9594 46.0844L38.2833 44.4645L38.9313 43.4925L39.9118 42.188L40.8837 41.2161L42.1797 40.5681L43.8082 40.2356L45.1041 39.9116Z" stroke="#6161FF" stroke-width="4" stroke-miterlimit="10" stroke-linecap="round" stroke-linejoin="round"/>
<path d="M21.7076 33.7388L38.6061 43.8165" stroke="#6161FF" stroke-width="4" stroke-miterlimit="10" stroke-linecap="round" stroke-linejoin="round"/>
<path d="M38.6061 16.1924L21.7076 26.2701" stroke="#6161FF" stroke-width="4" stroke-miterlimit="10" stroke-linecap="round" stroke-linejoin="round"/>
</svg>
