<svg width="60" height="60" viewBox="0 0 60 60" fill="none" xmlns="http://www.w3.org/2000/svg">
<g clip-path="url(#clip0_1_567)">
<path fill-rule="evenodd" clip-rule="evenodd" d="M22.0374 51.6047H23.0179L23.9898 52.2527L24.6378 53.2332V54.2052V55.1771L23.9898 55.8336L23.0179 56.4816H22.0374H21.0654L20.4174 55.8336L19.7695 55.1771V54.2052V53.2332L20.4174 52.2527L21.0654 51.6047H22.0374Z" stroke="#6161FF" stroke-width="4" stroke-miterlimit="10" stroke-linecap="round" stroke-linejoin="round"/>
<path fill-rule="evenodd" clip-rule="evenodd" d="M49.6606 51.6047H50.6326L51.6046 52.2527L52.2611 53.2332V54.2052V55.1771L51.6046 55.8336L50.6326 56.4816H49.6606H48.6801L48.0322 55.8336L47.3842 55.1771V54.2052V53.2332L48.0322 52.2527L48.6801 51.6047H49.6606Z" stroke="#6161FF" stroke-width="4" stroke-miterlimit="10" stroke-linecap="round" stroke-linejoin="round"/>
<path d="M2.54633 3.51831H12.2915L18.7883 36.9828L19.4363 38.6113L20.7408 39.9072L22.0367 40.8877L23.9892 41.2117H48.3564L49.9849 40.8877L51.6048 39.9072L52.5853 38.6113L53.2333 36.9828L57.4537 15.8639H14.8919" stroke="#6161FF" stroke-width="4" stroke-miterlimit="10" stroke-linecap="round" stroke-linejoin="round"/>
</g>
<defs>
<clipPath id="clip0_1_567">
<rect width="60" height="60" fill="white"/>
</clipPath>
</defs>
</svg>
