<svg width="60" height="60" viewBox="0 0 60 60" fill="none" xmlns="http://www.w3.org/2000/svg">
<path fill-rule="evenodd" clip-rule="evenodd" d="M15.5044 4.81848L7.70312 14.8962V49.9891L8.02711 50.9611L8.35963 51.933L9.33159 53.5615L10.9515 54.5335L11.932 54.8575L12.904 55.1815H47.9969L48.9689 54.8575L49.9494 54.5335L51.5693 53.5615L52.5498 51.933L52.8738 50.9611V49.9891V14.8962L45.3965 4.81848H15.5044Z" stroke="#6161FF" stroke-width="4" stroke-miterlimit="10" stroke-linecap="round" stroke-linejoin="round"/>
<path d="M7.70312 14.8961H52.8738" stroke="#6161FF" stroke-width="4" stroke-miterlimit="10" stroke-linecap="round" stroke-linejoin="round"/>
<path d="M40.5192 25.2892L40.1952 27.5656L39.5473 29.1941L38.8993 31.138L37.5948 32.4425L35.9749 33.7384L34.3464 34.7189L32.4025 35.3669H30.45H28.4976L26.5537 34.7189L24.9252 33.7384L23.3053 32.4425L22.0008 31.138L21.0288 29.1941L20.7048 27.5656L20.3809 25.2892" stroke="#6161FF" stroke-width="4" stroke-miterlimit="10" stroke-linecap="round" stroke-linejoin="round"/>
</svg>
