<svg width="60" height="60" viewBox="0 0 60 60" fill="none" xmlns="http://www.w3.org/2000/svg">
<path d="M34.2721 49.0689L33.4612 50.7864L31.5054 54.0306L30.3125 55.5095L29.0721 53.9828L27.0686 50.6433L26.2576 48.8306" stroke="#6161FF" stroke-width="4" stroke-miterlimit="10" stroke-linecap="round" stroke-linejoin="round"/>
<path d="M30.3123 9.32999V5.22705" stroke="#6161FF" stroke-width="4" stroke-miterlimit="10" stroke-linecap="round" stroke-linejoin="round"/>
<path fill-rule="evenodd" clip-rule="evenodd" d="M23.3475 31.9424L21.1053 32.9919L20.5327 33.278L19.6265 34.0415L18.9585 35.0432L18.5769 36.1881L18.5291 36.8083V42.867L18.5769 43.1534L18.8629 43.6305L19.1493 43.7735L19.4357 43.9166H20.0558L20.3419 43.7735L25.6375 40.5771H34.9879L40.2356 43.7735L40.5217 43.9166H41.1897L41.476 43.7735L41.7621 43.6305L42.0962 43.1056L42.1439 42.8195V36.8083L42.0962 36.1881L41.7146 35.0432L41.0466 34.0415L40.1401 33.278L39.5676 32.9919L37.3256 31.9424L40.1401 21.0652L40.3309 20.2065L40.2831 18.3937L39.7107 16.724L38.6134 15.245L37.8979 14.6726L30.3125 9.32959L22.8226 14.7204L22.1072 15.2928L21.0098 16.724L20.3896 18.3937L20.2944 20.1587L20.4852 21.0652L23.3475 31.9424Z" stroke="#6161FF" stroke-width="4" stroke-miterlimit="10" stroke-linecap="round" stroke-linejoin="round"/>
<path fill-rule="evenodd" clip-rule="evenodd" d="M26.9724 21.447L27.0201 22.115L27.4973 23.3075L28.4038 24.2141L29.6442 24.7387L30.3119 24.7865L30.9799 24.7387L32.2202 24.2141L33.1267 23.3075L33.6039 22.115L33.6514 21.447L33.6039 20.7316L33.1267 19.5387L32.2202 18.6324L30.9799 18.1075L30.3119 18.0601L29.6442 18.1075L28.4038 18.6324L27.4973 19.5387L27.0201 20.7316L26.9724 21.447Z" stroke="#6161FF" stroke-width="4" stroke-miterlimit="10" stroke-linecap="round" stroke-linejoin="round"/>
<path d="M54.9291 13.0508H51.0172L50.5879 13.0983L49.8722 13.4802L49.3475 14.1003L49.0134 14.8636V15.2929L49.0612 15.9131L49.6814 17.0104L50.254 17.3443L54.2134 18.7277L54.7861 19.0618L55.4062 20.1588L55.454 20.8268V21.2561L55.1677 22.0196L54.6428 22.592L53.8795 22.9736L53.4979 23.0689H48.7751" stroke="#6161FF" stroke-width="4" stroke-miterlimit="10" stroke-linecap="round" stroke-linejoin="round"/>
<path d="M52.113 13.051V10.8086" stroke="#6161FF" stroke-width="4" stroke-miterlimit="10" stroke-linecap="round" stroke-linejoin="round"/>
<path d="M52.113 25.3589V23.1167" stroke="#6161FF" stroke-width="4" stroke-miterlimit="10" stroke-linecap="round" stroke-linejoin="round"/>
<path d="M11.3259 7.46924H7.41382L6.98462 7.517L6.26892 7.89862L5.69653 8.5188L5.41016 9.28229V9.66388L5.45801 10.3318L6.07812 11.4289L6.65051 11.763L10.6102 13.1464L11.1826 13.4805L11.8027 14.5775L11.8506 15.2455V15.6749L11.5645 16.3906L10.9918 17.0108L10.2764 17.3924L9.89478 17.4876H5.17163" stroke="#6161FF" stroke-width="4" stroke-miterlimit="10" stroke-linecap="round" stroke-linejoin="round"/>
<path d="M8.50928 7.46918V5.22705" stroke="#6161FF" stroke-width="4" stroke-miterlimit="10" stroke-linecap="round" stroke-linejoin="round"/>
<path d="M8.50928 19.7297V17.4873" stroke="#6161FF" stroke-width="4" stroke-miterlimit="10" stroke-linecap="round" stroke-linejoin="round"/>
</svg>
