<svg width="60" height="60" viewBox="0 0 60 60" fill="none" xmlns="http://www.w3.org/2000/svg">
<path fill-rule="evenodd" clip-rule="evenodd" d="M27.3958 12.2915L15.0501 22.0367H4.98096V37.3067H15.0501L27.3958 47.3845V12.2915Z" stroke="#6161FF" stroke-width="4" stroke-miterlimit="10" stroke-linecap="round" stroke-linejoin="round"/>
<path d="M47.8657 12.2915L49.4942 14.2439L50.7902 16.1879L52.0946 18.1403L53.3906 20.4167L54.0386 22.6847L54.6865 25.2851L55.019 27.5615V29.838V32.4384L54.6865 34.7063L54.0386 36.9827L53.3906 39.2592L52.0946 41.5356L50.7902 43.812L49.4942 45.756L47.8657 47.7084" stroke="#6161FF" stroke-width="4" stroke-miterlimit="10" stroke-linecap="round" stroke-linejoin="round"/>
<path d="M38.7686 21.0647L40.397 23.0086L41.693 25.2851L42.3409 27.5615L42.6649 29.8379L42.3409 32.4384L41.693 34.7063L40.397 36.9827L38.7686 38.9351" stroke="#6161FF" stroke-width="4" stroke-miterlimit="10" stroke-linecap="round" stroke-linejoin="round"/>
</svg>
