<svg width="60" height="60" viewBox="0 0 60 60" fill="none" xmlns="http://www.w3.org/2000/svg">
<path fill-rule="evenodd" clip-rule="evenodd" d="M9.76221 29.9997L9.86694 32.0915L10.6511 36.0135L12.1678 39.6741L14.3641 42.864L17.1357 45.6356L20.3256 47.8318L23.9862 49.3486L27.9082 50.1328L29.9998 50.2375L32.0916 50.1328L36.0135 49.3486L39.6742 47.8318L42.8641 45.6356L45.6357 42.864L47.8319 39.6741L49.3486 36.0135L50.1328 32.0915L50.2375 29.9997L50.1328 27.9082L49.3486 23.9861L47.8319 20.3255L45.6357 17.1356L42.8641 14.364L39.6742 12.1678L36.0135 10.6511L32.0916 9.86682L29.9998 9.76215L27.9082 9.86682L23.9862 10.6511L20.3256 12.1678L17.1357 14.364L14.3641 17.1356L12.1678 20.3255L10.6511 23.9861L9.86694 27.9082L9.76221 29.9997Z" stroke="#6161FF" stroke-width="4" stroke-miterlimit="10" stroke-linecap="round" stroke-linejoin="round"/>
<path d="M25.4509 35.4386L25.8695 35.9613L26.8629 36.7458L28.0658 37.3209L29.3207 37.5825H30.0005L31.0465 37.5301L32.8245 36.955L34.2364 35.9089L34.9686 34.5493L35.073 33.8174L34.9686 33.0329L34.2364 31.6733L32.8245 30.6276L31.0465 30.0521L30.0005 29.9998L28.9547 29.9478L27.1768 29.3723L25.7648 28.3266L25.0326 26.967L24.9282 26.1824L25.0326 25.4503L25.7648 24.0906L27.1768 23.0449L28.9547 22.4695L30.0005 22.4174H30.6803L31.9354 22.6786L33.1383 23.2017L34.1317 24.0386L34.55 24.5613" stroke="#6161FF" stroke-width="4" stroke-miterlimit="10" stroke-linecap="round" stroke-linejoin="round"/>
<path d="M30.0012 37.5825V40.0925" stroke="#6161FF" stroke-width="4" stroke-miterlimit="10" stroke-linecap="round" stroke-linejoin="round"/>
<path d="M30.0012 19.9072V22.4172" stroke="#6161FF" stroke-width="4" stroke-miterlimit="10" stroke-linecap="round" stroke-linejoin="round"/>
<path d="M30.0012 4.27142V13.4752" stroke="#6161FF" stroke-width="4" stroke-miterlimit="10" stroke-linecap="round" stroke-linejoin="round"/>
<path d="M30.0012 46.5248V55.7286" stroke="#6161FF" stroke-width="4" stroke-miterlimit="10" stroke-linecap="round" stroke-linejoin="round"/>
<path d="M55.7279 29.9995H46.5242" stroke="#6161FF" stroke-width="4" stroke-miterlimit="10" stroke-linecap="round" stroke-linejoin="round"/>
<path d="M13.4757 29.9995H4.27197" stroke="#6161FF" stroke-width="4" stroke-miterlimit="10" stroke-linecap="round" stroke-linejoin="round"/>
</svg>
