<svg width="60" height="60" viewBox="0 0 60 60" fill="none" xmlns="http://www.w3.org/2000/svg">
<path fill-rule="evenodd" clip-rule="evenodd" d="M30.1662 4.81848L32.7666 5.14246L35.0431 5.46646L37.6435 6.11444L39.9114 6.76239L42.1879 8.06689L44.1403 9.03885L46.0842 10.6673L47.7127 12.2872L49.3326 13.9157L50.9611 15.8596L52.257 18.1361L53.2375 20.0885L53.8855 22.3564L54.5334 24.9568L55.1815 27.5573V29.8337V32.4341L54.5334 35.0346L53.8855 37.311L53.2375 39.9029L52.257 41.8553L50.9611 44.1318L49.3326 46.0757L47.7127 47.7042L46.0842 49.3327L44.1403 50.9526L42.1879 51.9245L39.9114 53.229L37.6435 53.877L35.0431 54.525L32.7666 54.849L30.1662 55.1815L27.5658 54.849L24.9653 54.525L22.6889 53.877L20.421 53.229L18.1446 51.9245L15.8681 50.9526L14.2482 49.3327L12.2957 47.7042L10.6673 46.0757L9.37134 44.1318L8.06683 41.8553L6.77094 39.9029L6.12292 37.311L5.47498 35.0346L5.15094 32.4341L4.81848 29.8337L5.15094 27.5573L5.47498 24.9568L6.12292 22.3564L6.77094 20.0885L8.06683 18.1361L9.37134 15.8596L10.6673 13.9157L12.2957 12.2872L14.2482 10.6673L15.8681 9.03885L18.1446 8.06689L20.421 6.76239L22.6889 6.11444L24.9653 5.46646L27.5658 5.14246L30.1662 4.81848Z" stroke="#6161FF" stroke-width="4" stroke-miterlimit="10" stroke-linecap="round" stroke-linejoin="round"/>
<path d="M55.1797 29.8336H45.1105" stroke="#6161FF" stroke-width="4" stroke-miterlimit="10" stroke-linecap="round" stroke-linejoin="round"/>
<path d="M14.8962 29.8336H4.81848" stroke="#6161FF" stroke-width="4" stroke-miterlimit="10" stroke-linecap="round" stroke-linejoin="round"/>
<path d="M30.1642 14.8877V4.81848" stroke="#6161FF" stroke-width="4" stroke-miterlimit="10" stroke-linecap="round" stroke-linejoin="round"/>
<path d="M30.1642 55.1814V45.1036" stroke="#6161FF" stroke-width="4" stroke-miterlimit="10" stroke-linecap="round" stroke-linejoin="round"/>
</svg>
