<svg width="60" height="60" viewBox="0 0 60 60" fill="none" xmlns="http://www.w3.org/2000/svg">
<path fill-rule="evenodd" clip-rule="evenodd" d="M53.2956 51.6789L53.2478 52.3466L52.7707 53.5869L51.8167 54.4935L50.6238 54.9706L49.9561 55.0184H9.69176L9.02381 54.9706L7.83122 54.4935L6.8772 53.5869L6.40006 52.3466L6.35229 51.6789V8.07506L6.40006 7.40712L6.8772 6.16676L7.83122 5.26051L9.02381 4.78337L9.69176 4.7356H43.2294H43.8974L45.09 5.26051L45.5671 5.68988L52.2935 12.1302L52.7229 12.6071L53.2478 13.8475L53.2956 14.5154V51.6789Z" stroke="#6161FF" stroke-width="4" stroke-miterlimit="10" stroke-linecap="round" stroke-linejoin="round"/>
<path d="M23.098 28.2071V14.8018" stroke="#6161FF" stroke-width="4" stroke-miterlimit="10" stroke-linecap="round" stroke-linejoin="round"/>
<path d="M16.4183 18.1412V14.8018H29.8237V18.1412" stroke="#6161FF" stroke-width="4" stroke-miterlimit="10" stroke-linecap="round" stroke-linejoin="round"/>
<path d="M38.2194 24.8201H43.2285" stroke="#6161FF" stroke-width="4" stroke-miterlimit="10" stroke-linecap="round" stroke-linejoin="round"/>
<path d="M38.2194 14.8018H43.2285" stroke="#6161FF" stroke-width="4" stroke-miterlimit="10" stroke-linecap="round" stroke-linejoin="round"/>
<path d="M16.4183 34.886H43.2293" stroke="#6161FF" stroke-width="4" stroke-miterlimit="10" stroke-linecap="round" stroke-linejoin="round"/>
<path d="M16.4183 44.9521H43.2293" stroke="#6161FF" stroke-width="4" stroke-miterlimit="10" stroke-linecap="round" stroke-linejoin="round"/>
<path d="M19.7582 28.207H26.4846" stroke="#6161FF" stroke-width="4" stroke-miterlimit="10" stroke-linecap="round" stroke-linejoin="round"/>
</svg>
