<svg width="60" height="60" viewBox="0 0 60 60" fill="none" xmlns="http://www.w3.org/2000/svg">
<path fill-rule="evenodd" clip-rule="evenodd" d="M8.14606 5.56445H51.163H51.5865L53.4221 6.31769L54.175 7.30597L54.4575 8.24716V8.85898V51.8759V52.2994L53.7042 54.1349L52.7159 54.8879L51.7748 55.1703H51.163H8.14606H7.72247L5.88696 54.4171L5.13403 53.4288L4.85156 52.4877V51.8759V8.85898V8.43539L5.6048 6.59988L6.59308 5.84695L7.53424 5.56445H8.14606Z" stroke="#6161FF" stroke-width="4" stroke-miterlimit="10" stroke-linecap="round" stroke-linejoin="round"/>
<path d="M31.8652 38.6509H44.5255" stroke="#6161FF" stroke-width="4" stroke-miterlimit="10" stroke-linecap="round" stroke-linejoin="round"/>
<path d="M14.7808 38.6509H20.8519" stroke="#6161FF" stroke-width="4" stroke-miterlimit="10" stroke-linecap="round" stroke-linejoin="round"/>
<path fill-rule="evenodd" clip-rule="evenodd" d="M31.8647 38.6505L31.8176 39.5448L31.2998 41.145L30.4058 42.4158L29.1821 43.4041L27.7231 44.0159L26.1698 44.2041L24.6168 43.9216L23.1107 43.1216L22.4517 42.5569L21.8398 41.8508L21.0869 40.392L20.8047 38.8387L20.9929 37.2858L21.5576 35.8267L22.546 34.6031L23.8638 33.6616L25.464 33.1912L26.358 33.144L27.4877 33.1912L29.4643 34.0381L30.9233 35.5443L31.7705 37.5211L31.8647 38.6505Z" stroke="#6161FF" stroke-width="4" stroke-miterlimit="10" stroke-linecap="round" stroke-linejoin="round"/>
<path d="M34.0771 22.084H14.7808" stroke="#6161FF" stroke-width="4" stroke-miterlimit="10" stroke-linecap="round" stroke-linejoin="round"/>
<path fill-rule="evenodd" clip-rule="evenodd" d="M45.0913 22.0844L45.0442 21.19L44.5266 19.5899L43.6323 18.3191L42.4086 17.3308L40.9496 16.719L39.3966 16.5308L37.8433 16.813L36.3375 17.6133L35.6785 18.178L35.0667 18.8838L34.3137 20.3429L34.0312 21.8961L34.2195 23.4491L34.8313 24.9081L35.7728 26.1318L37.0904 27.073L38.6906 27.5437L39.5848 27.5908L40.7142 27.5437L42.6911 26.6965L44.1973 25.1906L44.9973 23.2138L45.0913 22.0844Z" stroke="#6161FF" stroke-width="4" stroke-miterlimit="10" stroke-linecap="round" stroke-linejoin="round"/>
</svg>
