<svg width="60" height="60" viewBox="0 0 60 60" fill="none" xmlns="http://www.w3.org/2000/svg">
<path fill-rule="evenodd" clip-rule="evenodd" d="M24.2582 40.4482L40.4482 24.2582L41.2485 24.6349L42.8487 25.1053L44.4488 25.2936L45.955 25.1996L47.4608 24.9171L48.8727 24.3995L50.8025 23.317L52.8734 21.199L54.0027 19.2695L54.5206 17.9045L54.8031 16.3986L54.8499 14.8453L54.6617 13.2924L54.1912 11.6922L53.8145 10.8922L50.7083 14.0453L50.0964 14.5631L48.8259 15.0807L47.5551 14.9867L46.4254 14.4689L45.5314 13.5746L45.0135 12.4451L44.9196 11.1744L45.4371 9.90356L45.955 9.29175L49.1081 6.13861L48.308 5.80902L46.7079 5.33856L45.1078 5.15002L43.6016 5.19714L42.0955 5.47968L40.6836 5.99725L38.8013 7.12689L36.6833 9.19775L35.5536 11.1273L35.0831 12.5391L34.7535 14.0453L34.7064 15.5515L34.8949 17.1516L35.3654 18.7517L35.7418 19.5518L19.5518 35.7418L18.7517 35.3654L17.1516 34.8949L15.5515 34.7064L13.9982 34.8007L12.5391 35.0831L11.1273 35.6007L9.19775 36.6832L7.12695 38.8012L5.99725 40.7307L5.47968 42.0955L5.1972 43.6016L5.15009 45.1549L5.33856 46.7079L5.80902 48.308L6.13861 49.1081L9.29175 45.955L9.90356 45.4843L11.1744 45.0135L12.398 45.1078L13.4806 45.6725L14.3278 46.5197L14.8925 47.6022L14.9868 48.8259L14.516 50.0964L14.0453 50.7082L10.8922 53.8616L11.6922 54.1912L13.2924 54.6617L14.8453 54.8499L16.3986 54.803L17.9045 54.5206L19.2695 54.0027L21.199 52.8733L23.317 50.8025L24.3995 48.8727L24.9171 47.4608L25.1996 46.0018L25.2936 44.4488L25.1053 42.8487L24.6349 41.2485L24.2582 40.4482Z" stroke="#6161FF" stroke-width="4" stroke-miterlimit="10" stroke-linecap="round" stroke-linejoin="round"/>
<path d="M20.7286 25.4349L19.5518 24.2582L18.7517 24.6349L17.1516 25.1053L15.5515 25.2936L13.9982 25.2467L12.5391 24.9171L11.1273 24.3995L9.19775 23.317L7.12695 21.199L5.99725 19.3164L5.47968 17.9045L5.1972 16.3986L5.15009 14.8925L5.33856 13.2924L5.80902 11.6922L6.13861 10.8922L9.29175 14.0453L9.90356 14.5631L11.1744 15.0807L12.4452 14.9867L13.5746 14.4689L14.4689 13.5746L14.9868 12.4451L15.0336 11.1744L14.5631 9.90356L14.0453 9.29175L10.8922 6.13861L11.6922 5.80902L13.2924 5.33856L14.8453 5.15002L16.3986 5.19714L17.9045 5.52679L19.2695 5.99725L21.199 7.12689L23.317 9.19775L24.3995 11.1273L24.9171 12.5391L25.1996 14.0453L25.2936 15.5515L25.1053 17.1516L24.6349 18.7517L24.2582 19.5518L25.2467 20.54" stroke="#6161FF" stroke-width="4" stroke-miterlimit="10" stroke-linecap="round" stroke-linejoin="round"/>
<path d="M39.0823 34.3297L40.4471 35.7416L41.2474 35.3652L42.8475 34.8947L44.4476 34.7062L45.9538 34.7534L47.4597 35.0829L48.8716 35.6005L50.8013 36.683L52.8722 38.801L54.0016 40.7305L54.5194 42.0953L54.8019 43.6014L54.8488 45.1076L54.6605 46.7077L54.1901 48.3079L53.8134 49.1079L50.7071 45.9548L50.0952 45.437L48.8247 44.9194L47.554 45.0133L46.4243 45.5312L45.5302 46.4252L45.0124 47.5549L44.9184 48.8257L45.436 50.0962L45.9538 50.708L49.1069 53.8615L48.3069 54.191L46.7067 54.6615L45.1066 54.8497L43.6005 54.8029L42.0943 54.5204L40.6824 54.0026L38.8001 52.8731L36.6821 50.8023L35.5524 48.8726L35.082 47.4606L34.7524 46.0016L34.7053 44.4486L34.8937 42.8485L35.3642 41.2484L35.7407 40.4481L34.3288 39.0833" stroke="#6161FF" stroke-width="4" stroke-miterlimit="10" stroke-linecap="round" stroke-linejoin="round"/>
</svg>
