<svg width="60" height="60" viewBox="0 0 60 60" fill="none" xmlns="http://www.w3.org/2000/svg">
<g clip-path="url(#clip0_1_2643)">
<path fill-rule="evenodd" clip-rule="evenodd" d="M7.35547 9.30035V9.9278L7.61694 11.183L8.40125 12.9086L10.1271 14.6344L11.8527 15.4186L13.1078 15.6802L13.7876 15.7325L14.415 15.6802L15.6703 15.4186L17.3959 14.6344L19.1213 12.9086L19.9059 11.183L20.1675 9.9278L20.2198 9.30035L20.1675 8.62054L19.9059 7.36566L19.1213 5.63977L17.3959 3.91425L15.6703 3.1297L14.415 2.86816H13.7876H13.1078L11.8527 3.1297L10.1271 3.91425L8.40125 5.63977L7.61694 7.36566L7.35547 8.62054V9.30035Z" stroke="#6161FF" stroke-width="4" stroke-miterlimit="10" stroke-linecap="round" stroke-linejoin="round"/>
<path d="M18.7559 28.5964H2.75391V27.6553L3.06775 25.8771L3.59082 24.256L4.32275 22.7919L5.78711 20.8569L8.34949 18.9222L11.3303 17.7718L14.4678 17.5103L16.8732 17.9285L18.4419 18.556L19.9062 19.3929L21.3182 20.491L21.9457 21.1708" stroke="#6161FF" stroke-width="4" stroke-miterlimit="10" stroke-linecap="round" stroke-linejoin="round"/>
<path d="M45.6346 32.4139L46.576 32.2568L48.3015 32.4139L49.8706 32.989L51.2302 33.9303L52.276 35.2376L53.0082 36.7019L53.3218 38.3754L53.1649 40.101L52.9034 40.9899L52.4851 41.8789L51.4395 43.2385L50.1318 44.2845L48.5631 44.912L46.9419 45.1735L45.3212 44.9644L43.7521 44.389L42.3403 43.2909L41.7126 42.6111" stroke="#6161FF" stroke-width="4" stroke-miterlimit="10" stroke-linecap="round" stroke-linejoin="round"/>
<path fill-rule="evenodd" clip-rule="evenodd" d="M35.8552 57.9852V56.8868L36.3259 54.6906L37.1625 52.7556L38.313 50.9777L39.8297 49.4612L41.6075 48.3108L43.5946 47.4742L45.7388 47.0035L46.8369 46.9512L47.9874 47.0035L50.1312 47.4742L52.1187 48.3108L53.8965 49.4612L55.413 50.9777L56.5635 52.7556L57.4003 54.6906L57.871 56.8868V57.9852H35.8552Z" stroke="#6161FF" stroke-width="4" stroke-miterlimit="10" stroke-linecap="round" stroke-linejoin="round"/>
<path d="M27.5935 36.8065L28.0118 37.2772L29.0579 38.114L30.2083 38.6891L31.5156 38.9506H32.1431L33.1891 38.8983L35.0193 38.3232L36.379 37.2772L37.1632 35.9175L37.2156 35.1333L37.1632 34.3488L36.379 32.9891L35.0193 31.9957L33.1891 31.4203L32.1431 31.368L31.1497 31.3156L29.3193 30.7405L27.9597 29.6948L27.1752 28.3351L27.1228 27.5507L27.1752 26.7661L27.9597 25.4065L29.3193 24.4131L31.1497 23.8377L32.1431 23.7856H32.8229L34.078 24.0469L35.2809 24.5699L36.2743 25.4065L36.6925 25.9295" stroke="#6161FF" stroke-width="4" stroke-miterlimit="10" stroke-linecap="round" stroke-linejoin="round"/>
<path d="M32.1428 38.9502V41.4603" stroke="#6161FF" stroke-width="4" stroke-miterlimit="10" stroke-linecap="round" stroke-linejoin="round"/>
<path d="M32.1428 21.2231V23.7856" stroke="#6161FF" stroke-width="4" stroke-miterlimit="10" stroke-linecap="round" stroke-linejoin="round"/>
<path d="M19.2775 45.1211L13.7866 50.6643L19.2775 56.1552" stroke="#6161FF" stroke-width="4" stroke-miterlimit="10" stroke-linecap="round" stroke-linejoin="round"/>
<path d="M13.7866 50.6641H26.6508" stroke="#6161FF" stroke-width="4" stroke-miterlimit="10" stroke-linecap="round" stroke-linejoin="round"/>
<path d="M41.3455 4.69824L46.8363 10.1891L41.3455 15.7324" stroke="#6161FF" stroke-width="4" stroke-miterlimit="10" stroke-linecap="round" stroke-linejoin="round"/>
<path d="M46.8368 10.189H33.9724" stroke="#6161FF" stroke-width="4" stroke-miterlimit="10" stroke-linecap="round" stroke-linejoin="round"/>
</g>
<defs>
<clipPath id="clip0_1_2643">
<rect width="60" height="60" fill="white"/>
</clipPath>
</defs>
</svg>
