<svg width="60" height="60" viewBox="0 0 60 60" fill="none" xmlns="http://www.w3.org/2000/svg">
<path d="M7.41467 14.8962H12.2915H52.5853" stroke="#6161FF" stroke-width="4" stroke-miterlimit="10" stroke-linecap="round" stroke-linejoin="round"/>
<path d="M47.3836 14.8962V49.9892V50.9612L47.0596 51.9331L46.0876 53.5616L44.4592 54.5335L43.4872 54.8575L42.5068 55.1815H17.4915L16.187 54.8575L15.5391 54.5335L13.9191 53.5616L12.6146 51.9331L12.2906 50.9612V49.9892V14.8962" stroke="#6161FF" stroke-width="4" stroke-miterlimit="10" stroke-linecap="round" stroke-linejoin="round"/>
<path d="M19.7677 14.8963V10.0195L20.0917 8.72351L20.4157 8.067L21.3876 6.44707L23.0161 5.14259L23.9881 4.8186H24.96H35.0377H36.0097L36.9817 5.14259L38.6101 6.44707L39.5821 8.067L39.9061 8.72351V10.0195V14.8963" stroke="#6161FF" stroke-width="4" stroke-miterlimit="10" stroke-linecap="round" stroke-linejoin="round"/>
<path d="M24.9606 27.5662V42.5122" stroke="#6161FF" stroke-width="4" stroke-miterlimit="10" stroke-linecap="round" stroke-linejoin="round"/>
<path d="M35.0397 27.5662V42.5122" stroke="#6161FF" stroke-width="4" stroke-miterlimit="10" stroke-linecap="round" stroke-linejoin="round"/>
</svg>
