<svg width="60" height="60" viewBox="0 0 60 60" fill="none" xmlns="http://www.w3.org/2000/svg">
<g clip-path="url(#clip0_1_1822)">
<path fill-rule="evenodd" clip-rule="evenodd" d="M57.6199 7.41467L53.7151 9.6911L49.4946 11.3196L47.8662 9.6911L46.2462 8.71915L43.9698 7.73865L42.0173 7.41467H39.7495L37.797 8.06265L35.5206 8.71915L33.9006 10.3391L32.2722 11.9675L30.9762 13.9115L29.9957 16.5119V18.7883V21.3888L26.4233 21.0648L23.1749 20.7408L20.2505 19.7603L17.3262 18.4644L14.4017 16.8359L11.8013 14.892L9.5249 12.6155L7.25696 10.0151L6.92444 10.9871L5.95251 13.5875L5.30444 17.4924L4.98047 20.0928V22.3607L5.30444 25.2851L5.95251 27.8856L6.92444 30.486L8.22888 33.4104L10.1814 36.0108L12.7732 38.2873L16.0302 40.5552L19.9265 42.5076L15.6976 44.7841L11.4773 46.404L6.92444 47.3845L2.38013 47.7085L6.60046 49.6609L10.8293 51.2809L15.3737 51.9288L19.6025 52.5854L23.8229 52.2528L28.0518 51.6048L31.9482 50.3089L35.8446 48.6804L39.417 46.404L42.6738 43.8121L45.2657 40.8877L47.8662 37.3068L49.8186 33.0864L51.4471 28.8661L52.0951 23.9892L52.4191 18.7883V16.5119L54.0391 14.568L55.6675 12.2915L56.6394 10.0151L57.6199 7.41467Z" stroke="#6161FF" stroke-width="4" stroke-miterlimit="10" stroke-linecap="round" stroke-linejoin="round"/>
</g>
<defs>
<clipPath id="clip0_1_1822">
<rect width="60" height="60" fill="white"/>
</clipPath>
</defs>
</svg>
