<svg width="60" height="60" viewBox="0 0 60 60" fill="none" xmlns="http://www.w3.org/2000/svg">
<path d="M13.6853 22.7961L14.5441 23.6549L16.4046 25.0383L18.4082 26.1356L20.555 26.9466L22.7972 27.3759L25.0871 27.4715L27.377 27.2804L29.6669 26.6602L30.7642 26.2311" stroke="#6161FF" stroke-width="4" stroke-miterlimit="10" stroke-linecap="round" stroke-linejoin="round"/>
<path fill-rule="evenodd" clip-rule="evenodd" d="M12.3977 27.4718V28.4258L12.7793 30.2386L13.495 31.9084L14.4968 33.3395L15.7372 34.6276L17.2161 35.6294L18.8858 36.2974L20.6508 36.679L21.6051 36.7267L22.5591 36.679L24.3719 36.2974L25.9941 35.6294L27.4731 34.6276L28.7609 33.3395L29.7152 31.9084L30.4306 30.2386L30.8123 28.4258L30.86 27.4718L30.8123 26.5175L30.4306 24.7525L29.7152 23.0828L28.7609 21.6039L27.4731 20.3635L25.9941 19.3618L24.3719 18.646L22.5591 18.3122L21.6051 18.2644L20.6508 18.3122L18.8858 18.646L17.2161 19.3618L15.7372 20.3635L14.4968 21.6039L13.495 23.0828L12.7793 24.7525L12.3977 26.5175V27.4718Z" stroke="#6161FF" stroke-width="4" stroke-miterlimit="10" stroke-linecap="round" stroke-linejoin="round"/>
<path fill-rule="evenodd" clip-rule="evenodd" d="M4.85861 29.9999V31.288L5.09718 33.8165L5.6221 36.2972L6.33754 38.6349L7.29182 40.9248L8.48442 43.0717L9.82004 45.0753L11.3467 46.9358L13.0642 48.6055L14.9248 50.1797L16.9283 51.5156L19.0752 52.7082L21.3651 53.6625L23.7028 54.3779L26.1835 54.8551L28.712 55.1414H29.9998H31.288L33.8165 54.8551L36.2972 54.3779L38.6349 53.6625L40.9248 52.7082L43.0717 51.5156L45.0752 50.1797L46.9358 48.6055L48.6055 46.9358L50.1797 45.0753L51.5156 43.0717L52.6604 40.9248L53.6147 38.6349L54.3779 36.2972L54.855 33.8165L55.1414 31.288V29.9999V28.712L54.855 26.1836L54.3779 23.7029L53.6147 21.3652L52.6604 19.0753L51.5156 16.9284L50.1797 14.9248L48.6055 13.0643L46.9358 11.3945L45.0752 9.82007L43.0717 8.48444L40.9248 7.29187L38.6349 6.33755L36.2972 5.62213L33.8165 5.14499L31.288 4.85864H29.9998H28.712L26.1835 5.14499L23.7028 5.62213L21.3651 6.33755L19.0752 7.29187L16.9283 8.48444L14.9248 9.82007L13.0642 11.3945L11.3467 13.0643L9.82004 14.9248L8.48442 16.9284L7.29182 19.0753L6.33754 21.3652L5.6221 23.7029L5.09718 26.1836L4.85861 28.712V29.9999Z" stroke="#6161FF" stroke-width="4" stroke-miterlimit="10" stroke-linecap="round" stroke-linejoin="round"/>
<path d="M36.6781 54.2832L36.5828 52.9951L36.0579 50.6574L35.1992 48.5105L34.1021 46.5547L32.7184 44.8372L31.0965 43.3583L29.3315 42.1657L27.4232 41.2114L25.3718 40.4959L23.225 40.1143L21.0781 40.0188L18.9315 40.2574L16.7846 40.7823L14.7333 41.6408L12.7772 42.8811L10.9167 44.4556L10.1057 45.4096" stroke="#6161FF" stroke-width="4" stroke-miterlimit="10" stroke-linecap="round" stroke-linejoin="round"/>
<path fill-rule="evenodd" clip-rule="evenodd" d="M36.7273 32.5284V33.1007L36.9659 34.2458L37.6813 35.82L39.2558 37.3945L40.83 38.11L41.9751 38.3485L42.5952 38.3963L43.1676 38.3485L44.3127 38.11L45.8869 37.3945L47.4611 35.82L48.1768 34.2458L48.4154 33.1007L48.4632 32.5284L48.4154 31.9082L48.1768 30.7633L47.4611 29.1889L45.8869 27.6147L44.3127 26.899L43.1676 26.6604H42.5952H41.9751L40.83 26.899L39.2558 27.6147L37.6813 29.1889L36.9659 30.7633L36.7273 31.9082V32.5284Z" stroke="#6161FF" stroke-width="4" stroke-miterlimit="10" stroke-linecap="round" stroke-linejoin="round"/>
<path d="M50.7524 44.2648L49.8459 43.1197L47.7945 41.45L45.4091 40.4482L42.9284 40.0188L40.3999 40.2574L38.0147 41.1161L35.8678 42.5473L34.1503 44.5508L33.4827 45.839" stroke="#6161FF" stroke-width="4" stroke-miterlimit="10" stroke-linecap="round" stroke-linejoin="round"/>
</svg>
