<svg width="60" height="60" viewBox="0 0 60 60" fill="none" xmlns="http://www.w3.org/2000/svg">
<path d="M50.1469 52.581V47.3886L49.8229 45.4362L49.4989 43.4837L48.527 41.8638L47.2225 40.2353L45.6026 39.2634L43.9741 38.2914L42.0216 37.6349L40.0777 37.3109H19.9308L17.9784 37.6349L16.0344 38.2914L14.406 39.2634L12.7775 40.2353L11.8056 41.8638L10.8336 43.4837L10.1856 45.4362L9.8531 47.3886V52.581" stroke="#6161FF" stroke-width="4" stroke-miterlimit="10" stroke-linecap="round" stroke-linejoin="round"/>
<path fill-rule="evenodd" clip-rule="evenodd" d="M29.9999 7.41907H31.9524L33.9048 8.06705L35.5248 9.04752L37.1532 10.3435L38.4492 11.6479L39.4211 13.5919L39.7536 15.2203L40.0776 17.4968L39.7536 19.4407L39.4211 21.3932L38.4492 23.0131L37.1532 24.3176L35.5248 25.6135L33.9048 26.594L31.9524 27.242L29.9999 27.5659L28.056 27.242L26.1035 26.594L24.4751 25.6135L22.8552 24.3176L21.8747 23.0131L20.9027 21.3932L20.2547 19.4407L19.9307 17.4968L20.2547 15.2203L20.9027 13.5919L21.8747 11.6479L22.8552 10.3435L24.4751 9.04752L26.1035 8.06705L28.056 7.41907H29.9999Z" stroke="#6161FF" stroke-width="4" stroke-miterlimit="10" stroke-linecap="round" stroke-linejoin="round"/>
</svg>
