<svg width="60" height="60" viewBox="0 0 60 60" fill="none" xmlns="http://www.w3.org/2000/svg">
<path d="M4.80043 34.6108V54.7432" stroke="#6161FF" stroke-width="4" stroke-miterlimit="10" stroke-linecap="round" stroke-linejoin="round"/>
<path d="M4.80043 51.4039H38.3381L38.2903 50.736L38.0518 49.4001L37.5271 48.2075L36.8114 47.1102L35.9052 46.2039L34.8078 45.4882L33.6152 45.011L32.3271 44.725L31.6114 44.6772H23.2153V44.0093L22.9289 42.6736L22.4518 41.4808L21.6886 40.4312L20.782 39.525L19.7325 38.8093L18.5399 38.2846L17.2043 37.9983H16.5363H4.80043" stroke="#6161FF" stroke-width="4" stroke-miterlimit="10" stroke-linecap="round" stroke-linejoin="round"/>
<path d="M16.5344 44.6772H23.2133" stroke="#6161FF" stroke-width="4" stroke-miterlimit="10" stroke-linecap="round" stroke-linejoin="round"/>
<path fill-rule="evenodd" clip-rule="evenodd" d="M31.6092 13.6679V14.6219L31.9911 16.4349L32.7065 18.0569L33.7083 19.5358L34.9487 20.7762L36.4276 21.778L38.0495 22.4937L39.8626 22.8753H40.8166H41.7709L43.5837 22.4937L45.2056 21.778L46.6846 20.7762L47.9249 19.5358L48.9267 18.0569L49.6424 16.4349L50.024 14.6219V13.6679V12.7138L49.6424 10.9008L48.9267 9.27884L47.9249 7.79993L46.6846 6.55957L45.2056 5.55777L43.5837 4.84207L41.7709 4.46045H40.8166H39.8626L38.0495 4.84207L36.4276 5.55777L34.9487 6.55957L33.7083 7.79993L32.7065 9.27884L31.9911 10.9008L31.6092 12.7138V13.6679Z" stroke="#6161FF" stroke-width="4" stroke-miterlimit="10" stroke-linecap="round" stroke-linejoin="round"/>
<path d="M55.0347 36.3284L54.6053 35.1836L53.5079 33.1319L52.1246 31.2714L50.4548 29.6972L48.5943 28.3613L46.543 27.3595L44.3483 26.6441L42.0106 26.2622H40.818H39.6254L37.2878 26.6441L35.0934 27.3595L33.0418 28.3613L31.1812 29.6972L29.5115 31.2714L28.1281 33.1319L27.0308 35.1836L26.6014 36.3284" stroke="#6161FF" stroke-width="4" stroke-miterlimit="10" stroke-linecap="round" stroke-linejoin="round"/>
</svg>
