<svg width="60" height="60" viewBox="0 0 60 60" fill="none" xmlns="http://www.w3.org/2000/svg">
<g clip-path="url(#clip0_1_1598)">
<path d="M19.8486 47.1318V52.0087" stroke="#6161FF" stroke-width="4" stroke-miterlimit="10" stroke-linecap="round" stroke-linejoin="round"/>
<path d="M19.8486 31.8613V37.0622" stroke="#6161FF" stroke-width="4" stroke-miterlimit="10" stroke-linecap="round" stroke-linejoin="round"/>
<path d="M39.9971 47.1318V52.0087" stroke="#6161FF" stroke-width="4" stroke-miterlimit="10" stroke-linecap="round" stroke-linejoin="round"/>
<path d="M39.9971 31.8613V37.0622" stroke="#6161FF" stroke-width="4" stroke-miterlimit="10" stroke-linecap="round" stroke-linejoin="round"/>
<path d="M29.9258 52.0083V57.2092" stroke="#6161FF" stroke-width="4" stroke-miterlimit="10" stroke-linecap="round" stroke-linejoin="round"/>
<path d="M29.9258 37.0625V41.9308" stroke="#6161FF" stroke-width="4" stroke-miterlimit="10" stroke-linecap="round" stroke-linejoin="round"/>
<path d="M50.0643 40.9586L51.6927 39.9866L52.9888 39.0061L54.2932 38.0342L55.2651 36.4057L56.2372 35.1097L56.8937 33.4813L57.2177 31.8614L57.5416 30.2329V28.6129L57.2177 26.6605L56.5697 25.0406L55.9132 23.4121L54.9412 21.7922L53.6453 20.1637L52.0167 18.8678L50.0643 17.5633L48.7684 16.9153H47.4639H41.6151L40.9672 14.3149L39.6711 12.0385L38.3667 9.76199L36.7467 7.81808L34.7943 6.18961L32.5178 4.56967L30.574 3.5892L27.9735 2.61722L25.373 1.96924H23.0967H20.1722L17.5718 2.29324L14.9714 3.2652L12.3795 4.56967L9.77905 6.18961L7.50256 8.14206L5.87415 9.76199L4.90222 11.7144L3.93018 13.6669L2.62573 17.5633L2.30176 21.4597L2.62573 25.3646L3.6062 28.937L4.90222 32.1853L7.17859 35.1097L9.77905 37.7102" stroke="#6161FF" stroke-width="4" stroke-miterlimit="10" stroke-linecap="round" stroke-linejoin="round"/>
</g>
<defs>
<clipPath id="clip0_1_1598">
<rect width="60" height="60" fill="white"/>
</clipPath>
</defs>
</svg>
