<svg width="60" height="60" viewBox="0 0 60 60" fill="none" xmlns="http://www.w3.org/2000/svg">
<path fill-rule="evenodd" clip-rule="evenodd" d="M7.75824 6.57764H51.8942H52.3648L54.4043 7.41449L55.2408 8.51263L55.5547 9.61072V10.2382V50.7136V51.1843L54.7178 53.2237L53.6198 54.0602L52.574 54.3218L51.8942 54.3741H7.75824H7.28754L5.24811 53.5372L4.41156 52.4391L4.09766 51.341V50.7136V10.2382V9.76752L4.93457 7.72809L6.03265 6.89148L7.07843 6.63L7.75824 6.57764Z" stroke="#6161FF" stroke-width="4" stroke-miterlimit="10" stroke-linecap="round" stroke-linejoin="round"/>
<path d="M4.09766 17.6118H55.5547" stroke="#6161FF" stroke-width="4" stroke-miterlimit="10" stroke-linecap="round" stroke-linejoin="round"/>
<path d="M29.8267 32.3062V39.6796" stroke="#6161FF" stroke-width="4" stroke-miterlimit="10" stroke-linecap="round" stroke-linejoin="round"/>
<path fill-rule="evenodd" clip-rule="evenodd" d="M27.9963 24.9849H31.6569H31.9184L32.9121 25.4035L33.4351 26.1877L33.4872 26.8152V30.4757V30.6849L33.0688 31.731L32.2846 32.254L31.6569 32.306H27.9963H27.7351L26.7414 31.8877L26.2184 31.1035L26.166 30.4757V26.8152V26.554L26.5847 25.5602L27.3689 25.0372L27.9963 24.9849Z" stroke="#6161FF" stroke-width="4" stroke-miterlimit="10" stroke-linecap="round" stroke-linejoin="round"/>
<path fill-rule="evenodd" clip-rule="evenodd" d="M27.9963 39.6797H31.6569H31.9184L32.9121 40.098L33.4351 40.8825L33.4872 41.5099V45.1705V45.4321L33.0688 46.4254L32.2846 46.9485L31.6569 47.0009H27.9963H27.7351L26.7414 46.5825L26.2184 45.798L26.166 45.1705V41.5099V41.3008L26.5847 40.2551L27.3689 39.7321L27.9963 39.6797Z" stroke="#6161FF" stroke-width="4" stroke-miterlimit="10" stroke-linecap="round" stroke-linejoin="round"/>
<path fill-rule="evenodd" clip-rule="evenodd" d="M13.3026 39.6797H16.9631H17.1723L18.2181 40.098L18.7411 40.8825L18.7935 41.5099V45.1705V45.4321L18.3751 46.4254L17.5906 46.9485L16.9631 47.0009H13.3026H13.0411L11.9954 46.5825L11.5247 45.798L11.4199 45.1705V41.5099V41.3008L11.8906 40.2551L12.6752 39.7321L13.3026 39.6797Z" stroke="#6161FF" stroke-width="4" stroke-miterlimit="10" stroke-linecap="round" stroke-linejoin="round"/>
<path fill-rule="evenodd" clip-rule="evenodd" d="M42.6916 39.6797H46.3522H46.6137L47.6594 40.098L48.1301 40.8825L48.2348 41.5099V45.1705V45.4321L47.7642 46.4254L46.9796 46.9485L46.3522 47.0009H42.6916H42.4825L41.4364 46.5825L40.9137 45.798L40.8613 45.1705V41.5099V41.3008L41.2797 40.2551L42.0641 39.7321L42.6916 39.6797Z" stroke="#6161FF" stroke-width="4" stroke-miterlimit="10" stroke-linecap="round" stroke-linejoin="round"/>
<path d="M26.1671 28.6455H18.7939L18.0617 28.6979L16.7021 29.2733L15.7084 30.2667L15.1857 31.5742L15.1333 32.3061V39.6796" stroke="#6161FF" stroke-width="4" stroke-miterlimit="10" stroke-linecap="round" stroke-linejoin="round"/>
<path d="M33.4863 28.6455H40.8598L41.592 28.6979L42.9516 29.2733L43.945 30.2667L44.468 31.5742L44.5204 32.3061V39.6796" stroke="#6161FF" stroke-width="4" stroke-miterlimit="10" stroke-linecap="round" stroke-linejoin="round"/>
</svg>
