<svg width="60" height="60" viewBox="0 0 60 60" fill="none" xmlns="http://www.w3.org/2000/svg">
<path fill-rule="evenodd" clip-rule="evenodd" d="M28.7677 5.30827L28.9108 5.02194L29.4357 4.7356H30.0081L30.5327 5.02194L30.676 5.30827L32.9659 9.88783L33.1089 10.0789L33.4905 10.4127L33.7769 10.4605L38.8339 11.1759L39.1199 11.2715L39.5493 11.6053L39.6923 11.8917L39.7401 12.1777L39.5971 12.7504L39.4063 12.989L35.7805 16.5668L35.5897 16.7576L35.4467 17.2347V17.4733L36.3054 22.5302L36.3531 22.8163L36.1146 23.3412L35.876 23.5798L35.6375 23.7228L35.0173 23.7706L34.7309 23.6273L30.2466 21.2899L29.9603 21.1944H29.4834L29.1971 21.2899L24.7125 23.6273L24.4265 23.7706L23.8541 23.7228L23.5677 23.5798L23.3292 23.3412L23.1383 22.8163V22.5302L23.9971 17.4733L24.0449 17.2347L23.8541 16.7576L23.7108 16.5668L20.0374 12.989L19.8466 12.7504L19.7036 12.1777L19.7511 11.8917L19.8944 11.6053L20.3238 11.2715L20.6099 11.1759L25.6668 10.4605L25.9532 10.4127L26.3348 10.0789L26.4778 9.88783L28.7677 5.30827Z" stroke="#6161FF" stroke-width="4" stroke-miterlimit="10" stroke-linecap="round" stroke-linejoin="round"/>
<path d="M17.0348 25.631L15.079 24.6292L14.8405 24.5337H14.3155L14.0772 24.6292L9.59268 26.9666L9.30661 27.0622H8.68643L8.44791 26.8714L8.20932 26.6806L7.97073 26.1557L8.01852 25.8696L8.87723 20.8126V20.5741L8.73392 20.0969L8.54312 19.9061L4.86984 16.3284L4.67905 16.0898L4.53574 15.5171L4.63126 15.231L4.72678 14.9925L5.2037 14.6109L5.49002 14.5153L10.547 13.7999L10.7853 13.7521L11.2146 13.4183L11.3579 13.2272L13.6479 8.64737L13.7909 8.40907L14.268 8.07495H14.6019" stroke="#6161FF" stroke-width="4" stroke-miterlimit="10" stroke-linecap="round" stroke-linejoin="round"/>
<path d="M42.4139 25.631L44.37 24.6292L44.6085 24.5337H45.1332L45.3718 24.6292L49.8563 26.9666L50.1424 27.0622H50.7626L51.0011 26.8714L51.2397 26.6806L51.4783 26.1557L51.4305 25.8696L50.5718 20.8126V20.5741L50.7148 20.0969L50.9059 19.9061L54.5792 16.3284L54.77 16.0898L54.913 15.5171L54.8177 15.231L54.7222 14.9447L54.2453 14.5631L53.959 14.5153L48.902 13.7999L48.6635 13.7043L48.2341 13.4183L48.0911 13.1797L45.8489 8.64737L45.6581 8.40907L45.181 8.07495H44.8471" stroke="#6161FF" stroke-width="4" stroke-miterlimit="10" stroke-linecap="round" stroke-linejoin="round"/>
<path d="M40.9828 55.0184L39.7902 53.7778L37.2139 51.8697L34.3039 50.6294L31.2985 49.9614H28.1976L25.1442 50.6294L22.2341 51.8697L19.6581 53.7778L18.4656 55.0184" stroke="#6161FF" stroke-width="4" stroke-miterlimit="10" stroke-linecap="round" stroke-linejoin="round"/>
<path fill-rule="evenodd" clip-rule="evenodd" d="M20.5158 37.3192V38.2733L20.8974 40.086L21.6129 41.7558L22.6149 43.2347L23.8553 44.475L25.3339 45.4768L26.9562 46.1448L28.7689 46.5264L29.723 46.5741L30.6772 46.5264L32.49 46.1448L34.1119 45.4768L35.5909 44.475L36.8312 43.2347L37.833 41.7558L38.5488 40.086L38.9304 38.2733V37.3192V36.4127L38.5488 34.5999L37.833 32.9302L36.8312 31.4513L35.5909 30.2109L34.1119 29.2091L32.49 28.4934L30.6772 28.1596L29.723 28.1118L28.7689 28.1596L26.9562 28.4934L25.3339 29.2091L23.8553 30.2109L22.6149 31.4513L21.6129 32.9302L20.8974 34.5999L20.5158 36.4127V37.3192Z" stroke="#6161FF" stroke-width="4" stroke-miterlimit="10" stroke-linecap="round" stroke-linejoin="round"/>
</svg>
