<svg width="60" height="60" viewBox="0 0 60 60" fill="none" xmlns="http://www.w3.org/2000/svg">
<path d="M23.9935 11.4818L24.6414 10.8252L25.6133 10.5013L27.5659 9.85327L29.5182 10.5013L30.1662 10.8252L31.1382 11.4818L31.7862 12.1297L32.1102 13.1017L32.4427 15.0541L32.1102 16.998L31.7862 17.6545L31.1382 18.6265L30.4902 19.2745L29.5182 19.5985L28.5378 19.9225H27.5659H4.81854" stroke="#6161FF" stroke-width="4" stroke-miterlimit="10" stroke-linecap="round" stroke-linejoin="round"/>
<path d="M31.4622 48.5183L32.4427 49.1663L33.0906 49.8143L35.0346 50.1468L36.987 49.8143L37.9589 49.4903L38.6155 48.8423L39.2635 47.8704L39.5875 46.8899L40.2354 45.2699L39.5875 43.3175L39.2635 42.3455L38.6155 41.6975L37.9589 41.0496L36.987 40.3931L36.0151 40.0691H35.0346H4.81854" stroke="#6161FF" stroke-width="4" stroke-miterlimit="10" stroke-linecap="round" stroke-linejoin="round"/>
<path d="M44.4643 19.2745L45.4362 18.6265L46.4083 17.9785L47.7127 17.6545H49.0086H49.9807L51.2851 17.9785L52.257 18.6265L53.2375 19.2745L54.2095 20.2465L54.5335 21.5509L55.1815 22.5229V23.8274L54.8575 25.1233L54.5335 26.0953L54.2095 27.3997L53.2375 28.3717L52.257 29.0197L51.2851 29.6762L49.9807 30.0002H49.0086H4.81854" stroke="#6161FF" stroke-width="4" stroke-miterlimit="10" stroke-linecap="round" stroke-linejoin="round"/>
</svg>
