<svg width="394" height="62" viewBox="0 0 394 62" fill="none" xmlns="http://www.w3.org/2000/svg">
<path d="M7.81464 45.6566C4.97405 45.6566 2.36379 44.1987 0.98188 41.7432C-0.400026 39.3645 -0.323252 36.4487 1.2122 34.1467L15.3383 12.5847C16.797 10.2059 19.4841 8.82474 22.3246 8.90147C25.1652 8.97821 27.7755 10.5129 29.0806 12.9683C30.3858 15.4238 30.2322 18.3396 28.6968 20.5649L14.4938 42.1269C13.0352 44.2754 10.5017 45.6566 7.81464 45.6566Z" fill="#FB275D"/>
<path d="M31.8439 45.6565C29.0033 45.6565 26.3931 44.1985 25.0112 41.8198C23.6293 39.4411 23.706 36.5252 25.2415 34.2232L39.3676 12.6612C40.8263 10.2825 43.4366 8.82459 46.354 8.90132C49.2713 8.97806 51.8048 10.5127 53.1099 12.9682C54.4151 15.4236 54.2615 18.3395 52.5725 20.6415L38.4464 42.1268C37.0645 44.2753 34.531 45.6565 31.8439 45.6565Z" fill="#FFCC00"/>
<path d="M55.3386 45.6555C59.6379 45.6555 63.1694 42.1258 63.1694 37.8287C63.1694 33.5317 59.6379 30.002 55.3386 30.002C51.0393 30.002 47.5078 33.5317 47.5078 37.8287C47.5078 42.2025 50.9626 45.6555 55.3386 45.6555Z" fill="#00CA72"/>
<path d="M119.979 10.8203C124.278 10.8203 127.656 12.1248 130.19 14.7337C132.723 17.3426 134.028 20.9491 134.028 25.5531V45.6571H123.51V26.9343C123.51 24.709 122.896 23.0209 121.745 21.7931C120.593 20.5654 118.981 19.9516 116.908 19.9516C114.835 19.9516 113.223 20.5654 111.995 21.7931C110.843 23.0209 110.306 24.709 110.306 26.9343V45.6571H99.7878V26.9343C99.7878 24.709 99.1736 23.0209 98.022 21.7931C96.8704 20.5654 95.2582 19.9516 93.1853 19.9516C91.1125 19.9516 89.5003 20.5654 88.2719 21.7931C87.1203 23.0209 86.5829 24.709 86.5829 26.9343V45.6571H75.9883V11.204H86.5829V15.501C87.6577 14.0431 89.0396 12.8921 90.8054 12.1248C92.4944 11.2807 94.4905 10.8203 96.6401 10.8203C99.2504 10.8203 101.554 11.3574 103.55 12.5084C105.622 13.5827 107.235 15.1941 108.386 17.2659C109.615 15.3476 111.227 13.8129 113.3 12.6619C115.296 11.4342 117.522 10.8203 119.979 10.8203Z" fill="#333333"/>
<path d="M155.217 46.1175C151.839 46.1175 148.769 45.4269 146.082 43.969C143.395 42.5111 141.322 40.4393 139.709 37.8304C138.174 35.1447 137.406 31.9986 137.406 28.4689C137.406 24.9392 138.174 21.7931 139.786 19.1842C141.322 16.4986 143.471 14.4268 146.235 12.9688C148.922 11.5109 151.993 10.8203 155.371 10.8203C158.749 10.8203 161.82 11.5109 164.507 12.9688C167.194 14.4268 169.344 16.4986 170.956 19.1842C172.491 21.8699 173.336 24.9392 173.336 28.4689C173.336 31.9986 172.491 35.1447 170.956 37.8304C169.42 40.516 167.194 42.5878 164.507 43.969C161.666 45.4269 158.595 46.1175 155.217 46.1175ZM155.217 36.9863C157.214 36.9863 158.979 36.219 160.361 34.761C161.82 33.3031 162.511 31.1546 162.511 28.3922C162.511 25.6298 161.82 23.558 160.438 22.0233C159.056 20.5654 157.367 19.7981 155.371 19.7981C153.298 19.7981 151.609 20.5654 150.227 22.0233C148.845 23.4813 148.231 25.5531 148.231 28.3922C148.231 31.1546 148.922 33.2264 150.227 34.761C151.532 36.219 153.221 36.9863 155.217 36.9863Z" fill="#333333"/>
<path d="M197.981 10.8203C202.05 10.8203 205.198 12.1248 207.578 14.7337C210.034 17.3426 211.263 20.8723 211.263 25.4763V45.5804H200.745V26.9343C200.745 24.6323 200.131 22.8674 198.979 21.5629C197.751 20.2585 196.215 19.6446 194.142 19.6446C192.146 19.6446 190.534 20.2585 189.306 21.5629C188.077 22.8674 187.54 24.6323 187.54 26.9343V45.6571H176.945V11.204H187.54V15.7312C188.615 14.1966 190.073 13.0456 191.839 12.1248C193.682 11.2807 195.755 10.8203 197.981 10.8203Z" fill="#333333"/>
<path d="M214.641 28.3145C214.641 24.7848 215.332 21.6387 216.637 19.0298C218.019 16.3441 219.861 14.2724 222.164 12.8912C224.468 11.4332 227.078 10.7426 229.842 10.7426C232.145 10.7426 234.141 11.203 235.983 12.2006C237.903 13.1214 239.361 14.4258 240.436 16.0372V0H251.031V45.6562H240.436V40.7453C239.438 42.3567 238.056 43.7379 236.214 44.7354C234.371 45.7329 232.298 46.1933 229.842 46.1933C227.001 46.1933 224.468 45.5027 222.164 44.0448C219.861 42.5869 218.019 40.5151 216.637 37.8294C215.332 34.9903 214.641 31.8442 214.641 28.3145ZM240.436 28.3912C240.436 25.7823 239.668 23.7105 238.21 22.1759C236.751 20.6412 234.985 19.8739 232.912 19.8739C230.84 19.8739 228.997 20.6412 227.538 22.1759C226.08 23.6338 225.389 25.7056 225.389 28.3145C225.389 30.9234 226.08 33.072 227.538 34.6066C228.997 36.1413 230.84 36.9086 232.912 36.9086C234.985 36.9086 236.751 36.1413 238.21 34.6066C239.745 33.072 240.436 31.0769 240.436 28.3912Z" fill="#333333"/>
<path d="M254.715 28.3141C254.715 24.7843 255.406 21.6383 256.711 19.0294C258.093 16.3437 259.935 14.2719 262.239 12.8907C264.542 11.4328 267.152 10.7422 269.916 10.7422C272.373 10.7422 274.445 11.2026 276.288 12.2001C278.13 13.1976 279.589 14.5021 280.51 16.1135V11.2026H291.105V45.6557H280.51V40.8216C279.512 42.433 278.054 43.7374 276.211 44.7349C274.369 45.7325 272.296 46.1929 269.839 46.1929C267.075 46.1929 264.465 45.5023 262.162 44.0443C259.859 42.5864 258.016 40.5146 256.634 37.829C255.329 34.9898 254.715 31.8438 254.715 28.3141ZM280.51 28.3908C280.51 25.7819 279.743 23.7101 278.284 22.1754C276.825 20.6408 275.06 19.8734 272.987 19.8734C270.914 19.8734 269.071 20.6408 267.613 22.1754C266.154 23.6333 265.463 25.7051 265.463 28.3141C265.463 30.923 266.154 33.0715 267.613 34.6062C269.071 36.1408 270.914 36.9082 272.987 36.9082C275.06 36.9082 276.825 36.1408 278.284 34.6062C279.743 33.0715 280.51 31.0765 280.51 28.3908Z" fill="#333333"/>
<path d="M332.026 11.2037L310.453 62.001H299.091L306.999 44.5058L292.949 11.2037H304.772L312.757 32.689L320.664 11.127L332.026 11.2037Z" fill="#333333"/>
<path d="M325.655 46.039C324.733 46.039 323.966 45.7321 323.275 45.195C322.661 44.5811 322.354 43.8905 322.354 42.9697C322.354 42.1257 322.661 41.3583 323.275 40.8212C323.889 40.2073 324.657 39.9004 325.655 39.9004C326.576 39.9004 327.344 40.2073 327.958 40.8212C328.572 41.3583 328.879 42.1257 328.879 42.9697C328.879 43.8138 328.572 44.5811 327.958 45.195C327.344 45.7321 326.576 46.039 325.655 46.039Z" fill="#333333"/>
<path d="M333.254 38.0603C333.254 36.4489 333.561 35.0677 334.252 33.84C334.943 32.6123 335.787 31.6915 336.939 31.0776C338.091 30.387 339.396 30.0801 340.931 30.0801C342.85 30.0801 344.463 30.5405 345.691 31.538C346.919 32.4588 347.841 33.84 348.225 35.5281H344.002C343.772 34.8375 343.388 34.3004 342.85 33.9935C342.313 33.6098 341.699 33.3796 340.931 33.3796C339.78 33.3796 338.935 33.7633 338.244 34.6073C337.553 35.3747 337.246 36.5257 337.246 38.0603C337.246 39.5182 337.553 40.6692 338.244 41.5133C338.935 42.2806 339.78 42.741 340.931 42.741C342.543 42.741 343.541 42.0504 344.002 40.5925H348.225C347.764 42.2806 346.919 43.5851 345.691 44.5826C344.463 45.5802 342.85 46.0406 340.931 46.0406C339.472 46.0406 338.091 45.7336 336.939 45.043C335.787 44.3524 334.866 43.4316 334.252 42.2806C333.561 41.0529 333.254 39.595 333.254 38.0603Z" fill="#333333"/>
<path d="M357.36 46.0392C355.901 46.0392 354.52 45.7322 353.368 45.0416C352.216 44.351 351.218 43.4302 350.527 42.2025C349.836 40.9748 349.529 39.5936 349.529 37.9822C349.529 36.3708 349.913 34.9896 350.604 33.7619C351.295 32.5341 352.293 31.6133 353.521 30.9995C354.75 30.3089 356.055 30.002 357.59 30.002C359.126 30.002 360.431 30.3089 361.659 30.9995C362.888 31.6133 363.809 32.6109 364.5 33.7619C365.191 34.9896 365.575 36.3708 365.575 37.9822C365.575 39.5936 365.191 40.9748 364.5 42.2025C363.809 43.4302 362.811 44.351 361.583 45.0416C360.277 45.6555 358.896 46.0392 357.36 46.0392ZM357.36 42.5862C358.051 42.5862 358.742 42.4327 359.356 42.049C359.97 41.6654 360.508 41.205 360.892 40.5144C361.276 39.8238 361.429 38.9797 361.429 37.9822C361.429 36.5243 361.045 35.3733 360.277 34.6059C359.51 33.8386 358.588 33.3782 357.437 33.3782C356.285 33.3782 355.364 33.7619 354.596 34.6059C353.829 35.3733 353.445 36.5243 353.445 37.9822C353.445 39.4401 353.829 40.5911 354.52 41.3584C355.364 42.2025 356.285 42.5862 357.36 42.5862Z" fill="#333333"/>
<path d="M386.995 30.0801C388.914 30.0801 390.449 30.6939 391.601 31.8449C392.752 32.9959 393.367 34.6073 393.367 36.6791V45.7336H389.451V37.2163C389.451 35.9885 389.144 35.0677 388.53 34.4539C387.916 33.84 387.071 33.4563 385.996 33.4563C384.922 33.4563 384.077 33.7633 383.463 34.4539C382.849 35.0677 382.542 35.9885 382.542 37.2163V45.7336H378.626V37.2163C378.626 35.9885 378.319 35.0677 377.705 34.4539C377.091 33.84 376.246 33.4563 375.172 33.4563C374.097 33.4563 373.252 33.7633 372.561 34.4539C371.947 35.0677 371.64 35.9885 371.64 37.2163V45.7336H367.725V30.3103H371.64V32.1519C372.101 31.538 372.792 31.0009 373.559 30.6172C374.327 30.2335 375.248 30.0801 376.17 30.0801C377.398 30.0801 378.473 30.3103 379.394 30.8474C380.315 31.3845 381.083 32.0751 381.62 32.9959C382.158 32.0751 382.849 31.3845 383.77 30.8474C384.845 30.3103 385.92 30.0801 386.995 30.0801Z" fill="#333333"/>
</svg>
